<svg xmlns="http://www.w3.org/2000/svg" xmlns:xlink="http://www.w3.org/1999/xlink" version="1.1" width="1626.948" height="2045.8342" viewBox="0 0 1626.948 2045.8342">
<g id="layer_1" data-name="Layer 1">
<path transform="matrix(1,0,0,-1,0,2045.8342)" d="M828.78659 1650.8147C828.78659 1650.8147 826.4065 1598.6334 830.3226 1573.038 835.3075 1540.4567 863.8635 1505.032 891.85299 1484.9913 923.54806 1462.2976 946.70138 1451.134 979.5576 1447.2057 993.38479 1445.5525 1047.8754 1449.5314 1059.4509 1453.0394 1096.8178 1464.364 1131.4415 1496.3316 1159.989 1529.0919 1165.566 1535.492 1186.2748 1584.7472 1186.9732 1593.2731 1188.9243 1617.0912 1187.3956 1650.8147 1187.3956 1650.8147H828.78659Z" fill-rule="evenodd"/>
<path transform="matrix(1,0,0,-1,0,2045.8342)" d="M1012.37399 1665.5684 1198.6248 1666.2764C1205.8106 1666.3037 1207.15 1666.6683 1212.0187 1669.9234 1215.6305 1672.338 1219.0619 1675.5438 1221.5797 1678.7003 1234.6953 1695.1434 1215.331 1702.0454 1199.4009 1722.7418 1188.0858 1737.4424 1187.0339 1757.6229 1179.5774 1781.1038 1173.2653 1800.9811 1163.4619 1820.1116 1149.4988 1834.5055 1138.8901 1845.4414 1121.576 1860.2614 1121.576 1860.2614 1121.576 1860.2614 1108.4547 1836.565 1098.1328 1830.0792 1093.9061 1827.4235 1089.2633 1827.7488 1085.5353 1830.0792 1071.3493 1838.9468 1081.5238 1852.8882 1077.4179 1872.8814 1076.1338 1879.134 1068.4829 1889.577 1064.9978 1889.8341 1063.4697 1889.9468 1060.4147 1891.9125 1058.7776 1892.5885 1052.0798 1895.354 1042.7282 1896.2361 1035.8005 1896.158 1017.6097 1895.953 1030.3612 1857.2702 1026.4067 1844.8187 1024.4481 1838.6515 1017.1178 1829.9994 1012.37399 1828.0798L1011.20138 1828.1538C1006.45419 1830.2122 999.27957 1838.7274 997.345 1844.8187 993.3905 1857.2702 1006.1421 1895.953 987.9512 1896.158 981.0236 1896.2361 971.67196 1895.354 964.9742 1892.5885 963.3371 1891.9125 960.28207 1889.9468 958.75399 1889.8341 955.2688 1889.577 947.618 1879.134 946.33389 1872.8814 942.2279 1852.8882 952.40249 1838.9468 938.21646 1830.0792 934.4884 1827.7488 929.8456 1827.4235 925.61898 1830.0792 915.29708 1836.565 902.17568 1860.2614 902.17568 1860.2614 902.17568 1860.2614 884.8616 1845.4414 874.253 1834.5055 860.2898 1820.1116 850.48648 1800.9811 844.1743 1781.1038 836.7178 1757.6229 835.6659 1737.4424 824.3508 1722.7418 808.4207 1702.0454 789.0564 1695.1434 802.17208 1678.7003 804.6898 1675.5438 808.1213 1672.338 811.7331 1669.9234 816.60177 1666.6683 817.94119 1666.3037 825.127 1666.2764L1011.20138 1665.569 1012.37399 1665.5684Z" fill-rule="evenodd"/>
<path transform="matrix(1,0,0,-1,0,2045.8342)" d="M1242.0319 1410.9443V1230.736L1413.9641 1217.2117 1423.5293 1216.105 1597.7005 1201.2149 1626.2216 1628.973C1626.7387 1635.175 1626.98 1641.4047 1626.9446 1647.6365 1626.6696 1654.083 1625.7218 1660.461 1624.1227 1666.6299 1621.299 1679.686 1616.1552 1691.8849 1609.0325 1702.4179 1600.9214 1714.2754 1590.5554 1723.7103 1578.7754 1729.9573 1558.2007 1740.9667 1535.8344 1744.1493 1513.774 1739.7095 1504.9816 1738.0018 1496.5101 1734.4887 1488.7453 1729.3295 1473.6364 1718.6139 1455.739 1695.1533 1450.5763 1673.549 1448.3252 1664.1293 1447.5087 1651.9579 1446.8508 1641.6144L1430.6448 1398.5576 1430.3757 1396.1929 1427.7239 1396.3378 1242.0319 1410.9443Z" fill-rule="evenodd"/>
<path transform="matrix(1,0,0,-1,0,2045.8342)" d="M1243.2139 969.0251H779.73788V879.364H1243.2139V969.0251Z" fill-rule="evenodd"/>
<path transform="matrix(1,0,0,-1,0,2045.8342)" d="M1243.2139 1130.1981H779.73788V1040.537H1243.2139V1130.1981Z" fill-rule="evenodd"/>
<path transform="matrix(1,0,0,-1,0,2045.8342)" d="M981.3105 735.3497H1042.4645V1399.604H981.3105V735.3497Z" fill-rule="evenodd"/>
<path transform="matrix(1,0,0,-1,0,2045.8342)" d="M884.9264 1399.5892 1138.8485 1400.0934 1012.323 1179.4136 884.9264 1399.5892Z" fill-rule="evenodd"/>
<path transform="matrix(1,0,0,-1,0,2045.8342)" d="M1042.4645 735.3497H981.3105V735.3414H968.03506L766.99209 758.07766 694.5359 117.428607C693.7363 111.4141 693.2524 105.36183 693.08609 99.2967 693.18777 93.0132 694.06399 86.769939 695.6948 80.70474 698.5029 67.89006 704.0028 55.818605 711.8299 45.2905 720.7476 33.434907 732.3344 23.848246 745.6503 17.308192 768.90457 5.78953 794.47537 1.816441 819.9479 5.272201 830.0983 6.589336 839.9402 9.675977 849.0257 14.391841 866.7265 24.226513 888.05166 46.353334 894.696 67.17292 897.593 76.25051 898.9346 88.06174 900.0333 98.10051L969.803 710.0847H1053.5574L1124.1434 98.10051C1125.2422 88.06174 1126.5838 76.25051 1129.4807 67.17292 1136.125 46.353334 1157.4502 24.226513 1175.151 14.391841 1184.2365 9.675977 1194.0784 6.589336 1204.2289 5.272201 1229.7013 1.816441 1255.2722 5.78953 1278.5264 17.308192 1291.8423 23.848246 1303.4291 33.434907 1312.3468 45.2905 1320.1738 55.818605 1325.6738 67.89006 1328.4818 80.70474 1330.1128 86.769939 1330.9889 93.0132 1331.0906 99.2967 1330.9243 105.36183 1330.4404 111.4141 1329.6409 117.428607L1257.1846 758.07766 1056.1417 735.3414H1042.4645V735.3497Z" fill-rule="evenodd"/>
<path transform="matrix(1,0,0,-1,0,2045.8342)" d="M238.392 1896.156H207V4.068H238.392V1896.156Z" fill="#7f7f7f" fill-rule="evenodd"/>
<path transform="matrix(1,0,0,-1,0,2045.8342)" stroke-width="8.136" stroke-linecap="butt" stroke-miterlimit="4" stroke-linejoin="miter" fill="none" stroke="#000000" d="M238.392 1896.156H207V4.068H238.392V1896.156Z"/>
<path transform="matrix(1,0,0,-1,0,2045.8342)" d="M.72 1915.2084V1731.0681L130.62584 1601.1622H314.76618L444.672 1731.0681V1915.2084L314.76618 2045.1143H130.62584L.72 1915.2084Z" fill="#ffffff" fill-rule="evenodd"/>
<path transform="matrix(1,0,0,-1,0,2045.8342)" stroke-width="1.44" stroke-linecap="butt" stroke-miterlimit="4" stroke-linejoin="miter" fill="none" stroke="#000000" d="M.72 1915.2084V1731.0681L130.62584 1601.1622H314.76618L444.672 1731.0681V1915.2084L314.76618 2045.1143H130.62584L.72 1915.2084Z"/>
<path transform="matrix(1,0,0,-1,0,2045.8342)" d="M7.92 1912.2261V1734.0504L133.60817 1608.3623H311.78385L437.472 1734.0504V1912.2261L311.78385 2037.9143H133.60817L7.92 1912.2261Z" fill="#d50002" fill-rule="evenodd"/>
<path transform="matrix(1,0,0,-1,0,2045.8342)" d="M116.82861 1791.0274C116.82861 1779.4835 113.24855 1769.2913 106.08844 1760.4507 98.92833 1751.6102 89.0649 1747.19 76.49818 1747.19 64.95432 1747.19 55.200494 1751.6832 47.236696 1760.6699 39.272893 1769.6566 35.290994 1780.4334 35.290994 1793H55.45621C55.45621 1785.2554 57.392366 1779.1182 61.26467 1774.5883 65.13697 1770.0585 70.06869 1767.7935 76.0598 1767.7935 81.61254 1767.7935 86.43466 1770.0219 90.52615 1774.4788 94.617649 1778.9356 96.59033 1784.1594 96.44421 1790.1506 96.29808 1794.9727 94.50805 1800.0505 91.07412 1805.3842 87.64019 1810.7177 81.3203 1816.3069 72.11443 1822.152 61.593454 1828.8737 53.9219 1835.5588 49.099786 1842.2075 44.277669 1848.8562 41.866609 1855.103 41.866609 1860.948 41.72048 1871.469 45.081354 1880.4192 51.94922 1887.7985 58.81708 1895.1777 67.584568 1898.9404 78.25167 1899.0867 89.50328 1899.0867 98.745677 1895.397 105.97884 1888.0177 113.21202 1880.6383 116.82861 1871.6882 116.82861 1861.1672H95.348278C95.49439 1866.8661 93.70437 1871.3229 89.97819 1874.5376 86.25201 1877.7525 82.34316 1879.2136 78.25167 1878.9214 73.42956 1878.6292 69.70338 1876.8391 67.07313 1873.5513 64.44289 1870.2636 63.20082 1866.2816 63.346948 1861.6056 63.493074 1858.537 64.8082 1855.5414 67.29232 1852.6189 69.776439 1849.6964 75.18305 1845.3128 83.51216 1839.4677 95.20215 1831.577 103.64085 1823.8324 108.82828 1816.2339 114.01571 1808.6354 116.68249 1800.2332 116.82861 1791.0274Z" fill="#ffffff"/>
<path transform="matrix(1,0,0,-1,0,2045.8342)" d="M207.79128 1876.9487H181.05045V1749.8202H159.78929V1876.9487H133.04846V1896.6755H207.79128V1876.9487Z" fill="#ffffff"/>
<path transform="matrix(1,0,0,-1,0,2045.8342)" d="M265.65669 1747.19C250.60584 1747.19 239.57341 1753.5098 232.55942 1766.1497 225.54543 1778.7894 222.03844 1797.8222 222.03844 1823.2478 222.03844 1848.3814 225.54543 1867.3045 232.55942 1880.0173 239.57341 1892.7302 250.60584 1899.0867 265.65669 1899.0867 280.70753 1899.0867 291.73997 1892.7302 298.75395 1880.0173 305.7679 1867.3045 309.27494 1848.3814 309.27494 1823.2478 309.27494 1797.8222 305.7679 1778.7894 298.75395 1766.1497 291.73997 1753.5098 280.70753 1747.19 265.65669 1747.19ZM265.65669 1767.7935C273.69355 1767.6473 279.46549 1772.1043 282.97248 1781.164 286.47947 1790.2236 288.23295 1804.3977 288.23295 1823.6863 288.23295 1842.6825 286.47947 1856.5643 282.97248 1865.3318 279.46549 1874.0993 273.69355 1878.483 265.65669 1878.483 257.6198 1878.483 251.84789 1874.0993 248.3409 1865.3318 244.83391 1856.5643 243.0804 1842.6825 243.0804 1823.6863 243.0804 1804.3977 244.83391 1790.2236 248.3409 1781.164 251.84789 1772.1043 257.6198 1767.6473 265.65669 1767.7935Z" fill="#ffffff"/>
<path transform="matrix(1,0,0,-1,0,2045.8342)" d="M389.4974 1858.0986C389.4974 1863.6514 387.74394 1868.035 384.2369 1871.2499 380.72993 1874.4646 376.127 1876.0719 370.42814 1876.0719H348.7286V1839.9061H370.42814C375.68864 1839.9061 380.18196 1841.6596 383.90815 1845.1666 387.63435 1848.6736 389.4974 1852.9843 389.4974 1858.0986ZM368.89384 1818.8641H348.7286V1749.8202H327.68666V1896.6755H371.52409C383.06794 1896.6755 392.38337 1893.0955 399.47044 1885.9354 406.55747 1878.7753 410.101 1869.2771 410.101 1857.441 409.9549 1846.92 406.4844 1837.8604 399.6896 1830.2619 392.8948 1822.6633 382.62956 1818.8641 368.89384 1818.8641Z" fill="#ffffff"/>
<path transform="matrix(1,0,0,-1,0,2045.8342)" d="M779.8045 1242.2413V1422.4302L244.9435 1464.4956C239.68628 1465.0126 234.4056 1465.2539 229.12313 1465.2185 223.6586 1464.9435 218.2521 1463.9959 213.02297 1462.397 201.95577 1459.5736 191.6152 1454.4306 182.6867 1447.3088 172.63549 1439.1989 164.6378 1428.8342 159.34247 1417.0559 150.01016 1396.484 147.31237 1374.1207 151.07579 1352.0635 152.52332 1343.2722 155.50139 1334.802 159.87467 1327.0381 168.95787 1311.9313 188.8446 1294.0365 207.1579 1288.8744 215.14272 1286.6237 225.45999 1285.8073 234.22777 1285.1494L779.8045 1242.2413Z" fill-rule="evenodd"/>
</g>
</svg>
