<svg xmlns="http://www.w3.org/2000/svg" xmlns:xlink="http://www.w3.org/1999/xlink" xmlns:inkscape="http://www.inkscape.org/namespaces/inkscape" version="1.1" width="3324.4483" height="2062.296" viewBox="0 0 3324.4483 2062.296">
<g inkscape:groupmode="layer" inkscape:label="Layer 1">
<path transform="matrix(1,0,0,-1,0,2062.296)" d="M2526.273 1667.2697C2526.273 1667.2697 2523.8929 1615.0874 2527.809 1589.4915 2532.794 1556.9097 2561.3507 1521.4844 2589.3406 1501.4434 2621.0362 1478.7492 2644.19 1467.5855 2677.0467 1463.657 2690.874 1462.0038 2745.3656 1465.9827 2756.9415 1469.4909 2794.3089 1480.8156 2828.933 1512.7837 2857.4813 1545.5447 2863.0584 1551.9448 2883.7674 1601.2009 2884.4659 1609.7269 2886.417 1633.5455 2884.8883 1667.2697 2884.8883 1667.2697H2526.273Z" fill-rule="evenodd"/>
<path transform="matrix(1,0,0,-1,0,2062.296)" d="M2709.8636 1682.0234 2896.1177 1682.7316C2903.3035 1682.7588 2904.643 1683.1235 2909.5118 1686.3786 2913.1236 1688.7932 2916.5552 1691.9992 2919.073 1695.1557 2932.1888 1711.5991 2912.8243 1718.5012 2896.8939 1739.198 2885.5787 1753.8988 2884.5267 1774.0796 2877.07 1797.5609 2870.7579 1817.4386 2860.954 1836.5693 2846.9908 1850.9636 2836.3819 1861.8997 2819.0677 1876.7199 2819.0677 1876.7199 2819.0677 1876.7199 2805.946 1853.023 2795.6239 1846.5372 2791.3973 1843.8815 2786.7545 1844.2068 2783.0262 1846.5372 2768.8399 1855.405 2779.0147 1869.3466 2774.9088 1889.3401 2773.6246 1895.5929 2765.9737 1906.036 2762.4884 1906.2931 2760.9603 1906.4058 2757.905 1908.3716 2756.268 1909.0475 2749.57 1911.8131 2740.2183 1912.6952 2733.2906 1912.6172 2715.0994 1912.4121 2727.851 1873.7285 2723.8968 1861.277 2721.938 1855.1096 2714.6075 1846.4574 2709.8636 1844.5379L2708.691 1844.6117C2703.9437 1846.6702 2696.7689 1855.1857 2694.8343 1861.277 2690.88 1873.7285 2703.6317 1912.4121 2685.4405 1912.6172 2678.5128 1912.6952 2669.161 1911.8131 2662.463 1909.0475 2660.826 1908.3716 2657.7708 1906.4058 2656.2427 1906.2931 2652.7574 1906.036 2645.1065 1895.5929 2643.8223 1889.3401 2639.7164 1869.3466 2649.891 1855.405 2635.7049 1846.5372 2631.9766 1844.2068 2627.3338 1843.8815 2623.107 1846.5372 2612.785 1853.023 2599.6634 1876.7199 2599.6634 1876.7199 2599.6634 1876.7199 2582.3489 1861.8997 2571.7403 1850.9636 2557.7769 1836.5693 2547.9732 1817.4386 2541.661 1797.5609 2534.2044 1774.0796 2533.1524 1753.8988 2521.8372 1739.198 2505.9068 1718.5012 2486.5423 1711.5991 2499.658 1695.1557 2502.1759 1691.9992 2505.6075 1688.7932 2509.2193 1686.3786 2514.088 1683.1235 2515.4276 1682.7588 2522.6134 1682.7316L2708.691 1682.0242 2709.8636 1682.0234Z" fill="#c5c0c7" fill-rule="evenodd"/>
<path transform="matrix(1,0,0,-1,0,2062.296)" d="M2709.8636 1682.0234 2896.1177 1682.7316C2898.4405 1682.6519 2900.7652 1682.8062 2903.0572 1683.1919 2905.1856 1683.6028 2907.6038 1685.0767 2909.5118 1686.3786 2914.8406 1690.0148 2923.153 1697.6267 2923.4002 1704.9928 2923.438 1706.9242 2923.0125 1708.8366 2922.1593 1710.5696 2921.215 1712.4749 2920.0343 1714.2534 2918.6446 1715.8629 2916.3216 1718.5442 2913.8704 1721.1117 2911.2994 1723.5564 2906.5406 1728.1288 2901.1053 1733.6963 2896.8939 1739.198 2894.0672 1742.9379 2891.7493 1747.0363 2890.001 1751.386 2888.0875 1756.1792 2886.5054 1761.0982 2885.266 1766.1082 2884.3624 1769.6389 2883.493 1773.1785 2882.658 1776.7261 2881.0516 1783.7372 2879.1876 1790.6869 2877.07 1797.5609 2874.1409 1806.9052 2870.3729 1815.9653 2865.8123 1824.631 2860.8028 1834.2467 2854.4669 1843.1109 2846.9908 1850.9636 2840.0047 1858.2158 2827.4173 1869.5354 2819.0677 1876.7199 2815.7952 1870.9324 2812.206 1865.3298 2808.3165 1859.9376 2806.5965 1857.5628 2804.7674 1855.2687 2802.8353 1853.0631 2800.7386 1850.5707 2798.3126 1848.3753 2795.6239 1846.5372 2791.7955 1844.0421 2786.8548 1844.0421 2783.0262 1846.5372 2774.3616 1851.8544 2774.7359 1859.5424 2775.4918 1868.6945 2776.0596 1875.5671 2776.3538 1882.5486 2774.9088 1889.3401 2773.9398 1893.894 2769.3829 1901.2167 2765.8204 1904.3222L2764.4259 1905.4547C2763.8616 1905.894 2763.1949 1906.1826 2762.4884 1906.2931 2760.725 1906.5625 2758.0789 1908.2412 2756.268 1909.0475 2752.8446 1910.3788 2749.275 1911.2988 2745.6346 1911.7885 2741.5477 1912.3838 2737.4205 1912.6609 2733.2906 1912.6172 2727.652 1912.6776 2724.9302 1908.4872 2723.962 1903.6791 2723.393 1900.7665 2723.1339 1897.802 2723.1883 1894.8348 2723.278 1888.2918 2723.9786 1881.1362 2724.48 1874.4414 2724.6236 1872.4202 2724.7 1870.3948 2724.7093 1868.3685 2724.7843 1865.9778 2724.5106 1863.5889 2723.8968 1861.277 2722.5316 1856.7388 2718.4256 1851.6232 2715.191 1848.3757 2713.6593 1846.788 2711.8548 1845.488 2709.8636 1844.5379L2708.691 1844.6117C2707.11 1845.3779 2705.6568 1846.3829 2704.3817 1847.5914 2700.6873 1851.0183 2696.3634 1856.4143 2694.8343 1861.277 2694.0137 1863.8866 2693.9315 1868.2357 2694.0855 1871.384 2694.2628 1874.8665 2694.5103 1878.345 2694.8284 1881.8173 2695.085 1884.7365 2695.2877 1887.6602 2695.4366 1890.5868 2695.63 1893.8908 2695.5758 1897.2046 2695.2745 1900.5005 2694.6783 1906.6747 2692.338 1912.6256 2685.4405 1912.6172 2681.719 1912.6553 2677.9993 1912.435 2674.3084 1911.9583 2670.253 1911.4922 2666.2728 1910.5142 2662.463 1909.0475 2661.146 1908.4013 2659.835 1907.7432 2658.53 1907.0734 2657.8114 1906.6991 2657.04 1906.436 2656.2427 1906.2931 2653.436 1905.8753 2649.699 1900.8556 2648.2784 1898.7443 2647.3719 1897.4055 2646.5467 1896.0137 2645.8072 1894.5759 2644.9219 1892.9238 2644.255 1891.1638 2643.8223 1889.3401 2643.0924 1885.6994 2642.7374 1881.9934 2642.763 1878.2803 2642.8614 1874.0116 2643.094 1869.7472 2643.4605 1865.493 2643.5726 1863.8212 2643.6026 1862.1448 2643.5506 1860.4699 2643.378 1854.2001 2641.0489 1849.8932 2635.7049 1846.5372 2631.8763 1844.0421 2626.9356 1844.0421 2623.107 1846.5372 2621.0614 1847.8993 2619.1844 1849.4995 2617.516 1851.3043 2615.8846 1853.0221 2614.3372 1854.818 2612.8792 1856.6854 2608.0142 1863.0487 2603.5985 1869.743 2599.6634 1876.7199 2591.0614 1869.3142 2578.8807 1858.3555 2571.7403 1850.9636 2554.2393 1832.8462 2543.874 1808.44 2537.9112 1784.2377L2534.2283 1769.1087C2533.0379 1764.0841 2531.577 1759.1275 2529.8524 1754.2604 2527.9664 1748.8594 2525.2633 1743.7796 2521.8372 1739.198 2517.9285 1734.2506 2513.6807 1729.581 2509.1243 1725.2228 2506.6156 1722.8085 2504.166 1720.3329 2501.7786 1717.7984 2499.0008 1714.8386 2496.22 1711.3078 2495.4796 1707.165 2494.7137 1702.8805 2496.9532 1698.4536 2499.658 1695.1557 2502.3924 1691.7722 2505.6148 1688.8141 2509.2193 1686.3786L2511.8875 1684.6974C2512.896 1684.1005 2513.9793 1683.64 2515.1092 1683.328 2516.2877 1683.0358 2517.4932 1682.8657 2518.7066 1682.8207L2522.6134 1682.7316 2709.8636 1682.0234ZM2902.439 1686.3737C2900.3873 1686.0337 2898.307 1685.8984 2896.2286 1685.9697L2709.8636 1685.2636 2522.6566 1685.9714 2518.805 1686.0593C2517.836 1686.0968 2516.873 1686.2318 2515.9312 1686.4624 2515.1058 1686.6941 2514.3135 1687.0309 2513.5738 1687.4645L2510.9913 1689.0917C2507.6763 1691.3754 2504.6995 1694.1145 2502.1485 1697.2284 2500.077 1699.737 2498.0906 1703.4108 2498.6683 1706.5859 2499.2718 1709.9033 2501.9156 1713.2094 2504.141 1715.581 2506.49 1718.0744 2508.8995 1720.5097 2511.3675 1722.8849 2516.031 1727.3458 2520.3787 1732.1256 2524.3795 1737.1893 2531.3179 1746.0923 2534.841 1757.7879 2537.3787 1768.3518L2541.057 1783.4614C2546.8868 1807.0813 2556.9942 1831.0327 2574.0706 1848.7125 2580.4205 1855.2865 2591.1549 1865.0188 2598.823 1871.7048 2602.2935 1865.7963 2606.1353 1860.1138 2610.3253 1854.6915 2611.8419 1852.7489 2613.4515 1850.8805 2615.148 1849.0928 2616.9866 1847.0881 2619.0657 1845.318 2621.338 1843.8228 2626.2225 1840.6395 2632.522 1840.6259 2637.4202 1843.788 2645.6517 1848.9165 2647.44 1855.9893 2646.6912 1865.7406 2646.33 1869.9285 2646.1007 1874.1265 2646.0028 1878.3287 2645.9805 1881.7887 2646.3099 1885.242 2646.9857 1888.6355 2648.018 1893.2379 2652.4854 1899.7675 2655.7947 1902.529 2656.0469 1902.7462 2656.326 1902.9299 2656.625 1903.0757 2656.6883 1903.0833 2656.7515 1903.0925 2656.8143 1903.1039 2657.9307 1903.304 2659.0108 1903.6718 2660.0174 1904.1948 2661.256 1904.8306 2662.5006 1905.4557 2663.75 1906.07 2667.2896 1907.3911 2670.973 1908.289 2674.7235 1908.7449 2678.2943 1909.1632 2681.8863 1909.3744 2685.4815 1909.3773 2686.4622 1909.3898 2687.431 1909.1616 2688.303 1908.7129 2690.9686 1907.2661 2691.8035 1902.7312 2692.0494 1900.1889 2692.3348 1897.0554 2692.3856 1893.9049 2692.2015 1890.7638 2692.0545 1887.8754 2691.8546 1884.99 2691.6016 1882.1089 2691.2725 1878.5906 2691.0216 1875.0654 2690.8489 1871.536 2690.763 1869.7042 2690.7598 1867.8695 2690.839 1866.0375 2690.8563 1864.0641 2691.17 1862.1045 2691.77 1860.2245 2693.5494 1854.8538 2698.0245 1848.9862 2702.204 1845.1924L2702.1529 1845.24C2703.8448 1843.6812 2705.7669 1842.3921 2707.851 1841.4182L2710.4996 1841.2512C2713.441 1842.6549 2715.2315 1843.8274 2717.486 1846.0881 2721.0906 1849.7024 2725.601 1855.4048 2727.028 1860.4454 2727.719 1863.0471 2728.029 1865.7351 2727.949 1868.4258 2727.9385 1870.5095 2727.8594 1872.5923 2727.712 1874.6708 2727.21 1881.3733 2726.5345 1888.2286 2726.4278 1894.8944 2726.3778 1897.626 2726.6156 1900.3552 2727.1378 1903.0368 2727.8167 1906.3888 2729.37 1909.3888 2733.325 1909.3773 2737.2984 1909.3966 2741.2679 1909.1293 2745.2027 1908.5773 2748.5384 1908.1287 2751.81 1907.2915 2754.9512 1906.0829 2757.3363 1905.0264 2759.2935 1903.5151 2761.994 1903.091 2762.1478 1903.0659 2762.293 1903.0043 2762.418 1902.9113L2763.6859 1901.8817C2766.7237 1899.218 2770.9029 1892.5774 2771.7396 1888.6643 2773.1177 1882.2178 2772.7916 1875.4417 2772.2628 1868.9612 2771.8109 1863.4221 2771.335 1856.8424 2773.8939 1851.6825 2778.0377 1843.3269 2788.8414 1838.1821 2797.393 1843.8228L2797.4525 1843.8624C2800.3743 1845.8599 2803.0118 1848.2445 2805.2926 1850.951 2810.9508 1857.5325 2815.3927 1864.1093 2819.9066 1871.7069 2827.275 1865.2836 2838.556 1855.0635 2844.6553 1848.7178 2851.9029 1841.0701 2858.0579 1832.4566 2862.945 1823.1221 2867.4136 1814.6316 2871.1055 1805.7545 2873.9759 1796.5995 2876.0699 1789.8008 2877.913 1782.9274 2879.502 1775.9932 2880.3414 1772.4266 2881.215 1768.8684 2882.1236 1765.319 2883.3929 1760.1647 2885.0206 1755.1052 2886.9947 1750.1776 2888.8289 1745.5372 2891.2987 1741.174 2894.333 1737.2129 2896.6558 1734.2167 2899.1282 1731.3397 2901.7413 1728.593 2904.1234 1726.0731 2906.566 1723.6109 2909.0667 1721.2085 2911.5614 1718.8364 2913.9398 1716.3451 2916.1939 1713.7434 2917.4036 1712.3419 2918.4317 1710.7935 2919.2542 1709.1348 2919.8699 1707.8828 2920.181 1706.503 2920.1617 1705.108 2919.939 1698.9074 2911.842 1691.9039 2907.6734 1689.0465 2906.7237 1688.3921 2905.741 1687.787 2904.729 1687.2337 2904.0086 1686.8439 2903.2379 1686.5546 2902.439 1686.3737Z" fill-rule="evenodd"/>
<path transform="matrix(1,0,0,-1,0,2062.296)" d="M2939.5255 1427.395V1247.1835L3111.4608 1233.659 3121.0262 1232.5523 3295.2003 1217.662 3323.722 1645.4275C3324.239 1651.6296 3324.4803 1657.8594 3324.4449 1664.0913 3324.17 1670.5379 3323.2222 1676.9161 3321.623 1683.0851 3318.799 1696.1414 3313.6553 1708.3405 3306.5325 1718.8737 3298.4212 1730.7313 3288.0552 1740.1664 3276.275 1746.4135 3255.6998 1757.4231 3233.333 1760.6057 3211.2725 1756.1659 3202.4798 1754.4583 3194.008 1750.945 3186.2432 1745.7857 3171.134 1735.07 3153.2364 1711.609 3148.0736 1690.0043 3145.8226 1680.5844 3145.0059 1668.4127 3144.348 1658.0691L3128.1417 1415.008 3127.8726 1412.6433 3125.2208 1412.7882 2939.5255 1427.395Z" fill-rule="evenodd"/>
<path transform="matrix(1,0,0,-1,0,2062.296)" d="M2740.2003 731.2944H2678.5506V731.2861H2665.1676L2462.495 754.0227 2389.4517 113.36258C2388.6456 107.34797 2388.1578 101.2956 2387.99 95.230358 2388.0926 88.94675 2388.9759 82.70338 2390.6199 76.63808 2393.451 63.823175 2398.9954 51.751508 2406.8858 41.223218 2415.8758 29.367417 2427.5567 19.780589 2440.9805 13.240422 2464.423 1.72156 2490.2012-2.251598 2515.8802 1.204222 2526.1129 2.52138 2536.0345 5.608074 2545.1937 10.324021 2563.0379 20.158864 2584.536 42.286069 2591.2342 63.10602 2594.1546 72.18377 2595.507 83.99519 2596.6148 94.03414L2666.95 706.029H2751.383L2822.5413 94.03414C2823.649 83.99519 2825.0013 72.18377 2827.9219 63.10602 2834.6199 42.286069 2856.118 20.158864 2873.9622 10.324021 2883.1214 5.608074 2893.043 2.52138 2903.276 1.204222 2928.9549-2.251598 2954.733 1.72156 2978.1756 13.240422 2991.5994 19.780589 3003.28 29.367417 3012.27 41.223218 3020.1607 51.751508 3025.705 63.823175 3028.536 76.63808 3030.18 82.70338 3031.0633 88.94675 3031.1658 95.230358 3030.9984 101.2956 3030.5103 107.34797 3029.7044 113.36258L2956.661 754.0227 2753.9884 731.2861H2740.2003V731.2944Z" fill-rule="evenodd"/>
<path transform="matrix(1,0,0,-1,0,2062.296)" d="M1935.8682 1912.6151H1904.4756V20.49422H1935.8682V1912.6151Z" fill="#7f7f7f" fill-rule="evenodd"/>
<path transform="matrix(1,0,0,-1,0,2062.296)" stroke-width="8.136142" stroke-linecap="butt" stroke-miterlimit="4" stroke-linejoin="miter" fill="none" stroke="#000000" d="M1935.8682 1912.6151H1904.4756V20.49422H1935.8682V1912.6151Z"/>
<path transform="matrix(1,0,0,-1,0,2062.296)" d="M1698.192 1931.6679V1747.5244L1828.1001 1617.6162H2012.2437L2142.1517 1747.5244V1931.6679L2012.2437 2061.576H1828.1001L1698.192 1931.6679Z" fill="#ffffff" fill-rule="evenodd"/>
<path transform="matrix(1,0,0,-1,0,2062.296)" stroke-width="1.440025" stroke-linecap="butt" stroke-miterlimit="4" stroke-linejoin="miter" fill="none" stroke="#000000" d="M1698.192 1931.6679V1747.5244L1828.1001 1617.6162H2012.2437L2142.1517 1747.5244V1931.6679L2012.2437 2061.576H1828.1001L1698.192 1931.6679Z"/>
<path transform="matrix(1,0,0,-1,0,2062.296)" d="M1705.3921 1928.6856V1750.5067L1831.0825 1624.8164H2009.2612L2134.9517 1750.5067V1928.6856L2009.2612 2054.376H1831.0825L1705.3921 1928.6856Z" fill="#d50002" fill-rule="evenodd"/>
<path transform="matrix(1,0,0,-1,0,2062.296)" d="M1814.3026 1807.4846C1814.3026 1795.9406 1810.7225 1785.7482 1803.5623 1776.9075 1796.402 1768.0668 1786.5385 1763.6465 1773.9714 1763.6465 1762.4275 1763.6465 1752.6735 1768.1399 1744.7095 1777.1267 1736.7456 1786.1135 1732.7636 1796.8904 1732.7636 1809.4574H1752.9292C1752.9292 1801.7127 1754.8654 1795.5753 1758.7377 1791.0453 1762.6101 1786.5154 1767.5419 1784.2504 1773.5331 1784.2504 1779.0859 1784.2504 1783.9082 1786.4789 1787.9998 1790.9358 1792.0913 1795.3926 1794.064 1800.6167 1793.9179 1806.6079 1793.7717 1811.43 1791.9817 1816.508 1788.5477 1821.8417 1785.1137 1827.1753 1778.7937 1832.7647 1769.5877 1838.6098 1759.0665 1845.3317 1751.3948 1852.017 1746.5726 1858.6658 1741.7504 1865.3146 1739.3394 1871.5615 1739.3394 1877.4066 1739.1932 1887.9277 1742.5541 1896.878 1749.4221 1904.2575 1756.29 1911.6369 1765.0578 1915.3997 1775.725 1915.5458 1786.9768 1915.5458 1796.2194 1911.8561 1803.4526 1904.4767 1810.686 1897.0973 1814.3026 1888.147 1814.3026 1877.6257H1792.8219C1792.968 1883.3247 1791.178 1887.7816 1787.4518 1890.9965 1783.7255 1894.2112 1779.8165 1895.6725 1775.725 1895.3803 1770.9028 1895.088 1767.1765 1893.298 1764.5463 1890.01 1761.916 1886.7222 1760.674 1882.7402 1760.8201 1878.0642 1760.9662 1874.9955 1762.2813 1871.9999 1764.7655 1869.0773 1767.2496 1866.1548 1772.6564 1861.771 1780.9856 1855.9259 1792.6758 1848.035 1801.1146 1840.2903 1806.3021 1832.6917 1811.4896 1825.093 1814.1565 1816.6907 1814.3026 1807.4846Z" fill="#ffffff"/>
<path transform="matrix(1,0,0,-1,0,2062.296)" d="M1905.2669 1893.4075H1878.5256V1766.2767H1857.264V1893.4075H1830.5227V1913.1347H1905.2669V1893.4075Z" fill="#ffffff"/>
<path transform="matrix(1,0,0,-1,0,2062.296)" d="M1963.1333 1763.6465C1948.0822 1763.6465 1937.0496 1769.9664 1930.0354 1782.6065 1923.0214 1795.2465 1919.5143 1814.2796 1919.5143 1839.7057 1919.5143 1864.8396 1923.0214 1883.7631 1930.0354 1896.4762 1937.0496 1909.1892 1948.0822 1915.5458 1963.1333 1915.5458 1978.1845 1915.5458 1989.217 1909.1892 1996.2311 1896.4762 2003.2453 1883.7631 2006.7523 1864.8396 2006.7523 1839.7057 2006.7523 1814.2796 2003.2453 1795.2465 1996.2311 1782.6065 1989.217 1769.9664 1978.1845 1763.6465 1963.1333 1763.6465ZM1963.1333 1784.2504C1971.1703 1784.1043 1976.9423 1788.5612 1980.4494 1797.6211 1983.9564 1806.6809 1985.71 1820.8554 1985.71 1840.1442 1985.71 1859.1406 1983.9564 1873.0227 1980.4494 1881.7904 1976.9423 1890.558 1971.1703 1894.9419 1963.1333 1894.9419 1955.0963 1894.9419 1949.3242 1890.558 1945.8173 1881.7904 1942.3102 1873.0227 1940.5567 1859.1406 1940.5567 1840.1442 1940.5567 1820.8554 1942.3102 1806.6809 1945.8173 1797.6211 1949.3242 1788.5612 1955.0963 1784.1043 1963.1333 1784.2504Z" fill="#ffffff"/>
<path transform="matrix(1,0,0,-1,0,2062.296)" d="M2086.976 1874.5571C2086.976 1880.11 2085.2227 1884.4938 2081.7156 1887.7085 2078.2086 1890.9234 2073.6055 1892.5308 2067.9066 1892.5308H2046.2067V1856.3643H2067.9066C2073.1673 1856.3643 2077.6607 1858.1178 2081.3868 1861.6249 2085.113 1865.1318 2086.976 1869.4426 2086.976 1874.5571ZM2066.3724 1835.3219H2046.2067V1766.2767H2025.1643V1913.1347H2069.0025C2080.5467 1913.1347 2089.8624 1909.5546 2096.9495 1902.3943 2104.0367 1895.2341 2107.58 1885.7359 2107.58 1873.8995 2107.434 1863.3783 2103.9635 1854.3185 2097.1685 1846.7199 2090.3736 1839.1212 2080.1082 1835.3219 2066.3724 1835.3219Z" fill="#ffffff"/>
<path transform="matrix(1,0,0,-1,0,2062.296)" d="M2477.29 1258.6891V1438.8811L1942.4198 1480.9472C1937.1625 1481.4642 1931.8816 1481.7056 1926.5991 1481.6702 1921.1345 1481.3952 1915.7279 1480.4475 1910.4987 1478.8485 1899.4313 1476.0252 1889.0906 1470.882 1880.1619 1463.7601 1870.1105 1455.65 1862.1127 1445.2853 1856.8173 1433.5067 1847.4848 1412.9345 1844.7869 1390.5708 1848.5504 1368.5132 1849.9979 1359.7218 1852.9761 1351.2514 1857.3495 1343.4873 1866.4328 1328.3803 1886.3198 1310.4851 1904.6336 1305.323 1912.6184 1303.0723 1922.9359 1302.2557 1931.7039 1301.598L2477.29 1258.6891Z" fill-rule="evenodd"/>
<path transform="matrix(1,0,0,-1,0,2062.296)" d="M2584.743 1412.2832 2835.3155 1412.8062 2710.459 1183.8569 2584.743 1412.2832Z" fill-rule="evenodd"/>
<path transform="matrix(1,0,0,-1,0,2062.296)" d="M2831.312 1414.5062 2709.3096 1193.4777 2588.334 1414.0335 2476.028 1438.2489C2476.028 1438.2489 2476.235 888.29757 2475.147 874.93417 2471.2889 827.5508 2462.3575 752.03158 2462.3575 752.03158L2463.292 752.75186C2463.712 753.07546 2463.947 753.0895 2465.6427 752.89248 2531.8919 745.19528 2643.2247 732.04507 2664.4429 730.2838 2672.6763 729.6004 2746.0157 729.2839 2754.366 729.8957 2779.729 731.75418 2956.43 753.4677 2956.43 753.4677 2956.43 753.4677 2946.6793 832.9288 2942.735 878.87557 2941.6182 891.8852 2940.6282 1425.286 2940.6282 1425.286 2940.6282 1425.286 2878.8529 1419.299 2831.312 1414.5062Z" fill="#b0d461" fill-rule="evenodd"/>
<path transform="matrix(1,0,0,-1,0,2062.296)" d="M2831.312 1414.5062 2709.3096 1193.4777 2588.334 1414.0335 2476.028 1438.2489C2476.103 1276.5233 2475.9945 1114.7977 2475.702 953.0723L2475.528 908.4107C2475.5474 897.2506 2475.4202 886.0907 2475.147 874.93417 2474.4066 865.95956 2473.6009 856.9907 2472.7305 848.0284 2469.5679 815.9967 2466.1099 783.99636 2462.3575 752.03158L2463.292 752.75186C2463.4197 752.8598 2463.5689 752.9378 2463.729 752.98049L2464.2864 753.01919 2538.7122 744.37399 2618.6217 735.1693C2633.8787 733.3818 2649.1534 731.7532 2664.4429 730.2838 2672.5255 729.724 2709.2508 729.672 2724.067 729.5695 2734.1678 729.48269 2744.269 729.59146 2754.366 729.8957 2770.9703 730.8657 2928.5826 750.0364 2956.43 753.4677 2952.7532 783.63607 2949.3104 813.83389 2946.102 844.05838 2944.877 855.6534 2943.7547 867.2596 2942.735 878.87557 2942.4615 888.30587 2942.3214 897.7397 2942.3148 907.17416L2941.732 1016.252C2941.3419 1107.1622 2940.9 1307.6538 2940.6282 1425.286 2904.184 1421.7507 2867.7454 1418.1575 2831.312 1414.5062ZM2834.1085 1410.0994C2868.0972 1413.5034 2902.0909 1416.8568 2936.089 1420.1599 2936.3592 1303.3544 2936.7916 1107.0059 2937.181 1016.2315L2937.764 907.15969C2937.7708 897.68386 2937.9114 888.20858 2938.186 878.73696L2938.2025 878.4575C2939.2247 866.8131 2940.3497 855.17849 2941.5777 843.555 2944.6239 814.8587 2947.881 786.18637 2951.349 757.54049 2924.127 754.1922 2770.1805 735.49349 2754.107 734.5546 2744.1092 734.25497 2734.1068 734.1481 2724.1053 734.234 2709.4349 734.3355 2672.699 734.3895 2664.7496 734.9395 2649.5289 736.4031 2634.3228 738.0248 2619.134 739.8043L2467.5604 757.335C2471.0533 787.3796 2474.286 817.4554 2477.2584 847.5587 2478.1429 856.5917 2478.9544 865.632 2479.693 874.6788 2479.969 885.9187 2480.0977 897.1619 2480.079 908.40536L2480.2528 953.0587C2480.5418 1112.8724 2480.6514 1272.6864 2480.5816 1432.5003L2585.3782 1409.904 2709.297 1183.9822 2834.1085 1410.0994Z" fill="#ff7f00" fill-rule="evenodd"/>
<path transform="matrix(1,0,0,-1,0,2062.296)" d="M2709.4495 1193.1439 2737.2537 1242.709V1137.9724H2941.9215V1051.3657H2737.2537V968.6205H2941.9215V881.4621H2737.2537V729.76248H2681.6783V881.4621H2476.4764V968.6205H2681.6783V1051.3657H2476.4764V1137.9724H2681.6783L2681.1439 1242.2315C2681.1439 1242.2315 2682.0428 1241.6547 2682.954 1240.9194 2685.2108 1239.0985 2709.4495 1193.1439 2709.4495 1193.1439Z" fill="#c5c0c7" fill-rule="evenodd"/>
<path transform="matrix(1,0,0,-1,0,2062.296)" d="M2709.4495 1193.1439C2702.2283 1206.862 2694.841 1220.4865 2687.2894 1234.0137 2686.4449 1235.4863 2683.8775 1239.7705 2683.342 1240.4755L2682.954 1240.9194 2681.1439 1242.2315 2681.6783 1137.9724H2476.4764V1051.3657H2681.6783V968.6205H2476.4764V881.4621H2681.6783V729.76248H2737.2537V881.4621H2941.9215V968.6205H2737.2537V1051.3657H2941.9215V1137.9724H2737.2537V1242.709L2709.4495 1193.1439ZM2685.8387 1227.0519C2693.8226 1212.593 2701.6507 1198.0431 2709.3216 1183.4049L2732.6368 1224.9677V1133.2063H2937.3043V1056.1318H2732.6368V963.8544H2937.3043V886.2282H2732.6368V734.52859H2686.2952V886.2282H2481.0933V963.8544H2686.2952V1056.1318H2481.0933V1133.2063H2686.3199L2685.8387 1227.0519Z" fill="#ff7f00" fill-rule="evenodd"/>
<path transform="matrix(1,0,0,-1,0,2062.296)" d="M828.0306 1667.2406C828.0306 1667.2406 825.6505 1615.0593 829.5666 1589.4638 834.5515 1556.8826 863.10757 1521.4579 891.097 1501.4172 922.792 1478.7234 945.9454 1467.5599 978.80166 1463.6316 992.6288 1461.9783 1047.1194 1465.9572 1058.6948 1469.4653 1096.0618 1480.7898 1130.6856 1512.7573 1159.233 1545.5178 1164.81 1551.9179 1185.5188 1601.173 1186.2172 1609.6989 1188.1682 1633.5171 1186.6397 1667.2406 1186.6397 1667.2406H828.0306Z" fill-rule="evenodd"/>
<path transform="matrix(1,0,0,-1,0,2062.296)" d="M1011.6179 1681.9943 1197.8688 1682.7023C1205.0546 1682.7295 1206.3939 1683.0942 1211.2627 1686.3491 1214.8745 1688.7639 1218.3059 1691.9697 1220.8236 1695.1262 1233.9393 1711.5693 1214.5751 1718.4713 1198.6449 1739.1677 1187.3298 1753.8683 1186.278 1774.0487 1178.8214 1797.5297 1172.5093 1817.4069 1162.7059 1836.5374 1148.7428 1850.9314 1138.1342 1861.8673 1120.8201 1876.6873 1120.8201 1876.6873 1120.8201 1876.6873 1107.6987 1852.9907 1097.3768 1846.5051 1093.1502 1843.8494 1088.5073 1844.1747 1084.7793 1846.5051 1070.5933 1855.3727 1080.7678 1869.314 1076.6619 1889.3073 1075.3778 1895.5599 1067.7269 1906.0028 1064.2418 1906.2599 1062.7138 1906.3727 1059.6586 1908.3384 1058.0215 1909.0143 1051.3239 1911.7799 1041.972 1912.6619 1035.0446 1912.5839 1016.8537 1912.3789 1029.6052 1873.6959 1025.6508 1861.2446 1023.6921 1855.0774 1016.36178 1846.4252 1011.6179 1844.5057L1010.4454 1844.5796C1005.6982 1846.638 998.5235 1855.1533 996.589 1861.2446 992.6345 1873.6959 1005.38607 1912.3789 987.1951 1912.5839 980.26766 1912.6619 970.9159 1911.7799 964.2182 1909.0143 962.5811 1908.3384 959.52609 1906.3727 957.998 1906.2599 954.51278 1906.0028 946.862 1895.5599 945.5779 1889.3073 941.47189 1869.314 951.6465 1855.3727 937.46047 1846.5051 933.73239 1844.1747 929.08956 1843.8494 924.8629 1846.5051 914.5411 1852.9907 901.4197 1876.6873 901.4197 1876.6873 901.4197 1876.6873 884.1056 1861.8673 873.49697 1850.9314 859.5338 1836.5374 849.7304 1817.4069 843.4183 1797.5297 835.9618 1774.0487 834.9099 1753.8683 823.5948 1739.1677 807.6647 1718.4713 788.3004 1711.5693 801.4161 1695.1262 803.93386 1691.9697 807.36526 1688.7639 810.9771 1686.3491 815.84579 1683.0942 817.1852 1682.7295 824.37106 1682.7023L1010.4454 1681.9949 1011.6179 1681.9943Z" fill="#c5c0c7" fill-rule="evenodd"/>
<path transform="matrix(1,0,0,-1,0,2062.296)" d="M1011.6179 1681.9943 1197.8688 1682.7023C1200.1914 1682.6226 1202.5162 1682.7769 1204.8081 1683.1626 1206.9367 1683.5735 1209.3547 1685.0474 1211.2627 1686.3491 1216.5914 1689.9854 1224.9039 1697.5972 1225.1508 1704.9631 1225.1887 1706.8945 1224.7632 1708.8069 1223.9098 1710.5398 1222.9657 1712.4451 1221.7848 1714.2236 1220.3952 1715.833 1218.0723 1718.5143 1215.6211 1721.0818 1213.0503 1723.5265 1208.2916 1728.0988 1202.8562 1733.6661 1198.6449 1739.1677 1195.8182 1742.9075 1193.5005 1747.0059 1191.7522 1751.3556 1189.8388 1756.1486 1188.2567 1761.0675 1187.0175 1766.0774 1186.1137 1769.6082 1185.2443 1773.1476 1184.4093 1776.6952 1182.8029 1783.7062 1180.939 1790.6558 1178.8214 1797.5297 1175.8923 1806.8737 1172.1245 1815.9337 1167.564 1824.5993 1162.5545 1834.2149 1156.2188 1843.0789 1148.7428 1850.9314 1141.7568 1858.1835 1129.1697 1869.5028 1120.8201 1876.6873 1117.5477 1870.8998 1113.9586 1865.2974 1110.0691 1859.9053 1108.3493 1857.5304 1106.5202 1855.2365 1104.5879 1853.0309 1102.4915 1850.5385 1100.0654 1848.343 1097.3768 1846.5051 1093.5482 1844.01 1088.6078 1844.01 1084.7793 1846.5051 1076.1148 1851.8222 1076.489 1859.51 1077.245 1868.6619 1077.8128 1875.5346 1078.107 1882.5159 1076.6619 1889.3073 1075.6929 1893.8611 1071.1361 1901.1836 1067.5737 1904.2891L1066.1793 1905.4215C1065.6151 1905.8609 1064.9483 1906.1494 1064.2418 1906.2599 1062.4786 1906.5294 1059.8324 1908.208 1058.0215 1909.0143 1054.598 1910.3456 1051.0287 1911.2656 1047.3882 1911.7551 1043.3013 1912.3506 1039.1744 1912.6276 1035.0446 1912.5839 1029.4061 1912.6444 1026.6843 1908.454 1025.7161 1903.646 1025.1472 1900.7334 1024.888 1897.7689 1024.9425 1894.8019 1025.0324 1888.2588 1025.7327 1881.1035 1026.2341 1874.4088 1026.3776 1872.3876 1026.4541 1870.3622 1026.4634 1868.3359 1026.5383 1865.9453 1026.2647 1863.5564 1025.6508 1861.2446 1024.2855 1856.7064 1020.1799 1851.591 1016.94528 1848.3435 1015.41348 1846.7559 1013.6091 1845.4559 1011.6179 1844.5057L1010.4454 1844.5796C1008.86459 1845.3458 1007.41116 1846.3508 1006.13619 1847.5593 1002.44186 1850.9862 998.118 1856.3821 996.589 1861.2446 995.76846 1863.8541 995.68606 1868.2033 995.8401 1871.3515 996.0173 1874.8339 996.265 1878.3123 996.5831 1881.7846 996.83969 1884.7037 997.04238 1887.6273 997.1912 1890.554 997.3846 1893.8578 997.3304 1897.1716 997.02908 1900.4674 996.43289 1906.6415 994.0925 1912.5924 987.1951 1912.5839 983.4738 1912.622 979.7543 1912.4017 976.0634 1911.925 972.00796 1911.4589 968.02786 1910.4808 964.2182 1909.0143 962.9013 1908.368 961.5903 1907.71 960.2853 1907.0402 959.56668 1906.6659 958.7955 1906.4028 957.998 1906.2599 955.19137 1905.842 951.45437 1900.8225 950.0339 1898.7113 949.1274 1897.3726 948.3021 1895.9806 947.56259 1894.543 946.6775 1892.8909 946.0103 1891.131 945.5779 1889.3073 944.8478 1885.6666 944.4928 1881.9607 944.51846 1878.2476 944.61697 1873.979 944.84957 1869.7146 945.2159 1865.4607 945.3281 1863.7887 945.3582 1862.1123 945.3061 1860.4375 945.1335 1854.1679 942.8043 1849.861 937.46047 1846.5051 933.6319 1844.01 928.69149 1844.01 924.8629 1846.5051 922.8172 1847.8672 920.9404 1849.4674 919.2721 1851.2721 917.64059 1852.9899 916.0932 1854.7857 914.63528 1856.6531 909.77047 1863.0164 905.35458 1869.7106 901.4197 1876.6873 892.8177 1869.2816 880.6372 1858.3231 873.49697 1850.9314 855.9964 1832.8142 845.6313 1808.4086 839.66848 1784.2066L835.98568 1769.0778C834.7952 1764.0534 833.3345 1759.0969 831.60989 1754.2299 829.72396 1748.829 827.0208 1743.7492 823.5948 1739.1677 819.68618 1734.2205 815.4384 1729.5509 810.8822 1725.1929 808.37338 1722.7785 805.9241 1720.3029 803.53659 1717.7684 800.75888 1714.8088 797.978 1711.2781 797.2376 1707.1354 796.47189 1702.851 798.7113 1698.4241 801.4161 1695.1262 804.1504 1691.7428 807.3726 1688.7847 810.9771 1686.3491L813.64529 1684.6681C814.6539 1684.0712 815.7372 1683.6107 816.8669 1683.2987 818.0454 1683.0065 819.2509 1682.8364 820.46438 1682.7914L824.37106 1682.7023 1011.6179 1681.9943ZM1204.19 1686.3442C1202.1383 1686.0044 1200.0581 1685.869 1197.9797 1685.9403L1011.6179 1685.2343 824.4141 1685.9421 820.56259 1686.03C819.5936 1686.0674 818.6309 1686.2025 817.689 1686.433 816.8635 1686.6647 816.0712 1687.0015 815.3316 1687.435L812.74899 1689.0623C809.4341 1691.346 806.45736 1694.0851 803.9064 1697.1989 801.8349 1699.7075 799.84878 1703.3811 800.42636 1706.5563 801.0297 1709.8735 803.67349 1713.1796 805.8991 1715.5513 808.24789 1718.0444 810.65737 1720.4797 813.12539 1722.8549 817.7887 1727.3158 822.1364 1732.0955 826.1371 1737.1592 833.0754 1746.0619 836.59848 1757.7572 839.13607 1768.321L842.81417 1783.4304C848.64389 1807.0498 858.75119 1831.0009 875.8274 1848.6804 882.177 1855.2543 892.91128 1864.9865 900.5794 1871.6724 904.0498 1865.7638 907.8915 1860.0814 912.0814 1854.6593 913.598 1852.7167 915.2074 1850.8483 916.904 1849.0607 918.7426 1847.056 920.8216 1845.2859 923.0939 1843.7907 927.9783 1840.6074 934.27786 1840.5939 939.1759 1843.7559 947.407 1848.8843 949.1954 1855.9569 948.44656 1865.7081 948.08566 1869.8959 947.856 1874.0939 947.7582 1878.296 947.736 1881.756 948.06539 1885.2092 948.7411 1888.6026 949.7735 1893.205 954.24069 1899.7344 957.55007 1902.496 957.8022 1902.7131 958.08126 1902.8969 958.3803 1903.0426 958.4436 1903.05 958.50668 1903.0595 958.5694 1903.0707 959.68606 1903.2708 960.766 1903.6387 961.7726 1904.1618 963.01138 1904.7975 964.2556 1905.4225 965.5052 1906.0368 969.04476 1907.3579 972.7281 1908.2557 976.4785 1908.7117 980.0492 1909.13 983.6412 1909.3412 987.23629 1909.3441 988.2169 1909.3566 989.1856 1909.1284 990.0577 1908.6797 992.7233 1907.2329 993.55819 1902.6981 993.804 1900.1559 994.08938 1897.0223 994.1402 1893.872 993.95608 1890.7308 993.8092 1887.8425 993.60928 1884.9572 993.35629 1882.0762 993.02719 1878.5579 992.7762 1875.0328 992.60366 1871.5034 992.51766 1869.6716 992.5144 1867.837 992.59396 1866.005 992.61087 1864.0316 992.9246 1862.072 993.52468 1860.1921 995.3039 1854.8215 999.779 1848.954 1003.95858 1845.1603L1003.9072 1845.2079C1005.5993 1843.649 1007.52127 1842.36 1009.6056 1841.3861L1012.2539 1841.2192C1015.1953 1842.6229 1016.98568 1843.7953 1019.2403 1846.056 1022.8447 1849.6702 1027.3552 1855.3726 1028.7822 1860.4131 1029.473 1863.0147 1029.7832 1865.7026 1029.7031 1868.3933 1029.6926 1870.4769 1029.6135 1872.5597 1029.466 1874.6382 1028.964 1881.3406 1028.2886 1888.1958 1028.1819 1894.8615 1028.1317 1897.5929 1028.3696 1900.3222 1028.8919 1903.0037 1029.5708 1906.3557 1031.1243 1909.3556 1035.0789 1909.344 1039.0521 1909.3634 1043.0216 1909.0961 1046.9564 1908.5441 1050.292 1908.0955 1053.5637 1907.2583 1056.7048 1906.0497 1059.0897 1904.9933 1061.0471 1903.482 1063.7473 1903.0579 1063.9011 1903.0327 1064.0466 1902.9712 1064.1715 1902.8782L1065.4393 1901.8485C1068.477 1899.1849 1072.6561 1892.5444 1073.4927 1888.6314 1074.871 1882.185 1074.5448 1875.409 1074.016 1868.9287 1073.5642 1863.3898 1073.0883 1856.81 1075.6471 1851.6503 1079.7908 1843.2948 1090.5944 1838.1502 1099.1459 1843.7907L1099.2052 1843.8303C1102.1272 1845.8278 1104.7645 1848.2123 1107.0452 1850.9188 1112.7033 1857.5001 1117.1453 1864.0769 1121.659 1871.6743 1129.0271 1865.2511 1140.308 1855.0313 1146.4072 1848.6857 1153.6548 1841.0381 1159.8097 1832.4247 1164.6968 1823.0903 1169.1652 1814.6 1172.857 1805.7232 1175.7274 1796.5682 1177.8213 1789.7697 1179.6646 1782.8964 1181.2533 1775.9623 1182.0927 1772.3959 1182.9666 1768.8377 1183.875 1765.2882 1185.1443 1760.134 1186.772 1755.0747 1188.746 1750.1472 1190.5802 1745.5068 1193.0498 1741.1437 1196.0842 1737.1826 1198.4069 1734.1865 1200.8794 1731.3097 1203.4922 1728.5629 1205.8744 1726.0431 1208.3169 1723.5809 1210.8176 1721.1786 1213.3121 1718.8065 1215.6906 1716.3153 1217.9446 1713.7136 1219.1543 1712.3121 1220.1825 1710.7637 1221.0049 1709.105 1221.6206 1707.8532 1221.9317 1706.4734 1221.9122 1705.0784 1221.6897 1698.8777 1213.5928 1691.8744 1209.4243 1689.0171 1208.4746 1688.3628 1207.492 1687.7577 1206.4801 1687.2042 1205.7595 1686.8146 1204.9889 1686.5253 1204.19 1686.3442Z" fill-rule="evenodd"/>
<path transform="matrix(1,0,0,-1,0,2062.296)" d="M1241.2759 1427.3703V1247.1618L1413.2081 1233.6376 1422.7732 1232.5308 1596.9445 1217.6408 1625.4656 1645.3989C1625.9827 1651.6008 1626.224 1657.8306 1626.1886 1664.0623 1625.9136 1670.5088 1624.9658 1676.887 1623.3667 1683.0558 1620.543 1696.1118 1615.3992 1708.3107 1608.2765 1718.8438 1600.1654 1730.7013 1589.7994 1740.1361 1578.0194 1746.3832 1557.4446 1757.3926 1535.0783 1760.5752 1513.0181 1756.1354 1504.2256 1754.4277 1495.7542 1750.9144 1487.9891 1745.7553 1472.8804 1735.0398 1454.983 1711.5792 1449.8203 1689.9749 1447.5692 1680.555 1446.7527 1668.3838 1446.0949 1658.0403L1429.8888 1414.9835 1429.6198 1412.6188 1426.9679 1412.7637 1241.2759 1427.3703Z" fill-rule="evenodd"/>
<path transform="matrix(1,0,0,-1,0,2062.296)" d="M1041.9541 731.2817H980.30557V731.2734H966.9227L764.2538 754.0096 691.2116 113.3606C690.4056 107.3461 689.9177 101.29384 689.75009 95.2287 689.8526 88.9452 690.73587 82.701938 692.37997 76.63674 695.2107 63.822065 700.7551 51.750608 708.6455 41.2225 717.6353 29.366906 729.31588 19.780245 742.73947 13.240192 766.18179 1.72153 791.95938-2.251559 817.6379 1.204201 827.8704 2.521336 837.79196 5.607977 846.95089 10.323841 864.79489 20.158513 886.2925 42.285337 892.99057 63.104925 895.91098 72.18251 897.2634 83.99374 898.37106 94.03251L968.70498 706.0167H1053.1367L1124.2937 94.03251C1125.4013 83.99374 1126.7537 72.18251 1129.6742 63.104925 1136.3722 42.285337 1157.8699 20.158513 1175.7139 10.323841 1184.8728 5.607977 1194.7943 2.521336 1205.0269 1.204201 1230.7053-2.251559 1256.4829 1.72153 1279.9252 13.240192 1293.3489 19.780245 1305.0294 29.366906 1314.0192 41.2225 1321.9096 51.750608 1327.454 63.822065 1330.2848 76.63674 1331.9288 82.701938 1332.8121 88.9452 1332.9147 95.2287 1332.747 101.29384 1332.2592 107.3461 1331.4531 113.3606L1258.4109 754.0096 1055.742 731.2734H1041.9541V731.2817Z" fill-rule="evenodd"/>
<path transform="matrix(1,0,0,-1,0,2062.296)" d="M237.636 1912.5819H206.244V20.493865H237.636V1912.5819Z" fill="#7f7f7f" fill-rule="evenodd"/>
<path transform="matrix(1,0,0,-1,0,2062.296)" stroke-width="8.136" stroke-linecap="butt" stroke-miterlimit="4" stroke-linejoin="miter" fill="none" stroke="#000000" d="M237.636 1912.5819H206.244V20.493865H237.636V1912.5819Z"/>
<path transform="matrix(1,0,0,-1,0,2062.296)" d="M779.04849 1258.6672V1438.8561L244.1875 1480.9214C238.93029 1481.4385 233.64958 1481.6797 228.36713 1481.6443 222.9026 1481.3693 217.49611 1480.4218 212.26696 1478.8229 201.19977 1475.9995 190.8592 1470.8565 181.93071 1463.7346 171.87949 1455.6248 163.8818 1445.2601 158.58647 1433.4818 149.25415 1412.9098 146.55637 1390.5465 150.3198 1368.4894 151.76732 1359.6981 154.74539 1351.2278 159.11867 1343.464 168.20186 1328.3572 188.08861 1310.4623 206.4019 1305.3003 214.38672 1303.0496 224.704 1302.2332 233.47177 1301.5753L779.04849 1258.6672Z" fill-rule="evenodd"/>
<path transform="matrix(1,0,0,-1,0,2062.296)" d="M886.49948 1412.2586 1137.0676 1412.7816 1012.2133 1183.8363 886.49948 1412.2586Z" fill-rule="evenodd"/>
<path transform="matrix(1,0,0,-1,0,2062.296)" d="M1133.0643 1414.4816 1011.0641 1193.4569 890.0906 1414.0089 777.7866 1438.2239C777.7866 1438.2239 777.9935 888.28207 776.90548 874.9189 773.04739 827.5364 764.1161 752.0185 764.1161 752.0185L765.05068 752.7387C765.4705 753.0623 765.7056 753.0764 767.4013 752.8794 833.6495 745.1823 944.98007 732.0323 966.198 730.2711 974.43148 729.5877 1047.7694 729.2712 1056.1195 729.883 1081.4823 731.7414 1258.18 753.4546 1258.18 753.4546 1258.18 753.4546 1248.4296 832.9143 1244.4854 878.8602 1243.3685 891.8696 1242.3786 1425.2612 1242.3786 1425.2612 1242.3786 1425.2612 1180.6043 1419.2742 1133.0643 1414.4816Z" fill="#b0d461" fill-rule="evenodd"/>
<path transform="matrix(1,0,0,-1,0,2062.296)" d="M1133.0643 1414.4816 1011.0641 1193.4569 890.0906 1414.0089 777.7866 1438.2239C777.8616 1276.5011 777.75289 1114.7783 777.4603 953.0558L777.2867 908.3949C777.30587 897.235 777.1788 886.0753 776.90548 874.9189 776.16488 865.94448 775.3594 856.9758 774.48898 848.0137 771.32638 815.9825 767.8686 783.98269 764.1161 752.0185L765.05068 752.7387C765.1783 752.8467 765.32748 752.92477 765.4877 752.9674L766.04519 753.00607 840.4694 744.361 920.37759 735.1565C935.6345 733.369 950.90878 731.7405 966.198 730.2711 974.2804 729.7113 1011.0052 729.6593 1025.8212 729.5568 1035.9218 729.47 1046.023 729.57876 1056.1195 729.883 1072.7235 730.853 1230.3331 750.0233 1258.18 753.4546 1254.5032 783.62246 1251.0606 813.8197 1247.8523 844.04367 1246.6273 855.6385 1245.505 867.2445 1244.4854 878.8602 1244.2119 888.29037 1244.0718 897.72409 1244.0651 907.1583L1243.4823 1016.2343C1243.092 1107.1431 1242.6504 1307.631 1242.3786 1425.2612 1205.935 1421.7261 1169.497 1418.1328 1133.0643 1414.4816ZM1135.8606 1410.0748C1169.8489 1413.4788 1203.8418 1416.8323 1237.8395 1420.1351 1238.1095 1303.3317 1238.5419 1106.9866 1238.9314 1016.2138L1239.5143 907.14389C1239.5211 897.6682 1239.6619 888.1931 1239.9365 878.7216L1239.9529 878.44229C1240.975 866.79806 1242.1001 855.1636 1243.3281 843.5403 1246.374 814.8445 1249.6312 786.17269 1253.0994 757.5273 1225.8776 754.1791 1071.9337 735.48068 1055.8605 734.5419 1045.8629 734.2421 1035.8609 734.13528 1025.8593 734.22128 1011.1892 734.32278 974.4541 734.3768 966.50479 734.9267 951.28427 736.3903 936.07858 738.01199 920.8901 739.79147L769.31906 757.32186C772.81179 787.3659 776.04446 817.4411 779.01669 847.544 779.90127 856.5768 780.7129 865.61697 781.4515 874.6636 781.7274 885.90328 781.8561 897.1463 781.8375 908.3895L782.01119 953.0422C782.30026 1112.853 782.40988 1272.6642 782.34 1432.4754L887.1348 1409.8795 1011.0516 1183.9616 1135.8606 1410.0748Z" fill="#ff7f00" fill-rule="evenodd"/>
<path transform="matrix(1,0,0,-1,0,2062.296)" d="M1011.204 1193.1232 1039.0077 1242.6874V1137.9526H1243.6716V1051.3474H1039.0077V968.6036H1243.6716V881.4468H1039.0077V729.74978H983.4331V881.4468H778.23477V968.6036H983.4331V1051.3474H778.23477V1137.9526H983.4331L982.89877 1242.2098C982.89877 1242.2098 983.79769 1241.633 984.7089 1240.8978 986.9656 1239.077 1011.204 1193.1232 1011.204 1193.1232Z" fill="#c5c0c7" fill-rule="evenodd"/>
<path transform="matrix(1,0,0,-1,0,2062.296)" d="M1011.204 1193.1232C1003.98287 1206.8411 996.5957 1220.4652 989.0442 1233.9922 988.19967 1235.4649 985.6324 1239.7489 985.09689 1240.4539L984.7089 1240.8978 982.89877 1242.2098 983.4331 1137.9526H778.23477V1051.3474H983.4331V968.6036H778.23477V881.4468H983.4331V729.74978H1039.0077V881.4468H1243.6716V968.6036H1039.0077V1051.3474H1243.6716V1137.9526H1039.0077V1242.6874L1011.204 1193.1232ZM987.5935 1227.0305C995.5772 1212.5719 1003.4052 1198.0222 1011.0759 1183.3843L1034.3908 1224.9463V1133.1867H1239.0547V1056.1134H1034.3908V963.8376H1239.0547V886.21279H1034.3908V734.51577H988.05007V886.21279H782.8516V963.8376H988.05007V1056.1134H782.8516V1133.1867H988.0745L987.5935 1227.0305Z" fill="#ff7f00" fill-rule="evenodd"/>
<path transform="matrix(1,0,0,-1,0,2062.296)" d="M0 1931.6312V1747.4867L129.90377 1617.5829H314.04826L443.952 1747.4867V1931.6312L314.04826 2061.535H129.90377L0 1931.6312Z" fill="#ff7f00" fill-rule="evenodd"/>
<path transform="matrix(1,0,0,-1,0,2062.296)" d="M3.638951 1930.1239V1748.994L131.41107 1621.2219H312.54093L440.31306 1748.994V1930.1239L312.54093 2057.896H131.41107L3.638951 1930.1239Z" fill="#ff7f00" fill-rule="evenodd"/>
<path transform="matrix(1,0,0,-1,0,2062.296)" d="M122.674968 1815.7C122.674968 1806.4807 119.82036 1798.3408 114.11116 1791.2805 108.401958 1784.2201 100.53723 1780.69 90.517 1780.69 81.31236 1780.69 73.53503 1784.2785 67.185 1791.4556 60.83496 1798.6326 57.659948 1807.2393 57.659948 1817.2754H73.73893C73.73893 1811.0903 75.282749 1806.189 78.37038 1802.5712 81.45801 1798.9535 85.390369 1797.1447 90.16746 1797.1447 94.595 1797.1447 98.43997 1798.9243 101.70238 1802.4837 104.96478 1806.0431 106.53773 1810.2151 106.42121 1814.9998 106.304698 1818.851 104.877399 1822.9063 102.139308 1827.1658 99.40122 1831.4253 94.36198 1835.8892 87.02157 1840.5571 78.63253 1845.9253 72.515529 1851.2644 68.670558 1856.5742 64.82558 1861.8842 62.90309 1866.873 62.90309 1871.541 62.786577 1879.9435 65.46641 1887.0913 70.94258 1892.9848 76.418758 1898.878 83.40962 1901.883 91.91517 1901.9998 100.88678 1901.9998 108.25631 1899.0531 114.02377 1893.1598 119.79124 1887.2664 122.674968 1880.1185 122.674968 1871.7161H105.547359C105.663867 1876.2675 104.236568 1879.8268 101.26545 1882.3942 98.294338 1884.9616 95.177577 1886.1286 91.91517 1885.8952 88.0702 1885.6618 85.09908 1884.2322 83.00182 1881.6065 80.904567 1878.9807 79.91419 1875.8007 80.03071 1872.0662 80.14722 1869.6155 81.19585 1867.2232 83.17659 1864.8892 85.15733 1862.5552 89.46837 1859.0541 96.10969 1854.3861 105.43084 1848.0844 112.159549 1841.8992 116.29581 1835.8308 120.43206 1829.7623 122.55845 1823.0521 122.674968 1815.7Z" fill-rule="evenodd"/>
<path transform="matrix(1,0,0,-1,0,2062.296)" d="M199.57445 1782.7905H139.97736V1900.0742H156.75542V1799.2453H199.57445V1782.7905Z" fill-rule="evenodd"/>
<path transform="matrix(1,0,0,-1,0,2062.296)" d="M250.08344 1780.69C238.08246 1780.69 229.28562 1785.7372 223.69293 1795.8318 218.10024 1805.9264 215.3039 1821.1266 215.3039 1841.4324 215.3039 1861.5049 218.10024 1876.6176 223.69293 1886.7704 229.28562 1896.9234 238.08246 1901.9998 250.08344 1901.9998 262.0844 1901.9998 270.88127 1896.9234 276.47395 1886.7704 282.06663 1876.6176 284.86299 1861.5049 284.86299 1841.4324 284.86299 1821.1266 282.06663 1805.9264 276.47395 1795.8318 270.88127 1785.7372 262.0844 1780.69 250.08344 1780.69ZM250.08344 1797.1447C256.49174 1797.028 261.09407 1800.5873 263.89039 1807.8228 266.68675 1815.0581 268.0849 1826.378 268.0849 1841.7825 268.0849 1856.9535 266.68675 1868.04 263.89039 1875.0421 261.09407 1882.0441 256.49174 1885.545 250.08344 1885.545 243.67514 1885.545 239.07283 1882.0441 236.27649 1875.0421 233.48014 1868.04 232.08197 1856.9535 232.08197 1841.7825 232.08197 1826.378 233.48014 1815.0581 236.27649 1807.8228 239.07283 1800.5873 243.67514 1797.028 250.08344 1797.1447Z" fill-rule="evenodd"/>
<path transform="matrix(1,0,0,-1,0,2062.296)" d="M382.90983 1900.0742 364.0345 1782.7905H349.52845L338.51786 1844.0581 327.33247 1782.7905H312.65165L294.1259 1900.0742H310.55439L320.5164 1837.5813 331.87654 1900.0742H345.15919L356.16978 1837.5813 366.4813 1900.0742H382.90983Z" fill-rule="evenodd"/>
<path transform="matrix(1,0,0,-1,0,2062.296)" d="M240.84189 1630.3208H308.57118L430.992 1752.9369 431.21568 1831.8129 240.84189 1630.3208Z" fill-rule="evenodd"/>
<path transform="matrix(1,0,0,-1,0,2062.296)" d="M12.736328 1831.8129 216.17638 1630.3208H135.442L13.021189 1752.9369 12.736328 1831.8129Z" fill-rule="evenodd"/>
<path transform="matrix(1,0,0,-1,0,2062.296)" d="M216.29314 2048.6473 216.29596 2048.797C173.19976 2048.797 135.43399 2048.797 135.43399 2048.797L13.021189 1926.3423 12.736328 1856.301C13.035702 1856.5756 216.29015 2048.6473 216.29015 2048.6473H216.29314Z" fill-rule="evenodd"/>
<path transform="matrix(1,0,0,-1,0,2062.296)" d="M240.73313 2048.797 240.73361 2048.7896H240.73934L430.98475 1856.3908 430.992 1856.3971V1926.3423L308.57118 2048.797C308.57118 2048.797 281.9911 2048.797 240.73313 2048.797Z" fill-rule="evenodd"/>
</g>
</svg>
