<svg xmlns="http://www.w3.org/2000/svg" xmlns:xlink="http://www.w3.org/1999/xlink" xmlns:inkscape="http://www.inkscape.org/namespaces/inkscape" version="1.1" width="1626.9763" height="2062.296" viewBox="0 0 1626.9763 2062.296">
<g inkscape:groupmode="layer" inkscape:label="Layer 1">
<path transform="matrix(1,0,0,-1,0,2062.296)" d="M828.80099 1667.2697C828.80099 1667.2697 826.4209 1615.0874 830.33706 1589.4915 835.322 1556.9097 863.87857 1521.4844 891.8685 1501.4434 923.5641 1478.7492 946.71786 1467.5855 979.57467 1463.657 993.4021 1462.0038 1047.8936 1465.9827 1059.4694 1469.4909 1096.8368 1480.8156 1131.4612 1512.7837 1160.0092 1545.5447 1165.5863 1551.9448 1186.2954 1601.2009 1186.9938 1609.7269 1188.945 1633.5455 1187.4163 1667.2697 1187.4163 1667.2697H828.80099Z" fill-rule="evenodd"/>
<path transform="matrix(1,0,0,-1,0,2062.296)" d="M1012.39157 1682.0234 1198.6456 1682.7316C1205.8316 1682.7588 1207.171 1683.1235 1212.0397 1686.3786 1215.6516 1688.7932 1219.0831 1691.9992 1221.601 1695.1557 1234.7168 1711.5991 1215.3522 1718.5012 1199.4218 1739.198 1188.1066 1753.8988 1187.0546 1774.0796 1179.598 1797.5609 1173.2858 1817.4386 1163.4822 1836.5693 1149.5188 1850.9636 1138.9099 1861.8997 1121.5956 1876.7199 1121.5956 1876.7199 1121.5956 1876.7199 1108.474 1853.023 1098.1519 1846.5372 1093.9252 1843.8815 1089.2824 1844.2068 1085.5542 1846.5372 1071.3679 1855.405 1081.5427 1869.3466 1077.4367 1889.3401 1076.1525 1895.5929 1068.5016 1906.036 1065.0164 1906.2931 1063.4882 1906.4058 1060.4331 1908.3716 1058.796 1909.0475 1052.0982 1911.8131 1042.7462 1912.6952 1035.8186 1912.6172 1017.6274 1912.4121 1030.3792 1873.7285 1026.4247 1861.277 1024.466 1855.1096 1017.1355 1846.4574 1012.39157 1844.5379L1011.21896 1844.6117C1006.4717 1846.6702 999.2969 1855.1857 997.3623 1861.277 993.4078 1873.7285 1006.15957 1912.4121 987.9683 1912.6172 981.0407 1912.6952 971.68887 1911.8131 964.99099 1909.0475 963.3539 1908.3716 960.29879 1906.4058 958.7706 1906.2931 955.2854 1906.036 947.63449 1895.5929 946.35037 1889.3401 942.24429 1869.3466 952.41909 1855.405 938.2328 1846.5372 934.50466 1844.2068 929.86178 1843.8815 925.635 1846.5372 915.313 1853.023 902.1914 1876.7199 902.1914 1876.7199 902.1914 1876.7199 884.877 1861.8997 874.2682 1850.9636 860.3048 1836.5693 850.5012 1817.4386 844.18899 1797.5609 836.73239 1774.0796 835.6804 1753.8988 824.3652 1739.198 808.43478 1718.5012 789.0701 1711.5991 802.18606 1695.1557 804.7038 1691.9992 808.1353 1688.7932 811.7472 1686.3786 816.61599 1683.1235 817.9554 1682.7588 825.14138 1682.7316L1011.21896 1682.0242 1012.39157 1682.0234Z" fill="#c5c0c7" fill-rule="evenodd"/>
<path transform="matrix(1,0,0,-1,0,2062.296)" d="M1012.39157 1682.0234 1198.6456 1682.7316C1200.9684 1682.6519 1203.2932 1682.8062 1205.5851 1683.1919 1207.7136 1683.6028 1210.1318 1685.0767 1212.0397 1686.3786 1217.3687 1690.0148 1225.6812 1697.6267 1225.9281 1704.9928 1225.9661 1706.9242 1225.5405 1708.8366 1224.6871 1710.5696 1223.743 1712.4749 1222.5621 1714.2534 1221.1725 1715.8629 1218.8495 1718.5442 1216.3983 1721.1117 1213.8274 1723.5564 1209.0686 1728.1288 1203.6332 1733.6963 1199.4218 1739.198 1196.5951 1742.9379 1194.2772 1747.0363 1192.5289 1751.386 1190.6154 1756.1792 1189.0335 1761.0982 1187.7941 1766.1082 1186.8903 1769.6389 1186.0209 1773.1785 1185.186 1776.7261 1183.5795 1783.7372 1181.7156 1790.6869 1179.598 1797.5609 1176.6688 1806.9052 1172.9009 1815.9653 1168.3402 1824.631 1163.3307 1834.2467 1156.9949 1843.1109 1149.5188 1850.9636 1142.5327 1858.2158 1129.9453 1869.5354 1121.5956 1876.7199 1118.3233 1870.9324 1114.734 1865.3298 1110.8445 1859.9376 1109.1245 1857.5628 1107.2954 1855.2687 1105.3632 1853.0631 1103.2666 1850.5707 1100.8406 1848.3753 1098.1519 1846.5372 1094.3234 1844.0421 1089.3828 1844.0421 1085.5542 1846.5372 1076.8895 1851.8544 1077.2637 1859.5424 1078.0198 1868.6945 1078.5875 1875.5671 1078.8818 1882.5486 1077.4367 1889.3401 1076.4677 1893.894 1071.9108 1901.2167 1068.3484 1904.3222L1066.9539 1905.4547C1066.3897 1905.894 1065.7229 1906.1826 1065.0164 1906.2931 1063.2532 1906.5625 1060.6068 1908.2412 1058.796 1909.0475 1055.3724 1910.3788 1051.803 1911.2988 1048.1625 1911.7885 1044.0755 1912.3838 1039.9485 1912.6609 1035.8186 1912.6172 1030.18 1912.6776 1027.4583 1908.4872 1026.4899 1903.6791 1025.921 1900.7665 1025.6618 1897.802 1025.7163 1894.8348 1025.8062 1888.2918 1026.5066 1881.1362 1027.0079 1874.4414 1027.1515 1872.4202 1027.2279 1870.3948 1027.2372 1868.3685 1027.3123 1865.9778 1027.0385 1863.5889 1026.4247 1861.277 1025.0595 1856.7388 1020.9536 1851.6232 1017.719 1848.3757 1016.18716 1846.788 1014.3827 1845.488 1012.39157 1844.5379L1011.21896 1844.6117C1009.6381 1845.3779 1008.1847 1846.3829 1006.9097 1847.5914 1003.21536 1851.0183 998.89138 1856.4143 997.3623 1861.277 996.54177 1863.8866 996.4594 1868.2357 996.6134 1871.384 996.7906 1874.8665 997.0383 1878.345 997.3565 1881.8173 997.613 1884.7365 997.81576 1887.6602 997.9646 1890.5868 998.15798 1893.8908 998.10379 1897.2046 997.8024 1900.5005 997.20626 1906.6747 994.86587 1912.6256 987.9683 1912.6172 984.24697 1912.6553 980.52737 1912.435 976.8364 1911.9583 972.7809 1911.4922 968.8007 1910.5142 964.99099 1909.0475 963.6741 1908.4013 962.36306 1907.7432 961.058 1907.0734 960.33938 1906.6991 959.5682 1906.436 958.7706 1906.2931 955.964 1905.8753 952.2269 1900.8556 950.8064 1898.7443 949.8999 1897.4055 949.07467 1896.0137 948.3351 1894.5759 947.44998 1892.9238 946.78286 1891.1638 946.35037 1889.3401 945.62026 1885.6994 945.2652 1881.9934 945.29086 1878.2803 945.3894 1874.0116 945.622 1869.7472 945.98837 1865.493 946.1006 1863.8212 946.1307 1862.1448 946.07858 1860.4699 945.90597 1854.2001 943.5768 1849.8932 938.2328 1846.5372 934.4042 1844.0421 929.4636 1844.0421 925.635 1846.5372 923.58926 1847.8993 921.71249 1849.4995 920.04409 1851.3043 918.41256 1853.0221 916.8651 1854.818 915.4072 1856.6854 910.54226 1863.0487 906.1263 1869.743 902.1914 1876.7199 893.58926 1869.3142 881.4085 1858.3555 874.2682 1850.9636 856.76736 1832.8462 846.40206 1808.44 840.4391 1784.2377L836.7562 1769.1087C835.56576 1764.0841 834.105 1759.1275 832.3804 1754.2604 830.4944 1748.8594 827.7912 1743.7796 824.3652 1739.198 820.4565 1734.2506 816.2086 1729.581 811.65237 1725.2228 809.14346 1722.8085 806.6941 1720.3329 804.3066 1717.7984 801.5288 1714.8386 798.7479 1711.3078 798.0075 1707.165 797.24179 1702.8805 799.4812 1698.4536 802.18606 1695.1557 804.92037 1691.7722 808.1427 1688.8141 811.7472 1686.3786L814.4154 1684.6974C815.424 1684.1005 816.5074 1683.64 817.6371 1683.328 818.8157 1683.0358 820.0212 1682.8657 821.2346 1682.8207L825.14138 1682.7316 1012.39157 1682.0234ZM1204.9669 1686.3737C1202.9153 1686.0337 1200.835 1685.8984 1198.7566 1685.9697L1012.39157 1685.2636 825.18447 1685.9714 821.3328 1686.0593C820.3639 1686.0968 819.4011 1686.2318 818.4593 1686.4624 817.6338 1686.6941 816.84146 1687.0309 816.1018 1687.4645L813.5191 1689.0917C810.20419 1691.3754 807.2274 1694.1145 804.6764 1697.2284 802.60488 1699.737 800.61868 1703.4108 801.1962 1706.5859 801.7997 1709.9033 804.4435 1713.2094 806.6692 1715.581 809.01797 1718.0744 811.4274 1720.5097 813.8955 1722.8849 818.55899 1727.3458 822.90676 1732.1256 826.9075 1737.1893 833.8459 1746.0923 837.369 1757.7879 839.9067 1768.3518L843.58486 1783.4614C849.4147 1807.0813 859.52218 1831.0327 876.59866 1848.7125 882.94839 1855.2865 893.6828 1865.0188 901.3511 1871.7048 904.82156 1865.7963 908.6633 1860.1138 912.8533 1854.6915 914.36996 1852.7489 915.9794 1850.8805 917.67599 1849.0928 919.5146 1847.0881 921.5936 1845.318 923.86599 1843.8228 928.7504 1840.6395 935.0501 1840.6259 939.9483 1843.788 948.1795 1848.9165 949.9679 1855.9893 949.21908 1865.7406 948.85818 1869.9285 948.62857 1874.1265 948.53067 1878.3287 948.50857 1881.7887 948.8379 1885.242 949.5136 1888.6355 950.546 1893.2379 955.01327 1899.7675 958.3227 1902.529 958.5748 1902.7462 958.85397 1902.9299 959.153 1903.0757 959.2163 1903.0833 959.27938 1903.0925 959.3421 1903.1039 960.45877 1903.304 961.5387 1903.6718 962.54537 1904.1948 963.7841 1904.8306 965.0284 1905.4557 966.278 1906.07 969.81759 1907.3911 973.50106 1908.289 977.2515 1908.7449 980.82229 1909.1632 984.4143 1909.3744 988.00949 1909.3773 988.9901 1909.3898 989.95889 1909.1616 990.8309 1908.7129 993.4966 1907.2661 994.3315 1902.7312 994.57736 1900.1889 994.8627 1897.0554 994.9135 1893.9049 994.7294 1890.7638 994.5825 1887.8754 994.38259 1884.99 994.1296 1882.1089 993.8004 1878.5906 993.5495 1875.0654 993.3769 1871.536 993.2909 1869.7042 993.28768 1867.8695 993.3672 1866.0375 993.38418 1864.0641 993.6979 1862.1045 994.298 1860.2245 996.0772 1854.8538 1000.55239 1848.9862 1004.73208 1845.1924L1004.6807 1845.24C1006.3728 1843.6812 1008.2948 1842.3921 1010.37918 1841.4182L1013.0275 1841.2512C1015.969 1842.6549 1017.7594 1843.8274 1020.0141 1846.0881 1023.6185 1849.7024 1028.1292 1855.4048 1029.5562 1860.4454 1030.247 1863.0471 1030.5571 1865.7351 1030.477 1868.4258 1030.4666 1870.5095 1030.3875 1872.5923 1030.2399 1874.6708 1029.7379 1881.3733 1029.0625 1888.2286 1028.9558 1894.8944 1028.9057 1897.626 1029.1436 1900.3552 1029.6657 1903.0368 1030.3447 1906.3888 1031.8982 1909.3888 1035.8529 1909.3773 1039.8263 1909.3966 1043.7958 1909.1293 1047.7306 1908.5773 1051.0663 1908.1287 1054.3381 1907.2915 1057.4793 1906.0829 1059.8643 1905.0264 1061.8215 1903.5151 1064.5219 1903.091 1064.6757 1903.0659 1064.821 1903.0043 1064.946 1902.9113L1066.2139 1901.8817C1069.2517 1899.218 1073.4308 1892.5774 1074.2675 1888.6643 1075.6458 1882.2178 1075.3195 1875.4417 1074.7908 1868.9612 1074.3389 1863.4221 1073.8629 1856.8424 1076.4219 1851.6825 1080.5657 1843.3269 1091.3693 1838.1821 1099.921 1843.8228L1099.9804 1843.8624C1102.9024 1845.8599 1105.5398 1848.2445 1107.8204 1850.951 1113.4786 1857.5325 1117.9207 1864.1093 1122.4346 1871.7069 1129.8029 1865.2836 1141.0839 1855.0635 1147.1832 1848.7178 1154.4309 1841.0701 1160.5858 1832.4566 1165.473 1823.1221 1169.9415 1814.6316 1173.6334 1805.7545 1176.5039 1796.5995 1178.5979 1789.8008 1180.4412 1782.9274 1182.0299 1775.9932 1182.8693 1772.4266 1183.7432 1768.8684 1184.6516 1765.319 1185.9209 1760.1647 1187.5486 1755.1052 1189.5227 1750.1776 1191.3569 1745.5372 1193.8267 1741.174 1196.8611 1737.2129 1199.1837 1734.2167 1201.6563 1731.3397 1204.2692 1728.593 1206.6514 1726.0731 1209.094 1723.6109 1211.5947 1721.2085 1214.0892 1718.8364 1216.4677 1716.3451 1218.7218 1713.7434 1219.9315 1712.3419 1220.9597 1710.7935 1221.7821 1709.1348 1222.398 1707.8828 1222.7089 1706.503 1222.6896 1705.108 1222.467 1698.9074 1214.37 1691.9039 1210.2013 1689.0465 1209.2517 1688.3921 1208.2689 1687.787 1207.2571 1687.2337 1206.5365 1686.8439 1205.7659 1686.5546 1204.9669 1686.3737Z" fill-rule="evenodd"/>
<path transform="matrix(1,0,0,-1,0,2062.296)" d="M1242.0535 1427.395V1247.1835L1413.9888 1233.659 1423.5541 1232.5523 1597.7283 1217.662 1626.2499 1645.4275C1626.767 1651.6296 1627.0083 1657.8594 1626.9729 1664.0913 1626.6979 1670.5379 1625.7501 1676.9161 1624.151 1683.0851 1621.3272 1696.1414 1616.1834 1708.3405 1609.0604 1718.8737 1600.9492 1730.7313 1590.5831 1740.1664 1578.8029 1746.4135 1558.2278 1757.4231 1535.861 1760.6057 1513.8004 1756.1659 1505.0078 1754.4583 1496.5361 1750.945 1488.7711 1745.7857 1473.662 1735.07 1455.7644 1711.609 1450.6015 1690.0043 1448.3505 1680.5844 1447.5339 1668.4127 1446.876 1658.0691L1430.6697 1415.008 1430.4006 1412.6433 1427.7488 1412.7882 1242.0535 1427.395Z" fill-rule="evenodd"/>
<path transform="matrix(1,0,0,-1,0,2062.296)" d="M1042.7283 731.2944H981.0786V731.2861H967.69558L765.02316 754.0227 691.9796 113.36258C691.1736 107.34797 690.6857 101.2956 690.51809 95.230358 690.6206 88.94675 691.50387 82.70338 693.148 76.63808 695.9788 63.823175 701.5233 51.751508 709.4138 41.223218 718.4038 29.367417 730.08456 19.780589 743.5084 13.240422 766.95108 1.72156 792.7291-2.251598 818.4081 1.204222 828.6408 2.52138 838.5625 5.608074 847.7216 10.324021 865.5659 20.158864 887.0639 42.286069 893.7621 63.10602 896.68258 72.18377 898.03506 83.99519 899.1427 94.03414L969.47787 706.029H1053.9111L1125.0692 94.03414C1126.1769 83.99519 1127.5293 72.18377 1130.4498 63.10602 1137.148 42.286069 1158.646 20.158864 1176.4902 10.324021 1185.6494 5.608074 1195.571 2.52138 1205.8038 1.204222 1231.4828-2.251598 1257.2609 1.72156 1280.7035 13.240422 1294.1273 19.780589 1305.8081 29.367417 1314.7981 41.223218 1322.6886 51.751508 1328.233 63.823175 1331.064 76.63808 1332.708 82.70338 1333.5913 88.94675 1333.6939 95.230358 1333.5263 101.2956 1333.0383 107.34797 1332.2323 113.36258L1259.1889 754.0227 1056.5164 731.2861H1042.7283V731.2944Z" fill-rule="evenodd"/>
<path transform="matrix(1,0,0,-1,0,2062.296)" d="M238.39615 1912.6151H207.0036V20.49422H238.39615V1912.6151Z" fill="#7f7f7f" fill-rule="evenodd"/>
<path transform="matrix(1,0,0,-1,0,2062.296)" stroke-width="8.136142" stroke-linecap="butt" stroke-miterlimit="4" stroke-linejoin="miter" fill="none" stroke="#000000" d="M238.39615 1912.6151H207.0036V20.49422H238.39615V1912.6151Z"/>
<path transform="matrix(1,0,0,-1,0,2062.296)" d="M.720013 1931.6679V1747.5244L130.6281 1617.6162H314.77165L444.67976 1747.5244V1931.6679L314.77165 2061.576H130.6281L.720013 1931.6679Z" fill="#ffffff" fill-rule="evenodd"/>
<path transform="matrix(1,0,0,-1,0,2062.296)" stroke-width="1.440025" stroke-linecap="butt" stroke-miterlimit="4" stroke-linejoin="miter" fill="none" stroke="#000000" d="M.720013 1931.6679V1747.5244L130.6281 1617.6162H314.77165L444.67976 1747.5244V1931.6679L314.77165 2061.576H130.6281L.720013 1931.6679Z"/>
<path transform="matrix(1,0,0,-1,0,2062.296)" d="M7.920138 1928.6856V1750.5067L133.61049 1624.8164H311.78926L437.4796 1750.5067V1928.6856L311.78926 2054.376H133.61049L7.920138 1928.6856Z" fill="#d50002" fill-rule="evenodd"/>
<path transform="matrix(1,0,0,-1,0,2062.296)" d="M116.83064 1807.4846C116.83064 1795.9406 113.25052 1785.7482 106.09029 1776.9075 98.930049 1768.0668 89.06645 1763.6465 76.49951 1763.6465 64.95545 1763.6465 55.20145 1768.1399 47.237516 1777.1267 39.273576 1786.1135 35.291608 1796.8904 35.291608 1809.4574H55.457178C55.457178 1801.7127 57.39336 1795.5753 61.265737 1791.0453 65.13811 1786.5154 70.0699 1784.2504 76.06113 1784.2504 81.61396 1784.2504 86.436168 1786.4789 90.527729 1790.9358 94.61929 1795.3926 96.59201 1800.6167 96.445888 1806.6079 96.29976 1811.43 94.5097 1816.508 91.07571 1821.8417 87.641719 1827.1753 81.32171 1832.7647 72.11569 1838.6098 61.594526 1845.3317 53.92284 1852.017 49.10064 1858.6658 44.27844 1865.3146 41.867338 1871.5615 41.867338 1877.4066 41.72121 1887.9277 45.082136 1896.878 51.950124 1904.2575 58.818105 1911.6369 67.58574 1915.3997 78.25304 1915.5458 89.50484 1915.5458 98.74739 1911.8561 105.98069 1904.4767 113.21399 1897.0973 116.83064 1888.147 116.83064 1877.6257H95.34993C95.496059 1883.3247 93.706 1887.7816 89.97975 1890.9965 86.2535 1894.2112 82.3446 1895.6725 78.25304 1895.3803 73.43083 1895.088 69.70459 1893.298 67.074298 1890.01 64.44401 1886.7222 63.201925 1882.7402 63.34805 1878.0642 63.494176 1874.9955 64.80932 1871.9999 67.29349 1869.0773 69.77765 1866.1548 75.184368 1861.771 83.51362 1855.9259 95.203807 1848.035 103.642658 1840.2903 108.83018 1832.6917 114.01769 1825.093 116.68452 1816.6907 116.83064 1807.4846Z" fill="#ffffff"/>
<path transform="matrix(1,0,0,-1,0,2062.296)" d="M207.79489 1893.4075H181.05359V1766.2767H159.79207V1893.4075H133.05078V1913.1347H207.79489V1893.4075Z" fill="#ffffff"/>
<path transform="matrix(1,0,0,-1,0,2062.296)" d="M265.66133 1763.6465C250.61019 1763.6465 239.57758 1769.9664 232.56346 1782.6065 225.54936 1795.2465 222.0423 1814.2796 222.0423 1839.7057 222.0423 1864.8396 225.54936 1883.7631 232.56346 1896.4762 239.57758 1909.1892 250.61019 1915.5458 265.66133 1915.5458 280.7124 1915.5458 291.74504 1909.1892 298.75914 1896.4762 305.77326 1883.7631 309.2803 1864.8396 309.2803 1839.7057 309.2803 1814.2796 305.77326 1795.2465 298.75914 1782.6065 291.74504 1769.9664 280.7124 1763.6465 265.66133 1763.6465ZM265.66133 1784.2504C273.6983 1784.1043 279.47035 1788.5612 282.9774 1797.6211 286.48445 1806.6809 288.23799 1820.8554 288.23799 1840.1442 288.23799 1859.1406 286.48445 1873.0227 282.9774 1881.7904 279.47035 1890.558 273.6983 1894.9419 265.66133 1894.9419 257.6243 1894.9419 251.85227 1890.558 248.34522 1881.7904 244.83817 1873.0227 243.08464 1859.1406 243.08464 1840.1442 243.08464 1820.8554 244.83817 1806.6809 248.34522 1797.6211 251.85227 1788.5612 257.6243 1784.1043 265.66133 1784.2504Z" fill="#ffffff"/>
<path transform="matrix(1,0,0,-1,0,2062.296)" d="M389.50419 1874.5571C389.50419 1880.11 387.75068 1884.4938 384.24363 1887.7085 380.73655 1890.9234 376.13356 1892.5308 370.43458 1892.5308H348.73469V1856.3643H370.43458C375.69517 1856.3643 380.18858 1858.1178 383.91484 1861.6249 387.64109 1865.1318 389.50419 1869.4426 389.50419 1874.5571ZM368.90025 1835.3219H348.73469V1766.2767H327.69236V1913.1347H371.53056C383.0746 1913.1347 392.3902 1909.5546 399.4774 1902.3943 406.56455 1895.2341 410.10816 1885.7359 410.10816 1873.8995 409.962 1863.3783 406.4915 1854.3185 399.69657 1846.7199 392.90165 1839.1212 382.6362 1835.3219 368.90025 1835.3219Z" fill="#ffffff"/>
<path transform="matrix(1,0,0,-1,0,2062.296)" d="M779.81808 1258.6891V1438.8811L244.94776 1480.9472C239.69046 1481.4642 234.40967 1481.7056 229.1271 1481.6702 223.66249 1481.3952 218.2559 1480.4475 213.02667 1478.8485 201.95928 1476.0252 191.61855 1470.882 182.68988 1463.7601 172.63849 1455.65 164.64067 1445.2853 159.34525 1433.5067 150.01277 1412.9345 147.31493 1390.5708 151.07842 1368.5132 152.52597 1359.7218 155.5041 1351.2514 159.87744 1343.4873 168.9608 1328.3803 188.84789 1310.4851 207.1615 1305.323 215.14647 1303.0723 225.46392 1302.2557 234.23186 1301.598L779.81808 1258.6891Z" fill-rule="evenodd"/>
<path transform="matrix(1,0,0,-1,0,2062.296)" d="M887.27096 1412.2832 1137.8434 1412.8062 1012.98696 1183.8569 887.27096 1412.2832Z" fill-rule="evenodd"/>
<path transform="matrix(1,0,0,-1,0,2062.296)" d="M1133.8401 1414.5062 1011.8377 1193.4777 890.8621 1414.0335 778.55618 1438.2489C778.55618 1438.2489 778.7631 888.29757 777.675 874.93417 773.81686 827.5508 764.88546 752.03158 764.88546 752.03158L765.81997 752.75186C766.23989 753.07546 766.4749 753.0895 768.1707 752.89248 834.42 745.19528 945.7525 732.04507 966.9708 730.2838 975.2044 729.6004 1048.5436 729.2839 1056.8939 729.8957 1082.2571 731.75418 1258.958 753.4677 1258.958 753.4677 1258.958 753.4677 1249.2073 832.9288 1245.2631 878.87557 1244.1463 891.8852 1243.1561 1425.286 1243.1561 1425.286 1243.1561 1425.286 1181.3809 1419.299 1133.8401 1414.5062Z" fill="#b0d461" fill-rule="evenodd"/>
<path transform="matrix(1,0,0,-1,0,2062.296)" d="M1133.8401 1414.5062 1011.8377 1193.4777 890.8621 1414.0335 778.55618 1438.2489C778.63119 1276.5233 778.5224 1114.7977 778.2299 953.0723L778.0562 908.4107C778.0754 897.2506 777.9483 886.0907 777.675 874.93417 776.9344 865.95956 776.12887 856.9907 775.2584 848.0284 772.09579 815.9967 768.638 783.99636 764.88546 752.03158L765.81997 752.75186C765.94766 752.8598 766.0968 752.9378 766.257 752.98049L766.8145 753.01919 841.24008 744.37399 921.1496 735.1693C936.4068 733.3818 951.68136 731.7532 966.9708 730.2838 975.05337 729.724 1011.7788 729.672 1026.595 729.5695 1036.6958 729.48269 1046.7971 729.59146 1056.8939 729.8957 1073.4982 730.8657 1231.1106 750.0364 1258.958 753.4677 1255.2811 783.63607 1251.8383 813.83389 1248.63 844.05838 1247.405 855.6534 1246.2826 867.2596 1245.2631 878.87557 1244.9895 888.30587 1244.8495 897.7397 1244.8428 907.17416L1244.2599 1016.252C1243.8698 1107.1622 1243.428 1307.6538 1243.1561 1425.286 1206.712 1421.7507 1170.2733 1418.1575 1133.8401 1414.5062ZM1136.6364 1410.0994C1170.6253 1413.5034 1204.6188 1416.8568 1238.6171 1420.1599 1238.8871 1303.3544 1239.3195 1107.0059 1239.709 1016.2315L1240.2919 907.15969C1240.2987 897.68386 1240.4395 888.20858 1240.7141 878.73696L1240.7305 878.4575C1241.7526 866.8131 1242.8777 855.17849 1244.1057 843.555 1247.1517 814.8587 1250.409 786.18637 1253.8772 757.54049 1226.6549 754.1922 1072.7084 735.49349 1056.6349 734.5546 1046.6372 734.25497 1036.6348 734.1481 1026.6332 734.234 1011.9628 734.3355 975.22708 734.3895 967.2776 734.9395 952.05679 736.4031 936.8508 738.0248 921.6621 739.8043L770.08847 757.335C773.58126 787.3796 776.81399 817.4554 779.7862 847.5587 780.6708 856.5917 781.4825 865.632 782.22109 874.6788 782.497 885.9187 782.62576 897.1619 782.6071 908.40536L782.78079 953.0587C783.0698 1112.8724 783.17947 1272.6864 783.1097 1432.5003L887.90628 1409.904 1011.8252 1183.9822 1136.6364 1410.0994Z" fill="#ff7f00" fill-rule="evenodd"/>
<path transform="matrix(1,0,0,-1,0,2062.296)" d="M1011.97756 1193.1439 1039.7817 1242.709V1137.9724H1244.4494V1051.3657H1039.7817V968.6205H1244.4494V881.4621H1039.7817V729.76248H984.20626V881.4621H779.0043V968.6205H984.20626V1051.3657H779.0043V1137.9724H984.20626L983.6718 1242.2315C983.6718 1242.2315 984.5708 1241.6547 985.48208 1240.9194 987.7388 1239.0985 1011.97756 1193.1439 1011.97756 1193.1439Z" fill="#c5c0c7" fill-rule="evenodd"/>
<path transform="matrix(1,0,0,-1,0,2062.296)" d="M1011.97756 1193.1439C1004.75637 1206.862 997.369 1220.4865 989.8174 1234.0137 988.97286 1235.4863 986.4056 1239.7705 985.87008 1240.4755L985.48208 1240.9194 983.6718 1242.2315 984.20626 1137.9724H779.0043V1051.3657H984.20626V968.6205H779.0043V881.4621H984.20626V729.76248H1039.7817V881.4621H1244.4494V968.6205H1039.7817V1051.3657H1244.4494V1137.9724H1039.7817V1242.709L1011.97756 1193.1439ZM988.3667 1227.0519C996.3506 1212.593 1004.17868 1198.0431 1011.84957 1183.4049L1035.1647 1224.9677V1133.2063H1239.8323V1056.1318H1035.1647V963.8544H1239.8323V886.2282H1035.1647V734.52859H988.82327V886.2282H783.6213V963.8544H988.82327V1056.1318H783.6213V1133.2063H988.8477L988.3667 1227.0519Z" fill="#ff7f00" fill-rule="evenodd"/>
</g>
</svg>
