<svg xmlns="http://www.w3.org/2000/svg" xmlns:xlink="http://www.w3.org/1999/xlink" version="1.1" width="6912" height="576" viewBox="0 0 6912 576">
<defs>
<clipPath id="clip_0">
<path transform="matrix(1,0,0,-1,0,576)" d="M0 576V0H6912V576H0Z" fill-rule="evenodd"/>
</clipPath>
</defs>
<g id="layer_1" data-name="Layer 1">
<g clip-path="url(#clip_0)">
<path transform="matrix(1,0,0,-1,0,576)" d="M8559.969 575.9739 8146.897 .028982 8146.878 0H7534.881L7534.884 .026148 7947.9558 575.971 7947.9748 576H8559.972L8559.969 575.9739Z" fill="#ff7f00"/>
<path transform="matrix(1,0,0,-1,0,576)" d="M7947.6945 575.9739 7534.622 .028982 7534.603 0H6922.606L6922.609 .026148 7335.6809 575.971 7335.6999 576H7947.6975L7947.6945 575.9739Z"/>
<path transform="matrix(1,0,0,-1,0,576)" d="M7335.5285 575.9739 6922.4567 .028982 6922.4377 0H6310.44L6310.443 .026148 6723.5148 575.971 6723.5339 576H7335.5314L7335.5285 575.9739Z" fill="#ff7f00"/>
<path transform="matrix(1,0,0,-1,0,576)" d="M6723.2536 575.9739 6310.1818 .028982 6310.1628 0H5698.165L5698.168 .026148 6111.2399 575.971 6111.259 576H6723.2565L6723.2536 575.9739Z"/>
<path transform="matrix(1,0,0,-1,0,576)" d="M6111.2126 575.9739 5698.1408 .028982 5698.1218 0H5086.1247L5086.1276 .026148 5499.199 575.971 5499.2185 576H6111.2155L6111.2126 575.9739Z" fill="#ff7f00"/>
<path transform="matrix(1,0,0,-1,0,576)" d="M5498.9377 575.9739 5085.8659 .028982 5085.8469 0H4473.8498L4473.8527 .026148 4886.9245 575.971 4886.9436 576H5498.9406L5498.9377 575.9739Z"/>
<path transform="matrix(1,0,0,-1,0,576)" d="M4886.7717 575.9739 4473.6999 .028982 4473.6809 0H3861.6837L3861.6866 .026148 4274.7585 575.971 4274.7775 576H4886.7746L4886.7717 575.9739Z" fill="#ff7f00"/>
<path transform="matrix(1,0,0,-1,0,576)" d="M4274.4968 575.9739 3861.4249 .028982 3861.4058 0H3249.4088L3249.4117 .026148 3662.4835 575.971 3662.5025 576H4274.4997L4274.4968 575.9739Z"/>
<path transform="matrix(1,0,0,-1,0,576)" d="M3662.5885 575.9739 3249.5167 .028982 3249.4976 0H2637.5003L2637.5032 .026148 3050.5753 575.971 3050.5943 576H3662.5914L3662.5885 575.9739Z" fill="#ff7f00"/>
<path transform="matrix(1,0,0,-1,0,576)" d="M3050.3135 575.9739 2637.2418 .028982 2637.2227 0H2025.2254L2025.2284 .026148 2438.3004 575.971 2438.3194 576H3050.3165L3050.3135 575.9739Z"/>
<path transform="matrix(1,0,0,-1,0,576)" d="M2438.1475 575.9739 2025.0757 .028982 2025.0567 0H1413.0595L1413.0624 .026148 1826.1343 575.971 1826.1533 576H2438.1507L2438.1475 575.9739Z" fill="#ff7f00"/>
<path transform="matrix(1,0,0,-1,0,576)" d="M1825.8727 575.9739 1412.8008 .028982 1412.7817 0H800.7845L800.7875 .026148 1213.8593 575.971 1213.8784 576H1825.8756L1825.8727 575.9739Z"/>
<path transform="matrix(1,0,0,-1,0,576)" d="M1213.8319 575.9739 800.76016 .028982 800.7411 0H188.74379L188.74677 .026148 601.8186 575.971 601.83767 576H1213.835L1213.8319 575.9739Z" fill="#ff7f00"/>
<path transform="matrix(1,0,0,-1,0,576)" d="M601.557 575.9739 188.4852 .028982 188.46616 0H-423.53114L-423.52815 .026148-10.456313 575.971-10.437268 576H601.56L601.557 575.9739Z"/>
<path transform="matrix(1,0,0,-1,0,576)" d="M-10.608946 575.9739-423.6808 .028982-423.69984 0H-1035.6972L-1035.6941 .026148-622.6223 575.971-622.6033 576H-10.605965L-10.608946 575.9739Z" fill="#ff7f00"/>
<path transform="matrix(1,0,0,-1,0,576)" d="M-622.88388 575.9739-1035.9557 .028982-1035.9747 0H-1647.972L-1647.969 .026148-1234.8972 575.971-1234.8782 576H-622.88088L-622.88388 575.9739Z"/>
</g>
</g>
</svg>
