<svg xmlns="http://www.w3.org/2000/svg" xmlns:xlink="http://www.w3.org/1999/xlink" version="1.1" width="6940.8" height="604.8" viewBox="0 0 6940.8 604.8">
<defs>
<clipPath id="clip_0">
<path transform="matrix(1,0,0,-1,0,604.8)" d="M14.4 590.4V14.4H6926.4V590.4H14.4Z" fill-rule="evenodd"/>
</clipPath>
</defs>
<g id="layer_1" data-name="Layer 1">
<path transform="matrix(1,0,0,-1,0,604.8)" d="M0 604.8V0H6940.8V604.8H0Z" fill-rule="evenodd"/>
<g clip-path="url(#clip_0)">
<path transform="matrix(1,0,0,-1,0,604.8)" d="M8574.369 590.37387 8161.2976 14.428982 8161.2785 14.4H7549.281L7549.2839 14.426148 7962.3557 590.37106 7962.3747 590.4H8574.372L8574.369 590.37387Z" fill="#ff7f00"/>
<path transform="matrix(1,0,0,-1,0,604.8)" d="M7962.094 590.37387 7549.0227 14.428982 7549.0036 14.4H6937.006L6937.009 14.426148 7350.0808 590.37106 7350.0998 590.4H7962.097L7962.094 590.37387Z" fill="#ffffff"/>
<path transform="matrix(1,0,0,-1,0,604.8)" d="M7349.928 590.37387 6936.8566 14.428982 6936.8376 14.4H6324.84L6324.843 14.426148 6737.9147 590.37106 6737.934 590.4H7349.931L7349.928 590.37387Z" fill="#ff7f00"/>
<path transform="matrix(1,0,0,-1,0,604.8)" d="M6737.6535 590.37387 6324.5817 14.428982 6324.5627 14.4H5712.565L5712.568 14.426148 6125.6398 590.37106 6125.6589 590.4H6737.6564L6737.6535 590.37387Z" fill="#ffffff"/>
<path transform="matrix(1,0,0,-1,0,604.8)" d="M6125.6125 590.37387 5712.5407 14.428982 5712.5217 14.4H5100.5246L5100.5275 14.426148 5513.599 590.37106 5513.618 590.4H6125.6159L6125.6125 590.37387Z" fill="#ff7f00"/>
<path transform="matrix(1,0,0,-1,0,604.8)" d="M5513.3376 590.37387 5100.2658 14.428982 5100.2468 14.4H4488.2497L4488.2526 14.426148 4901.324 590.37106 4901.3435 590.4H5513.341L5513.3376 590.37387Z" fill="#ffffff"/>
<path transform="matrix(1,0,0,-1,0,604.8)" d="M4901.1716 590.37387 4488.0998 14.428982 4488.0808 14.4H3876.0836L3876.0865 14.426148 4289.158 590.37106 4289.1774 590.4H4901.175L4901.1716 590.37387Z" fill="#ff7f00"/>
<path transform="matrix(1,0,0,-1,0,604.8)" d="M4288.8967 590.37387 3875.825 14.428982 3875.806 14.4H3263.8087L3263.8116 14.426148 3676.8834 590.37106 3676.9024 590.4H4288.9L4288.8967 590.37387Z" fill="#ffffff"/>
<path transform="matrix(1,0,0,-1,0,604.8)" d="M3676.9886 590.37387 3263.9166 14.428982 3263.8975 14.4H2651.9005L2651.9034 14.426148 3064.975 590.37106 3064.9942 590.4H3676.9915L3676.9886 590.37387Z" fill="#ff7f00"/>
<path transform="matrix(1,0,0,-1,0,604.8)" d="M3064.7137 590.37387 2651.6417 14.428982 2651.6226 14.4H2039.6254L2039.6284 14.426148 2452.7003 590.37106 2452.7193 590.4H3064.7166L3064.7137 590.37387Z" fill="#ffffff"/>
<path transform="matrix(1,0,0,-1,0,604.8)" d="M2452.5477 590.37387 2039.4757 14.428982 2039.4567 14.4H1427.4594L1427.4624 14.426148 1840.5342 590.37106 1840.5532 590.4H2452.5506L2452.5477 590.37387Z" fill="#ff7f00"/>
<path transform="matrix(1,0,0,-1,0,604.8)" d="M1840.2727 590.37387 1427.2008 14.428982 1427.1818 14.4H815.1845L815.1875 14.426148 1228.2593 590.37106 1228.2783 590.4H1840.2756L1840.2727 590.37387Z" fill="#ffffff"/>
<path transform="matrix(1,0,0,-1,0,604.8)" d="M1228.2319 590.37387 815.1601 14.428982 815.14108 14.4H203.14379L203.14676 14.426148 616.21859 590.37106 616.2376 590.4H1228.2349L1228.2319 590.37387Z" fill="#ff7f00"/>
<path transform="matrix(1,0,0,-1,0,604.8)" d="M615.95706 590.37387 202.88521 14.428982 202.86615 14.4H-409.13114L-409.12815 14.426148 3.943687 590.37106 3.962732 590.4H615.96L615.95706 590.37387Z" fill="#ffffff"/>
<path transform="matrix(1,0,0,-1,0,604.8)" d="M3.791054 590.37387-409.28077 14.428982-409.2998 14.4H-1021.2971L-1021.2941 14.426148-608.2223 590.37106-608.20327 590.4H3.794035L3.791054 590.37387Z" fill="#ff7f00"/>
<path transform="matrix(1,0,0,-1,0,604.8)" d="M-608.4838 590.37387-1021.55569 14.428982-1021.5747 14.4H-1633.572L-1633.569 14.426148-1220.4972 590.37106-1220.4782 590.4H-608.4809L-608.4838 590.37387Z" fill="#ffffff"/>
</g>
</g>
</svg>
