<?xml version="1.0" encoding="UTF-8" standalone="no"?>
<svg
   xmlns:dc="http://purl.org/dc/elements/1.1/"
   xmlns:cc="http://creativecommons.org/ns#"
   xmlns:rdf="http://www.w3.org/1999/02/22-rdf-syntax-ns#"
   xmlns:svg="http://www.w3.org/2000/svg"
   xmlns="http://www.w3.org/2000/svg"
   viewBox="0 0 2428.1931 2428.0105"
   height="2428.0105"
   width="2428.1931"
   xml:space="preserve"
   id="svg2"
   version="1.1"><metadata
     id="metadata8"><rdf:RDF><cc:Work
         rdf:about=""><dc:format>image/svg+xml</dc:format><dc:type
           rdf:resource="http://purl.org/dc/dcmitype/StillImage" /></cc:Work></rdf:RDF></metadata><defs
     id="defs6" /><g
     transform="matrix(1.3333333,0,0,-1.3333333,0,2428.0104)"
     id="g10"><path
       id="path12"
       style="fill:#ffffff;fill-opacity:1;fill-rule:evenodd;stroke:#000000;stroke-width:0.72000003;stroke-linecap:butt;stroke-linejoin:miter;stroke-miterlimit:4;stroke-dasharray:none;stroke-opacity:1"
       d="m 1576.1782,1820.1977 c 0,0 42.3286,-57.2359 60.2957,-83.7316 21.7081,-32.0125 46.2357,-76.1557 63.7596,-110.7991 5.5302,-10.9326 33.0354,-71.7678 37.8991,-83.8238 59.841,-148.3333 87.0133,-303.1351 82.0403,-465.0885 -0.3851,-12.5444 -0.9642,-24.849 -1.7834,-37.2972 -0.8336,-12.6654 -8.0657,-79.4423 -10.0321,-92.62976 -2.3807,-15.96544 -10.1883,-58.58741 -13.5991,-74.2376 -2.9705,-13.62981 -18.0739,-72.06026 -22.0707,-85.38438 -3.7475,-12.49345 -25.4239,-75.27465 -30.0963,-87.16787 -5.5751,-14.19102 -23.9396,-56.50914 -30.7651,-70.89356 -4.5778,-9.64738 -50.6248,-95.32047 -55.9569,-104.11098 -5.3582,-8.83355 -58.9073,-87.60373 -65.3202,-96.0853 -38.8607,-51.39671 -84.0056,-101.71082 -131.9779,-146.24584 -9.1608,-8.50445 -64.5278,-55.65672 -75.1293,-63.98255 -10.3746,-8.14756 -66.6923,-48.79422 -76.9129,-55.511 -8.3039,-5.4572 -93.2964,-54.97456 -102.5504,-59.74677 -11.3917,-5.874627 -74.954,-35.362289 -86.4991,-40.128429 C 1075.6556,46.067328 1025.1737,28.396994 980.597,16.739894 959.20986,11.147016 935.00274,5.851188 912.15958,0.602127 c -1.40795,-0.323529 -1.72076,-0.323207 -3.12804,0.003214 -23.58677,5.470983 -49.03124,11.10871 -70.66753,16.80336 -9.90646,2.607372 -83.1501,26.038395 -94.07887,30.096323 -46.65003,17.321476 -90.77375,36.802489 -134.43025,59.746776 -9.09958,4.78241 -94.667,55.6054 -103.21924,61.30732 -95.6905,63.79857 -183.47404,144.39432 -255.70727,234.30545 -6.57727,8.18694 -62.20916,85.15959 -67.9954,94.07887 C 153.0869,542.95012 126.935,590.47517 103.7908,640.95992 98.20123,653.15253 73.299969,713.74031 68.789891,726.12137 14.628311,874.80566 -8.15062,1035.2871 3.246788,1196.0699 c 5.605917,79.0824 19.470649,157.8686 41.020174,233.1907 3.539824,12.3728 24.909988,76.8071 29.427515,88.7285 14.908569,39.3424 30.154303,72.8204 47.931183,109.2385 3.66449,7.5071 53.6487,95.1717 57.96329,101.6587 20.02701,30.1103 64.35414,91.7046 64.35414,91.7046 0,0 29.99239,-8.7604 52.68711,-14.7918 107.15881,-28.4788 238.32928,-39.631 346.44212,-33.2174 89.61705,5.3163 179.83393,21.2881 265.98585,47.2451 1.38332,0.4168 1.69155,0.4197 3.08234,0.029 76.82724,-21.5884 121.93879,-32.2753 200.88029,-41.4777 96.0085,-11.1919 196.9873,-10.1486 294.7211,4.2358 37.8942,5.5772 90.5273,15.7046 127.5192,25.8605 18.0437,4.9538 40.9171,11.7234 40.9171,11.7234 z" /><path
       id="path14"
       style="fill:#af1e2d;fill-opacity:1;fill-rule:evenodd;stroke:none"
       d="M 82.78426,1442.1909 H 1738.4167 c 0,0 -11.0757,33.3835 -19.0107,55.7339 -21.15,59.5727 -46.4576,111.3135 -75.7981,164.7495 -6.2225,11.3326 -31.8683,53.7757 -38.1221,63.0909 -15.2202,22.671 -36.6328,52.6128 -36.6328,52.6128 0,0 -26.7436,-7.011 -46.5222,-11.8156 -122.5585,-29.7718 -256.5354,-37.7216 -377.6531,-27.1982 -92.3361,8.0228 -141.8257,19.866 -233.24191,43.5163 -1.3986,0.3619 -1.70912,0.3608 -3.10522,-0.011 -89.50157,-23.8068 -142.7089,-36.2148 -236.27661,-43.9516 -98.46894,-8.1421 -179.06143,-4.3477 -276.88617,9.1403 -13.724,1.8923 -53.64408,8.9771 -65.32016,11.5927 -31.74744,7.1119 -77.32539,18.9999 -77.32539,18.9999 0,0 -31.21625,-44.535 -51.30853,-75.8485 -5.51791,-8.5996 -33.44087,-57.5844 -39.01375,-68.4413 -24.69006,-48.1001 -45.93631,-94.1835 -64.428424,-147.5834 -6.661933,-19.2378 -14.987276,-44.5872 -14.987276,-44.5872 z" /><path
       id="path16"
       style="fill:#003f87;fill-opacity:1;fill-rule:evenodd;stroke:none"
       d="M 1747.1699,1403.846 H 74.023736 c 0,0 -8.24594,-32.8358 -13.928338,-58.4092 -2.136833,-9.6167 -12.976948,-74.9962 -14.267886,-86.0532 C 35.493877,1170.875 33.377494,1094.7598 43.152283,1002.5617 58.318372,859.51158 99.847321,724.86369 166.43574,599.27094 c 5.65558,-10.66702 43.39326,-74.80415 49.71466,-84.49264 6.64207,-10.17994 48.11108,-68.00525 55.95687,-78.0275 41.0138,-52.3912 86.76911,-101.26634 136.43667,-145.35409 9.3602,-8.30866 66.77161,-55.03887 76.68988,-62.42201 76.77744,-57.15288 160.43938,-103.35194 249.24214,-138.888952 11.01111,-4.406413 77.24922,-27.504832 86.94494,-30.319259 16.90009,-4.905677 58.37872,-15.175461 87.61811,-22.568888 1.40056,-0.354142 1.7121,-0.355371 3.11541,-0.01228 56.35138,13.777075 79.80772,18.696667 129.08108,35.957314 12.1916,4.270741 79.2441,30.926185 90.289,35.892645 29.2072,13.13336 60.7929,29.11859 88.2825,44.58715 8.7764,4.9385 89.7936,56.37803 98.3147,62.422 67.9303,48.18291 130.5872,104.28412 186.3743,167.2018 7.5976,8.56873 59.8406,73.35011 66.8807,82.93208 93.349,127.05438 159.8165,278.14744 190.833,433.38705 21.7914,109.06774 28.114,223.58574 15.8284,336.63294 -3.1125,28.6397 -8.4675,67.9728 -14.2679,95.8624 -6.0769,29.2195 -16.6003,71.7853 -16.6003,71.7853 z" /><path
       id="path18"
       style="fill:#ffffff;fill-opacity:1;fill-rule:evenodd;stroke:none"
       d="m 1015.8208,1623.6606 h -26.01209 c 0,0 -0.73515,4.0853 -1.40895,6.6881 -3.68783,14.2452 -21.38512,19.7222 -33.6633,11.3697 -11.67438,-7.9418 -12.4362,-23.6871 -2.67523,-32.5486 4.54541,-4.1266 23.01894,-14.6305 33.6633,-22.5165 20.54857,-15.2237 32.27367,-35.5926 30.09627,-60.6564 -2.1883,-25.1901 -21.53418,-46.9104 -47.69036,-49.4739 -18.70251,-1.833 -34.81331,5.5294 -45.71966,19.6184 -6.59423,8.5185 -12.36937,22.9138 -12.70733,34.7779 -0.0693,2.4322 0,5.3505 0,5.3505 h 26.90388 c 0,0 1.0764,-8.9315 2.52363,-14.2679 4.55416,-16.7927 22.82279,-23.4357 37.4532,-14.4908 13.06952,7.9906 15.91543,26.6515 9.3633,39.0137 -8.22973,15.5274 -34.13264,27.9894 -46.59356,37.4532 -15.64396,11.8814 -23.91591,30.2155 -19.17248,51.2753 6.02124,26.7328 32.53677,44.0745 60.41558,36.7844 17.90098,-4.681 27.388,-16.8834 33.2174,-33.2175 1.0352,-2.9006 1.8861,-6.5506 2.0064,-9.8091 0.088,-2.379 0,-5.3505 0,-5.3505 z" /><path
       id="path20"
       style="fill:#ffffff;fill-opacity:1;fill-rule:evenodd;stroke:none"
       d="m 328.73295,1479.6441 v 190.3871 H 355.9311 V 1480.09 Z" /><path
       id="path22"
       style="fill:#ffffff;fill-opacity:1;fill-rule:evenodd;stroke:none"
       d="m 476.3164,1558.5634 v 111.4678 h 27.64403 v -190.3871 h -21.10756 l -57.81169,125.2899 -0.44587,-125.2899 h -27.64403 v 190.3871 h 27.90112 z" /><path
       id="path24"
       style="fill:#ffffff;fill-opacity:1;fill-rule:evenodd;stroke:none"
       d="m 529.82097,1644.6166 v 25.4146 h 97.19998 v -25.4146 h -34.33211 v -164.9725 h -28.0899 v 164.9725 z" /><path
       id="path26"
       style="fill:#ffffff;fill-opacity:1;fill-rule:evenodd;stroke:none"
       d="m 680.07965,1569.2643 v -62.422 h 69.55594 v -27.1982 h -97.19997 v 190.3871 h 89.62016 v -26.7523 h -61.97613 v -47.7082 h 39.68256 v -26.3064 z" /><path
       id="path28"
       style="fill:#ffffff;fill-opacity:1;fill-rule:evenodd;stroke:none"
       d="m 860.72673,1572.7898 27.07191,-93.1457 h -28.64385 l -24.80362,89.6202 h -25.86054 v -89.6202 H 780.8466 v 190.3871 c 0,0 50.58279,0.9029 61.69969,0 27.55882,-2.2382 45.19911,-21.414 45.30945,-50.5321 0.0575,-15.1747 -4.93114,-32.4534 -16.05137,-40.2027 -4.28152,-2.9836 -11.07764,-6.5066 -11.07764,-6.5066 z" /><path
       id="path30"
       style="fill:#ffffff;fill-opacity:1;fill-rule:evenodd;stroke:none"
       d="m 1032.764,1644.6166 v 25.4146 h 96.7541 v -25.4146 h -34.3321 v -164.9725 h -28.0899 v 164.9725 z" /><path
       id="path32"
       style="fill:#ffffff;fill-opacity:1;fill-rule:evenodd;stroke:none"
       d="m 1214.8311,1670.0312 47.1108,-189.9412 -27.6349,-0.458 -12.9394,52.1791 h -40.5842 l -12.4646,-52.167 h -27.6539 l 47.1498,190.3871 z" /><path
       id="path34"
       style="fill:#ffffff;fill-opacity:1;fill-rule:evenodd;stroke:none"
       d="m 1273.0887,1644.6166 v 25.4146 h 96.7541 v -25.4146 h -34.3321 v -164.9725 h -28.0899 v 164.9725 z" /><path
       id="path36"
       style="fill:#ffffff;fill-opacity:1;fill-rule:evenodd;stroke:none"
       d="m 1423.3474,1569.2643 v -62.422 h 69.11 v -27.1982 h -96.7541 v 190.3871 h 89.6202 v -26.7523 h -61.9761 v -47.7082 h 39.2366 v -26.3064 z" /><path
       id="path38"
       style="fill:#af1e2d;fill-opacity:1;fill-rule:evenodd;stroke:none"
       d="m 838.98839,1642.8554 -30.49776,0.4235 v -47.7082 c 0,0 17.76971,-0.5798 27.96505,0 13.72989,0.7808 22.82732,5.9771 24.2019,21.0451 0.86635,9.4968 -3.65912,19.6077 -11.14678,23.3191 -2.20995,1.0954 -4.87176,1.7721 -7.36966,2.4674 -1.39299,0.3877 -1.70827,0.433 -3.15275,0.4531 z" /><path
       id="path40"
       style="fill:#af1e2d;fill-opacity:1;fill-rule:evenodd;stroke:none"
       d="m 1187.4814,1558.5634 h 26.8685 l -13.7153,52.6128 z" /><path
       id="path42"
       style="fill:#ffffff;fill-opacity:1;fill-rule:evenodd;stroke:none"
       d="M 620.77875,482.67556 H 497.71823 c 0,0 0.75057,30.80307 1.78348,52.94723 4.22952,90.67491 21.67691,190.26977 45.92476,270.30957 3.85522,12.72569 22.71794,67.01353 27.42109,78.91925 15.82636,40.06332 45.51372,107.59764 65.09724,143.57059 15.38936,28.2688 54.69178,94.0789 54.69178,94.0789 H 330.07056 v 120.3853 h 514.98152 v -118.9318 c 0,-1.4446 -0.0981,-1.7322 -0.98072,-2.8758 -41.06135,-53.2028 -50.97659,-62.7497 -78.16146,-110.0456 -55.21748,-96.06655 -91.948,-191.12767 -119.71648,-298.95678 -3.47391,-13.4897 -6.65711,-26.53497 -9.3633,-40.35137 -1.89788,-9.68955 -9.54197,-64.24737 -11.36972,-81.1486 -1.1488,-10.62286 -4.61101,-70.63456 -4.68165,-81.1486 -0.0831,-12.37269 0,-26.75229 0,-26.75229 z" /><path
       id="path44"
       style="fill:#ffffff;fill-opacity:1;fill-rule:evenodd;stroke:none"
       d="m 1120.6006,998.10295 c 0,0 48.1551,13.21625 65.5431,16.72015 46.9079,9.4526 100.4894,4.6311 143.5707,-12.9302 86.4313,-35.2322 147.2727,-114.24554 159.399,-205.32384 0.8186,-6.14864 2.2391,-37.00847 2.0064,-43.58839 -0.2597,-7.34408 -3.6013,-38.09867 -4.9046,-45.14003 -5.4455,-29.42147 -16.6552,-59.96638 -31.8798,-86.05319 -21.4022,-36.67217 -50.0727,-67.10837 -83.6009,-90.5119 -6.1538,-4.29551 -34.9066,-21.45444 -41.466,-24.74587 -6.8861,-3.45532 -32.9273,-14.32968 -40.5743,-16.94311 -66.1983,-22.62388 -144.7002,-26.64465 -216.2477,-11.36973 -22.7112,4.84869 -52.1321,12.89323 -73.12289,22.29358 -11.27894,5.05107 -25.4652,12.12325 -25.4652,12.12325 l 59.10259,106.70417 c 0,0 5.8641,-2.9131 10.7268,-5.1302 35.282,-16.08654 103.887,-23.34733 138.6304,-22.29358 36.2282,1.09879 70.5325,10.11348 101.9173,27.64403 17.9455,10.0238 35.3452,23.56292 48.377,38.79082 25.5831,29.89417 39.4833,68.98615 38.122,108.97098 -1.6028,47.07993 -29.076,90.2118 -71.3394,112.40419 -29.8182,15.65745 -70.1972,20.66381 -104.3339,11.36973 -20.8748,-5.68338 -38.6048,-19.82957 -52.8358,-36.56146 -12.1426,-14.27649 -29.918,-38.34495 -29.918,-38.34495 l -120.11774,34.18051 19.17244,392.51849 h 436.9541 v -120.3853 h -319.8415 z" /></g></svg>