<svg xmlns="http://www.w3.org/2000/svg" xmlns:xlink="http://www.w3.org/1999/xlink" version="1.1" width="2047.368" height="2047.368" viewBox="0 0 2047.368 2047.368">
<g id="layer_1" data-name="Layer 1">
<path transform="matrix(1,0,0,-1,0,2047.368)" d="M27.50822 1090.0958C-9.169407 1053.4181-9.169407 993.94998 27.50822 957.27236L957.27236 27.50822C993.94998-9.169407 1053.4181-9.169407 1090.0958 27.50822L2019.8599 957.27236C2056.5377 993.94998 2056.5377 1053.4181 2019.8599 1090.0958L1090.0958 2019.8599C1053.4181 2056.5377 993.94998 2056.5377 957.27236 2019.8599L27.50822 1090.0958Z" fill="#ffff00" fill-rule="evenodd"/>
<path transform="matrix(1,0,0,-1,0,2047.368)" stroke-width=".25" stroke-linecap="butt" stroke-miterlimit="4" stroke-linejoin="miter" fill="none" stroke="#000000" d="M27.50822 1090.0958 957.27236 2019.8599C993.94998 2056.5377 1053.4181 2056.5377 1090.0958 2019.8599L2019.8599 1090.0958C2056.5377 1053.4181 2056.5377 993.94998 2019.8599 957.27236L1090.0958 27.50822C1053.4181-9.169407 993.94998-9.169407 957.27236 27.50822L27.50822 957.27236C-9.169407 993.94998-9.169407 1053.4181 27.50822 1090.0958Z"/>
<path transform="matrix(1,0,0,-1,0,2047.368)" d="M843.79379 1658.6859C830.19766 1606.3512 877.6469 1556.2537 912.95358 1541.707 943.71926 1529.0314 980.3099 1533.61 1011.75326 1554.8804 1053.5397 1583.1473 1065.8709 1639.4097 1049.6265 1681.6734 1034.5928 1720.787 987.5399 1755.9745 941.2761 1750.8331 916.3893 1748.0674 879.1352 1727.1652 865.2004 1708.0199 855.1206 1694.1712 847.1743 1671.6985 843.79379 1658.6859Z" fill-rule="evenodd"/>
<path transform="matrix(1,0,0,-1,0,2047.368)" d="M637.3968 1065.6952C637.3968 1065.6952 788.1972 1113.5972 817.05569 1131.2212 827.84146 1137.8082 831.2369 1143.1406 838.5247 1155.6793 861.0463 1194.4275 920.73989 1301.9946 920.73989 1301.9946 920.73989 1301.9946 937.81576 1193.1967 942.59347 1143.2149 944.405 1124.2631 944.4485 1113.7675 942.59347 1103.1022 937.85098 1075.8357 865.8107 945.61776 852.02706 897.86227 843.26797 867.51516 824.0338 488.37043 824.0338 488.37043 824.0338 488.37043 855.6731 481.21958 885.9483 479.61018 903.53427 478.67533 920.6599 479.61018 920.6599 479.61018L957.4134 808.9425 1024.7954 924.4482C1024.7954 924.4482 1053.605 828.3964 1090.793 748.01608 1115.3401 694.95846 1263.232 465.27116 1263.232 465.27116L1348.0645 509.99995 1185.5637 796.3914C1180.2979 805.67196 1179.7399 807.8884 1179.984 818.55667 1181.9793 905.75277 1186.677 1055.8289 1183.0061 1080.1807 1178.8798 1107.553 1171.0193 1126.2583 1161.5995 1167.9148 1147.1959 1231.6106 1129.1466 1348.9677 1129.1466 1348.9677L1249.1892 1224.5735 1211.4282 1038.4118C1211.4282 1038.4118 1266.1964 1015.06 1273.9019 1019.7152 1281.8253 1024.5022 1330.3488 1268.6852 1330.3488 1268.6852 1330.3488 1268.6852 1148.9071 1460.0164 1113.8463 1485.7206 1072.7509 1515.8489 1004.67288 1519.9868 945.8868 1498.8938 936.27658 1495.4456 893.15219 1455.9149 886.60696 1444.554 871.76089 1418.7847 822.2324 1290.2777 791.41647 1212.5776 787.4824 1202.6582 785.9461 1201.1117 776.0535 1197.1126L618.7463 1133.5203 637.3968 1065.6952Z" fill-rule="evenodd"/>
<path transform="matrix(1,0,0,-1,0,2047.368)" d="M394.782 736.48947H800.9805V776.0093H354.1863L394.782 736.48947Z" fill-rule="evenodd"/>
<path transform="matrix(1,0,0,-1,0,2047.368)" d="M1039.2196 776.0093H988.7V736.48947H1047.9799L1039.2196 776.0093Z" fill-rule="evenodd"/>
<path transform="matrix(1,0,0,-1,0,2047.368)" d="M1661.6577 736.48947 1700.0579 770.74V776.0093L1239.977 772.67538 1267.5128 736.48947H1661.6577Z" fill-rule="evenodd"/>
<path transform="matrix(1,0,0,-1,0,2047.368)" d="M757.0476 370.93049H1298.6017L1331.2057 407.15705 716.50967 410.47975 757.0476 370.93049Z" fill-rule="evenodd"/>
<path transform="matrix(1,0,0,-1,0,2047.368)" d="M995.6324 32.242475C1004.4894 28.165505 1012.68789 26.206566 1022.4312 25.83917 1022.4376 25.83893 1022.443 25.838726 1022.44937 25.838482 1032.1957 25.46345 1040.5217 26.787707 1049.6708 30.168032 1059.2017 33.692586 1067.7992 39.253229 1074.9497 46.408239L2004.7432 976.20169C2010.9293 982.3737 2015.2355 988.53958 2018.9003 996.4726 2022.9772 1005.3296 2024.9362 1013.5281 2025.3035 1023.2714 2025.3037 1023.27786 2025.304 1023.2832 2025.3042 1023.28958 2025.6792 1033.0359 2024.355 1041.3619 2020.9746 1050.511 2017.4501 1060.0419 2011.8894 1068.6394 2004.7345 1075.7899L1074.941 2005.5834C1068.7689 2011.7695 1062.6032 2016.0757 1054.6702 2019.7405 1045.8131 2023.8174 1037.6146 2025.7764 1027.8712 2026.1437 1027.8649 2026.1439 1027.8595 2026.1442 1027.8532 2026.1444 1018.1068 2026.5194 1009.78079 2025.1952 1000.6317 2021.8148 991.1008 2018.2903 982.5033 2012.7296 975.3528 2005.5747L45.5593 1075.7813C39.373094 1069.6091 35.066946 1063.4434 31.402258 1055.5104 27.325289 1046.6533 25.36635 1038.4548 24.998955 1028.7114 24.998715 1028.7051 24.99851 1028.6997 24.998267 1028.6934 24.623234 1018.947 25.94749 1010.621 29.327815 1001.4719 32.852369 991.94107 38.413015 983.3435 45.56802 976.193L975.36148 46.399518C981.5335 40.21331 987.6993 35.90716 995.6324 32.242475ZM1012.01968 67.77961C1008.5155 69.40196 1005.792 71.30576 1003.0647 74.039348L73.23957 1003.8645C71.470668 1005.631 70.14274 1007.29238 68.80947 1009.407 65.482837 1014.6947 63.862146 1020.9343 64.102809 1027.1886 64.10346 1027.2056 64.104007 1027.22 64.104648 1027.2369 64.26758 1031.5579 65.13469 1035.1936 66.9394 1039.123 68.561748 1042.6272 70.465549 1045.3507 73.19913 1048.078L1003.0243 1977.9031C1004.7908 1979.672 1006.45217 1981 1008.5668 1982.3333 1013.8545 1985.6598 1020.0941 1987.2805 1026.3484 1987.0399 1026.3654 1987.0392 1026.3798 1987.0387 1026.3966 1987.0381 1030.7177 1986.8751 1034.3534 1986.008 1038.2828 1984.2033 1041.787 1982.5809 1044.5105 1980.6771 1047.2378 1977.9436L1977.0629 1048.1184C1978.8318 1046.3519 1980.1598 1044.6906 1981.493 1042.5759 1984.8196 1037.2882 1986.4403 1031.0486 1986.1997 1024.7943 1986.199 1024.7774 1986.1985 1024.763 1986.1979 1024.746 1986.0349 1020.42507 1985.1677 1016.78927 1983.363 1012.85989 1981.7407 1009.3557 1979.8369 1006.6322 1977.1034 1003.9049L1047.2782 74.07979C1045.5117 72.31088 1043.8504 70.982959 1041.7357 69.64969 1036.448 66.323047 1030.2084 64.70236 1023.95407 64.94302 1023.9371 64.94368 1023.9228 64.94422 1023.9058 64.94486 1019.58486 65.107799 1015.94906 65.97491 1012.01968 67.77961Z" fill-rule="evenodd"/>
</g>
</svg>
