<svg xmlns="http://www.w3.org/2000/svg" xmlns:xlink="http://www.w3.org/1999/xlink" version="1.1" width="2160.0323" height="2160" viewBox="0 0 2160.0323 2160">
<g id="layer_1" data-name="Layer 1">
<path transform="matrix(1,0,0,-1,0,2160)" d="M1080 .064345V0H2025C2099.5584 0 2160 60.44156 2160 135V965.088H2160.0323C2160.0323 965.088 2160.0323 1085.1303 2159.9183 1085.1303 2158.4478 1121.1609 2142.8563 1153.5508 2118.7286 1177.1919L1175.462 2120.4583C1149.1305 2146.7899 1114.6279 2159.9705 1080.1163 2160 1080.0775 2160 1080.0388 2160 1080 2160 1079.9612 2160 1079.9225 2160 1079.8837 2160 1045.373 2159.9705 1010.8716 2146.7904 984.54086 2120.4595L41.302476 1177.2212C17.175528 1153.5807 1.584316 1121.1918 .114069 1085.1622 -0 1085.1622 0 965.1236 0 965.1236H.032172V135.06032C.032172 60.504106 60.47193 .064345 135.02816 .064345H1080Z" fill="#ffff00" fill-rule="evenodd"/>
<path transform="matrix(1,0,0,-1,0,2160)" d="M1082.1515 36 2025.0413 35.999979C2037.3215 35.985906 2047.7276 37.83375 2059.2523 42.075037 2084.003 51.203149 2104.1 69.98698 2115.018 93.71761 2121.2564 107.30679 2124.0208 119.99716 2124 134.94985V965.088C2124 965.61917 2124.0096 966.06759 2124.0318 966.59829L2124.0076 1042.9564C2124.003 1048.9808 2123.9617 1082.9371 2123.9307 1084.1007 2123.3763 1096.5397 2121.0025 1106.9937 2116.13 1118.452L2116.1436 1118.4203C2110.5906 1131.4474 2103.681 1141.5534 2093.557 1151.455L1149.9754 2095.0333C1140.8688 2104.1619 1131.6968 2110.447 1119.8966 2115.645 1094.6907 2126.6854 1069.2626 2127.1778 1043.6482 2117.1214 1030.3998 2111.8958 1020.08767 2105.1217 1010.03067 2095.0377L66.479198 1151.4893C57.308927 1142.5169 50.90645 1133.5183 45.43597 1121.9135 39.558248 1109.4215 36.700609 1097.83 36.09852 1084.0375L36.06398 1075.3359 36.02019 1036.1382 36.000429 966.61947C36.02251 966.0938 36.031938 965.64968 36.032175 965.1236L36.03215 135.01908C36.018079 122.73923 37.865854 112.33371 42.10696 100.80948 51.2347 76.05987 70.01777 55.96349 93.74744 45.04596 107.33607 38.807836 120.025928 36.04348 134.978 36.06431L1080 36.064348C1080.7568 36.064348 1081.3959 36.04523 1082.1515 36ZM1083.4026 90C1082.2069 90.04524 1081.1967 90.06435 1080 90.06435L134.90277 90.064258C128.166 90.05487 122.44863 91.29691 116.32297 94.10053 110.62519 96.73759 106.23661 99.927707 101.97016 104.5338 97.744388 109.09074 94.93056 113.66706 92.77124 119.4946 90.85882 124.7046 90.02576 129.4073 90.03211 134.9572L90.03217 965.1236C90.0321 965.95626 90.02275 966.65927 90.00068 967.4916L90.02018 1036.1004 90.06386 1075.1986 90.09302 1082.5441C90.46765 1088.5064 91.748149 1093.4992 94.28928 1098.9058 96.87866 1104.3931 99.90734 1108.648 104.24428 1112.8914L1048.2144 2056.8538C1052.77 2061.4229 1057.4371 2064.4964 1063.4342 2066.8768 1075.106 2071.4427 1086.6804 2071.2203 1098.1681 2066.2093 1103.5115 2063.841 1107.6644 2060.9879 1111.7918 2056.8494L2055.7994 1112.8496C2060.5816 1108.1725 2063.8453 1103.3989 2066.4683 1097.2456 2066.4915 1097.1914 2066.511 1097.1455 2066.5343 1097.0913 2068.5816 1092.199 2069.616 1087.7627 2069.943 1082.4694 2069.962 1081.8878 2070.0037 1047.897 2070.0076 1042.9159L2070.0316 967.4657C2070.0093 966.62997 2070 965.9241 2070 965.088V134.87462C2070.0096 128.13726 2068.7674 122.41936 2065.9635 116.29314 2063.3262 110.59486 2060.1358 106.20589 2055.5294 101.93906 2050.972 97.712909 2046.3952 94.89883 2040.5671 92.73932 2035.3567 90.82672 2030.6536 89.99358 2025.1032 89.99994L1083.4026 90Z" fill-rule="evenodd"/>
<path transform="matrix(1,0,0,-1,0,2160)" stroke-width=".25" stroke-linecap="butt" stroke-miterlimit="4" stroke-linejoin="miter" fill="none" stroke="#000000" d="M1079.9839 .064344V0H2024.9699C2099.527 0 2159.9678 60.44066 2159.9678 134.99799V965.0736H2160C2160 965.0736 2160 1085.114 2159.886 1085.114 2158.4158 1121.1442 2142.8243 1153.5336 2118.697 1177.1743L1175.4445 2120.4268C1149.1134 2146.7579 1114.6113 2159.9383 1080.1002 2159.9678 1080.0615 2159.9678 1080.0227 2159.9678 1079.9839 2159.9678 1079.9452 2159.9678 1079.9064 2159.9678 1079.8676 2159.9678 1045.3574 2159.9383 1010.8565 2146.7584 984.5262 2120.428L41.30186 1177.2036C17.17527 1153.5635 1.584293 1121.175 .114067 1085.146 0 1085.146 0 965.1092 0 965.1092H.032172V135.0583C.032172 60.5032 60.47103 .064344 135.02614 .064344H1079.9839Z"/>
<path transform="matrix(1,0,0,-1,0,2160)" d="M1013.5156 1020.0589 1017.4054 1012.1381 995.5144 978.14999H1027.486L1055.4268 842.05178 921.48837 810.0801 975.49667 644.02456C966.2777 641.00088 956.9895 637.97708 947.5558 635.81509 936.7546 633.44039 926.1682 630.4167 915.4409 628.0398L1021.4386 294.0576 969.44686 278.07197 821.39486 621.9902 767.3888 626.02328 633.4504 272.02345 583.33108 290.0267 677.3758 644.02456 645.4042 654.10726 735.415 932.06478 713.38058 1000.04116 695.3771 926.1583 555.3914 834.131 521.403 866.10269 639.35458 978.14999 701.42678 1176.1771 763.3557 1242.137H765.37228C776.17349 1239.1133 787.335 1237.672 798.5682 1237.8175 806.274 1237.889 813.8344 1239.9055 821.17996 1241.9937 829.10067 1244.2969 836.3007 1248.0413 843.4292 1252.0744L931.4256 1202.0991 989.4648 1074.0671 1091.4315 1116.1216 1161.4244 1352.1677 1217.4492 1404.1594 1221.4801 1428.2105C1229.6896 1426.6257 1237.8274 1426.1223 1246.18 1426.4826 1257.8452 1426.9861 1269.6558 1430.0099 1280.457 1434.4033 1291.1149 1438.7968 1300.4747 1444.9158 1309.4766 1452.1182L1321.4304 1424.1773 1393.4398 1392.2057 1527.5215 1138.1559 1513.5512 1052.176 1555.4624 1058.0802 1599.531 898.0743 1435.4943 850.1179 1419.5073 576.04818 1573.4636 258.05326 1487.4838 216 1323.4469 522.0421 1279.5215 698.0327 1221.4801 570.0007 1187.492 225.93706 1093.4481 234.00194 1117.499 648.0576 1203.4788 920.1108 1159.408 1104.1676 1129.4529 1052.176 1013.5156 1020.0589ZM1329.4944 1548.1785C1328.5588 1511.0927 1313.221 1479.985 1282.328 1458.6714 1246.4688 1433.8998 1198.5101 1434.6921 1162.6488 1459.1749 1133.412 1479.1211 1115.4108 1512.7489 1115.4824 1548.1785 1115.4824 1591.24 1141.8386 1630.4856 1181.299 1647.4081 1214.4949 1661.5933 1252.6594 1658.0637 1282.545 1637.6857 1311.6364 1617.811 1330.3583 1583.608 1329.4944 1548.1785ZM891.38778 1354.1843C890.1635 1312.4904 866.1842 1276.6289 827.5877 1260.1405 782.5096 1240.9129 730.52017 1258.2671 703.80368 1298.8803 677.7362 1338.4862 683.7858 1393.2128 717.125 1426.6257 750.4664 1460.1105 805.26467 1465.6543 844.87057 1439.804 872.5226 1421.6572 892.39718 1387.8121 891.38778 1354.1843ZM1413.4577 1026.1085 1437.5109 1032.156 1455.5121 1100.1345 1383.5026 1210.1653 1413.4577 1026.1085ZM893.4043 960.14877 915.4409 964.0364 931.4256 1012.1381 913.4244 1050.1596 893.4043 960.14877Z" fill-rule="evenodd"/>
</g>
</svg>
