<svg xmlns="http://www.w3.org/2000/svg" xmlns:xlink="http://www.w3.org/1999/xlink" version="1.1" width="1347.12" height="1779.12" viewBox="0 0 1347.12 1779.12">
<g id="layer_1" data-name="Layer 1">
<path transform="matrix(1,0,0,-1,0,1779.12)" d="M626.5372 255.67967H190.80266C201.56153 405.7622 275.25984 511.33357 411.89756 572.39376 447.40187 587.80148 476.45085 602.7812 499.04447 617.33297 521.6381 631.88467 532.128 648.86166 530.51419 668.264 530.51419 687.09567 521.6381 702.93136 503.88597 715.77108 486.13383 728.61087 458.4297 735.31607 420.77366 735.8867 364.28956 734.17477 314.26078 710.2072 270.68733 663.9841L192.41649 730.7508C257.5077 801.51217 332.81983 837.46347 418.3529 838.6048 481.83027 838.6048 532.397 821.9131 570.05307 788.5297 607.7091 755.14639 626.5372 715.05776 626.5372 668.264 625.9992 627.7474 615.77828 595.648 595.8743 571.96578 575.97048 548.2835 538.0454 523.60269 482.09925 497.92317 393.3385 452.8413 340.35105 406.33287 323.13685 358.39778H626.5372V255.67967Z" fill-rule="evenodd"/>
<path transform="matrix(1,0,0,-1,0,1779.12)" d="M1138.9287 452.556C1138.9287 392.63713 1117.6798 343.1327 1075.1823 304.04277 1032.6847 264.95283 978.08346 245.40787 911.3784 245.40787 838.756 245.40787 769.36129 266.80747 703.19418 309.60667L754.02987 396.06108C804.0586 365.81629 856.5081 350.12324 911.3784 348.98194 952.8001 348.41127 985.6147 358.2551 1009.82217 378.51338 1034.0296 398.77168 1046.1333 423.73786 1046.1333 453.412 1047.2092 484.79808 1036.1814 510.0496 1013.0498 529.16659 989.9182 548.2835 960.0623 558.1274 923.4821 558.698 884.7502 558.1274 846.01828 549.28219 807.28628 532.16256L723.36709 557.84207 737.0846 829.18899H1097.776V727.32687H827.45919L822.6177 643.4404C854.8943 653.7122 889.5917 659.1335 926.70986 659.7041 988.57339 659.7041 1039.409 640.1592 1079.2169 601.0692 1119.0248 561.9793 1138.9287 512.47488 1138.9287 452.556Z" fill-rule="evenodd"/>
<path transform="matrix(1,0,0,-1,0,1779.12)" d="M334.1344 1386.2391C333.92179 1365.9663 326.53343 1349.1104 311.96937 1335.671 297.40528 1322.2318 277.04747 1315.5122 250.89588 1315.5122 216.02712 1315.5122 187.6431 1331.2293 165.74384 1362.6635L197.63599 1385.8975C212.09375 1365.6246 230.27228 1355.2605 252.17156 1354.8049 265.77888 1354.5772 276.46275 1357.4244 284.22319 1363.3468 291.98359 1369.2692 295.97013 1377.1278 296.18275 1386.9225 296.8206 1395.1227 293.73768 1401.8424 286.93403 1407.0814 280.13035 1412.3204 266.31044 1417.5595 245.47422 1422.7985 216.34604 1430.0877 196.83869 1439.0851 186.9521 1449.7909 177.06554 1460.4968 172.01595 1473.0249 171.80335 1487.3754 171.37812 1504.0036 178.02231 1518.7526 191.73593 1531.6224 205.44956 1544.4922 223.25601 1550.9271 245.15529 1550.9271 279.81144 1549.1049 306.3882 1534.6405 324.88569 1507.5342L294.58815 1486.0086C282.89436 1500.5868 266.41673 1508.787 245.15529 1510.6093 233.67412 1510.6093 224.95693 1508.3314 219.00373 1503.7758 213.05052 1499.2201 210.28653 1494.095 210.71176 1488.4004 210.49915 1482.0223 213.68837 1476.7833 220.2794 1472.6832 226.87046 1468.5831 236.33179 1465.2803 248.66342 1462.7747 278.42945 1456.8522 300.06294 1447.2284 313.56398 1433.903 327.06498 1420.5776 333.92179 1404.6897 334.1344 1386.2391Z"/>
<path transform="matrix(1,0,0,-1,0,1779.12)" d="M471.27067 1409.4732H410.03773V1319.6123H371.76713V1548.5354H469.99497C484.0275 1548.5354 496.25285 1545.3463 506.67094 1538.9684 528.5702 1525.3014 539.51986 1505.1425 539.51986 1478.4917 539.51986 1449.7909 528.5702 1429.1764 506.67094 1416.6483 496.25285 1411.8649 484.45274 1409.4732 471.27067 1409.4732ZM501.24928 1478.4917C501.24928 1487.3754 498.4853 1494.4367 492.9573 1499.6757 487.42933 1504.9147 479.98783 1507.5342 470.6328 1507.5342H410.03773V1450.4743H470.6328C479.98783 1450.4743 487.42933 1453.0369 492.9573 1458.162 498.4853 1463.2871 501.24928 1470.0637 501.24928 1478.4917Z"/>
<path transform="matrix(1,0,0,-1,0,1779.12)" d="M744.58639 1319.6123H585.1256V1548.5354H741.07827V1507.5342H624.03408V1464.8247H687.81838V1423.1401H624.03408V1360.6134H744.58639V1319.6123Z"/>
<path transform="matrix(1,0,0,-1,0,1779.12)" d="M950.2908 1319.6123H790.83V1548.5354H946.78268V1507.5342H829.73849V1464.8247H893.52279V1423.1401H829.73849V1360.6134H950.2908V1319.6123Z"/>
<path transform="matrix(1,0,0,-1,0,1779.12)" d="M1166.5195 1434.4155C1166.5195 1387.492 1149.2979 1353.7799 1114.8543 1333.2793 1099.3334 1324.168 1082.5369 1319.6123 1064.4647 1319.6123H995.57766V1548.5354H1064.4647C1082.7495 1548.5354 1099.7587 1543.638 1115.4921 1533.8433 1149.5104 1513.1149 1166.5195 1479.9723 1166.5195 1434.4155ZM1128.249 1434.4155C1128.249 1464.7108 1117.7246 1486.1224 1096.6758 1498.6506 1086.8955 1504.573 1076.1585 1507.5342 1064.4647 1507.5342H1034.4861V1360.6134H1064.4647C1074.8828 1360.6134 1085.0883 1363.5746 1095.0812 1369.497 1117.193 1382.2529 1128.249 1403.8925 1128.249 1434.4155Z"/>
<path transform="matrix(1,0,0,-1,0,1779.12)" d="M427.4363 979.98068H267.97554V1208.9037H306.88398V1020.98178H427.4363V979.98068Z"/>
<path transform="matrix(1,0,0,-1,0,1779.12)" d="M516.4154 979.98068H478.1448V1208.9037H516.4154V979.98068Z"/>
<path transform="matrix(1,0,0,-1,0,1779.12)" d="M771.2337 979.98068H733.91989V1119.7262L671.09237 979.98068 608.58377 1119.7262V979.98068H571.2699V1208.9037H608.58377L671.09237 1072.9166 733.91989 1208.9037H771.2337V979.98068Z"/>
<path transform="matrix(1,0,0,-1,0,1779.12)" d="M864.03988 979.98068H825.7693V1208.9037H864.03988V979.98068Z"/>
<path transform="matrix(1,0,0,-1,0,1779.12)" d="M1067.1929 1168.5859H1005.641V979.98068H968.3272V1168.5859H906.7753V1208.9037H1067.1929V1168.5859Z"/>
<path transform="matrix(1,0,0,-1,0,1779.12)" stroke-width=".25" stroke-linecap="butt" stroke-miterlimit="4" stroke-linejoin="miter" fill="none" stroke="#000000" d="M1213.56 1753.56H133.56C73.913249 1753.56 25.56 1705.2068 25.56 1645.56V133.56C25.56 73.913249 73.913249 25.56 133.56 25.56H1213.56C1273.2068 25.56 1321.56 73.913249 1321.56 133.56V1645.56C1321.56 1705.2068 1273.2068 1753.56 1213.56 1753.56Z"/>
<path transform="matrix(1,0,0,-1,0,1779.12)" d="M59.911775 1679.3413C54.80567 1668.2205 52.542928 1657.8347 52.559976 1645.5977V133.52376C52.531454 112.270427 59.642236 94.125728 74.10349 78.55083 74.11254 78.541088 74.12017 78.53285 74.12921 78.523097 81.74779 70.29474 89.59297 64.60224 99.77865 59.911775 110.89958 54.80567 121.28526 52.542928 133.52239 52.559976H1213.5962C1234.8496 52.531454 1252.9943 59.642236 1268.5692 74.10349 1268.5789 74.11254 1268.5872 74.12017 1268.5969 74.12921 1276.8253 81.74779 1282.5177 89.59297 1287.2083 99.77865 1292.3143 110.89958 1294.577 121.28526 1294.56 133.52239V1645.5962C1294.5885 1666.8496 1287.4778 1684.9943 1273.0165 1700.5692 1273.0075 1700.5789 1272.9999 1700.5872 1272.9909 1700.5969 1265.3722 1708.8253 1257.527 1714.5177 1247.3413 1719.2083 1236.2205 1724.3143 1225.8347 1726.577 1213.5977 1726.56H133.52376C112.270427 1726.5885 94.125728 1719.4778 78.55083 1705.0165 78.541088 1705.0075 78.53285 1704.9999 78.523097 1704.9909 70.29474 1697.3722 64.60224 1689.527 59.911775 1679.3413ZM100.80072 1660.5505C102.89419 1665.0851 105.43099 1668.5778 109.09586 1671.9711 109.12189 1671.9951 109.143848 1672.0155 109.16983 1672.0396 116.05266 1678.4303 124.07113 1681.5726 133.46337 1681.56H1213.5977C1223.5682 1681.5679 1233.07 1677.4776 1239.9711 1670.0242 1239.9951 1669.9982 1240.0155 1669.9762 1240.0396 1669.9502 1246.4303 1663.0674 1249.5726 1655.0488 1249.56 1645.6566V133.52239C1249.5679 123.551769 1245.4776 114.05003 1238.0242 107.14898 1237.9982 107.12489 1237.9762 107.10454 1237.9502 107.08041 1231.0674 100.68971 1223.0488 97.54733 1213.6566 97.55994L133.52239 97.559978C123.551769 97.55215 114.05003 101.64246 107.14898 109.09586 107.12489 109.12189 107.10454 109.143848 107.08041 109.16983 100.68971 116.05266 97.54733 124.07113 97.55994 133.46337L97.559978 1645.5977C97.55146 1651.0186 98.5486 1655.6194 100.80072 1660.5505Z" fill-rule="evenodd"/>
</g>
</svg>
