<svg xmlns="http://www.w3.org/2000/svg" xmlns:xlink="http://www.w3.org/1999/xlink" version="1.1" width="1296" height="1728" viewBox="0 0 1296 1728">
<g id="layer_1" data-name="Layer 1">
<path transform="matrix(1,0,0,-1,0,1728)" d="M1188 1728H108C48.35325 1728 0 1679.6467 0 1620V108C0 48.35325 48.35325 0 108 0H1188C1247.6467 0 1296 48.35325 1296 108V1620C1296 1679.6467 1247.6467 1728 1188 1728Z" fill="#ffffff" fill-rule="evenodd"/>
<path transform="matrix(1,0,0,-1,0,1728)" stroke-width="0" stroke-linecap="butt" stroke-miterlimit="4" stroke-linejoin="miter" fill="none" stroke="#000000" d="M1188 1728H108C48.35325 1728 0 1679.6467 0 1620V108C0 48.35325 48.35325 0 108 0H1188C1247.6467 0 1296 48.35325 1296 108V1620C1296 1679.6467 1247.6467 1728 1188 1728Z"/>
<path transform="matrix(1,0,0,-1,0,1728)" d="M34.351774 1653.7814C29.24567 1642.6604 26.982928 1632.2748 26.999974 1620.0376L26.999976 107.96376C26.97145 86.71042 34.082235 68.56573 48.54349 52.99083 48.55254 52.981088 48.560174 52.97285 48.569208 52.963094 56.187788 44.734739 64.03297 39.042245 74.21865 34.351774 85.339588 29.24567 95.725269 26.982928 107.96239 26.999974L1188.0363 26.999976C1209.2896 26.97145 1227.4343 34.082235 1243.0092 48.54349 1243.0189 48.55254 1243.0271 48.560174 1243.0369 48.569208 1251.2653 56.187788 1256.9578 64.03297 1261.6482 74.21865 1266.7543 85.339588 1269.0171 95.725269 1269 107.96239V1620.0363C1269.0286 1641.2896 1261.9177 1659.4343 1247.4566 1675.0092 1247.4475 1675.0189 1247.4398 1675.0271 1247.4308 1675.0369 1239.8123 1683.2653 1231.967 1688.9578 1221.7814 1693.6482 1210.6604 1698.7543 1200.2748 1701.0171 1188.0376 1701H107.96376C86.71042 1701.0286 68.56573 1693.9177 52.99083 1679.4566 52.981088 1679.4475 52.97285 1679.4398 52.963094 1679.4308 44.734739 1671.8123 39.042245 1663.967 34.351774 1653.7814Z" fill-rule="evenodd"/>
<path transform="matrix(1,0,0,-1,0,1728)" d="M75.24072 1634.9905C77.33419 1639.5252 79.870998 1643.0177 83.535869 1646.411 83.56189 1646.435 83.58384 1646.4555 83.60983 1646.4796 90.49266 1652.8703 98.51113 1656.0127 107.903369 1656H1188.0376C1198.0082 1656.0078 1207.51 1651.9175 1214.411 1644.4641 1214.435 1644.4381 1214.4555 1644.4161 1214.4796 1644.3901 1220.8703 1637.5073 1224.0127 1629.4889 1224 1620.0967V107.96239C1224.0078 97.99177 1219.9175 88.490039 1212.4641 81.58898 1212.4381 81.56489 1212.4161 81.54453 1212.3901 81.52041 1205.5073 75.129718 1197.4889 71.98733 1188.0967 71.99993L107.96239 71.99998C97.99177 71.99214 88.490039 76.082469 81.58898 83.535869 81.56489 83.56189 81.54453 83.58384 81.52041 83.60983 75.129718 90.49266 71.98733 98.51113 71.99993 107.903369L71.99998 1620.0376C71.99146 1625.4586 72.9886 1630.0595 75.24072 1634.9905Z" fill="#ffffff" fill-rule="evenodd"/>
<path transform="matrix(1,0,0,-1,0,1728)" d="M608.40548 221.51219H172.67096C183.42983 371.59474 257.1281 477.16609 393.76588 538.22628 429.27018 553.634 458.31913 568.6137 480.91279 583.16549 503.5064 597.71719 513.99636 614.69418 512.3825 634.0965 512.3825 652.92819 503.5064 668.76388 485.75428 681.6036 468.0021 694.44338 440.298 701.14859 402.64195 701.71926 346.15785 700.00729 296.12907 676.03976 252.55562 629.8166L174.28479 696.5833C239.37598 767.34469 314.68815 803.29598 400.2212 804.4373 463.69856 804.4373 514.26528 787.7456 551.9213 754.36227 589.5774 720.9789 608.40548 680.89028 608.40548 634.0965 607.8675 593.5799 597.64657 561.4805 577.7427 537.7983 557.83877 514.1161 519.9137 489.43519 463.96754 463.75569 375.20683 418.67384 322.21934 372.16539 305.00514 324.2303H608.40548V221.51219Z" fill-rule="evenodd"/>
<path transform="matrix(1,0,0,-1,0,1728)" d="M1120.797 418.38853C1120.797 358.46965 1099.5482 308.9652 1057.0507 269.8753 1014.55307 230.78536 959.9517 211.24039 893.2467 211.24039 820.62429 211.24039 751.22958 232.63999 685.06246 275.43919L735.89816 361.8936C785.92697 331.6488 838.37649 315.95576 893.2467 314.81446 934.6684 314.2438 967.483 324.08763 991.6904 344.3459 1015.8979 364.6042 1028.0016 389.57038 1028.0016 419.2445 1029.0775 450.63059 1018.0497 475.8821 994.9181 494.99909 971.7865 514.1161 941.9306 523.9599 905.35049 524.5305 866.61849 523.9599 827.88656 515.1147 789.1546 497.99504L705.23538 523.67459 718.95297 795.0215H1079.6443V693.15939H809.32748L804.48599 609.27297C836.76266 619.54476 871.45999 624.966 908.5781 625.5366 970.44168 625.5366 1021.27737 605.9917 1061.0852 566.90176 1100.8931 527.8118 1120.797 478.3074 1120.797 418.38853Z" fill-rule="evenodd"/>
<path transform="matrix(1,0,0,-1,0,1728)" d="M316.0027 1352.0717C315.79008 1331.7988 308.40174 1314.9429 293.83766 1301.5036 279.27357 1288.0643 258.91575 1281.3447 232.76418 1281.3447 197.89542 1281.3447 169.51142 1297.0618 147.61214 1328.496L179.50429 1351.73C193.96205 1331.4572 212.14058 1321.093 234.03987 1320.6375 247.64719 1320.4097 258.33106 1323.257 266.0915 1329.1793 273.8519 1335.1017 277.8384 1342.9603 278.05104 1352.755 278.68888 1360.9552 275.60597 1367.6749 268.8023 1372.914 261.99867 1378.153 248.17871 1383.392 227.34252 1388.631 198.21434 1395.9202 178.70699 1404.9176 168.82042 1415.6234 158.93386 1426.3294 153.88425 1438.8574 153.67165 1453.2079 153.24642 1469.836 159.89061 1484.5851 173.60424 1497.455 187.31786 1510.3247 205.12432 1516.7597 227.02359 1516.7597 261.67973 1514.9374 288.25654 1500.473 306.75398 1473.3667L276.45643 1451.8411C264.76264 1466.4193 248.28502 1474.6195 227.02359 1476.4418 215.54242 1476.4418 206.82523 1474.164 200.87203 1469.6083 194.91883 1465.0526 192.15483 1459.9275 192.58007 1454.2329 192.36745 1447.8549 195.55667 1442.6159 202.14772 1438.5158 208.73876 1434.4157 218.20009 1431.1128 230.53173 1428.6072 260.29774 1422.6847 281.93125 1413.0609 295.43226 1399.7355 308.93327 1386.4102 315.79008 1370.5222 316.0027 1352.0717Z"/>
<path transform="matrix(1,0,0,-1,0,1728)" d="M453.13896 1375.3057H391.906V1285.4448H353.63545V1514.3679H451.86326C465.8958 1514.3679 478.12113 1511.1788 488.53926 1504.8009 510.4385 1491.1339 521.3882 1470.975 521.3882 1444.3242 521.3882 1415.6234 510.4385 1395.0089 488.53926 1382.4808 478.12113 1377.6974 466.32106 1375.3057 453.13896 1375.3057ZM483.11759 1444.3242C483.11759 1453.2079 480.35359 1460.2692 474.82563 1465.5082 469.29765 1470.7472 461.85615 1473.3667 452.5011 1473.3667H391.906V1416.3068H452.5011C461.85615 1416.3068 469.29765 1418.8694 474.82563 1423.9945 480.35359 1429.1196 483.11759 1435.8963 483.11759 1444.3242Z"/>
<path transform="matrix(1,0,0,-1,0,1728)" d="M726.4547 1285.4448H566.99398V1514.3679H722.94656V1473.3667H605.90237V1430.6572H669.68667V1388.9727H605.90237V1326.4459H726.4547V1285.4448Z"/>
<path transform="matrix(1,0,0,-1,0,1728)" d="M932.15908 1285.4448H772.6983V1514.3679H928.65097V1473.3667H811.60678V1430.6572H875.39108V1388.9727H811.60678V1326.4459H932.15908V1285.4448Z"/>
<path transform="matrix(1,0,0,-1,0,1728)" d="M1148.3878 1400.248C1148.3878 1353.3245 1131.1661 1319.6124 1096.7225 1299.1118 1081.2018 1290.0005 1064.4052 1285.4448 1046.333 1285.4448H977.4459V1514.3679H1046.333C1064.6178 1514.3679 1081.627 1509.4705 1097.3605 1499.6758 1131.3787 1478.9474 1148.3878 1445.8048 1148.3878 1400.248ZM1110.1173 1400.248C1110.1173 1430.5433 1099.5929 1451.955 1078.5441 1464.4832 1068.7638 1470.4055 1058.0267 1473.3667 1046.333 1473.3667H1016.3544V1326.4459H1046.333C1056.7511 1326.4459 1066.9566 1329.4071 1076.9495 1335.3296 1099.0613 1348.0855 1110.1173 1369.725 1110.1173 1400.248Z"/>
<path transform="matrix(1,0,0,-1,0,1728)" d="M409.3046 945.8132H249.84384V1174.7362H288.75227V986.81436H409.3046V945.8132Z"/>
<path transform="matrix(1,0,0,-1,0,1728)" d="M498.28373 945.8132H460.01313V1174.7362H498.28373V945.8132Z"/>
<path transform="matrix(1,0,0,-1,0,1728)" d="M753.102 945.8132H715.7882V1085.5587L652.96066 945.8132 590.452 1085.5587V945.8132H553.1382V1174.7362H590.452L652.96066 1038.7492 715.7882 1174.7362H753.102V945.8132Z"/>
<path transform="matrix(1,0,0,-1,0,1728)" d="M845.90817 945.8132H807.6376V1174.7362H845.90817V945.8132Z"/>
<path transform="matrix(1,0,0,-1,0,1728)" d="M1049.0612 1134.4185H987.50936V945.8132H950.1955V1134.4185H888.6437V1174.7362H1049.0612V1134.4185Z"/>
</g>
</svg>
