<svg xmlns="http://www.w3.org/2000/svg" xmlns:xlink="http://www.w3.org/1999/xlink" version="1.1" width="1347.12" height="1779.12" viewBox="0 0 1347.12 1779.12">
<g id="layer_1" data-name="Layer 1">
<path transform="matrix(1,0,0,-1,0,1779.12)" stroke-width=".25" stroke-linecap="butt" stroke-miterlimit="4" stroke-linejoin="miter" fill="none" stroke="#000000" d="M1213.56 1753.56H133.56C73.913249 1753.56 25.56 1705.2068 25.56 1645.56V133.56C25.56 73.913249 73.913249 25.56 133.56 25.56H1213.56C1273.2068 25.56 1321.56 73.913249 1321.56 133.56V1645.56C1321.56 1705.2068 1273.2068 1753.56 1213.56 1753.56Z"/>
<path transform="matrix(1,0,0,-1,0,1779.12)" d="M59.911775 1679.3413C54.80567 1668.2205 52.542928 1657.8347 52.559976 1645.5977V133.52376C52.531454 112.270427 59.642236 94.125728 74.10349 78.55083 74.11254 78.541088 74.12017 78.53285 74.12921 78.523097 81.74779 70.29474 89.59297 64.60224 99.77865 59.911775 110.89958 54.80567 121.28526 52.542928 133.52239 52.559976H1213.5962C1234.8496 52.531454 1252.9943 59.642236 1268.5692 74.10349 1268.5789 74.11254 1268.5872 74.12017 1268.5969 74.12921 1276.8253 81.74779 1282.5177 89.59297 1287.2083 99.77865 1292.3143 110.89958 1294.577 121.28526 1294.56 133.52239V1645.5962C1294.5885 1666.8496 1287.4778 1684.9943 1273.0165 1700.5692 1273.0075 1700.5789 1272.9999 1700.5872 1272.9909 1700.5969 1265.3722 1708.8253 1257.527 1714.5177 1247.3413 1719.2083 1236.2205 1724.3143 1225.8347 1726.577 1213.5977 1726.56H133.52376C112.270427 1726.5885 94.125728 1719.4778 78.55083 1705.0165 78.541088 1705.0075 78.53285 1704.9999 78.523097 1704.9909 70.29474 1697.3722 64.60224 1689.527 59.911775 1679.3413Z" fill-rule="evenodd"/>
<path transform="matrix(1,0,0,-1,0,1779.12)" d="M100.80072 1660.5505C102.89419 1665.0851 105.43099 1668.5778 109.09586 1671.9711 109.12189 1671.9951 109.143848 1672.0155 109.16983 1672.0396 116.05266 1678.4303 124.07113 1681.5726 133.46337 1681.56H1213.5977C1223.5682 1681.5679 1233.07 1677.4776 1239.9711 1670.0242 1239.9951 1669.9982 1240.0155 1669.9762 1240.0396 1669.9502 1246.4303 1663.0674 1249.5726 1655.0488 1249.56 1645.6566V133.52239C1249.5679 123.551769 1245.4776 114.05003 1238.0242 107.14898 1237.9982 107.12489 1237.9762 107.10454 1237.9502 107.08041 1231.0674 100.68971 1223.0488 97.54733 1213.6566 97.55994L133.52239 97.559978C123.551769 97.55215 114.05003 101.64246 107.14898 109.09586 107.12489 109.12189 107.10454 109.143848 107.08041 109.16983 100.68971 116.05266 97.54733 124.07113 97.55994 133.46337L97.559978 1645.5977C97.55146 1651.0186 98.5486 1655.6194 100.80072 1660.5505Z" fill="#ffffff" fill-rule="evenodd"/>
<path transform="matrix(1,0,0,-1,0,1779.12)" d="M633.96548 247.07219H198.23096C208.98983 397.15473 282.68815 502.72608 419.32588 563.78628 454.83018 579.194 483.87913 594.1737 506.47279 608.72549 529.0664 623.27719 539.55636 640.2542 537.9425 659.6565 537.9425 678.48818 529.0664 694.32388 511.31428 707.1636 493.5621 720.00338 465.858 726.70858 428.20195 727.27926 371.71784 725.56729 321.68907 701.59976 278.1156 655.3766L199.84479 722.1433C264.93598 792.90469 340.24815 828.856 425.7812 829.9973 489.25856 829.9973 539.82528 813.3056 577.4814 779.92227 615.1374 746.5389 633.96548 706.45028 633.96548 659.6565 633.4275 619.1399 623.20657 587.0405 603.3027 563.3583 583.39877 539.6761 545.4737 514.9952 489.52754 489.31568 400.7668 444.23387 347.77934 397.72538 330.56513 349.79029H633.96548V247.07219Z" fill-rule="evenodd"/>
<path transform="matrix(1,0,0,-1,0,1779.12)" d="M1146.3569 443.94853C1146.3569 384.02964 1125.1082 334.5252 1082.6106 295.4353 1040.113 256.34535 985.5117 236.80039 918.8067 236.80039 846.1843 236.80039 776.78958 258.19999 710.62246 300.99919L761.4581 387.45359C811.48696 357.2088 863.93649 341.51576 918.8067 340.37446 960.2284 339.8038 993.04299 349.6476 1017.2504 369.9059 1041.4579 390.16419 1053.5617 415.13038 1053.5617 444.8045 1054.6376 476.19059 1043.6096 501.4421 1020.4781 520.5591 997.3465 539.6761 967.4906 549.5199 930.91049 550.0905 892.17849 549.5199 853.44656 540.6747 814.7146 523.55508L730.79537 549.23458 744.51296 820.5815H1105.2042V718.71939H834.88748L830.04598 634.83297C862.32266 645.10476 897.01998 650.526 934.1381 651.0967 996.00167 651.0967 1046.8373 631.5517 1086.6452 592.46176 1126.453 553.3718 1146.3569 503.8674 1146.3569 443.94853Z" fill-rule="evenodd"/>
<path transform="matrix(1,0,0,-1,0,1779.12)" d="M341.56269 1377.6317C341.35008 1357.3589 333.96174 1340.5028 319.39765 1327.0636 304.83357 1313.6243 284.47575 1306.9047 258.3242 1306.9047 223.45543 1306.9047 195.07141 1322.6218 173.17214 1354.056L205.06429 1377.29C219.52207 1357.0172 237.70059 1346.6531 259.59986 1346.1975 273.20719 1345.9696 283.89106 1348.817 291.6515 1354.7394 299.4119 1360.6618 303.3984 1368.5203 303.61103 1378.3151 304.24888 1386.5153 301.16596 1393.2349 294.3623 1398.4739 287.55867 1403.7129 273.7387 1408.952 252.90251 1414.191 223.77434 1421.4801 204.26699 1430.4776 194.38042 1441.1835 184.49385 1451.8893 179.44426 1464.4175 179.23165 1478.7678 178.80641 1495.3961 185.4506 1510.1452 199.16423 1523.0149 212.87787 1535.8847 230.68431 1542.3196 252.58359 1542.3196 287.23973 1540.4973 313.81654 1526.0331 332.31398 1498.9268L302.01643 1477.4011C290.32264 1491.9794 273.84504 1500.1796 252.58359 1502.0018 241.10242 1502.0018 232.38523 1499.724 226.43202 1495.1683 220.47882 1490.6126 217.71483 1485.4874 218.14006 1479.7929 217.92745 1473.4149 221.11667 1468.1759 227.70772 1464.0758 234.29875 1459.9756 243.7601 1456.6727 256.09175 1454.1671 285.85774 1448.2448 307.49125 1438.6209 320.99226 1425.2955 334.49327 1411.9701 341.35008 1396.0822 341.56269 1377.6317Z"/>
<path transform="matrix(1,0,0,-1,0,1779.12)" d="M478.69895 1400.8656H417.466V1311.0048H379.19544V1539.9279H477.42329C491.4558 1539.9279 503.68113 1536.7389 514.09927 1530.361 535.99856 1516.6939 546.9482 1496.535 546.9482 1469.8843 546.9482 1441.1835 535.99856 1420.569 514.09927 1408.0409 503.68113 1403.2573 491.88105 1400.8656 478.69895 1400.8656ZM508.67759 1469.8843C508.67759 1478.7678 505.91358 1485.8291 500.38563 1491.0681 494.85765 1496.3073 487.41615 1498.9268 478.0611 1498.9268H417.466V1441.8668H478.0611C487.41615 1441.8668 494.85765 1444.4293 500.38563 1449.5546 505.91358 1454.6797 508.67759 1461.4562 508.67759 1469.8843Z"/>
<path transform="matrix(1,0,0,-1,0,1779.12)" d="M752.0147 1311.0048H592.55398V1539.9279H748.50656V1498.9268H631.46237V1456.2172H695.24667V1414.5327H631.46237V1352.006H752.0147V1311.0048Z"/>
<path transform="matrix(1,0,0,-1,0,1779.12)" d="M957.71908 1311.0048H798.2583V1539.9279H954.21096V1498.9268H837.16677V1456.2172H900.95108V1414.5327H837.16677V1352.006H957.71908V1311.0048Z"/>
<path transform="matrix(1,0,0,-1,0,1779.12)" d="M1173.9479 1425.808C1173.9479 1378.8845 1156.7261 1345.1724 1122.2826 1324.6719 1106.7617 1315.5604 1089.9652 1311.0048 1071.893 1311.0048H1003.0059V1539.9279H1071.893C1090.1779 1539.9279 1107.1869 1535.0305 1122.9204 1525.2359 1156.9387 1504.5075 1173.9479 1471.3649 1173.9479 1425.808ZM1135.6773 1425.808C1135.6773 1456.1033 1125.1528 1477.515 1104.104 1490.0431 1094.3237 1495.9656 1083.5868 1498.9268 1071.893 1498.9268H1041.9143V1352.006H1071.893C1082.311 1352.006 1092.5166 1354.9672 1102.5094 1360.8895 1124.6213 1373.6454 1135.6773 1395.2849 1135.6773 1425.808Z"/>
<path transform="matrix(1,0,0,-1,0,1779.12)" d="M434.8646 971.37319H275.40385V1200.2963H314.31227V1012.3743H434.8646V971.37319Z"/>
<path transform="matrix(1,0,0,-1,0,1779.12)" d="M523.8437 971.37319H485.57313V1200.2963H523.8437V971.37319Z"/>
<path transform="matrix(1,0,0,-1,0,1779.12)" d="M778.662 971.37319H741.3482V1111.1188L678.5206 971.37319 616.012 1111.1188V971.37319H578.6982V1200.2963H616.012L678.5206 1064.3091 741.3482 1200.2963H778.662V971.37319Z"/>
<path transform="matrix(1,0,0,-1,0,1779.12)" d="M871.46817 971.37319H833.1976V1200.2963H871.46817V971.37319Z"/>
<path transform="matrix(1,0,0,-1,0,1779.12)" d="M1074.6212 1159.9784H1013.06936V971.37319H975.7555V1159.9784H914.2037V1200.2963H1074.6212V1159.9784Z"/>
</g>
</svg>
