<svg xmlns="http://www.w3.org/2000/svg" xmlns:xlink="http://www.w3.org/1999/xlink" version="1.1" width="1674" height="1674" viewBox="0 0 1674 1674">
<g id="layer_1" data-name="Layer 1">
<path transform="matrix(1,0,0,-1,0,1674)" d="M0 1184.1828V489.8173L489.8173 0H1184.1828L1674 489.8173V1184.1828L1184.1828 1674H489.8173L0 1184.1828Z" fill="#d50002" fill-rule="evenodd"/>
<path transform="matrix(1,0,0,-1,0,1674)" d="M424.42594 711.8611C424.42594 666.8737 410.47416 627.1539 382.57063 592.7015 354.66706 558.24917 316.22846 541.02297 267.25489 541.02297 222.2675 541.02297 184.25603 558.5339 153.22043 593.55569 122.18484 628.5775 106.667049 670.5752 106.667049 719.54879H185.25258C185.25258 689.3674 192.79793 665.4501 207.88864 647.7968 222.97933 630.1435 242.19861 621.3169 265.5465 621.3169 287.18598 621.3169 305.97819 630.00119 321.92308 647.3697 337.86796 664.7382 345.55567 685.09646 344.98625 708.44436 344.41676 727.2365 337.44087 747.02529 324.05857 767.81057 310.67625 788.5959 286.04707 810.37777 250.17107 833.1561 209.16992 859.3513 179.27326 885.4041 160.48105 911.3146 141.68886 937.22506 132.29277 961.56948 132.29277 984.3479 131.7233 1025.349 144.82089 1060.2285 171.58554 1088.9862 198.35018 1117.744 232.51779 1132.4076 274.0884 1132.977 317.93687 1132.977 353.95524 1118.5982 382.14353 1089.8405 410.33183 1061.0827 424.42594 1026.2033 424.42594 985.2021H340.71528C341.28474 1007.411 334.30885 1024.7796 319.7876 1037.3078 305.26637 1049.8358 290.0333 1055.5304 274.0884 1054.3915 255.2962 1053.2526 240.77497 1046.2767 230.52469 1033.4639 220.2744 1020.65097 215.43398 1005.1332 216.00345 986.91049 216.57289 974.9518 221.69805 963.27786 231.37888 951.8886 241.0597 940.4994 262.12974 923.4156 294.589 900.6372 340.1458 869.88638 373.03215 839.70498 393.248 810.093 413.46385 780.4811 423.85649 747.73709 424.42594 711.8611Z" fill="#ffffff"/>
<path transform="matrix(1,0,0,-1,0,1674)" d="M778.91506 1046.7037H674.7038V551.27328H591.8473V1046.7037H487.63606V1123.5809H778.91506V1046.7037Z" fill="#ffffff"/>
<path transform="matrix(1,0,0,-1,0,1674)" d="M1004.4213 541.02297C945.7669 541.02297 902.7727 565.6521 875.4386 614.91049 848.1045 664.16879 834.43746 738.341 834.43746 837.4271 834.43746 935.37429 848.1045 1009.1194 875.4386 1058.6625 902.7727 1108.2056 945.7669 1132.977 1004.4213 1132.977 1063.0758 1132.977 1106.0701 1108.2056 1133.4042 1058.6625 1160.7383 1009.1194 1174.4053 935.37429 1174.4053 837.4271 1174.4053 738.341 1160.7383 664.16879 1133.4042 614.91049 1106.0701 565.6521 1063.0758 541.02297 1004.4213 541.02297ZM1004.4213 621.3169C1035.7417 620.74746 1058.2354 638.11599 1071.9025 673.4225 1085.5695 708.72909 1092.403 763.9667 1092.403 839.1355 1092.403 913.16537 1085.5695 967.26406 1071.9025 1001.4317 1058.2354 1035.5994 1035.7417 1052.6831 1004.4213 1052.6831 973.101 1052.6831 950.60739 1035.5994 936.9403 1001.4317 923.27328 967.26406 916.4397 913.16537 916.4397 839.1355 916.4397 763.9667 923.27328 708.72909 936.9403 673.4225 950.60739 638.11599 973.101 620.74746 1004.4213 621.3169Z" fill="#ffffff"/>
<path transform="matrix(1,0,0,-1,0,1674)" d="M1487.0391 973.2434C1487.0391 994.8829 1480.2056 1011.9667 1466.5385 1024.4949 1452.8715 1037.023 1434.9334 1043.287 1412.7245 1043.287H1328.1596V902.3456H1412.7245C1433.225 902.3456 1450.736 909.1791 1465.2572 922.8461 1479.7785 936.5132 1487.0391 953.31228 1487.0391 973.2434ZM1406.7451 820.34329H1328.1596V551.27328H1246.1574V1123.5809H1416.9954C1461.9828 1123.5809 1498.2859 1109.6292 1525.9047 1081.7256 1553.5236 1053.822 1567.333 1016.8071 1567.333 970.68087 1566.7634 929.6797 1553.2388 894.3731 1526.7589 864.76119 1500.2789 835.14926 1460.2744 820.34329 1406.7451 820.34329Z" fill="#ffffff"/>
</g>
</svg>
