<svg xmlns="http://www.w3.org/2000/svg" xmlns:xlink="http://www.w3.org/1999/xlink" version="1.1" width="6603.6247" height="1725.2059" viewBox="0 0 6603.6247 1725.2059">
<g id="layer_1" data-name="Layer 1">
<path transform="matrix(1,0,0,-1,0,1725.2059)" d="M6117.086 1710.2759H490.80494C229.5255 1710.2759 17.716675 1526.3641 17.716675 1299.4974V477.9406C17.716675 251.07395 229.5255 67.16216 490.80494 67.16216H6117.086C6378.365 67.16216 6590.1745 251.07395 6590.1745 477.9406V1299.4974C6590.1745 1526.3641 6378.365 1710.2759 6117.086 1710.2759Z" fill="#007f00" fill-rule="evenodd"/>
<path transform="matrix(1,0,0,-1,0,1725.2059)" d="M6128.292 1725.2056H475.3321C350.4695 1725.3576 243.87009 1687.4517 152.36818 1610.3622 54.14483 1527.7262-.091236 1413.4114 .000502 1293.9043V431.30174C-.167082 318.00529 41.6085 221.28023 126.56785 138.2542 217.64 49.129358 343.62483-.082785 475.3321 .000456H6128.292C6253.155-.151605 6359.7546 37.754278 6451.256 114.84377 6549.4797 197.47985 6603.7155 311.7946 6603.6237 431.30174V1293.9043C6603.7917 1407.2007 6562.0158 1503.9258 6477.0568 1586.9518 6386.2248 1675.8414 6259.9147 1725.372 6128.292 1725.2056ZM187.17882 1413.7957C205.5368 1449.9619 227.81412 1477.8178 260.01414 1504.8699 260.0714 1504.918 260.11973 1504.9586 260.1769 1505.0068 321.07429 1556.3123 392.0195 1581.5398 475.11946 1581.4386H6128.5129C6176.3498 1581.499 6216.948 1573.4744 6260.423 1555.3657 6300.2814 1538.7083 6330.981 1518.4945 6360.7946 1489.2771 6360.8479 1489.2252 6360.8928 1489.1814 6360.9455 1489.1295 6417.489 1433.873 6445.2917 1369.4995 6445.18 1294.0972V431.10145C6445.2468 387.69606 6436.403 350.85783 6416.4455 311.41029 6398.0876 275.24406 6375.81 247.38826 6343.6105 220.33615 6343.5529 220.28804 6343.5046 220.2474 6343.4475 220.19922 6282.55 168.89376 6211.605 143.66622 6128.505 143.76741H475.11137C427.27485 143.70694 386.67588 151.73159 343.20127 169.8403 303.34294 186.49777 272.6434 206.71152 242.82964 235.92884 242.77663 235.98079 242.73183 236.02463 242.67873 236.07653 186.13564 291.33293 158.33269 355.70646 158.44422 431.10877V1294.1045C158.37757 1337.51 167.22144 1374.3482 187.17882 1413.7957Z" fill="#ffffff" fill-rule="evenodd"/>
<path transform="matrix(1,0,0,-1,0,1725.2059)" d="M918.67587 1203.9932H787.4125V428.6024H683.0473V1203.9932H551.78396V1324.3124H918.67587V1203.9932Z" fill="#ffffff" fill-rule="evenodd"/>
<path transform="matrix(1,0,0,-1,0,1725.2059)" d="M1400.6923 679.936C1399.975 597.9406 1380.9669 535.55288 1343.668 492.77268 1306.3692 449.9925 1259.3869 428.6024 1202.7212 428.6024H996.14279V1324.3124H1202.7212C1259.3869 1324.3124 1304.5759 1302.2538 1338.2883 1258.1369 1372.0007 1214.0198 1388.4984 1155.8655 1387.7811 1083.6738 1388.4984 992.766 1362.676 926.81326 1310.3142 885.81558 1369.8489 850.1654 1399.975 781.5389 1400.6923 679.936ZM1286.6437 1083.6738C1285.9264 1118.4328 1277.8569 1146.7301 1262.4353 1168.5658 1247.0137 1190.4015 1228.5436 1201.3193 1207.0249 1201.3193H1098.3561V956.6702H1207.0249C1229.2609 956.6702 1248.2689 968.9249 1264.0492 993.43447 1279.8295 1017.9439 1287.361 1048.0237 1286.6437 1083.6738ZM1300.6309 678.59909C1300.6309 716.923 1291.306 749.89938 1272.6566 777.5282 1254.0072 805.1571 1229.9782 819.4171 1200.5693 820.3084H1097.2802V540.9004H1201.6453C1228.9022 542.68289 1252.214 556.4973 1271.5807 582.3437 1290.9475 608.19 1300.6309 640.27517 1300.6309 678.59909Z" fill="#ffffff" fill-rule="evenodd"/>
<path transform="matrix(1,0,0,-1,0,1725.2059)" d="M1887.0123 679.936C1887.0123 609.5269 1869.4389 547.36196 1834.2918 493.4411 1799.1448 439.52024 1750.7279 412.55986 1689.0414 412.55986 1632.3757 412.55986 1584.4968 439.96589 1545.4048 494.77799 1506.3126 549.5901 1486.7666 615.32 1486.7666 691.9679H1585.7521C1585.7521 644.7314 1595.2561 607.29879 1614.2643 579.6699 1633.2723 552.041 1657.4807 538.2266 1686.8895 538.2266 1714.1464 538.2266 1737.8168 551.81826 1757.9008 579.00149 1777.9849 606.1847 1787.6682 638.047 1786.9509 674.58847 1786.2337 703.9998 1777.4469 734.9708 1760.5907 767.50167 1743.7344 800.03237 1712.7118 834.1228 1667.5227 869.773 1615.8782 910.7706 1578.2206 951.5455 1554.5502 992.09756 1530.8798 1032.6495 1519.0444 1070.7507 1519.0444 1106.4009 1518.3272 1170.5712 1534.8248 1225.1604 1568.5372 1270.1687 1602.2496 1315.177 1645.2869 1338.1268 1697.6488 1339.0181 1752.8798 1339.0181 1798.2482 1316.5139 1833.7538 1271.5056 1869.2595 1226.4973 1887.0123 1171.908 1887.0123 1107.7377H1781.5713C1782.2886 1142.4966 1773.5018 1169.6798 1755.2109 1189.2875 1736.9202 1208.895 1717.7328 1217.8075 1697.6488 1216.025 1673.9783 1214.2426 1655.6875 1203.3247 1642.7764 1183.2715 1629.8652 1163.2183 1623.7683 1138.9317 1624.4856 1110.4115 1625.2029 1091.6952 1631.6585 1073.4244 1643.8523 1055.5994 1656.0462 1037.7743 1682.5857 1011.0367 1723.4711 975.38656 1780.854 927.25888 1822.2772 880.0224 1847.741 833.6772 1873.2046 787.33206 1886.295 736.0849 1887.0123 679.936Z" fill="#ffffff" fill-rule="evenodd"/>
<path transform="matrix(1,0,0,-1,0,1725.2059)" d="M2347.5103 758.8119C2347.5103 654.5352 2332.447 571.4258 2302.321 509.48368 2272.195 447.54154 2226.6475 416.57048 2165.678 416.57048 2106.8607 416.57048 2062.0303 445.98185 2031.1869 504.8046 2000.3436 563.6273 1984.5632 648.29647 1983.846 758.8119 1984.5632 871.10989 2000.7023 955.779 2032.2628 1012.8192 2063.8236 1069.8594 2108.2952 1098.3795 2165.678 1098.3795 2225.9302 1098.3795 2271.2984 1070.0823 2301.7833 1013.4876 2332.2679 956.893 2347.5103 872.0011 2347.5103 758.8119ZM2250.6766 761.48568C2249.242 839.91598 2240.9932 895.84219 2225.9302 929.26419 2210.8673 962.68618 2190.783 978.95156 2165.678 978.0603 2139.8558 978.0603 2119.5926 961.3493 2104.888 927.9273 2090.1837 894.50527 2082.8316 837.2422 2082.8316 756.1381 2083.5489 676.8165 2090.901 619.3307 2104.888 583.68057 2118.8753 548.0304 2139.1385 531.09658 2165.678 532.8791 2194.3695 532.8791 2215.35 551.3726 2228.6199 588.3596 2241.8897 625.3466 2249.242 683.0553 2250.6766 761.48568Z" fill="#ffffff" fill-rule="evenodd"/>
<path transform="matrix(1,0,0,-1,0,1725.2059)" d="M2566.9998 428.6024H2463.7105V1274.8478L2566.9998 1339.0181V428.6024Z" fill="#ffffff" fill-rule="evenodd"/>
<path transform="matrix(1,0,0,-1,0,1725.2059)" d="M2683.2003 1094.3689H2784.3375V645.17709C2784.3375 613.98318 2791.6898 588.5824 2806.394 568.97488 2821.0985 549.36727 2840.286 539.5635 2863.9564 539.5635 2886.1922 539.5635 2905.3797 549.1445 2921.5186 568.3064 2937.6575 587.4684 2945.7269 613.0919 2945.7269 645.17709V1094.3689H3046.8643V428.6024H2947.8787V468.7088C2919.9046 437.51493 2887.9854 421.918 2852.121 421.918 2804.0628 421.918 2763.8948 441.52558 2731.617 480.74076 2699.339 519.9559 2683.2003 574.768 2683.2003 645.17709V1094.3689Z" fill="#ffffff" fill-rule="evenodd"/>
<path transform="matrix(1,0,0,-1,0,1725.2059)" d="M3377.1746 564.96426 3351.3524 432.61305C3334.1375 420.1355 3315.1295 413.45109 3294.3282 412.55986 3261.3328 412.55986 3236.2279 426.59709 3219.013 454.67158 3201.798 482.74607 3193.5494 515.49966 3194.2667 552.9323V962.01779H3126.4832V1082.337H3194.2667V1276.1847L3295.404 1339.0181V1082.337H3379.3265V962.01779H3295.404V581.0068C3297.556 549.81289 3309.391 534.21597 3330.9097 534.21597 3347.4073 534.21597 3362.8289 544.4654 3377.1746 564.96426Z" fill="#ffffff" fill-rule="evenodd"/>
<path transform="matrix(1,0,0,-1,0,1725.2059)" d="M3572.9937 1270.8372C3572.9937 1253.0121 3567.9727 1238.0836 3557.9307 1226.0516 3547.8887 1214.0198 3535.3363 1208.0038 3520.2733 1208.0038 3506.6448 1208.0038 3494.8096 1214.0198 3484.7677 1226.0516 3474.7257 1238.0836 3469.7047 1253.0121 3469.7047 1270.8372 3469.7047 1289.5535 3474.7257 1305.1504 3484.7677 1317.6279 3494.8096 1330.1055 3506.6448 1336.3444 3520.2733 1336.3444 3535.3363 1336.3444 3547.8887 1330.1055 3557.9307 1317.6279 3567.9727 1305.1504 3572.9937 1289.5535 3572.9937 1270.8372ZM3469.7047 428.6024V1094.3689H3572.9937V428.6024H3469.7047Z" fill="#ffffff" fill-rule="evenodd"/>
<path transform="matrix(1,0,0,-1,0,1725.2059)" d="M4052.8582 758.8119C4052.8582 654.5352 4037.7952 571.4258 4007.6693 509.48368 3977.5433 447.54154 3931.9957 416.57048 3871.0262 416.57048 3812.2088 416.57048 3767.3785 445.98185 3736.535 504.8046 3705.6917 563.6273 3689.9114 648.29647 3689.194 758.8119 3689.9114 871.10989 3706.0504 955.779 3737.6109 1012.8192 3769.1717 1069.8594 3813.6434 1098.3795 3871.0262 1098.3795 3931.2784 1098.3795 3976.6466 1070.0823 4007.1314 1013.4876 4037.616 956.893 4052.8582 872.0011 4052.8582 758.8119ZM3956.0247 761.48568C3954.59 839.91598 3946.3414 895.84219 3931.2784 929.26419 3916.2154 962.68618 3896.131 978.95156 3871.0262 978.0603 3845.2039 978.0603 3824.9405 961.3493 3810.236 927.9273 3795.5318 894.50527 3788.1798 837.2422 3788.1798 756.1381 3788.897 676.8165 3796.249 619.3307 3810.236 583.68057 3824.2232 548.0304 3844.4866 531.09658 3871.0262 532.8791 3899.7176 532.8791 3920.6983 551.3726 3933.968 588.3596 3947.2379 625.3466 3954.59 683.0553 3956.0247 761.48568Z" fill="#ffffff" fill-rule="evenodd"/>
<path transform="matrix(1,0,0,-1,0,1725.2059)" d="M4521.9636 428.6024H4420.826V877.79428C4420.826 908.98818 4413.474 934.38888 4398.7697 953.99649 4384.0656 973.604 4364.878 983.40786 4341.2077 983.40786 4318.9719 983.40786 4299.784 973.82687 4283.645 954.6649 4267.5065 935.5029 4259.4367 909.8794 4259.4367 877.79428V428.6024H4158.2995V1094.3689H4257.2849V1054.2625C4285.259 1085.4564 4317.178 1101.0534 4353.0427 1101.0534 4401.1008 1101.0534 4441.2687 1081.4457 4473.547 1042.2306 4505.8249 1003.0154 4521.9636 948.2033 4521.9636 877.79428V428.6024Z" fill="#ffffff" fill-rule="evenodd"/>
<path transform="matrix(1,0,0,-1,0,1725.2059)" d="M4908.222 606.40756C4906.7878 554.7148 4891.7248 510.1521 4863.033 472.71946 4834.342 435.2868 4798.4777 416.57048 4755.44 416.57048 4690.8845 417.46174 4638.5227 456.23127 4598.3547 532.8791L4665.062 615.7657C4694.4709 562.29049 4724.9558 535.55288 4756.516 535.55288 4772.2966 534.66159 4786.104 541.346 4797.9396 555.6061 4809.7746 569.8661 4815.3337 586.7999 4814.616 606.40756 4815.3337 628.68887 4807.085 651.86148 4789.87 675.9253 4772.6555 699.98916 4748.267 723.60739 4716.7067 746.77999 4682.994 770.8438 4657.531 796.91299 4640.316 824.9875 4623.101 853.06198 4614.4938 888.4893 4614.4938 931.2695 4613.7766 975.83218 4626.508 1014.8245 4652.689 1048.2466 4678.8698 1081.6686 4710.61 1098.3795 4747.9089 1098.3795 4807.4436 1096.597 4857.295 1060.9469 4897.463 991.42916L4837.211 916.5638C4812.106 959.344 4781.98 981.1797 4746.8327 982.0709 4736.073 982.0709 4727.466 977.6147 4721.0104 968.70217 4714.5549 959.7896 4710.9685 948.6489 4710.251 935.28018 4710.9685 919.23757 4715.4519 904.7547 4723.7 891.83157 4731.949 878.9083 4750.419 861.7517 4779.111 840.36166 4832.19 796.6902 4866.978 756.8066 4883.4758 720.7108 4899.973 684.61508 4908.222 646.5139 4908.222 606.40756Z" fill="#ffffff" fill-rule="evenodd"/>
<path transform="matrix(1,0,0,-1,0,1725.2059)" d="M5535.7238 863.9208H5223.23V1251.9938H5311.2048V918.3668H5535.7238V863.9208Z" fill="#ffffff" fill-rule="evenodd"/>
<path transform="matrix(1,0,0,-1,0,1725.2059)" d="M5972.848 863.9208H5887.6228L5716.255 1110.6657V863.9208H5628.2805V1251.9938H5716.255L5883.957 1008.7241V1251.9938H5972.848V863.9208Z" fill="#ffffff" fill-rule="evenodd"/>
</g>
</svg>
