<svg xmlns="http://www.w3.org/2000/svg" xmlns:xlink="http://www.w3.org/1999/xlink" version="1.1" width="1728" height="1728" viewBox="0 0 1728 1728">
<g id="layer_1" data-name="Layer 1">
<path transform="matrix(1,0,0,-1,0,1728)" d="M1620 1728H108C48.35325 1728 0 1679.6467 0 1620V108C0 48.35325 48.35325 0 108 0H1620C1679.6467 0 1728 48.35325 1728 108V1620C1728 1679.6467 1679.6467 1728 1620 1728Z" fill-rule="evenodd"/>
<path transform="matrix(1,0,0,-1,0,1728)" d="M864 1692H863.869C795.42886 1635.549 707.70358 1601.6406 612.05856 1601.6406 516.41348 1601.6406 428.68815 1635.549 360.24797 1692H359.95295L36 1368.047V1368H36.041677C86.69708 1276.7877 115.54601 1171.795 115.54601 1060.0642 115.54601 977.0948 99.637828 897.8409 70.70521 825.18637 48.33281 770.5335 36 710.707 36 648 36 392.42146 240.87015 184.69292 495.3464 180.0784V180H504 579.9368C694.23287 173.73401 795.61868 118.99977 863.8916 36H864 864.1084C932.38137 118.99977 1033.7672 173.73401 1148.0631 180H1224 1232.6536V180.0784C1487.1299 184.69292 1692 392.42146 1692 648 1692 710.707 1679.6672 770.5335 1657.2948 825.18637 1628.3622 897.8409 1612.454 977.0948 1612.454 1060.0642 1612.454 1171.795 1641.3029 1276.7877 1691.9584 1368H1692V1368.047L1368.047 1692H1367.7521C1299.3119 1635.549 1211.5866 1601.6406 1115.9415 1601.6406 1020.29647 1601.6406 932.57119 1635.549 864.131 1692H864Z" fill="#ffffff" fill-rule="evenodd"/>
<path transform="matrix(1,0,0,-1,0,1728)" d="M927.3482 658.74307H844.8208V443.39808H708.13479V658.74307H299.3662V783.8236L708.13479 1307.3568H844.8208V782.5341H927.3482V658.74307ZM708.13479 782.5341V1092.0119L463.13154 782.5341H708.13479Z" fill-rule="evenodd"/>
<path transform="matrix(1,0,0,-1,0,1728)" d="M1289.6951 443.39808H1151.7196V1137.144H1071.7711V1248.0403C1122.4911 1250.6193 1159.4566 1270.3915 1182.6674 1307.3568H1289.6951V443.39808Z" fill-rule="evenodd"/>
</g>
</svg>
