<svg xmlns="http://www.w3.org/2000/svg" xmlns:xlink="http://www.w3.org/1999/xlink" version="1.1" width="2148.8409" height="2148.8409" viewBox="0 0 2148.8409 2148.8409">
<g id="layer_1" data-name="Layer 1">
<path transform="matrix(1,0,0,-1,0,2148.8409)" d="M1004.7172 2119.9688 28.872023 1144.1237C-9.624007 1105.6276-9.624007 1043.2133 28.872023 1004.7172L1004.7172 28.872023C1043.2133-9.624007 1105.6276-9.624007 1144.1237 28.872023L2119.9688 1004.7172C2158.4649 1043.2133 2158.4649 1105.6276 2119.9688 1144.1237L1144.1237 2119.9688C1105.6276 2158.4649 1043.2133 2158.4649 1004.7172 2119.9688Z" fill="#ff7f00" fill-rule="evenodd"/>
<path transform="matrix(1,0,0,-1,0,2148.8409)" d="M32.911096 1104.7144C28.727456 1095.6253 26.717267 1087.2119 26.340245 1077.2134 25.957577 1067.2044 27.316048 1058.6547 30.782196 1049.2572 34.577566 1039.0199 39.702508 1031.0402 47.43364 1023.3306L1023.30477 47.45955C1029.6488 41.105607 1035.9826 36.68045 1044.1309 32.90908 1061.6122 24.841063 1081.6987 24.168553 1099.5836 30.782196 1109.821 34.577566 1117.8007 39.702508 1125.5103 47.43364L2101.3814 1023.30477C2107.7354 1029.6488 2112.1605 1035.9826 2115.932 1044.1309 2123.9998 1061.6122 2124.6724 1081.6987 2118.0587 1099.5836 2114.2633 1109.821 2109.1385 1117.8007 2101.4073 1125.5103L1125.5361 2101.3814C1119.1921 2107.7354 1112.8584 2112.1605 1104.71 2115.932 1087.2286 2123.9998 1067.1422 2124.6724 1049.2572 2118.0587 1039.0199 2114.2633 1031.0402 2109.1385 1023.3306 2101.4073L47.43824 1125.5149C41.09038 1119.1815 36.67167 1112.8546 32.911096 1104.7144ZM68.714267 1088.1957C70.42848 1091.8883 72.437129 1094.7584 75.319538 1097.6336L1051.2507 2073.5648C1054.7245 2077.0484 1058.3181 2079.3592 1062.929 2081.0748 1071.0507 2084.0767 1080.2859 2083.7794 1088.181 2080.1334 1091.8869 2078.4095 1094.7672 2076.3927 1097.6548 2073.5L2073.5648 1097.5902C2077.0484 1094.1163 2079.3592 1090.5227 2081.0748 1085.912 2084.0767 1077.7902 2083.7794 1068.5549 2080.1334 1060.6598 2078.4095 1056.9541 2076.3927 1054.0736 2073.5 1051.186L1097.5902 75.27606C1094.1163 71.79257 1090.5227 69.48166 1085.912 67.766269 1077.7902 64.76423 1068.5549 65.061618 1060.6598 68.70757 1056.9541 70.43151 1054.0736 72.44833 1051.186 75.34084L75.27606 1051.2507C71.79257 1054.7245 69.48166 1058.3181 67.766269 1062.929 66.18581 1067.2327 65.56696 1071.1461 65.74235 1075.7276 65.913249 1080.2599 66.82228 1084.0736 68.714267 1088.1957Z" fill-rule="evenodd"/>
<path transform="matrix(1,0,0,-1,0,2148.8409)" stroke-width=".25" stroke-linecap="butt" stroke-miterlimit="4" stroke-linejoin="miter" fill="none" stroke="#000000" d="M1004.7172 2119.9688 28.872023 1144.1237C-9.624007 1105.6276-9.624007 1043.2133 28.872023 1004.7172L1004.7172 28.872023C1043.2133-9.624007 1105.6276-9.624007 1144.1237 28.872023L2119.9688 1004.7172C2158.4649 1043.2133 2158.4649 1105.6276 2119.9688 1144.1237L1144.1237 2119.9688C1105.6276 2158.4649 1043.2133 2158.4649 1004.7172 2119.9688Z"/>
<path transform="matrix(1,0,0,-1,0,2148.8409)" d="M700.1276 1320.4544C700.1276 1299.3987 696.378 1282.3811 688.8787 1269.4016 681.9563 1257.5758 672.07748 1247.8412 659.2422 1240.1978 646.40689 1232.5542 633.21109 1228.7326 619.65469 1228.7326 605.5214 1228.7326 591.89297 1232.4822 578.7692 1239.9815 565.64547 1247.4807 555.62246 1257.2875 548.7 1269.4016 541.20077 1282.6696 537.4511 1299.6871 537.4511 1320.4544V1523.8H578.98556V1315.2626C578.98556 1301.4177 582.73519 1290.3131 590.23446 1281.9485 597.7337 1273.5839 607.54049 1269.4016 619.65469 1269.4016 630.90359 1269.4016 640.1334 1273.656 647.3443 1282.1648 654.5551 1290.6736 658.1605 1301.7062 658.1605 1315.2626V1523.8H700.1276V1320.4544Z" fill-rule="evenodd"/>
<path transform="matrix(1,0,0,-1,0,2148.8409)" d="M871.7785 1484.8615H818.9951V1233.9243H777.0281V1484.8615H724.2447V1523.8H871.7785V1484.8615Z" fill-rule="evenodd"/>
<path transform="matrix(1,0,0,-1,0,2148.8409)" d="M952.1401 1233.9243H911.47097V1523.8H952.1401V1233.9243Z" fill-rule="evenodd"/>
<path transform="matrix(1,0,0,-1,0,2148.8409)" d="M1150.6152 1233.9243H1003.0815V1523.8H1044.616V1274.5934H1150.6152V1233.9243Z" fill-rule="evenodd"/>
<path transform="matrix(1,0,0,-1,0,2148.8409)" d="M1241.7931 1233.9243H1201.124V1523.8H1241.7931V1233.9243Z" fill-rule="evenodd"/>
<path transform="matrix(1,0,0,-1,0,2148.8409)" d="M1429.452 1484.8615H1376.6687V1233.9243H1334.7017V1484.8615H1281.9182V1523.8H1429.452V1484.8615Z" fill-rule="evenodd"/>
<path transform="matrix(1,0,0,-1,0,2148.8409)" d="M1627.9273 1523.8 1555.6746 1365.0173V1233.9243H1514.1401V1365.0173L1442.7528 1523.8H1486.4506L1535.3401 1419.0986 1582.9315 1523.8H1627.9273Z" fill-rule="evenodd"/>
<path transform="matrix(1,0,0,-1,0,2148.8409)" d="M891.24618 1174.99 843.2528 877.2535H806.369L778.3729 1032.7875 749.93246 877.2535H712.60427L665.4997 1174.99H707.27169L732.6015 1016.3453 761.4864 1174.99H795.25949L823.25558 1016.3453 849.4742 1174.99H891.24618Z" fill-rule="evenodd"/>
<path transform="matrix(1,0,0,-1,0,2148.8409)" d="M993.8317 871.9209C963.31747 871.9209 940.9502 884.73397 926.7299 910.36 912.5097 935.9861 905.39956 974.5733 905.39956 1026.1217 905.39956 1077.0776 912.5097 1115.4426 926.7299 1141.2168 940.9502 1166.9911 963.31747 1179.8782 993.8317 1179.8782 1024.346 1179.8782 1046.7133 1166.9911 1060.9335 1141.2168 1075.1538 1115.4426 1082.2639 1077.0776 1082.2639 1026.1217 1082.2639 974.5733 1075.1538 935.9861 1060.9335 910.36 1046.7133 884.73397 1024.346 871.9209 993.8317 871.9209ZM993.8317 913.6929C1010.12576 913.3966 1021.8278 922.4324 1028.938 940.80026 1036.0481 959.168 1039.6032 987.9048 1039.6032 1027.0105 1039.6032 1065.5237 1036.0481 1093.6679 1028.938 1111.4432 1021.8278 1129.2185 1010.12576 1138.1062 993.8317 1138.1062 977.53768 1138.1062 965.83566 1129.2185 958.72549 1111.4432 951.61538 1093.6679 948.0603 1065.5237 948.0603 1027.0105 948.0603 987.9048 951.61538 959.168 958.72549 940.80026 965.83566 922.4324 977.53768 913.3966 993.8317 913.6929Z" fill-rule="evenodd"/>
<path transform="matrix(1,0,0,-1,0,2148.8409)" d="M1278.1698 877.2535H1234.176L1194.6259 1017.2341H1153.7427V877.2535H1111.0819V1174.99H1199.9585C1223.3627 1174.99 1242.2489 1167.7317 1256.6173 1153.2152 1270.9857 1138.6987 1278.1698 1119.4421 1278.1698 1095.4454 1278.1698 1079.7439 1274.2445 1065.0053 1266.3937 1051.2294 1258.543 1037.4535 1248.1 1028.1954 1235.0647 1023.4554L1278.1698 877.2535ZM1236.3978 1096.7786C1236.3978 1108.0363 1232.8428 1116.924 1225.7327 1123.4415 1218.6226 1129.9591 1209.2905 1133.218 1197.7366 1133.218H1153.7427V1059.8948H1197.7366C1208.4017 1059.8948 1217.5116 1063.4498 1225.0662 1070.5599 1232.6206 1077.6702 1236.3978 1086.4097 1236.3978 1096.7786Z" fill-rule="evenodd"/>
<path transform="matrix(1,0,0,-1,0,2148.8409)" d="M1476.2977 877.2535H1431.415L1378.9779 1022.56668 1351.8706 976.7952V877.2535H1309.2098V1174.99H1351.8706V1055.8954L1421.6387 1174.99H1468.7433L1407.4185 1070.5599 1476.2977 877.2535Z" fill-rule="evenodd"/>
<path transform="matrix(1,0,0,-1,0,2148.8409)" d="M803.6157 528.162H762.20559L742.14089 606.2863H681.0929L661.88198 528.162H620.8987L692.1925 814.191H732.32199L803.6157 528.162ZM732.32199 646.4157 711.4034 728.80917 691.3387 646.4157H732.32199Z" fill-rule="evenodd"/>
<path transform="matrix(1,0,0,-1,0,2148.8409)" d="M982.4264 528.162H941.0162V657.5154H862.89187V528.162H821.9086V814.191H862.89187V697.64486H941.0162V814.191H982.4264V528.162Z" fill-rule="evenodd"/>
<path transform="matrix(1,0,0,-1,0,2148.8409)" d="M1163.3716 528.162H1017.7956V814.191H1152.2719V774.0615H1058.7788V701.9139H1118.1192V662.6383H1058.7788V568.2914H1163.3716V528.162Z" fill-rule="evenodd"/>
<path transform="matrix(1,0,0,-1,0,2148.8409)" d="M1370.3582 528.162H1328.948L1308.8833 606.2863H1247.8353L1228.6244 528.162H1187.6411L1258.9349 814.191H1299.0643L1370.3582 528.162ZM1299.0643 646.4157 1278.1459 728.80917 1258.081 646.4157H1299.0643Z" fill-rule="evenodd"/>
<path transform="matrix(1,0,0,-1,0,2148.8409)" d="M1547.0343 671.17648C1547.0343 625.0703 1539.5634 589.708 1524.6216 565.0896 1509.6797 540.4712 1487.5516 528.162 1458.2372 528.162H1387.3704V814.191H1458.2372C1487.5516 814.191 1509.6797 801.8817 1524.6216 777.2633 1539.5634 752.6449 1547.0343 717.2826 1547.0343 671.17648ZM1507.3317 672.0303C1507.3317 708.17526 1502.7069 734.28787 1493.4572 750.36807 1484.2075 766.4483 1471.8983 774.4884 1456.5296 774.4884H1427.0729V671.6034 568.7183H1456.5296C1471.8983 568.7183 1484.2075 576.7584 1493.4572 592.8387 1502.7069 608.9189 1507.3317 635.3161 1507.3317 672.0303Z" fill-rule="evenodd"/>
</g>
</svg>
