<svg xmlns="http://www.w3.org/2000/svg" xmlns:xlink="http://www.w3.org/1999/xlink" version="1.1" width="1912.0248" height="1722.6965" viewBox="0 0 1912.0248 1722.6965">
<g id="layer_1" data-name="Layer 1">
<path transform="matrix(1,0,0,-1,0,1722.6965)" d="M761.0621 175.51519C760.9591 175.3373 760.8723 175.18701 760.7698 175.00887L761.0621 175.51519Z" fill="#d50002" fill-rule="evenodd"/>
<path transform="matrix(1,0,0,-1,0,1722.6965)" d="M1653.9374 1722.0214 1654.2388 1722.5432C1654.1326 1722.3599 1654.0431 1722.205 1653.9374 1722.0214Z" fill="#d50002" fill-rule="evenodd"/>
<path transform="matrix(1,0,0,-1,0,1722.6965)" d="M1848.9087 1384.6597C1849.1143 1384.6594 1849.2877 1384.6594 1849.4933 1384.6597H1848.9087Z" fill="#d50002" fill-rule="evenodd"/>
<path transform="matrix(1,0,0,-1,0,1722.6965)" d="M63.157377 1384.6593H62.554788C62.76665 1384.659 62.94551 1384.659 63.157377 1384.6593Z" fill="#d50002" fill-rule="evenodd"/>
<path transform="matrix(1,0,0,-1,0,1722.6965)" d="M257.83555 1722.1902C257.733 1722.3683 257.64625 1722.5187 257.5432 1722.6965L257.83555 1722.1902Z" fill="#d50002" fill-rule="evenodd"/>
<path transform="matrix(1,0,0,-1,0,1722.6965)" d="M1150.7116 175.68439 1151.0128 175.16254C1150.9071 175.34615 1150.8176 175.50106 1150.7116 175.68439Z" fill="#d50002" fill-rule="evenodd"/>
<path transform="matrix(1,0,0,-1,0,1722.6965)" d="M961.83987 .300046C971.2991 1.185327 979.16006 3.696062 987.38119 8.457789 989.82247 9.86348 991.8217 11.159078 994.10208 12.813211 998.5147 16.026476 1001.8612 19.277579 1005.2007 23.59551 1007.2436 26.265093 1008.8204 28.633835 1010.4949 31.548647L1903.4605 1578.2105C1911.734 1592.4965 1913.9976 1607.464 1910.3185 1623.5575 1910.3135 1623.5792 1910.3093 1623.5975 1910.3045 1623.6193 1908.3713 1632.13 1905.2994 1639.0199 1900.2605 1646.1459 1894.7643 1653.8952 1888.6594 1659.4475 1880.425 1664.1864 1877.987 1665.5978 1875.8654 1666.6814 1873.2927 1667.8292 1868.3036 1670.0441 1863.8148 1671.3167 1858.4057 1672.0497 1855.0723 1672.4841 1852.2326 1672.6653 1848.871 1672.6581H62.939756C46.43099 1672.6802 32.33692 1667.1567 20.239014 1655.9237 20.222712 1655.9086 20.208943 1655.8958 20.19262 1655.8806 13.788589 1649.9512 9.357769 1643.846 5.705903 1635.9191 1.74296 1627.2846-.013141 1619.2214 .000074 1609.7208-.003226 1606.9037 .119167 1604.5245 .411523 1601.7227 .987958 1596.2946 2.130251 1591.7709 4.199945 1586.7199 5.490435 1583.6159 6.753427 1581.0659 8.440489 1578.1583L901.40609 31.496535C909.64138 17.18849 921.4718 7.744398 937.24887 2.883805 937.2701 2.877255 937.288 2.871714 937.30929 2.865134 945.64639 .283806 953.1491-.500736 961.83987 .300046ZM1010.49496 607.5458C987.29946 567.36996 924.57168 567.36996 901.3761 607.5457L507.2686 1290.1597C484.07304 1330.3356 515.4369 1384.6594 561.82797 1384.6594L1350.0427 1384.6596C1396.4338 1384.6596 1427.7977 1330.3357 1404.6022 1290.1599L1010.49496 607.5458Z" fill="#d50002" fill-rule="evenodd"/>
<path transform="matrix(1,0,0,-1,0,1722.6965)" d="M790.854 1258.6594 745.99008 1160.0663V1078.6665H720.2001V1160.0663L675.8734 1258.6594H703.0067L733.3637 1193.6471 762.9148 1258.6594H790.854Z" fill="#d50002" fill-rule="evenodd"/>
<path transform="matrix(1,0,0,-1,0,1722.6965)" d="M860.38247 1078.6665H835.1297V1258.6594H860.38247V1078.6665Z" fill="#d50002" fill-rule="evenodd"/>
<path transform="matrix(1,0,0,-1,0,1722.6965)" d="M985.11398 1078.6665H893.5056V1258.6594H978.12918V1233.4067H919.29568V1188.0055H956.63748V1163.29H919.29568V1103.9192H985.11398V1078.6665Z" fill="#d50002" fill-rule="evenodd"/>
<path transform="matrix(1,0,0,-1,0,1722.6965)" d="M1105.453 1078.6665H1013.8447V1258.6594H1039.6348V1103.9192H1105.453V1078.6665Z" fill="#d50002" fill-rule="evenodd"/>
<path transform="matrix(1,0,0,-1,0,1722.6965)" d="M1230.3591 1168.663C1230.3591 1139.6492 1225.6578 1117.3963 1216.2553 1101.9044 1206.8527 1086.4125 1192.9277 1078.6665 1174.4807 1078.6665H1129.8855V1258.6594H1174.4807C1192.9277 1258.6594 1206.8527 1250.9135 1216.2553 1235.4215 1225.6578 1219.9296 1230.3591 1197.6768 1230.3591 1168.663ZM1205.3751 1169.2002C1205.3751 1191.9456 1202.4647 1208.3778 1196.644 1218.4968 1190.8234 1228.6159 1183.0774 1233.6753 1173.4061 1233.6753H1154.8696V1168.9317 1104.1879H1173.4061C1183.0774 1104.1879 1190.8234 1109.2473 1196.644 1119.3663 1202.4647 1129.4854 1205.3751 1146.0967 1205.3751 1169.2002Z" fill="#d50002" fill-rule="evenodd"/>
</g>
</svg>
