<svg xmlns="http://www.w3.org/2000/svg" xmlns:xlink="http://www.w3.org/1999/xlink" version="1.1" width="1912.0247" height="1672.6581" viewBox="0 0 1912.0247 1672.6581">
<g id="layer_1" data-name="Layer 1">
<path transform="matrix(1,0,0,-1,0,1672.6581)" d="M761.0621 175.51517C760.95907 175.33722 760.8724 175.18704 760.76986 175.00894L761.0621 175.51517Z" fill="#d50002" fill-rule="evenodd"/>
<path transform="matrix(1,0,0,-1,0,1672.6581)" d="M1150.7114 175.68422 1151.0128 175.16245C1150.907 175.3461 1150.8176 175.50104 1150.7114 175.68422Z" fill="#d50002" fill-rule="evenodd"/>
<path transform="matrix(1,0,0,-1,0,1672.6581)" d="M961.83987 .30009C971.29916 1.185225 979.16 3.696016 987.3811 8.457742 989.8224 9.863544 991.82156 11.159022 994.1022 12.813253 998.51467 16.026469 1001.8611 19.277625 1005.2008 23.595355 1007.24349 26.265046 1008.8204 28.633765 1010.49496 31.54855L1903.4605 1578.2105C1911.7339 1592.4961 1913.9976 1607.4636 1910.3182 1623.5574 1910.3135 1623.5792 1910.3095 1623.5974 1910.3043 1623.6189 1908.3715 1632.13 1905.2992 1639.0197 1900.2605 1646.1454 1894.7643 1653.8952 1888.6594 1659.4473 1880.425 1664.1859 1877.987 1665.5978 1875.8654 1666.6813 1873.2929 1667.829 1868.3036 1670.0437 1863.8147 1671.3165 1858.4055 1672.0496 1855.0723 1672.4839 1852.2324 1672.6652 1848.871 1672.6578H62.93972C46.430913 1672.68 32.336858 1667.1566 20.238957 1655.9235 20.222765 1655.9083 20.208956 1655.8956 20.192605 1655.8804 13.788475 1649.951 9.357722 1643.8456 5.705827 1635.9191 1.74296 1627.2843-.013102 1619.2212 .000074 1609.7206-.00326 1606.9036 .119049 1604.5242 .411448 1601.7223 .987992 1596.2944 2.130207 1591.7706 4.19986 1586.7195 5.490417 1583.6155 6.753353 1581.0658 8.440442 1578.1583L901.40609 31.496483C909.64138 17.188446 921.47177 7.744364 937.2488 2.883743 937.2701 2.877235 937.28787 2.871679 937.3091 2.865012 945.6463 .28374 953.149-.500754 961.83987 .30009Z" fill="#d50002" fill-rule="evenodd"/>
<path transform="matrix(1,0,0,-1,0,1672.6581)" d="M1010.49496 607.5458C987.2994 567.3698 924.57168 567.3698 901.37606 607.5458L507.26844 1290.1594C484.073 1330.3352 515.4369 1384.6593 561.8279 1384.6593L1350.0426 1384.6596C1396.4338 1384.6596 1427.7977 1330.3356 1404.6019 1290.1597L1010.49496 607.5458Z" fill="#ffffff" fill-rule="evenodd"/>
<path transform="matrix(1,0,0,-1,0,1672.6581)" d="M790.85409 1258.6593 745.99 1160.0662V1078.6665H720.2V1160.0662L675.8734 1258.6593H703.0067L733.36367 1193.647 762.91488 1258.6593H790.85409Z" fill="#d50002" fill-rule="evenodd"/>
<path transform="matrix(1,0,0,-1,0,1672.6581)" d="M860.3824 1078.6665H835.1297V1258.6593H860.3824V1078.6665Z" fill="#d50002" fill-rule="evenodd"/>
<path transform="matrix(1,0,0,-1,0,1672.6581)" d="M985.11386 1078.6665H893.50576V1258.6593H978.1293V1233.4066H919.2958V1188.0054H956.63748V1163.29H919.2958V1103.9192H985.11386V1078.6665Z" fill="#d50002" fill-rule="evenodd"/>
<path transform="matrix(1,0,0,-1,0,1672.6581)" d="M1105.4529 1078.6665H1013.84487V1258.6593H1039.6349V1103.9192H1105.4529V1078.6665Z" fill="#d50002" fill-rule="evenodd"/>
<path transform="matrix(1,0,0,-1,0,1672.6581)" d="M1230.3591 1168.6627C1230.3591 1139.6492 1225.6577 1117.3963 1216.2551 1101.9043 1206.8526 1086.4124 1192.9277 1078.6665 1174.4807 1078.6665H1129.8856V1258.6593H1174.4807C1192.9277 1258.6593 1206.8526 1250.9133 1216.2551 1235.4215 1225.6577 1219.9296 1230.3591 1197.6768 1230.3591 1168.6627ZM1205.375 1169.2001C1205.375 1191.9454 1202.4647 1208.3776 1196.644 1218.4968 1190.8234 1228.6157 1183.0775 1233.6752 1173.4061 1233.6752H1154.8694V1168.9317 1104.1878H1173.4061C1183.0775 1104.1878 1190.8234 1109.2473 1196.644 1119.3665 1202.4647 1129.4854 1205.375 1146.0966 1205.375 1169.2001Z" fill="#d50002" fill-rule="evenodd"/>
</g>
</svg>
