<?xml version="1.0" encoding="UTF-8" standalone="no"?>
<svg
   xmlns:dc="http://purl.org/dc/elements/1.1/"
   xmlns:cc="http://creativecommons.org/ns#"
   xmlns:rdf="http://www.w3.org/1999/02/22-rdf-syntax-ns#"
   xmlns:svg="http://www.w3.org/2000/svg"
   xmlns="http://www.w3.org/2000/svg"
   viewBox="0 0 5458.8491 1064.2518"
   height="1064.2518"
   width="5458.8491"
   xml:space="preserve"
   id="svg2"
   version="1.1"><metadata
     id="metadata8"><rdf:RDF><cc:Work
         rdf:about=""><dc:format>image/svg+xml</dc:format><dc:type
           rdf:resource="http://purl.org/dc/dcmitype/StillImage" /></cc:Work></rdf:RDF></metadata><defs
     id="defs6" /><g
     transform="matrix(1.3333333,0,0,-1.3333333,0,1064.2518)"
     id="g10"><path
       id="path12"
       style="fill:#ffffff;fill-opacity:1;fill-rule:nonzero;stroke:none"
       d="M 782.05629,166.86734 658.51347,290.42603 c -24.60512,24.50641 -65.36095,23.7561 -90.82689,-1.70984 l -62.23741,-62.23741 c -3.92908,2.17582 -8.00029,4.43849 -12.28083,6.83938 -39.30266,21.77774 -93.10139,51.62692 -149.71568,108.28065 -56.77222,56.76831 -86.6609,110.65393 -108.49788,149.98423 -2.31796,4.16995 -4.5214,8.18194 -6.69719,11.99654 l 41.77459,41.71932 20.53388,20.56151 c 25.50938,25.50941 26.21624,66.25339 1.65456,90.82686 L 168.67378,780.26178 c -24.54589,24.54583 -65.31748,23.79954 -90.826883,-1.7099 l -34.82072,-35.01814 0.959565,-0.94771 C 32.313019,727.69102 22.547578,710.5058 15.297538,691.97793 8.600335,674.34248 4.430377,657.50864 2.523095,640.65113 -13.785546,505.40393 48.013536,381.80575 215.73585,214.06764 447.57521,-17.755931 634.41775,-0.246849 642.47336,0.613995 c 17.56832,2.092876 34.38236,6.290475 51.48475,12.932396 18.36992,7.178963 35.54333,16.916759 50.42251,28.561837 l 0.76212,-0.663402 c 0,0 35.27483,34.540359 35.27483,34.540359 25.45409,25.505445 26.18857,66.249415 1.63872,90.882155 z m -29.08302,-63.41413 -15.54649,-15.518893 -6.19182,-5.95087 C 721.48532,72.557605 704.60805,59.3172 679.96348,49.678123 665.97279,44.291931 652.17954,40.832762 638.14542,39.162409 636.38028,38.992608 460.64583,23.998925 243.14858,241.48036 58.217301,426.40377 28.58138,532.96279 41.004379,636.16922 c 1.555834,13.67868 4.987361,27.44434 10.472278,41.82991 9.722004,24.78669 22.950564,41.64821 32.305318,51.41368 l 21.493455,21.70666 c 10.35776,10.38538 26.51239,11.17915 35.98167,1.70982 L 264.8,629.28639 c 9.45347,-9.48114 8.70716,-25.63574 -1.66641,-36.05274 l -83.43469,-83.35179 7.7002,-12.95999 c 4.28052,-7.22243 8.80588,-15.31753 13.63924,-24.11151 22.95056,-41.39161 54.3516,-98.04928 114.99368,-158.6361 60.48412,-60.51572 117.05888,-91.88913 158.32411,-114.78045 8.91647,-4.93209 17.05892,-9.4693 24.36427,-13.82087 l 12.98767,-7.70022 83.37939,83.40704 c 10.40124,10.35777 26.61112,11.12384 36.08041,1.68219 0,0 123.48759,-123.51523 123.48759,-123.51523 9.44161,-9.46532 8.69138,-25.61996 -1.68219,-35.99351 z" /><path
       id="path14"
       style="fill:#ff7f00;fill-opacity:1;fill-rule:nonzero;stroke:none"
       d="m 1073.9982,183.23444 c -22.3148,28.15658 -41.1851,61.10575 -56.6108,98.84754 -15.4257,37.74178 -23.1385,76.83149 -23.1385,117.26912 0,35.64502 5.7659,69.79235 17.2977,102.44199 13.4788,37.89155 34.296,75.63334 62.4516,113.22536 h 28.9793 c -18.1214,-31.15196 -30.1026,-53.39265 -35.9433,-66.72209 -9.1356,-20.66812 -16.3243,-42.23486 -21.566,-64.70021 -6.4399,-28.0068 -9.6598,-56.16337 -9.6598,-84.46971 0,-72.03888 22.3897,-144.00288 67.1691,-215.892 z" /><path
       id="path16"
       style="fill:#ff7f00;fill-opacity:1;fill-rule:nonzero;stroke:none"
       d="m 1141.3919,566.26864 v 38.86505 h 213.1889 V 573.6822 c -20.9669,-22.31558 -41.7467,-51.96984 -62.3392,-88.96278 -20.5925,-36.99294 -36.5049,-75.03426 -47.7372,-114.12397 -8.0873,-27.55749 -13.2541,-57.73594 -15.5006,-90.53535 h -41.5595 c 0.4493,25.91003 5.5413,57.21175 15.2759,93.90515 9.7347,36.69341 23.7002,72.07633 41.8965,106.14878 18.1963,34.07244 37.5533,62.79065 58.0709,86.15461 z" /><path
       id="path18"
       style="fill:#ff7f00;fill-opacity:1;fill-rule:nonzero;stroke:none"
       d="m 1394.5678,442.48457 c 0,38.93993 4.0062,70.27909 12.0185,94.01748 8.0124,23.73838 19.9186,42.04764 35.7187,54.92778 15.8001,12.88013 35.6813,19.3202 59.6435,19.3202 17.6721,0 33.1727,-3.55702 46.5017,-10.67104 13.329,-7.11403 24.3366,-17.37321 33.0229,-30.77753 8.6863,-13.40433 15.5006,-29.72915 20.4428,-48.97446 4.9422,-19.24532 7.4133,-45.19279 7.4133,-77.84243 0,-38.6404 -3.9687,-69.8298 -11.9062,-93.56818 -7.9375,-23.73839 -19.8063,-42.08509 -35.6064,-55.0401 -15.8001,-12.95502 -35.7561,-19.43253 -59.8681,-19.43253 -31.7499,0 -56.6856,11.38244 -74.8071,34.14733 -21.7157,27.40772 -32.5736,72.03888 -32.5736,133.89348 z m 41.5595,0 c 0,-54.06661 6.3275,-90.04861 18.9825,-107.946 12.6551,-17.8974 28.268,-26.84609 46.8387,-26.84609 18.5707,0 34.1836,8.98613 46.8387,26.95841 12.655,17.97228 18.9825,53.91684 18.9825,107.83368 0,54.21637 -6.3275,90.23581 -18.9825,108.05832 -12.6551,17.82251 -28.4177,26.73377 -47.288,26.73377 -18.5707,0 -33.3973,-7.86287 -44.4799,-23.58862 -13.928,-20.06904 -20.892,-57.13687 -20.892,-111.20347 z" /><path
       id="path20"
       style="fill:#ff7f00;fill-opacity:1;fill-rule:nonzero;stroke:none"
       d="m 1860.2586,528.75151 -40.2116,-3.14515 c -3.5943,15.87551 -8.6863,27.40772 -15.2759,34.59663 -10.9328,11.53221 -24.4115,17.29832 -40.4362,17.29832 -12.8797,0 -24.1869,-3.59445 -33.9216,-10.78337 -12.7299,-9.28568 -22.7641,-22.83977 -30.1025,-40.66228 -7.3384,-17.82251 -11.1574,-43.20835 -11.457,-76.15753 9.7347,14.82713 21.6409,25.83515 35.7187,33.02406 14.0778,7.18892 28.8296,10.78337 44.2553,10.78337 26.9575,0 49.9088,-9.9222 68.8539,-29.76659 18.9452,-19.84439 28.4177,-45.49233 28.4177,-76.94381 0,-20.66812 -4.4555,-39.876 -13.3664,-57.62362 -8.911,-17.74763 -21.1542,-31.33916 -36.7296,-40.77461 -15.5755,-9.43545 -33.2476,-14.15317 -53.0164,-14.15317 -33.6969,0 -61.1786,12.39338 -82.445,37.18015 -21.2665,24.78677 -31.8998,65.63626 -31.8998,122.54848 0,63.65182 11.7565,109.93044 35.2694,138.83585 20.5177,25.16119 48.1491,37.74179 82.8944,37.74179 25.9091,0 47.1381,-7.2638 63.6871,-21.79139 16.5489,-14.52759 26.4707,-34.59664 29.7655,-60.20713 z M 1695.1439,386.7705 c 0,-13.92851 2.9579,-27.25796 8.8735,-39.98832 5.9157,-12.73036 14.1902,-22.42791 24.8234,-29.09262 10.6332,-6.66473 21.7907,-9.99708 33.4722,-9.99708 17.0731,0 31.75,6.88937 44.0306,20.66812 12.2807,13.77874 18.421,32.49987 18.421,56.16337 0,22.76488 -6.0655,40.69972 -18.1963,53.80451 -12.1309,13.10478 -27.4068,19.65718 -45.8278,19.65718 -18.2712,0 -33.7717,-6.5524 -46.5017,-19.65718 -12.7299,-13.10479 -19.0949,-30.29078 -19.0949,-51.55798 z" /><path
       id="path22"
       style="fill:#ff7f00;fill-opacity:1;fill-rule:nonzero;stroke:none"
       d="m 1944.0515,183.23444 h -28.9793 c 44.7794,71.88912 67.1691,143.85312 67.1691,215.892 0,28.15657 -3.2199,56.08849 -9.6598,83.79575 -5.0919,22.46535 -12.2057,44.03209 -21.3413,64.70021 -5.8408,13.47921 -17.8968,35.94456 -36.168,67.39605 h 28.9793 c 28.1556,-37.59202 48.9728,-75.33381 62.4516,-113.22536 11.5318,-32.64964 17.2977,-66.79697 17.2977,-102.44199 0,-40.43763 -7.7503,-79.52734 -23.2508,-117.26912 -15.5006,-37.74179 -34.3334,-70.69096 -56.4985,-98.84754 z" /><path
       id="path24"
       style="fill:#ff7f00;fill-opacity:1;fill-rule:nonzero;stroke:none"
       d="M 2399.8579,318.92515 V 280.0601 h -217.6818 c -0.2995,9.73498 1.273,19.09554 4.7176,28.08168 5.5412,14.82713 14.4148,29.42961 26.6205,43.80743 12.2058,14.37783 29.8405,31.00218 52.9041,49.87308 35.7936,29.35472 59.9805,52.60635 72.5606,69.7549 12.5802,17.14855 18.8703,33.36105 18.8703,48.63748 0,16.02528 -5.7285,29.54194 -17.1854,40.54996 -11.457,11.00802 -26.3959,16.51203 -44.8169,16.51203 -19.4693,0 -35.0447,-5.84099 -46.7263,-17.52297 -11.6816,-11.68198 -17.5973,-27.85704 -17.747,-48.52516 l -41.5595,4.26842 c 2.8455,31.00218 13.5536,54.62824 32.1243,70.87817 18.5708,16.24994 43.5064,24.37491 74.8071,24.37491 31.6002,0 56.6108,-8.76149 75.0317,-26.28446 18.421,-17.52297 27.6315,-39.23948 27.6315,-65.14951 0,-13.17967 -2.6958,-26.13469 -8.0873,-38.86505 -5.3915,-12.73037 -14.3399,-26.1347 -26.8452,-40.21298 -12.5053,-14.07828 -33.285,-33.39848 -62.3392,-57.9606 -24.2617,-20.36858 -39.8372,-34.18477 -46.7263,-41.44857 -6.8892,-7.26379 -12.5802,-14.56503 -17.0731,-21.90371 z" /><path
       id="path26"
       style="fill:#ff7f00;fill-opacity:1;fill-rule:nonzero;stroke:none"
       d="m 2653.0338,528.75151 -40.2116,-3.14515 c -3.5943,15.87551 -8.6863,27.40772 -15.2759,34.59663 -10.9328,11.53221 -24.4115,17.29832 -40.4363,17.29832 -12.8797,0 -24.1868,-3.59445 -33.9215,-10.78337 -12.7299,-9.28568 -22.7641,-22.83977 -30.1025,-40.66228 -7.3385,-17.82251 -11.1574,-43.20835 -11.457,-76.15753 9.7347,14.82713 21.6409,25.83515 35.7187,33.02406 14.0778,7.18892 28.8296,10.78337 44.2553,10.78337 26.9575,0 49.9088,-9.9222 68.8539,-29.76659 18.9451,-19.84439 28.4177,-45.49233 28.4177,-76.94381 0,-20.66812 -4.4555,-39.876 -13.3664,-57.62362 -8.911,-17.74763 -21.1542,-31.33916 -36.7296,-40.77461 -15.5755,-9.43545 -33.2476,-14.15317 -53.0164,-14.15317 -33.6969,0 -61.1786,12.39338 -82.4451,37.18015 -21.2664,24.78677 -31.8997,65.63626 -31.8997,122.54848 0,63.65182 11.7565,109.93044 35.2694,138.83585 20.5177,25.16119 48.1491,37.74179 82.8943,37.74179 25.9092,0 47.1382,-7.2638 63.6871,-21.79139 16.5489,-14.52759 26.4708,-34.59664 29.7656,-60.20713 z M 2487.9191,386.7705 c 0,-13.92851 2.9579,-27.25796 8.8735,-39.98832 5.9157,-12.73036 14.1902,-22.42791 24.8234,-29.09262 10.6332,-6.66473 21.7906,-9.99708 33.4722,-9.99708 17.0731,0 31.75,6.88937 44.0306,20.66812 12.2806,13.77874 18.421,32.49987 18.421,56.16337 0,22.76488 -6.0655,40.69972 -18.1963,53.80451 -12.1309,13.10478 -27.4068,19.65718 -45.8278,19.65718 -18.2712,0 -33.7718,-6.5524 -46.5017,-19.65718 -12.7299,-13.10479 -19.0949,-30.29078 -19.0949,-51.55798 z" /><path
       id="path28"
       style="fill:#ff7f00;fill-opacity:1;fill-rule:nonzero;stroke:none"
       d="m 2699.3109,367.001 40.4362,5.39168 c 4.6427,-22.91466 12.5427,-39.42669 23.7001,-49.53609 11.1575,-10.10941 24.7485,-15.16411 40.7733,-15.16411 19.02,0 35.0822,6.58983 48.1865,19.7695 13.1043,13.17967 19.6565,29.50449 19.6565,48.97446 0,18.57135 -6.0654,33.88524 -18.1963,45.94164 -12.1309,12.0564 -27.5566,18.08461 -46.277,18.08461 -7.638,0 -17.148,-1.4977 -28.5301,-4.49307 l 4.4929,35.49525 c 2.6958,-0.29954 4.8674,-0.44931 6.5148,-0.44931 17.2228,0 32.7234,4.49307 46.5017,13.47921 13.7782,8.98614 20.6674,22.83977 20.6674,41.56089 0,14.82713 -5.0171,27.10819 -15.0513,36.84318 -10.0342,9.73498 -22.9887,14.60247 -38.8637,14.60247 -15.7252,0 -28.8296,-4.94237 -39.313,-14.82713 -10.4835,-9.88475 -17.2229,-24.71188 -20.2182,-44.48139 l -40.4362,7.18891 c 4.9422,27.10819 16.1745,48.11329 33.6969,63.01531 17.5223,14.90201 39.313,22.35302 65.3719,22.35302 17.9717,0 34.5206,-3.85655 49.6467,-11.56966 15.1262,-7.7131 26.6954,-18.23437 34.7078,-31.56381 8.0124,-13.32944 12.0186,-27.48261 12.0186,-42.45951 0,-14.22806 -3.819,-27.18307 -11.457,-38.86505 -7.6379,-11.68198 -18.9451,-20.96766 -33.9215,-27.85704 19.4693,-4.49307 34.5955,-13.81618 45.3785,-27.96935 10.783,-14.15317 16.1745,-31.86336 16.1745,-53.13055 0,-28.75565 -10.4835,-53.13055 -31.4505,-73.12471 -20.9669,-19.99416 -47.4751,-29.99124 -79.5246,-29.99124 -28.9044,0 -52.9041,8.61171 -71.999,25.83515 -19.0949,17.22343 -29.9902,39.53901 -32.6859,66.94674 z" /><path
       id="path30"
       style="fill:#ff7f00;fill-opacity:1;fill-rule:nonzero;stroke:none"
       d="m 2950.4649,378.90763 v 40.66228 h 124.2292 v -40.66228 z" /><path
       id="path32"
       style="fill:#ff7f00;fill-opacity:1;fill-rule:nonzero;stroke:none"
       d="m 3108.1663,442.48457 c 0,38.93993 4.0062,70.27909 12.0185,94.01748 8.0124,23.73838 19.9186,42.04764 35.7187,54.92778 15.8001,12.88013 35.6813,19.3202 59.6435,19.3202 17.6721,0 33.1727,-3.55702 46.5017,-10.67104 13.329,-7.11403 24.3366,-17.37321 33.0229,-30.77753 8.6863,-13.40433 15.5006,-29.72915 20.4428,-48.97446 4.9422,-19.24532 7.4133,-45.19279 7.4133,-77.84243 0,-38.6404 -3.9687,-69.8298 -11.9062,-93.56818 -7.9375,-23.73839 -19.8063,-42.08509 -35.6064,-55.0401 -15.8001,-12.95502 -35.7561,-19.43253 -59.8681,-19.43253 -31.7499,0 -56.6856,11.38244 -74.8071,34.14733 -21.7157,27.40772 -32.5736,72.03888 -32.5736,133.89348 z m 41.5595,0 c 0,-54.06661 6.3275,-90.04861 18.9825,-107.946 12.6551,-17.8974 28.268,-26.84609 46.8387,-26.84609 18.5707,0 34.1836,8.98613 46.8387,26.95841 12.655,17.97228 18.9825,53.91684 18.9825,107.83368 0,54.21637 -6.3275,90.23581 -18.9825,108.05832 -12.6551,17.82251 -28.4177,26.73377 -47.288,26.73377 -18.5707,0 -33.3973,-7.86287 -44.4799,-23.58862 -13.928,-20.06904 -20.892,-57.13687 -20.892,-111.20347 z" /><path
       id="path34"
       style="fill:#ff7f00;fill-opacity:1;fill-rule:nonzero;stroke:none"
       d="m 3516.3478,280.0601 h -40.4363 v 257.67754 c -9.7346,-9.28567 -22.502,-18.57135 -38.3021,-27.85703 -15.8001,-9.28568 -29.9902,-16.24994 -42.5704,-20.89277 v 39.08971 c 22.6144,10.63359 42.3832,23.51372 59.3065,38.64039 16.9234,15.12667 28.9045,29.80403 35.9434,44.03209 h 26.0589 z" /><path
       id="path36"
       style="fill:#ff7f00;fill-opacity:1;fill-rule:nonzero;stroke:none"
       d="m 3622.6053,566.26864 v 38.86505 h 213.1889 V 573.6822 c -20.967,-22.31558 -41.7467,-51.96984 -62.3392,-88.96278 -20.5926,-36.99294 -36.505,-75.03426 -47.7373,-114.12397 -8.0872,-27.55749 -13.2541,-57.73594 -15.5005,-90.53535 h -41.5595 c 0.4493,25.91003 5.5412,57.21175 15.2759,93.90515 9.7346,36.69341 23.7001,72.07633 41.8964,106.14878 18.1964,34.07244 37.5533,62.79065 58.071,86.15461 z" /><path
       id="path38"
       style="fill:#ff7f00;fill-opacity:1;fill-rule:nonzero;stroke:none"
       d="m 3875.7811,366.32704 42.4581,3.59445 c 3.145,-20.66812 10.446,-36.20665 21.903,-46.6156 11.4569,-10.40894 25.2726,-15.61341 41.4471,-15.61341 19.4693,0 35.9434,7.33867 49.4221,22.01604 13.4788,14.67736 20.2181,34.14733 20.2181,58.4099 0,23.06443 -6.4772,41.26136 -19.4318,54.5908 -12.9546,13.32944 -29.9154,19.99416 -50.8823,19.99416 -13.0295,0 -24.7859,-2.95794 -35.2694,-8.87381 -10.4835,-5.91588 -18.7205,-13.59154 -24.711,-23.02698 l -37.9652,4.94237 31.8997,169.16408 h 163.7668 v -38.6404 h -131.4178 l -17.747,-88.51348 c 19.7688,13.77875 40.5111,20.66812 62.2269,20.66812 28.7547,0 53.0164,-9.95964 72.7852,-29.87891 19.7689,-19.91928 29.6533,-45.52977 29.6533,-76.83149 0,-29.80403 -8.6863,-55.5643 -26.0589,-77.2808 -21.1167,-26.65888 -49.9463,-39.98832 -86.4887,-39.98832 -29.9527,0 -54.4017,8.38706 -73.3468,25.16119 -18.9452,16.77412 -29.7656,39.01482 -32.4614,66.72209 z" /></g></svg>