<svg xmlns="http://www.w3.org/2000/svg" xmlns:xlink="http://www.w3.org/1999/xlink" version="1.1" width="581.0873" height="420.16307" viewBox="0 0 581.0873 420.16307">
<g id="layer_1" data-name="Layer 1">
<path transform="matrix(1,0,0,-1,0,420.16307)" d="M581.0873 0V373.26069H0V0H581.0873Z" fill-rule="evenodd"/>
<path transform="matrix(1,0,0,-1,0,420.16307)" d="M7.980376 8.130337V365.13035H573.1069V8.130337H7.980376Z" fill="#ffffff" fill-rule="evenodd"/>
<path transform="matrix(1,0,0,-1,0,420.16307)" d="M322.54365 122.157367C322.54365 122.157367 326.8195 115.46263 329.04365 114.38034 330.86036 113.49631 332.69749 114.01495 332.69749 114.01495L322.51319 125.62506C322.51319 125.62506 372.96708 126.496997 423.54365 126.63034 481.2151 126.78238 539.04598 125.974079 539.04598 125.974079L538.54367 266.63035H322.54365V287.15739C322.54365 287.15739 326.82698 280.45368 329.04365 279.38035 330.55519 278.64845 332.01875 279.00846 332.01875 279.00846L322.7579 291.13035H537.54367V347.13035H70.543628V291.13035H278.54365V270.2028L270.56578 279.45249 268.76585 277.65257 278.26777 266.63035H69.543628V126.63034H278.54365V105.202808L270.56578 114.452487 268.76585 112.65256 278.26777 101.63034H69.543628V23.130337H538.54367V101.63034H322.54365V122.157367Z" fill="#12685f" fill-rule="evenodd"/>
<path transform="matrix(1,0,0,-1,0,420.16307)" d="M310.01509 280.13059C309.99604 279.96385 310.00297 279.78877 310.04365 279.63035 310.2078 278.991 311.05705 278.70686 311.74363 279.13035 313.6803 280.32487 317.49473 286.49064 319.04365 286.63035 319.2925 286.65278 319.54365 286.63035 319.54365 286.63035V266.63035H280.9593C280.9593 266.63035 287.31703 272.93797 289.54365 276.13035 290.82038 277.96086 291.25956 278.71003 289.42875 279.02854 288.90214 279.12016 288.7182 279.00123 287.58943 277.83924L281.54365 271.61564V291.13035H318.98115L311.19438 281.76448C310.1587 280.51875 310.04078 280.35539 310.01509 280.13059Z" fill="#ffffff" fill-rule="evenodd"/>
<path transform="matrix(1,0,0,-1,0,420.16307)" d="M70.543628 265.63035 537.54367 265.13035V127.63034H70.543628V265.63035Z" fill="#ffffff" fill-rule="evenodd"/>
<path transform="matrix(1,0,0,-1,0,420.16307)" stroke-width=".25" stroke-linecap="butt" stroke-miterlimit="4" stroke-linejoin="miter" fill="none" stroke="#000000" d="M452.04365 201.13034V249.63034H154.54363L155.04363 200.63034 452.04365 201.13034Z"/>
<path transform="matrix(1,0,0,-1,0,420.16307)" d="M156.04363 248.13034H450.54365L451.04365 202.13034H156.04363V248.13034Z" fill="#ddf5f5" fill-rule="evenodd"/>
<path transform="matrix(1,0,0,-1,0,420.16307)" d="M310.01509 115.130588C309.99604 114.96384 310.00297 114.78874 310.04365 114.63034 310.2078 113.991008 311.05705 113.70686 311.74363 114.13034 313.6803 115.32485 317.49473 121.49063 319.04365 121.63034 319.2925 121.65279 319.54365 121.63034 319.54365 121.63034V101.13034L281.0209 101.69852C281.0209 101.69852 287.32948 107.957599 289.54365 111.13034 290.82118 112.960979 291.25883 113.71014 289.42875 114.028537 288.90214 114.120159 288.7182 114.00123 287.58943 112.83923L281.54365 106.61563V126.63034L319.1683 126.09464 311.2107 116.750728C310.16035 115.51737 310.04078 115.35536 310.01509 115.130588Z" fill="#ffffff" fill-rule="evenodd"/>
<path transform="matrix(1,0,0,-1,0,420.16307)" d="M537.54367 100.13034V24.130337H70.543628V100.13034H537.54367Z" fill="#ffffff" fill-rule="evenodd"/>
<path transform="matrix(1,0,0,-1,0,420.16307)" d="M173.13404 30.632884H174.95162C174.95162 30.632884 175.31502 36.858514 175.76235 38.017477 175.91754 38.41958 178.60967 40.79629 180.31879 42.25969 180.89882 42.75633 184.04279 47.224054 184.79669 48.623014 189.84258 57.98624 190.17761 66.03287 185.97509 76.1974 185.29708 77.837268 184.62456 79.2241 183.46117 81.06809 181.15805 84.71861 174.02268 93.83501 174.02268 93.83501 174.02268 93.83501 169.21657 87.88092 166.64945 84.21047 164.78369 81.54287 163.15413 78.54145 161.93587 75.72604 161.34291 74.355739 159.51119 68.02796 159.3434 66.77026 158.34342 59.274595 160.94556 51.43239 165.70673 44.773599 166.38623 43.82327 167.12616 42.84129 167.90639 42.102575 169.60529 40.494085 172.21974 38.179098 172.38428 37.75666 172.82265 36.631235 173.13404 30.632884 173.13404 30.632884Z" fill="#12685f" fill-rule="evenodd"/>
<path transform="matrix(1,0,0,-1,0,420.16307)" d="M174.02167 38.516008 172.5414 40.006605 173.89263 70.226879H174.26972L175.53966 39.79882 174.02167 38.516008Z" fill="#ffffff" fill-rule="evenodd"/>
<path transform="matrix(1,0,0,-1,0,420.16307)" d="M103.10397 381.16355H98.23768V399.08845H91.36763V381.16355H86.558589V419.5331H91.36763V404.0135H98.23768V419.5331H103.10397V381.16355Z"/>
<path transform="matrix(1,0,0,-1,0,420.16307)" d="M117.760089 420.16307C121.11878 420.16307 123.48513 418.59773 124.859149 415.46708 126.233158 412.33644 126.92016 407.27775 126.92016 400.29106 126.92016 393.5716 126.233158 388.57975 124.859149 385.31547 123.48513 382.0512 121.11878 380.41908 117.760089 380.41908 114.4014 380.41908 112.03504 382.0512 110.66103 385.31547 109.28702 388.57975 108.60001 393.5716 108.60001 400.29106 108.60001 407.27775 109.28702 412.33644 110.66103 415.46708 112.03504 418.59773 114.4014 420.16307 117.760089 420.16307ZM117.645587 414.77989C116.50058 414.77989 115.56549 414.1022 114.84032 412.74687 114.11514 411.3915 113.67622 407.29685 113.52355 400.46287 113.67622 393.62889 114.11514 389.5342 114.84032 388.17887 115.56549 386.82353 116.50058 386.14585 117.645587 386.14585 118.82876 386.14585 119.782939 386.82353 120.50811 388.17887 121.233287 389.5342 121.6722 393.62889 121.82487 400.46287 121.6722 407.29685 121.233287 411.3915 120.50811 412.74687 119.782939 414.1022 118.82876 414.77989 117.645587 414.77989Z"/>
<path transform="matrix(1,0,0,-1,0,420.16307)" d="M154.80113 419.5331 150.39286 381.16355H146.21356L142.60678 402.69633 139.1145 381.16355H134.93523L130.4697 419.5331H135.45049L137.45424 401.78004 140.54578 419.5331H144.72505L147.81658 401.78004 149.8776 419.5331H154.80113Z"/>
<path transform="matrix(1,0,0,-1,0,420.16307)" d="M187.3194 381.16355H182.51036V403.89894L177.93032 389.52467 173.17853 403.89894V381.16355H168.36949V419.5331H172.54877L177.93032 403.89894 183.08286 419.5331H187.3194V381.16355Z"/>
<path transform="matrix(1,0,0,-1,0,420.16307)" d="M206.38379 381.16355H191.72768V419.5331H205.86855V414.55079H196.53672V404.70069H202.77701V399.60386H196.53672V386.14585H206.38379V381.16355Z"/>
<path transform="matrix(1,0,0,-1,0,420.16307)" d="M227.90996 408.76673C227.8718 404.10893 226.38329 400.99739 223.44443 399.43205L227.79547 381.16355H222.87192L218.8644 399.08845H216.17362V381.16355H211.36458V419.5331H218.8644C221.42159 419.5331 223.57802 418.59773 225.3337 416.727 227.08937 414.85624 227.94814 412.2028 227.90996 408.76673ZM222.92917 408.88127C222.92917 410.82838 222.53797 412.26008 221.75554 413.17637 220.97312 414.09266 219.93308 414.55079 218.63539 414.55079H216.17362V404.0135H219.03615C220.25749 404.12803 221.21166 404.62434 221.89867 405.50245 222.58568 406.38056 222.92917 407.50685 222.92917 408.88127Z"/>
<path transform="matrix(1,0,0,-1,0,420.16307)" d="M250.81015 381.16355H246.3446L239.0738 403.89894V381.16355H234.26477V419.5331H239.0738L245.94387 398.63029V419.5331H250.81015V381.16355Z"/>
<path transform="matrix(1,0,0,-1,0,420.16307)" d="M282.7559 389.63923C282.7559 387.11943 282.09754 384.9623 280.78077 383.1679 279.464 381.37355 277.3553 380.47633 274.4546 380.47633 271.70658 380.47633 269.6169 381.4308 268.18568 383.33973 266.7544 385.24867 265.9815 387.71119 265.867 390.7273H270.9623C271.03865 387.3294 272.20274 385.57319 274.4546 385.45866 276.47746 385.61137 277.50794 387.00489 277.5461 389.63923 277.62245 391.31907 276.73509 393.53343 274.88398 396.2823 273.03288 399.03117 271.38215 401.3028 269.9318 403.0972 268.86314 404.43345 268.07118 405.8174 267.5559 407.2491 267.04066 408.68083 266.78303 409.98844 266.78303 411.17198 266.78303 413.5009 267.46049 415.5816 268.81544 417.41419 270.17036 419.24678 272.06916 420.16307 274.51185 420.16307 276.61103 420.16307 278.46214 419.34223 280.06513 417.70054 281.66816 416.05885 282.48875 413.88267 282.5269 411.17198H277.5461C277.4316 413.88267 276.47746 415.21894 274.6836 415.18074 272.92793 415.14256 272.05009 413.8254 272.05009 411.22926 272.0119 410.35115 272.22184 409.43486 272.6798 408.48039 273.13783 407.5259 273.78666 406.57145 274.62635 405.61698 277.37437 402.40998 279.4163 399.51795 280.75215 396.9409 282.08799 394.36384 282.7559 391.92994 282.7559 389.63923Z"/>
<path transform="matrix(1,0,0,-1,0,420.16307)" d="M301.07606 414.55079H296.038V381.16355H291.17173V414.55079H286.41993V419.5331H301.07606V414.55079Z"/>
<path transform="matrix(1,0,0,-1,0,420.16307)" d="M316.76268 397.14134 314.6444 409.56849 312.5834 397.14134H316.76268ZM325.00675 381.16355H319.91145L317.73594 391.41453H311.4384L309.26286 381.16355H304.28208L312.2399 419.5331H317.04893L325.00675 381.16355Z"/>
<path transform="matrix(1,0,0,-1,0,420.16307)" d="M337.6591 415.35255C336.62858 415.39073 335.77937 414.77989 335.11146 413.51997 334.4435 412.26008 333.99507 407.83134 333.76606 400.2338 333.99507 393.13258 334.47215 388.952 335.19734 387.6921 335.9225 386.4322 336.8385 385.84043 337.94535 385.91679 339.6247 385.91679 340.57887 387.1576 340.80787 389.63923H345.55967C345.55967 386.69947 344.78678 384.43736 343.241 382.85295 341.69526 381.26853 339.89186 380.47633 337.83085 380.47633 334.62483 380.47633 332.37297 381.95576 331.0753 384.91459 329.77763 387.87345 329.0906 392.99894 329.01429 400.29106 329.0906 408.11769 329.85395 413.38636 331.3043 416.09703 332.75465 418.8077 334.93016 420.16307 337.83085 420.16307 339.7392 420.16307 341.50444 419.40904 343.1265 417.90098 344.7486 416.3929 345.55967 414.26448 345.55967 411.5156H340.80787C340.73155 414.03538 339.68196 415.31437 337.6591 415.35255Z"/>
<path transform="matrix(1,0,0,-1,0,420.16307)" d="M368.17359 381.16355H362.9638L357.8685 400.1765 355.922 395.5951V381.16355H351.11296V419.5331H355.922V406.8769L361.99055 419.5331H367.31483L361.36079 406.53327 368.17359 381.16355Z"/>
<path transform="matrix(1,0,0,-1,0,420.16307)" d="M406.4169 419.5331 402.0086 381.16355H397.8293L394.22254 402.69633 390.73027 381.16355H386.55097L382.08546 419.5331H387.06623L389.07 401.78004 392.16154 419.5331H396.34083L399.43235 401.78004 401.49336 419.5331H406.4169Z"/>
<path transform="matrix(1,0,0,-1,0,420.16307)" d="M419.18376 420.16307C422.54243 420.16307 424.90879 418.59773 426.2828 415.46708 427.6568 412.33644 428.3438 407.27775 428.3438 400.29106 428.3438 393.5716 427.6568 388.57975 426.2828 385.31547 424.90879 382.0512 422.54243 380.41908 419.18376 380.41908 415.82505 380.41908 413.45869 382.0512 412.0847 385.31547 410.71067 388.57975 410.02366 393.5716 410.02366 400.29106 410.02366 407.27775 410.71067 412.33644 412.0847 415.46708 413.45869 418.59773 415.82505 420.16307 419.18376 420.16307ZM419.06925 414.77989C417.92424 414.77989 416.98915 414.1022 416.26399 412.74687 415.5388 411.3915 415.09989 407.29685 414.9472 400.46287 415.09989 393.62889 415.5388 389.5342 416.26399 388.17887 416.98915 386.82353 417.92424 386.14585 419.06925 386.14585 420.2524 386.14585 421.20658 386.82353 421.93177 388.17887 422.65693 389.5342 423.09587 393.62889 423.24855 400.46287 423.09587 407.29685 422.65693 411.3915 421.93177 412.74687 421.20658 414.1022 420.2524 414.77989 419.06925 414.77989Z"/>
<path transform="matrix(1,0,0,-1,0,420.16307)" d="M450.32798 408.76673C450.28984 404.10893 448.8013 400.99739 445.86247 399.43205L450.2135 381.16355H445.28996L441.2824 399.08845H438.59165V381.16355H433.7826V419.5331H441.2824C443.8396 419.5331 445.99604 418.59773 447.7517 416.727 449.5074 414.85624 450.36616 412.2028 450.32798 408.76673ZM445.3472 408.88127C445.3472 410.82838 444.956 412.26008 444.17356 413.17637 443.39115 414.09266 442.35108 414.55079 441.0534 414.55079H438.59165V404.0135H441.45417C442.6755 404.12803 443.62968 404.62434 444.31669 405.50245 445.0037 406.38056 445.3472 407.50685 445.3472 408.88127Z"/>
<path transform="matrix(1,0,0,-1,0,420.16307)" d="M473.22819 381.16355H468.01838L462.9231 400.1765 460.97657 395.5951V381.16355H456.16755V419.5331H460.97657V406.8769L467.0451 419.5331H472.36943L466.41539 406.53327 473.22819 381.16355Z"/>
<path transform="matrix(1,0,0,-1,0,420.16307)" d="M494.58259 389.63923C494.58259 387.11943 493.9242 384.9623 492.60746 383.1679 491.29069 381.37355 489.18199 380.47633 486.28129 380.47633 483.53327 380.47633 481.4436 381.4308 480.01237 383.33973 478.5811 385.24867 477.8082 387.71119 477.6937 390.7273H482.789C482.86534 387.3294 484.02943 385.57319 486.28129 385.45866 488.3041 385.61137 489.33464 387.00489 489.3728 389.63923 489.44914 391.31907 488.56175 393.53343 486.71067 396.2823 484.85957 399.03117 483.20884 401.3028 481.75849 403.0972 480.68983 404.43345 479.89787 405.8174 479.3826 407.2491 478.86735 408.68083 478.6097 409.98844 478.6097 411.17198 478.6097 413.5009 479.28718 415.5816 480.6421 417.41419 481.99705 419.24678 483.89585 420.16307 486.33854 420.16307 488.4377 420.16307 490.28883 419.34223 491.8918 417.70054 493.49485 416.05885 494.31544 413.88267 494.35359 411.17198H489.3728C489.2583 413.88267 488.3041 415.21894 486.51029 415.18074 484.7546 415.14256 483.87675 413.8254 483.87675 411.22926 483.8386 410.35115 484.0485 409.43486 484.5065 408.48039 484.9645 407.5259 485.61335 406.57145 486.45304 405.61698 489.20106 402.40998 491.24299 399.51795 492.57884 396.9409 493.91468 394.36384 494.58259 391.92994 494.58259 389.63923Z"/>
<path transform="matrix(1,0,0,-1,0,420.16307)" d="M196.22228 309.6918C196.1488 309.515 196.12436 309.32707 196.10176 309.13346 195.32917 302.5156 197.00775 296.91477 203.01898 296.75645 205.08008 296.70219 207.23958 297.42124 209.18683 298.601 210.50244 299.39808 212.4725 300.7914 212.4725 300.7914 212.4725 300.7914 214.121 299.59547 215.2394 298.88923 220.1579 295.78327 226.01798 295.65306 228.0939 301.022 228.41959 301.8643 228.65402 302.75968 228.84326 303.78654 228.98162 304.5372 228.98162 308.731 228.84326 309.13346 228.60721 309.82017 228.46678 309.9954 228.84326 310.30244 229.4853 310.82606 231.09435 311.34443 232.35953 311.97407 235.87412 313.72319 238.7058 317.7109 237.95095 320.65965 236.85149 324.95448 233.67061 326.3799 228.97495 329.00654 228.64891 329.1889 228.6237 329.23564 228.72275 329.47395 228.79622 329.65074 228.82085 329.83775 228.84326 330.0323 229.51424 335.85575 228.05539 342.4914 221.92604 342.52458 220.49933 342.5323 217.76648 341.72697 216.39228 340.96824 214.74709 340.05986 212.4725 338.3743 212.4725 338.3743 212.4725 338.3743 210.40682 339.90733 209.0139 340.73765 206.69207 342.1217 203.41736 342.9217 201.17438 342.23637 197.55719 341.1311 196.5255 338.30177 196.07425 334.60993 195.94239 333.53114 195.96083 330.4621 196.10176 330.0323 196.33127 329.3323 196.4823 329.176 196.10176 328.8633 195.37277 328.26429 193.43114 327.62977 192.06671 326.90345 188.88433 325.20945 186.30477 321.34257 186.99408 318.5061 187.50827 316.3903 189.19942 314.2366 191.02913 312.95399 192.21459 312.123 194.30438 311.05766 195.96755 310.15464 196.29586 309.97639 196.32132 309.93009 196.22228 309.6918Z" fill="#ffffff" fill-rule="evenodd"/>
<path transform="matrix(1,0,0,-1,0,420.16307)" d="M198.17693 329.62437V334.46385C198.17693 334.83738 198.18839 334.91877 198.29161 335.27796 198.96483 337.62043 199.1592 338.4027 200.48267 339.4695 202.69625 341.2538 206.55547 340.01316 209.59033 337.74024 210.13864 337.3296 210.74633 336.8283 210.74633 336.8283 210.74633 336.8283 209.98567 336.1081 209.35976 335.4922 208.19875 334.34974 207.50135 333.56614 206.99639 332.84065 206.56398 332.2194 206.23925 331.61579 205.83754 331.31587 205.4113 330.99766 203.78325 330.97248 201.40496 330.4773 199.98851 330.18238 198.17693 329.62437 198.17693 329.62437Z" fill="#12685f" fill-rule="evenodd"/>
<path transform="matrix(1,0,0,-1,0,420.16307)" d="M226.52574 329.68968C226.52574 329.68968 219.97777 330.91908 219.15917 331.34193 218.85269 331.50025 218.39417 332.26927 217.42986 333.4747 216.41056 334.7489 214.20369 336.83226 214.20369 336.83226 214.20369 336.83226 215.45568 337.79826 216.33463 338.3743 218.9383 340.0807 222.22762 340.96476 224.1165 339.70008 226.64434 338.00764 227.29619 334.26637 226.7681 331.03068 226.66751 330.4143 226.52574 329.68968 226.52574 329.68968Z" fill="#12685f" fill-rule="evenodd"/>
<path transform="matrix(1,0,0,-1,0,420.16307)" d="M216.10524 331.5725H208.84L212.4704 335.42326 216.10524 331.5725Z" fill="#12685f" fill-rule="evenodd"/>
<path transform="matrix(1,0,0,-1,0,420.16307)" d="M223.54007 319.6405C223.54007 319.6405 221.15477 315.21229 219.81737 312.76118 218.36869 310.10615 218.12804 309.87974 215.74436 309.78367 212.56815 309.6556 207.87139 309.59904 206.93874 310.1295 206.6709 310.28184 204.75478 313.15599 204.17185 314.27976 203.03084 316.4794 201.40496 319.58287 201.40496 319.58287 201.40496 319.58287 203.17375 322.95146 204.34477 325.2318 204.92021 326.35243 206.62093 328.9232 206.88266 329.06809 207.98802 329.68003 217.21163 329.5555 218.08785 329.06428 218.34317 328.9211 220.46727 325.58927 221.11904 324.30955 222.13855 322.30778 223.54007 319.6405 223.54007 319.6405Z" fill="#12685f" fill-rule="evenodd"/>
<path transform="matrix(1,0,0,-1,0,420.16307)" d="M200.28685 322.47358 198.99608 326.4739C198.8814 326.82939 198.86682 326.88478 198.85048 327.0278 198.81046 327.378 198.92989 327.51713 199.09922 327.59516 199.81157 327.92353 202.39556 328.5062 203.30719 328.69038 203.60219 328.74998 203.73665 328.71156 203.7107 328.5751 203.57349 327.85353 200.28685 322.47358 200.28685 322.47358Z" fill="#12685f" fill-rule="evenodd"/>
<path transform="matrix(1,0,0,-1,0,420.16307)" d="M224.64633 322.39265 221.44194 327.93904C221.25508 328.26249 221.23328 328.30763 221.2238 328.39054 221.19469 328.64524 221.26396 328.71226 221.7374 328.64164 222.82738 328.47904 225.11475 327.7246 225.81562 327.54417 225.984 327.5008 226.06079 327.49058 226.07639 327.34617 226.14249 326.73347 224.64633 322.39265 224.64633 322.39265Z" fill="#12685f" fill-rule="evenodd"/>
<path transform="matrix(1,0,0,-1,0,420.16307)" d="M198.90703 319.27165C198.72808 318.92817 198.60756 318.6033 198.46514 318.19944 197.77758 316.24989 196.57936 312.4602 196.57936 312.4602 196.57936 312.4602 194.5299 313.424 193.33487 314.10685 190.68923 315.6185 188.39348 318.33055 189.47275 320.96629 190.03272 322.3338 191.28504 323.7541 192.41257 324.48249 193.8757 325.42765 196.5732 326.69615 196.5732 326.69615L198.95932 320.03126C199.08524 319.6796 199.08 319.6036 198.90703 319.27165Z" fill="#12685f" fill-rule="evenodd"/>
<path transform="matrix(1,0,0,-1,0,420.16307)" d="M228.37262 312.4678 225.84581 319.6405 228.3703 326.6944C228.3703 326.6944 229.77692 326.0947 230.68787 325.6353 233.73625 324.09809 236.64064 321.23487 235.47228 318.19944 234.7301 316.2713 232.712 314.6281 230.68787 313.58805 229.72173 313.0916 228.37262 312.4678 228.37262 312.4678Z" fill="#12685f" fill-rule="evenodd"/>
<path transform="matrix(1,0,0,-1,0,420.16307)" d="M203.72122 310.77519C203.75244 310.50215 203.65059 310.43904 203.20343 310.47535 203.06943 310.48625 199.0553 311.28413 198.86864 311.81959 198.8336 311.9201 198.85735 312.08549 198.89974 312.28993 199.18016 313.642 200.27698 316.70216 200.27698 316.70216L203.5002 311.225C203.68965 310.9031 203.71175 310.85813 203.72122 310.77519Z" fill="#12685f" fill-rule="evenodd"/>
<path transform="matrix(1,0,0,-1,0,420.16307)" d="M225.69634 311.55845C225.37369 311.4147 225.09198 311.3281 224.69293 311.2247 223.5244 310.92198 221.34961 310.47535 221.34961 310.47535 221.34961 310.47535 221.2562 310.68144 221.23433 310.8673 221.20906 311.08216 221.733 311.79158 222.32955 312.55049 223.268 313.74436 224.65741 316.69425 224.65741 316.69425L226.07639 312.29685V311.91728C226.07639 311.74674 226.03838 311.71086 225.69634 311.55845Z" fill="#12685f" fill-rule="evenodd"/>
<path transform="matrix(1,0,0,-1,0,420.16307)" d="M210.78153 302.31568C210.78153 302.31568 208.09487 300.5267 206.47759 299.69624 204.19226 298.5227 201.11843 298.42396 199.61801 300.56086 198.93308 301.53636 198.28287 303.42973 198.17693 304.47825 197.99095 306.3186 198.17693 309.541 198.17693 309.541 198.17693 309.541 204.96537 308.29936 205.78586 307.88145 206.29042 307.62449 206.5664 306.8929 207.63047 305.57575 208.65026 304.31336 210.78153 302.31568 210.78153 302.31568Z" fill="#12685f" fill-rule="evenodd"/>
<path transform="matrix(1,0,0,-1,0,420.16307)" d="M214.25084 302.26036 219.15917 307.88145 225.97042 309.3503C226.33556 309.42906 226.3889 309.41606 226.5039 309.2202 227.04805 308.29374 226.82541 305.1477 226.7681 304.66963 226.28902 300.6723 224.36923 298.4365 220.77088 298.94688 220.05982 299.0477 219.26596 299.29096 218.46744 299.69624 216.86142 300.51127 214.25084 302.26036 214.25084 302.26036Z" fill="#12685f" fill-rule="evenodd"/>
<path transform="matrix(1,0,0,-1,0,420.16307)" d="M212.47692 303.83473C212.47692 303.83473 211.47805 304.6913 210.57028 305.6334 209.67433 306.56318 208.86711 307.5762 208.86711 307.5762L215.70055 307.70854V307.59324H215.93112V307.40879L212.47692 303.83473Z" fill="#12685f" fill-rule="evenodd"/>
<path transform="matrix(1,0,0,-1,0,420.16307)" d="M207.74575 319.58287C207.66944 316.12123 211.1538 313.92 214.20182 315.1444 216.56389 316.09324 217.63445 318.4229 217.08399 320.78184 216.31195 324.09034 212.24935 325.54319 209.47505 323.32963 208.4184 322.48655 207.78365 321.30189 207.74575 319.58287Z" fill="#ffffff" fill-rule="evenodd"/>
<path transform="matrix(1,0,0,-1,0,420.16307)" d="M271.2429 328.0626C271.2047 323.40483 269.71623 320.29325 266.77735 318.7279L271.1284 300.4594H266.20484L262.1973 318.3843H259.50654V300.4594H254.6975V338.82899H262.1973C264.7545 338.82899 266.91093 337.89363 268.66664 336.02287 270.4223 334.1521 271.28105 331.4987 271.2429 328.0626ZM266.2621 328.17716C266.2621 330.12425 265.87089 331.55595 265.08848 332.47224 264.30604 333.38853 263.266 333.84669 261.96833 333.84669H259.50654V323.30937H262.36906C263.5904 323.4239 264.5446 323.92024 265.2316 324.79835 265.91859 325.67643 266.2621 326.8027 266.2621 328.17716Z" fill="#ffffff"/>
<path transform="matrix(1,0,0,-1,0,420.16307)" d="M290.30729 311.62669H281.0327C281.14723 307.1598 282.12049 304.90724 283.95249 304.86906 285.02116 304.86906 285.74635 305.63264 286.128 307.1598L290.13554 305.1554C289.2577 301.6048 287.25395 299.8104 284.12425 299.77223 281.60523 299.77223 279.6778 300.81257 278.34196 302.8933 277.0061 304.97407 276.33818 308.78239 276.33818 314.31828 276.33818 318.51795 276.8916 322.03993 277.99845 324.88423 279.1053 327.72856 280.9182 329.1507 283.43724 329.1507 285.99443 329.1507 287.76918 327.76673 288.76155 324.99879 289.75389 322.2308 290.2691 317.77345 290.30729 311.62669ZM285.72724 316.609C285.6891 319.5106 285.47917 321.44816 285.0975 322.4217 284.71583 323.39527 284.1624 323.86296 283.43724 323.82478 282.5594 323.86296 281.93919 323.34754 281.5766 322.27854 281.214 321.20954 281.0327 319.3197 281.0327 316.609H285.72724Z" fill="#ffffff"/>
<path transform="matrix(1,0,0,-1,0,420.16307)" d="M308.39845 300.4594H303.9329V301.26118C303.20774 300.26853 302.15815 299.77223 300.78413 299.77223 296.47126 299.88676 294.31483 302.97923 294.31483 309.04963 294.31483 315.76908 296.50944 319.24333 300.89863 319.4724 301.73829 319.4724 302.61613 319.2815 303.53215 318.89973V320.9041C303.53215 322.8894 302.82606 323.88206 301.41389 323.88206 299.84904 323.9584 298.6086 323.29029 297.6926 321.87767L294.54383 325.0274C296.03233 327.54719 298.2651 328.92164 301.24214 329.1507 306.013 329.1507 308.39845 326.34458 308.39845 320.7323V300.4594ZM303.53215 306.87345V313.63108C302.92149 314.05104 302.13905 314.26103 301.18489 314.26103 299.73454 314.14649 299.00935 312.44755 299.00935 309.16416 299.04753 306.0717 299.92536 304.56364 301.64289 304.63999 302.71156 304.67817 303.3413 305.42265 303.53215 306.87345Z" fill="#ffffff"/>
<path transform="matrix(1,0,0,-1,0,420.16307)" d="M322.4248 321.13319C322.11946 323.00395 321.2798 323.9393 319.90577 323.9393 318.98979 323.97749 318.3314 323.56709 317.93064 322.70805 317.52989 321.84904 317.27226 319.1479 317.15776 314.6046 317.27226 309.83229 317.56806 307.0357 318.04515 306.21485 318.52223 305.394 319.23786 305.0027 320.19203 305.04087 321.29887 305.1554 322.00495 305.97624 322.3103 307.5034L326.26057 305.55628C325.45909 301.85295 323.4553 299.944 320.24928 299.82948 317.73027 299.82948 315.80284 300.86985 314.46699 302.9506 313.13114 305.0313 312.4632 308.8778 312.4632 314.49009 312.4632 320.25508 313.07389 324.1493 314.29524 326.17277 315.51658 328.19624 317.38676 329.20799 319.90577 329.20799 323.3408 328.97889 325.45909 326.93635 326.26057 323.0803L322.4248 321.13319Z" fill="#ffffff"/>
<path transform="matrix(1,0,0,-1,0,420.16307)" d="M340.63044 305.61357 339.42817 300.4594C338.85569 300.00129 338.18775 299.77223 337.4244 299.77223 335.85957 299.77223 334.6287 300.34489 333.73176 301.49024 332.83485 302.63563 332.36729 304.12458 332.32914 305.95716V323.99659H329.35209V329.1507H332.32914V336.9964L337.3099 339.45893V329.1507H340.63044V323.99659H337.3099V306.52986C337.38624 305.3081 337.84425 304.71635 338.68394 304.75453 339.33277 304.75453 339.9816 305.04087 340.63044 305.61357Z" fill="#ffffff"/>
<path transform="matrix(1,0,0,-1,0,420.16307)" d="M349.676 302.63563C349.676 301.87205 349.3993 301.20393 348.8459 300.63124 348.29246 300.05854 347.615 299.77223 346.81349 299.77223 346.08833 299.77223 345.43949 300.05854 344.86698 300.63124 344.29447 301.20393 344.0082 301.87205 344.0082 302.63563 344.0082 303.39918 344.2849 304.05778 344.83836 304.61137 345.39176 305.16496 346.05015 305.44175 346.81349 305.44175 347.615 305.44175 348.29246 305.1745 348.8459 304.63999 349.3993 304.1055 349.676 303.43736 349.676 302.63563Z" fill="#ffffff"/>
<path transform="matrix(1,0,0,-1,0,420.16307)" d="M371.5457 309.85139C371.5457 307.36976 371.14494 305.3654 370.3434 303.83824 368.89308 301.12757 366.56489 299.77223 363.35887 299.77223 358.74067 299.8104 355.89723 302.3111 354.82856 307.27433L359.98109 308.24787C360.47727 305.80445 361.60319 304.63999 363.35887 304.75453 365.57255 304.75453 366.67939 306.2435 366.67939 309.22145V338.82899H371.5457V309.85139Z" fill="#ffffff"/>
<path transform="matrix(1,0,0,-1,0,420.16307)" d="M393.07185 308.9351C393.07185 306.41529 392.41349 304.2582 391.0967 302.4638 389.77995 300.6694 387.67124 299.77223 384.77055 299.77223 382.02253 299.77223 379.93287 300.72669 378.50163 302.63563 377.07035 304.54454 376.29747 307.00709 376.18296 310.0232H381.27827C381.35459 306.62528 382.51869 304.86906 384.77055 304.75453 386.7934 304.90724 387.82389 306.30076 387.86207 308.9351 387.9384 310.61497 387.05104 312.8293 385.19993 315.5782 383.34883 318.32707 381.6981 320.59867 380.24775 322.39308 379.17909 323.7293 378.38713 325.1133 377.87187 326.545 377.3566 327.9767 377.09898 329.28434 377.09898 330.46788 377.09898 332.79676 377.77644 334.8775 379.13139 336.71009 380.4863 338.54267 382.3851 339.45893 384.8278 339.45893 386.92698 339.45893 388.77809 338.6381 390.38108 336.9964 391.9841 335.35475 392.8047 333.17857 392.84288 330.46788H387.86207C387.74757 333.17857 386.7934 334.5148 384.99955 334.47663 383.24388 334.43846 382.36604 333.12129 382.36604 330.52513 382.32786 329.647 382.53779 328.73075 382.99577 327.77629 383.45378 326.8218 384.1026 325.86735 384.9423 324.91288 387.6903 321.70585 389.73225 318.8138 391.06809 316.23677 392.40394 313.6597 393.07185 311.2258 393.07185 308.9351Z" fill="#ffffff"/>
<path transform="matrix(1,0,0,-1,0,420.16307)" d="M445.775 243.73496H402.7473C402.44267 243.73496 402.19569 243.42765 402.19569 243.04854V207.81276C402.19569 207.43366 402.44267 207.12635 402.7473 207.12635H445.775C446.07966 207.12635 446.32664 207.43366 446.32664 207.81276V243.04854C446.32664 243.42765 446.07966 243.73496 445.775 243.73496Z" fill="#fee600" fill-rule="evenodd"/>
<path transform="matrix(1,0,0,-1,0,420.16307)" d="M410.5338 221.30127 407.7163 217.83837C407.7163 217.83837 408.2266 216.98133 408.67475 216.40567 410.555 213.99047 414.56614 213.42179 417.76298 214.03325 421.03547 214.6592 422.6323 216.96375 422.9458 220.20156 423.10054 221.79973 423.0188 237.06404 423.0188 237.06404L418.49293 236.99105C418.49293 236.99105 418.53776 221.46985 418.38343 220.49355 418.06373 218.4706 416.81559 217.55608 414.52479 217.79264 413.22053 217.92733 411.86347 218.79192 411.12016 220.12856 410.8465 220.62067 410.5338 221.30127 410.5338 221.30127Z" fill-rule="evenodd"/>
<path transform="matrix(1,0,0,-1,0,420.16307)" d="M429.15919 219.74579 426.61418 217.03376C426.61418 217.03376 427.00483 216.45108 427.32566 216.07718 428.97999 214.14933 433.27293 213.61057 435.23863 213.85076 438.44209 214.24219 440.78907 216.0691 440.8059 219.36208 440.81755 221.63355 439.63749 223.18476 437.65486 223.92444 436.35374 224.40987 434.41307 224.65822 432.94648 225.1289 432.08607 225.40506 431.52629 225.73859 431.41355 226.65456 431.22239 228.20767 433.42039 228.47507 434.67655 228.3043 435.39158 228.2071 436.2158 227.99536 436.81538 227.53783 437.26564 227.19425 437.82575 226.62798 437.82575 226.62798L440.28898 229.32933C440.28898 229.32933 439.40113 230.20722 438.78633 230.64023 436.9183 231.95587 433.0021 231.92496 431.41355 231.4797 428.5088 230.66555 426.65696 228.27045 427.50816 225.1654 427.9011 223.73204 428.8383 222.74405 430.13609 222.1725 431.29685 221.66129 435.22279 220.76454 435.7204 220.45705 436.69004 219.85787 436.94956 218.5237 435.8664 217.75614 434.8632 217.04521 432.9111 217.39711 431.92454 217.71964 431.61265 217.8216 431.35676 217.9228 431.01206 218.15763 430.28385 218.65364 429.15919 219.74579 429.15919 219.74579Z" fill-rule="evenodd"/>
<path transform="matrix(1,0,0,-1,0,420.16307)" d="M248.73777 213.8194H237.15683V244.13817H248.33061V240.20125H240.95682V232.41793H245.88777V228.3905H240.95682V217.7563H248.73777V213.8194Z"/>
<path transform="matrix(1,0,0,-1,0,420.16307)" d="M264.34489 213.8194H260.40919L257.33299 221.69322 254.34728 213.8194H250.41156L255.2068 226.39942 251.36157 235.94757H255.16156L257.33299 230.20058 259.36869 235.94757H263.07823L259.41395 226.39942 264.34489 213.8194Z"/>
<path transform="matrix(1,0,0,-1,0,420.16307)" d="M269.68296 236.35485V235.5403C270.1655 236.17383 270.85917 236.49059 271.76393 236.49059 275.5036 236.40009 277.37345 232.41793 277.37345 224.5441 277.37345 217.03227 275.57899 213.27637 271.9901 213.27637 271.14567 213.2462 270.5274 213.48755 270.13536 214.0004V204.76902L266.33537 202.86844V236.35485H269.68296ZM270.04487 218.66135C270.13536 217.63564 270.63298 217.12279 271.53773 217.12279 272.92503 217.06244 273.63377 219.53621 273.6639 224.5441 273.6639 229.73297 272.98536 232.32743 271.6282 232.32743 270.72346 232.32743 270.19566 231.7844 270.04487 230.69835V218.66135Z"/>
<path transform="matrix(1,0,0,-1,0,420.16307)" d="M290.17579 235.5403 289.49723 230.9246C289.04484 231.70897 288.44169 232.10115 287.6877 232.10115 286.27024 232.10115 285.54643 230.84918 285.51628 228.34525V213.8194H281.67106V236.35485H285.51628V235.26879C286.17979 236.08333 286.97898 236.49059 287.91389 236.49059 288.75834 236.49059 289.5123 236.17383 290.17579 235.5403Z"/>
<path transform="matrix(1,0,0,-1,0,420.16307)" d="M302.97816 222.64351H295.6496C295.74009 219.11386 296.50914 217.33396 297.95674 217.30379 298.80119 217.30379 299.37419 217.90715 299.67579 219.11386L302.84245 217.53005C302.14878 214.72443 300.56547 213.30654 298.09245 213.27637 296.10197 213.27637 294.57896 214.09845 293.5234 215.7426 292.46788 217.38675 291.94007 220.396 291.94007 224.77036 291.94007 228.08882 292.37739 230.87181 293.25199 233.11933 294.1266 235.36684 295.5591 236.49059 297.5496 236.49059 299.57023 236.49059 300.9726 235.397 301.7567 233.20983 302.54087 231.02266 302.948 227.50055 302.97816 222.64351ZM299.3591 226.58043C299.32896 228.87319 299.1631 230.4042 298.86149 231.1735 298.5599 231.94278 298.1226 232.31233 297.5496 232.28217 296.85594 232.31233 296.36589 231.90506 296.07936 231.06037 295.79286 230.21567 295.6496 228.72235 295.6496 226.58043H299.3591Z"/>
<path transform="matrix(1,0,0,-1,0,420.16307)" d="M316.05195 219.65689C316.0218 217.42446 315.5091 215.80294 314.51387 214.79232 313.51863 213.78168 312.3575 213.27637 311.03053 213.27637 309.67338 213.27637 308.54243 213.74398 307.63768 214.67919 306.7329 215.61438 306.02418 216.86635 305.51148 218.43509L308.90434 220.1094C309.598 218.17865 310.33689 217.27362 311.121 217.39429 311.90513 217.4848 312.31227 218.02782 312.34245 219.02336 312.3726 219.92839 312.1087 220.8636 311.55076 221.82898 310.99284 222.79436 310.36705 223.66922 309.67338 224.45359 308.82896 225.35863 308.0448 226.42205 307.321 227.64385 306.5972 228.86565 306.26545 230.09499 306.32579 231.33188 306.2956 232.59893 306.70277 233.77548 307.54719 234.86153 308.39164 235.94757 309.47737 236.49059 310.80433 236.49059 313.42814 236.43025 315.10194 235.0727 315.82575 232.41793L312.9305 230.96987C312.41783 232.29726 311.7845 232.96094 311.03053 232.96094 310.27656 232.9006 309.89958 232.35759 309.89958 231.33188 310.0202 230.48717 310.34443 229.71035 310.8722 229.0014 311.39997 228.29245 312.08607 227.47039 312.9305 226.53517 313.62419 225.87148 314.31028 224.91365 314.98887 223.66168 315.66743 222.40972 316.0218 221.07479 316.05195 219.65689Z"/>
<path transform="matrix(1,0,0,-1,0,420.16307)" d="M328.4924 219.65689C328.46226 217.42446 327.94956 215.80294 326.9543 214.79232 325.95909 213.78168 324.79798 213.27637 323.47099 213.27637 322.11384 213.27637 320.98289 213.74398 320.07814 214.67919 319.17338 215.61438 318.46464 216.86635 317.95195 218.43509L321.3448 220.1094C322.03846 218.17865 322.7773 217.27362 323.56147 217.39429 324.34559 217.4848 324.75273 218.02782 324.78288 219.02336 324.81306 219.92839 324.54917 220.8636 323.9912 221.82898 323.4333 222.79436 322.8075 223.66922 322.11384 224.45359 321.26939 225.35863 320.48527 226.42205 319.76145 227.64385 319.03767 228.86565 318.7059 230.09499 318.76625 231.33188 318.73606 232.59893 319.14323 233.77548 319.98765 234.86153 320.8321 235.94757 321.91783 236.49059 323.24479 236.49059 325.8686 236.43025 327.5424 235.0727 328.2662 232.41793L325.37098 230.96987C324.85829 232.29726 324.22496 232.96094 323.47099 232.96094 322.717 232.9006 322.34004 232.35759 322.34004 231.33188 322.46067 230.48717 322.78489 229.71035 323.31266 229.0014 323.84043 228.29245 324.52653 227.47039 325.37098 226.53517 326.06465 225.87148 326.75074 224.91365 327.4293 223.66168 328.10789 222.40972 328.46226 221.07479 328.4924 219.65689Z"/>
<path transform="matrix(1,0,0,-1,0,420.16307)" d="M335.64 215.53896C335.64 214.93561 335.42137 214.40767 334.98405 213.95516 334.54676 213.50263 334.01145 213.27637 333.3781 213.27637 332.80509 213.27637 332.2924 213.50263 331.84004 213.95516 331.38764 214.40767 331.16145 214.93561 331.16145 215.53896 331.16145 216.14232 331.3801 216.66272 331.81739 217.10016 332.2547 217.53759 332.77494 217.7563 333.3781 217.7563 334.01145 217.7563 334.54676 217.54514 334.98405 217.12279 335.42137 216.70043 335.64 216.17249 335.64 215.53896Z"/>
<path transform="matrix(1,0,0,-1,0,420.16307)" d="M352.92094 221.2407C352.92094 219.27979 352.60429 217.69597 351.97096 216.48926 350.8249 214.34734 348.98524 213.27637 346.4519 213.27637 342.8027 213.30654 340.55589 215.28253 339.71144 219.20436L343.78285 219.97365C344.17494 218.04291 345.0646 217.12279 346.4519 217.21329 348.2011 217.21329 349.0757 218.38983 349.0757 220.74294V244.13817H352.92094V221.2407Z"/>
<path transform="matrix(1,0,0,-1,0,420.16307)" d="M369.93043 220.51668C369.93043 218.52559 369.4102 216.8211 368.36973 215.40322 367.32926 213.98532 365.66297 213.27637 363.3709 213.27637 361.1995 213.27637 359.5483 214.03057 358.41737 215.53896 357.2864 217.04737 356.6757 218.9932 356.5852 221.37647H360.6114C360.67173 218.69152 361.59156 217.30379 363.3709 217.21329 364.96934 217.33396 365.7836 218.43509 365.81379 220.51668 365.87409 221.84406 365.17289 223.5938 363.7102 225.76589 362.2475 227.93799 360.94316 229.73297 359.79713 231.15087 358.95268 232.20674 358.32688 233.30034 357.91975 234.43163 357.5126 235.56293 357.30903 236.59618 357.30903 237.53139 357.30903 239.37163 357.84434 241.01578 358.91499 242.46384 359.9856 243.9119 361.486 244.63594 363.41618 244.63594 365.0749 244.63594 366.53758 243.98732 367.80424 242.6901 369.0709 241.39289 369.71934 239.67331 369.74949 237.53139H365.81379C365.7233 239.67331 364.96934 240.72919 363.55189 240.69902 362.16459 240.66886 361.47093 239.62805 361.47093 237.57663 361.44078 236.88277 361.60664 236.15874 361.96855 235.40454 362.33045 234.65035 362.84315 233.89615 363.50663 233.14196 365.67805 230.60785 367.29154 228.32262 368.3471 226.28629 369.40266 224.24996 369.93043 222.32675 369.93043 220.51668Z"/>
<path transform="matrix(1,0,0,-1,0,420.16307)" d="M370.18803 147.43476C370.23628 147.35538 370.29063 147.27986 370.35063 147.20893 370.40937 147.13788 370.47013 147.0685 370.53285 147.0009 370.84043 146.67548 371.16307 146.3646 371.4997 146.0693L371.50346 146.06613C371.95695 145.70015 372.43794 145.36965 372.94218 145.07753 373.48823 144.75827 374.05433 144.47464 374.63697 144.22841 375.6732 143.78768 377.03874 143.36171 378.19419 143.39206 378.423 143.39727 378.65049 143.42835 378.87229 143.4847 379.1718 143.56177 379.46205 143.67125 379.73783 143.81124 380.73814 144.31691 381.30406 145.16498 381.52409 146.25025 381.56419 146.44805 381.6152 146.71006 381.63337 146.91121 381.6533 147.15453 381.661 147.3987 381.65653 147.6428V162.99652H379.03694L379.03697 147.80136C379.04005 147.63 379.03489 147.4586 379.0215 147.28775 379.01603 147.21894 379.001 147.15122 378.97688 147.08654 378.94557 147.00914 378.9032 146.9509 378.85368 146.88434 378.43705 146.32448 377.81257 146.10349 377.1504 146.16936 376.9004 146.19417 376.65425 146.2487 376.41719 146.33177 376.11708 146.43766 375.82237 146.5583 375.53416 146.69327 375.2685 146.81694 375.00538 146.94599 374.74494 147.0803 373.93904 147.50197 373.14875 147.95284 372.37568 148.43202V163.77889C375.0989 165.22595 379.7211 167.75489 382.5529 169.55757L383.29466 170.03427C383.5701 170.21312 383.8501 170.38481 384.13444 170.5492 384.4139 170.71303 384.70646 170.85356 385.00904 170.96935 385.16569 171.0278 385.32716 171.07245 385.4916 171.1028 385.6711 171.13607 385.8545 171.14315 386.03605 171.12381 386.18467 171.1091 386.3066 171.08126 386.44136 171.01528 386.60948 170.93209 386.77436 170.84247 386.9356 170.74665L399.0265 163.80765V148.80393L385.58634 141.12384C384.88014 141.58527 384.09965 142.06595 383.37657 142.4666 383.11543 142.61281 382.84654 142.74478 382.57115 142.86196 382.45353 142.90958 382.3293 142.93888 382.2028 142.94882 381.82075 142.98407 381.4406 142.94072 381.07206 142.84172 380.8447 142.78136 380.62449 142.69676 380.4152 142.58939 380.17753 142.47035 379.9636 142.30892 379.7839 142.11305 379.6649 141.98772 379.6316 141.8233 379.6983 141.66925 379.77378 141.4949 379.85359 141.43379 379.99833 141.31937 380.19898 141.1673 380.40626 141.02419 380.61955 140.89044 381.68428 140.21591 383.05235 139.4439 384.19947 138.88062 384.40803 138.77742 384.62016 138.68158 384.83543 138.59328 384.92033 138.55785 385.07307 138.50186 385.16276 138.48523 385.33699 138.45645 385.51353 138.44391 385.69007 138.44774 385.84696 138.44857 386.0037 138.4584 386.1595 138.47722 386.43644 138.50652 386.70707 138.57907 386.96153 138.69222 387.1138 138.76142 387.26325 138.83663 387.40959 138.91767L387.92799 139.20766 399.2977 145.64334C399.47477 145.74166 399.6496 145.84392 399.82209 145.95008 399.99986 146.06381 400.17063 146.18817 400.33345 146.32248 400.68363 146.60398 400.96925 146.95743 401.1709 147.35894 401.2804 147.57422 401.37196 147.79814 401.4447 148.02845 401.5253 148.28452 401.59178 148.54483 401.64378 148.8082 401.6822 149.00922 401.70005 149.25479 401.70567 149.45906 401.71324 149.67067 401.7166 149.8824 401.71586 150.09413 401.71244 151.0129 401.65464 152.42702 401.60078 153.4497 401.53477 154.68997 401.4705 155.93033 401.40797 157.17078 401.33708 158.71886 401.4047 160.32259 401.5069 161.87769L401.6278 163.67275C401.6356 163.77828 401.64015 163.88402 401.6414 163.98983 401.6472 164.26973 401.5892 164.4897 401.4246 164.71804 401.1549 165.09214 400.80638 165.4537 400.4529 165.75867 400.17295 166.00118 399.88224 166.23104 399.58174 166.44756 398.96864 166.88774 398.33479 167.29822 397.68229 167.67757 396.52268 168.35489 395.48768 168.90322 394.31437 169.50936 393.95097 169.69689 393.58876 169.88674 393.22773 170.07889 392.29115 170.58466 391.35844 171.09758 390.4297 171.61765 389.7973 171.97052 389.16334 172.32056 388.52784 172.66776 387.8252 173.05188 387.1172 173.4261 386.404 173.79032 386.3111 173.83852 386.21659 173.8835 386.1206 173.9252 385.69017 174.1182 385.4147 174.00856 385.01063 173.82514 384.53306 173.61264 384.05769 173.39524 383.5846 173.17298 383.03117 172.91681 382.48799 172.63907 381.95634 172.34037 381.48799 172.06888 381.0304 171.77919 380.5847 171.47197 380.0893 171.13538 379.59147 170.80239 379.09123 170.47303 378.05583 169.79561 376.6668 168.96907 375.58766 168.34615 373.73719 167.27985 371.87248 166.23844 369.99406 165.22219V148.51834C369.9913 148.33812 369.996 148.15784 370.00819 147.978 370.01469 147.88602 370.0318 147.79509 370.05918 147.70703 370.09068 147.61128 370.13395 147.51982 370.18803 147.43476Z" fill="#82cd2a" fill-rule="evenodd"/>
<path transform="matrix(1,0,0,-1,0,420.16307)" d="M385.2348 149.42699C386.86506 148.68067 388.56086 148.60605 389.29917 148.60147 389.842 148.59734 390.38435 148.6362 390.92106 148.71772 391.3443 148.78156 391.76509 148.86063 392.18263 148.9548 393.73454 149.30756 394.92643 149.93042 395.68348 151.39904 396.75529 153.4782 396.1593 155.65903 393.96153 156.583 393.69023 156.69766 393.41273 156.79714 393.13035 156.88094 392.55299 157.0508 391.96629 157.18709 391.37318 157.28914 390.66035 157.41423 389.94499 157.52422 389.2275 157.61899 388.6521 157.69394 388.07826 157.78043 387.5063 157.87839 387.25184 157.92282 387.00105 157.9862 386.756 158.06801 386.30039 158.22119 385.75956 158.51198 385.73237 159.0644 385.72059 159.30362 385.81123 159.58606 385.92655 159.80867 385.9747 159.90105 386.03779 159.98484 386.11329 160.05663 386.19914 160.13846 386.29368 160.21065 386.39524 160.27188 386.82179 160.52622 387.34733 160.6692 387.8332 160.75148 388.84114 160.92217 390.0702 160.90363 391.06138 160.6411 391.20735 160.60225 391.35105 160.55544 391.49189 160.50087 391.92594 160.33338 392.33836 160.03903 392.62037 159.66028 392.8178 159.38962 392.94953 159.0767 393.00508 158.74633 393.03694 158.54439 393.102 158.35742 393.3001 158.2915 393.40144 158.2582 393.5074 158.24108 393.61405 158.24079 393.71287 158.23647 393.8118 158.2346 393.9107 158.2352H395.47718C395.46507 158.30086 395.43955 158.48905 395.45185 158.55019L395.52915 158.57419C395.59538 158.60211 395.64689 158.65648 395.67124 158.7241 395.7222 158.85913 395.71376 159.03261 395.69593 159.17876 395.64805 159.6196 395.5329 160.05052 395.3545 160.4565 395.15278 160.91225 394.86817 161.32657 394.51515 161.6784 394.15498 162.03789 393.74159 162.3397 393.28947 162.57323 392.79728 162.82901 392.27635 163.0253 391.73768 163.15789 391.16633 163.29988 390.58287 163.38785 389.99504 163.42061 389.34745 163.45806 388.6978 163.43804 388.05378 163.3608 387.04234 163.24121 386.0337 162.98181 385.1123 162.53954 384.74607 162.36487 384.4001 162.15052 384.0806 161.90035 383.85005 161.72188 383.6413 161.51689 383.45866 161.28963 383.00956 160.72931 382.9137 160.07541 382.9564 159.39165 382.9792 159.0356 383.02189 158.68109 383.08424 158.32979 383.18818 157.74143 383.42906 157.18573 383.78733 156.7076 383.95936 156.47592 384.1607 156.26757 384.38636 156.08773 384.63276 155.89162 384.90916 155.73653 385.20494 155.62842 385.3607 155.56865 385.52073 155.52074 385.68367 155.48506 385.87638 155.44364 386.06999 155.4065 386.2643 155.37368L388.56974 154.96018C389.32948 154.82318 390.45988 154.61008 391.26017 154.43659 391.61659 154.35932 392.26225 154.21442 392.6102 154.09497L392.75099 154.04373C392.79978 154.02591 392.8463 154.00246 392.88966 153.97385 393.02577 153.87004 393.13529 153.73546 393.2093 153.58115 393.2938 153.40579 393.34184 153.21514 393.35054 153.02068 393.37 152.61565 393.22758 152.21952 392.95466 151.91959 392.88957 151.8542 392.81425 151.79985 392.7317 151.75865 392.63648 151.71018 392.53828 151.6679 392.4376 151.6321 391.907 151.4467 391.13154 151.33097 390.52989 151.27835 389.6644 151.20269 388.77928 151.17719 387.91215 151.24442 387.72434 151.2572 387.53804 151.28646 387.35536 151.33182 387.06935 151.41555 386.79197 151.52642 386.52705 151.66292 386.39405 151.73131 386.2662 151.80928 386.14454 151.89621 386.01194 151.98917 385.89573 152.10358 385.80073 152.23473 385.68547 152.40464 385.54704 152.72257 385.47206 152.91266 385.30949 153.33261 385.16493 153.75931 385.03877 154.1916H382.60954C382.59675 153.76996 382.59577 153.34804 382.60655 152.92633 382.62535 152.19324 382.873 151.48439 383.31483 150.89911 383.5507 150.5878 383.82896 150.311 384.14149 150.07675 384.48127 149.82112 384.84788 149.60324 385.2348 149.42699Z" fill="#82cd2a" fill-rule="evenodd"/>
<path transform="matrix(1,0,0,-1,0,420.16307)" d="M352.44557 142.48522C352.81013 142.69474 353.16886 142.91422 353.52137 143.14342 353.59745 143.19281 353.67094 143.24607 353.74153 143.303 354.0531 143.55109 354.1132 143.8125 354.0757 144.19489 354.06758 144.278 354.04457 144.35894 353.9926 144.42636 353.94197 144.4898 353.88145 144.5447 353.8134 144.58895 353.6708 144.68486 353.52445 144.77503 353.37467 144.85923L339.53569 152.92072V158.61197C340.3982 159.22183 341.27555 159.81044 342.16697 160.37723 342.53666 160.61159 342.91215 160.83664 343.2931 161.05222 343.45628 161.14414 343.62165 161.23217 343.78904 161.31621 343.9854 161.41893 344.19026 161.50458 344.4013 161.57224 344.478 161.59554 344.55744 161.60858 344.63755 161.61107 344.8041 161.6128 344.99504 161.55036 345.14595 161.48416 345.39045 161.37645 345.63038 161.25867 345.86515 161.13112 346.15214 160.97588 346.43699 160.81668 346.71955 160.65357 347.34477 160.29125 348.58567 159.53212 349.19743 159.05989L349.36506 158.9267C349.41056 158.88861 349.51335 158.80159 349.5426 158.74755 349.58247 158.65773 349.60975 158.56287 349.6237 158.4656 349.64018 158.35134 349.647 158.23587 349.6441 158.12046 349.635 157.87073 349.61103 157.62177 349.57228 157.3749L349.4906 156.80074C349.39848 156.14484 349.3611 155.47864 349.53257 154.83104 349.59696 154.58776 349.68418 154.33098 349.8165 154.11238 349.99336 153.82032 350.25715 153.66359 350.58296 153.6854 350.68055 153.69025 350.7774 153.705 350.872 153.72942 350.97004 153.75432 351.06648 153.785 351.16087 153.8213 351.39784 153.91417 351.6286 154.0222 351.85169 154.14472 352.0788 154.26494 352.30345 154.38976 352.52549 154.51909 353.03959 154.81948 353.54774 155.12993 354.04963 155.45027 354.51063 155.74329 354.969 156.0404 355.4247 156.34156 356.88536 157.31006 358.33168 158.29998 359.7632 159.31099V165.03824L345.382 173.23163 345.1534 173.35837C344.9727 173.45853 344.765 173.55106 344.55305 173.53891 344.4459 173.53199 344.33998 173.51213 344.23759 173.47977 344.0941 173.44002 343.95466 173.38692 343.82109 173.32117 343.6783 173.25063 343.5382 173.17487 343.401 173.09404 342.4984 172.5767 341.59828 172.05519 340.7005 171.52953L338.04689 169.97136C335.04765 168.2014 332.053 166.42359 329.06309 164.63791V147.13616L344.51835 138.26837C346.54429 139.29625 350.23249 141.20017 352.44557 142.48522Z" fill="#404237" fill-rule="evenodd"/>
<path transform="matrix(1,0,0,-1,0,420.16307)" d="M341.33976 157.14911C341.31913 157.02567 341.3034 156.90145 341.2926 156.77675 341.27226 156.54294 341.26124 156.30837 341.25956 156.07366 341.2557 155.63983 341.27519 155.14714 341.3551 154.71874 341.37278 154.62401 341.4066 154.4977 341.45079 154.41165 341.49198 154.34003 341.5432 154.27468 341.60298 154.21758 341.89173 153.93589 342.35948 153.62702 342.74089 153.40216 343.0772 153.20389 343.34465 153.06452 343.68913 152.915 343.83714 152.84914 343.99153 152.79872 344.14988 152.76457 344.62794 152.6638 345.1087 152.76795 345.5313 152.98995 345.76158 153.10965 345.9844 153.2431 346.1986 153.38959 346.42268 153.54065 346.64396 153.69579 346.86238 153.85492 347.19114 154.08873 347.45854 154.29959 347.616 154.65515 347.66294 154.76245 347.69624 154.87522 347.7151 154.99079 347.81214 155.53514 347.82118 156.10218 347.78706 156.65139 347.77037 156.92 347.72224 157.31511 347.61549 157.5348 347.58134 157.60506 347.5171 157.68955 347.46495 157.74773 347.15547 158.09287 346.6517 158.45943 346.22676 158.72667 345.8909 158.93788 345.55308 159.12235 345.18858 159.27355 344.93315 159.37949 344.61866 159.48456 344.3348 159.4429 344.19609 159.42144 344.06098 159.38103 343.93327 159.32279 343.7324 159.2379 343.53697 159.14072 343.34806 159.03182 342.8029 158.72045 342.0903 158.25107 341.64924 157.80069 341.5805 157.73049 341.4943 157.6261 341.45008 157.53786 341.3957 157.41393 341.35859 157.28313 341.33976 157.14911Z" fill="#82cd2a" fill-rule="evenodd"/>
<path transform="matrix(1,0,0,-1,0,420.16307)" d="M308.59757 171.06932C308.30198 171.02599 308.00126 171.0314 307.7074 171.08538 307.4932 171.12662 307.2001 171.24196 306.97944 171.34529 306.52699 171.55715 306.01353 171.85295 305.58717 172.11923 304.9112 172.54306 304.25007 172.99007 303.6049 173.45946L288.13209 164.40219V146.72554L302.65489 138.24565H303.6422C303.8514 138.24454 304.0258 138.25257 304.2149 138.3184 304.31758 138.35442 304.4173 138.39818 304.51329 138.44933L304.80284 138.60373 309.649 141.26161C311.5776 142.32068 314.15068 143.74582 316.1599 144.93276 316.55274 145.16387 316.94087 145.4029 317.32405 145.64969 317.49855 145.76091 317.66844 145.87923 317.83326 146.00435 318.0732 146.18901 318.29579 146.39528 318.49809 146.62056 318.5948 146.72905 318.6829 146.84493 318.76164 146.9671 318.8514 147.10402 318.92317 147.25199 318.975 147.40729 319.02769 147.55928 319.057 147.71839 319.06196 147.87917 319.06919 148.06505 319.07194 148.25107 319.0702 148.43708V186.59712C319.07133 186.76572 319.06935 186.93433 319.06434 187.10286 319.06309 187.28112 319.03297 187.458 318.97505 187.6266 318.90235 187.84392 318.79216 188.04682 318.64945 188.22612 318.4805 188.43743 318.28639 188.6273 318.0714 188.79155 317.8245 188.98004 317.569 189.157 317.30574 189.32187 317.0508 189.48598 316.79396 189.64705 316.5352 189.80507 316.05146 190.10048 315.56446 190.39055 315.0743 190.67523 313.99803 191.3009 313.06053 191.82573 311.98149 192.40564 311.52754 192.65053 311.06886 192.8865 310.60566 193.11344 310.41493 193.20496 310.01307 193.3976 309.79457 193.45298 309.5341 193.519 309.27067 193.47357 309.07765 193.29575 308.98036 193.20667 308.9001 193.10062 308.8408 192.98279 308.78068 192.86751 308.73103 192.74707 308.69236 192.62293 308.63996 192.4713 308.61079 192.3126 308.6058 192.15225 308.59858 191.96637 308.59584 191.78035 308.59757 191.59433V171.06932Z" fill="#404237" fill-rule="evenodd"/>
<path transform="matrix(1,0,0,-1,0,420.16307)" d="M216.54128 158.97975C216.61325 159.11087 216.70487 159.2302 216.81295 159.33359 216.92954 159.44187 217.05527 159.53987 217.18875 159.62648 217.78096 160.01204 218.37473 160.39517 218.97006 160.77588 219.33498 161.00783 220.73078 161.88307 221.22977 162.02404L221.30702 162.04302C221.32549 162.04694 221.34444 162.04807 221.36325 162.04634 221.49744 162.02066 221.62876 161.98175 221.75528 161.93018 221.89293 161.87535 222.02907 161.81682 222.16355 161.75463 223.32816 161.2087 225.23966 160.009 226.49765 159.17234V147.29344L234.93502 142.42574 235.33196 142.2013C235.5078 142.10285 235.62137 142.05089 235.80094 142.0309 236.12093 141.99527 236.33635 142.02643 236.56905 142.27806 236.63475 142.34702 236.69704 142.41918 236.75568 142.49425 236.87033 142.62287 236.93944 142.78566 236.95229 142.95749 236.96817 143.14498 236.97417 143.33318 236.97028 143.52129V164.01938L236.22692 165.46149 221.54586 173.95122 206.03217 165.1426V141.41809L216.26682 147.30652 216.2668 157.56638C216.26486 157.74576 216.26815 157.92517 216.27663 158.10439 216.28626 158.29482 216.32044 158.42244 216.38045 158.60282 216.42224 158.73319 216.47608 158.85938 216.54128 158.97975Z" fill="#404237" fill-rule="evenodd"/>
<path transform="matrix(1,0,0,-1,0,420.16307)" d="M246.96314 163.2758V148.67488C246.96204 148.50629 246.96399 148.33768 246.96903 148.16915 246.97025 147.99115 247.0003 147.81452 247.05803 147.64614 247.23815 147.10309 247.61147 146.75522 248.07375 146.43982 248.23572 146.3291 248.39983 146.22153 248.56597 146.11714 249.82228 145.3236 251.08983 144.54793 252.3682 143.79042 254.61789 142.45384 256.80519 141.18143 259.08195 139.9157 259.6461 139.60129 260.2143 139.29427 260.78648 138.99474 261.14753 138.8083 261.27949 138.74065 261.64823 138.57273 261.72364 138.53795 261.80186 138.50954 261.88203 138.48781L261.8866 138.48667C262.04573 138.45014 262.20768 138.42726 262.3707 138.41829 262.74256 138.39871 263.1185 138.51764 263.459 138.66753 264.03883 138.92278 264.4021 139.10332 264.9146 139.3832 267.1608 140.60988 270.29917 142.47269 272.51197 143.80884 273.45829 144.3797 274.4003 144.95774 275.33787 145.54286L276.1455 146.05309C276.3945 146.21219 277.1459 146.6974 277.4195 146.9043L277.55964 147.01512C277.58656 147.03678 277.62556 147.07657 277.64408 147.10497 277.74766 147.28763 277.83274 147.4802 277.898 147.6798 277.96818 147.89754 278.01856 148.12117 278.0485 148.34796 278.0818 148.5604 278.10694 148.77402 278.12397 148.98836 278.13716 149.22643 278.14225 149.46488 278.13923 149.70328V163.03749C278.14225 163.23538 278.13713 163.43334 278.12385 163.63082 278.10816 163.84206 278.05137 164.03893 277.98265 164.2359 277.87715 164.54534 277.72035 164.83483 277.5188 165.09226 277.4452 165.18308 277.27253 165.3058 277.17399 165.37628 276.88996 165.57396 276.60078 165.76416 276.30677 165.94669 274.70326 166.94867 272.76734 168.07785 271.12803 169.02375 269.30335 170.07814 267.469 171.11568 265.62519 172.13622L264.78816 172.5953 264.2391 172.8915 263.8889 173.07659C263.71296 173.17292 263.5326 173.26093 263.34843 173.34033L263.34306 173.34249C263.12367 173.42479 262.8952 173.48047 262.66255 173.50833 262.42485 173.53533 262.12196 173.51648 261.88856 173.46463 261.7418 173.43202 261.39137 173.25495 261.2464 173.18262 260.78495 172.9477 260.32743 172.7051 259.87406 172.45494 257.0709 170.91463 253.58725 168.89147 250.76959 167.1913 250.12419 166.80274 249.48349 166.40642 248.84764 166.0024 248.55907 165.82025 248.27484 165.63129 247.9952 165.43569 247.51827 165.10108 247.22577 164.81147 247.058 164.30466 247.00554 164.15296 246.97634 163.99417 246.97138 163.83373 246.96414 163.64785 246.9614 163.46183 246.96314 163.2758Z" fill="#82cd2a" fill-rule="evenodd"/>
<path transform="matrix(1,0,0,-1,0,420.16307)" d="M308.2913 152.13661 303.35716 149.23416 298.17756 152.14954V157.88047L303.2344 160.82498 308.2913 157.88047V152.13661Z" fill="#ffffff" fill-rule="evenodd"/>
<path transform="matrix(1,0,0,-1,0,420.16307)" d="M212.28363 47.531759V45.73769H220.76468C220.76468 45.73769 221.01299 46.91194 220.76468 47.424116 220.56348 47.839136 219.49869 47.71463 218.97061 48.02105 218.79462 48.123174 218.45742 48.55228 218.36878 49.042787 218.32328 49.294588 218.31822 49.381284 218.31822 49.909719V75.141628L231.23822 45.623186C231.4501 45.139089 231.49906 45.082395 231.72782 45.05625 232.17597 45.005037 232.3245 45.06414 232.59932 45.392045 232.73703 45.556337 232.77506 45.628725 232.97969 46.115934L245.06015 74.87892 245.22545 49.475866C245.22888 48.94744 245.22318 48.869768 245.1684 48.699106 245.02318 48.24661 244.47911 47.798574 244.41378 47.776407 243.91117 47.605878 242.7828 47.531759 242.7828 47.531759V45.73769H252.73174V47.531759C252.73174 47.531759 251.66139 47.460874 251.15296 47.531759 250.81455 47.578939 250.0472 48.106035 249.85684 48.699106 249.80208 48.869768 249.79599 48.94744 249.79599 49.475877V77.17305C249.79599 77.701488 249.8097 77.78465 249.9331 78.00475 250.21733 78.51172 250.755 78.81109 251.15296 78.84643 251.71268 78.896129 252.73174 78.84643 252.73174 78.84643V80.8036H244.30486L232.67006 52.84016 221.41707 80.281688V80.8036H212.44672C212.44672 80.8036 212.19995 79.58945 212.44672 79.117168 212.63829 78.75054 214.08075 79.180469 214.79628 78.726779 215.01572 78.58764 215.1939 78.34692 215.33469 78.112018 215.52448 77.79538 215.54473 77.70149 215.53716 77.1731 215.39859 67.50917 214.69605 50.84672 214.97473 48.184148 214.9976 47.965639 214.3505 47.545438 213.97005 47.531759 213.32456 47.508546 212.28363 47.531759 212.28363 47.531759Z" fill="#12685f" fill-rule="evenodd"/>
<path transform="matrix(1,0,0,-1,0,420.16307)" d="M380.11067 76.46847V50.343557C380.11067 49.81512 380.10667 49.71941 380.0704 49.386468 379.98799 48.6288 379.47874 48.00804 379.2952 47.939504 378.67655 47.708475 377.17494 47.531759 377.17494 47.531759V45.73769L390.99909 45.894144C391.52748 45.90012 391.64369 45.91283 392.16117 46.02124 397.60923 47.162584 401.20457 48.979604 404.08598 53.89255 407.91835 60.42691 406.80024 70.12394 402.37345 75.09519 399.10688 78.763538 396.59559 79.52432 391.182 80.68088 390.66505 80.79132 390.5489 80.8036 390.02046 80.8036H377.17494C377.17494 80.8036 376.96867 79.59894 377.17494 79.117168 377.33226 78.749698 378.2868 79.01459 378.969 78.76488 379.3646 78.62007 379.94377 77.97928 380.06013 77.3354 380.10563 77.083599 380.11067 76.9969 380.11067 76.46847Z" fill="#12685f" fill-rule="evenodd"/>
<path transform="matrix(1,0,0,-1,0,420.16307)" d="M412.66926 48.8622C412.41468 48.068994 411.29756 47.56904 410.80558 47.531759 410.32954 47.495687 409.63127 47.531759 409.63127 47.531759V45.73769L426.39118 45.895269C426.9196 45.900236 427.0361 45.911344 427.55647 46.006357 434.0317 47.188657 437.43794 50.54636 437.1947 56.697824 437.0779 59.651285 435.09706 62.45233 432.05714 63.515287 430.7081 63.987005 429.40596 64.100368 429.69224 64.55911 429.89109 64.87777 430.8439 65.32419 431.56785 65.798648 435.33177 68.26539 435.5332 73.78816 433.03575 76.88926 431.23777 79.121768 429.5268 79.69515 425.96687 80.65122 425.45625 80.78835 425.3408 80.8036 424.81236 80.8036H409.79438C409.79438 80.8036 409.59983 79.573459 409.79438 79.117168 409.951 78.74983 410.8461 79.1541 411.58845 78.76488 411.87654 78.61382 412.15376 78.31485 412.3845 78.03794 412.69557 77.66467 412.7301 77.56448 412.7301 77.03605V49.638975C412.7301 49.11054 412.72404 49.032865 412.66926 48.8622Z" fill="#12685f" fill-rule="evenodd"/>
<path transform="matrix(1,0,0,-1,0,420.16307)" d="M384.6774 51.429784V75.38224C384.6774 75.910678 384.68144 76.006389 384.71766 76.33933 385.0535 79.42603 390.52824 78.242 392.50608 77.70474 398.968 75.94947 401.43055 70.25437 401.6395 63.678384 401.78367 59.142145 400.21449 53.654745 396.5835 50.87525 395.07408 49.719804 392.76847 48.840875 390.87837 48.51034 389.7592 48.314626 386.8072 48.314626 386.19746 48.51034 385.358 48.779806 384.78907 49.305036 384.71076 50.383157 384.68074 50.796686 384.6774 50.90135 384.6774 51.429784Z" fill="#ffffff" fill-rule="evenodd"/>
<path transform="matrix(1,0,0,-1,0,420.16307)" d="M417.45994 65.146259V75.92372C417.45994 76.452159 417.46604 76.52984 417.52079 76.7005 417.7844 77.52177 418.9922 78.11868 419.30619 78.19404 421.46354 78.71175 425.92945 78.02898 427.24577 77.1339 430.50178 74.919918 430.72593 69.65851 428.06126 66.77723 426.94023 65.565059 425.01557 65.2326 422.79649 65.146259 420.7666 65.067279 417.45994 65.146259 417.45994 65.146259Z" fill="#ffffff" fill-rule="evenodd"/>
<path transform="matrix(1,0,0,-1,0,420.16307)" d="M257.13536 58.731103C256.8895 50.61795 262.80619 44.99496 270.70506 45.248399 280.51985 45.563306 285.7608 55.959775 281.3553 64.65697 277.94316 71.3931 269.35 73.15419 263.16996 69.46834 259.67323 67.38283 257.27629 63.381444 257.13536 58.731103Z" fill="#12685f" fill-rule="evenodd"/>
<path transform="matrix(1,0,0,-1,0,420.16307)" d="M294.49079 66.70229 293.34297 70.528469C293.34297 70.528469 292.5772 70.60591 291.92726 70.528469 291.39216 70.46471 289.48963 69.28289 288.30567 68.595508 287.84846 68.330059 287.7935 68.26428 287.75617 67.93776 287.7285 67.695529 287.67607 67.380878 287.79765 67.21107 288.00938 66.91536 288.7488 67.0589 289.34709 66.94033 289.97038 66.816799 290.25318 66.49119 290.35664 65.918598 290.40214 65.666797 290.4072 65.58009 290.4072 65.05166V49.583524C290.4072 49.055086 290.40214 48.96839 290.35664 48.71659 290.21903 47.954988 289.77128 47.755708 289.10569 47.694856 288.5949 47.648157 287.79765 47.694856 287.79765 47.694856V45.900789H297.09419V47.694856C297.09419 47.694856 296.1397 47.65701 295.6785 47.694856 295.33714 47.722867 295.01649 47.948259 294.78074 48.44523 294.661 48.69759 294.64814 48.784349 294.65196 49.312799 294.68318 53.66728 294.67955 61.446184 294.89237 62.373609 295.91859 66.8456 300.07469 69.813 304.59666 68.16356 305.92637 67.67852 307.0388 66.27887 307.42243 64.26027 307.5214 63.73951 307.5324 63.622934 307.5324 63.094499V49.475877C307.5324 48.94744 307.5263 48.869768 307.47157 48.699106 307.2936 48.144708 306.65818 47.73813 306.33854 47.694856 305.86894 47.631284 304.92286 47.694856 304.92286 47.694856V45.900789H314.2194V47.694856C314.2194 47.694856 313.40238 47.63238 312.9668 47.694856 312.61024 47.746 312.0034 48.17069 311.8338 48.699106 311.77903 48.869768 311.77293 48.94744 311.77293 49.475877V63.63924C311.77293 64.16767 311.76496 64.28473 311.69303 64.80977 311.32347 67.50828 309.68907 69.33943 307.61396 70.36537 304.54985 71.88027 299.58293 71.698818 296.76799 69.14214 295.81788 68.279209 294.49079 66.70229 294.49079 66.70229Z" fill="#12685f" fill-rule="evenodd"/>
<path transform="matrix(1,0,0,-1,0,420.16307)" d="M322.97648 48.836538 325.90696 52.424676C325.90696 52.424676 327.52388 51.97052 328.67634 51.772287 333.50816 50.941167 338.79325 54.232755 340.39649 57.969984 341.45655 60.441015 341.34465 61.81623 340.7227 64.16767 340.47694 65.096828 339.77513 66.50044 339.25483 67.103427 338.58927 67.87471 337.58168 68.77658 337.58168 68.77658L343.2507 68.24511V70.528469C343.2507 70.528469 337.9917 70.1982 334.87403 70.528469 330.84965 70.95479 330.48597 71.941448 327.10408 70.93621 323.2417 69.78816 319.97758 66.96748 319.2754 62.810708 318.95539 60.916204 319.60728 57.8079 320.82484 56.33901 321.6852 55.301027 323.27757 53.904775 323.27757 53.904775 323.27757 53.904775 321.06925 51.1483 320.00935 49.652025 319.09269 48.357957 318.89137 47.369089 319.7647 46.30853 319.95149 46.081697 320.1401 45.948965 320.6324 45.900789 321.19337 45.845884 322.14869 45.900789 322.14869 45.900789 322.14869 45.900789 320.944 44.805509 320.33555 44.106718 318.14128 41.586694 318.57347 37.792547 320.33555 35.788759 324.53425 31.014105 334.47999 31.71756 339.33638 35.21792 342.6396 37.598798 344.2797 42.303754 341.86439 45.574594 340.10527 47.95676 337.31773 48.68979 334.34233 48.836538 330.49714 49.026185 322.97648 48.836538 322.97648 48.836538Z" fill="#12685f" fill-rule="evenodd"/>
<path transform="matrix(1,0,0,-1,0,420.16307)" d="M347.32814 60.256605C346.58903 53.190618 350.04356 47.366785 356.78779 45.65614 365.90388 43.343877 373.81593 50.21271 372.9344 59.600954 372.17536 67.6848 365.05833 72.9241 356.78779 70.93621 352.05537 69.79874 347.87739 65.50732 347.32814 60.256605Z" fill="#12685f" fill-rule="evenodd"/>
<path transform="matrix(1,0,0,-1,0,420.16307)" d="M278.09336 61.72122C279.3311 56.07404 277.55238 49.75773 272.35887 48.184148 271.7129 47.98843 268.5788 47.98843 267.78889 48.184148 261.94566 49.63191 259.72923 58.459966 263.00688 64.57542 265.6392 69.48686 272.51353 70.080448 276.1362 65.798648 276.94514 64.84253 277.75718 63.25511 278.09336 61.72122Z" fill="#ffffff" fill-rule="evenodd"/>
<path transform="matrix(1,0,0,-1,0,420.16307)" d="M336.49897 63.449964C337.3385 59.459589 335.9325 56.573125 333.13868 55.11578 330.05989 53.509778 325.8552 54.665616 324.33143 58.377725 322.58937 62.621557 324.4429 67.19886 328.57197 68.32665 331.98158 69.25794 335.6457 67.50551 336.49897 63.449964Z" fill="#ffffff" fill-rule="evenodd"/>
<path transform="matrix(1,0,0,-1,0,420.16307)" d="M368.53077 59.552026C369.15028 55.577764 367.16505 50.90699 364.45335 49.16273 361.12239 47.020124 356.42698 47.6783 353.93357 50.7937 351.6583 53.63656 351.3164 57.731004 351.9764 61.395025 352.9572 66.84014 357.9427 70.20561 363.31166 68.00046 364.9437 67.33015 366.748 65.501529 367.47065 63.84148 367.93705 62.770048 368.36064 60.643476 368.53077 59.552026Z" fill="#ffffff" fill-rule="evenodd"/>
<path transform="matrix(1,0,0,-1,0,420.16307)" d="M417.45994 50.617559V62.6998L426.17268 62.547C426.70106 62.53773 426.8156 62.51843 427.31849 62.35394 429.98335 61.482255 431.19114 60.511247 432.05714 58.13308 433.33866 54.61384 431.52876 50.284059 427.73509 48.918085 427.1916 48.722398 426.65715 48.608774 425.9997 48.51034 424.6925 48.314626 419.28556 48.314626 418.70927 48.51034 418.45085 48.59811 417.80708 49.001928 417.56269 49.725954 417.4702 49.99996 417.45994 50.089124 417.45994 50.617559Z" fill="#ffffff" fill-rule="evenodd"/>
<path transform="matrix(1,0,0,-1,0,420.16307)" d="M334.44673 45.900789C336.34739 45.804437 337.70323 44.51785 338.11314 43.617425 339.18846 41.255407 338.2914 38.5487 336.7268 37.175085 333.29444 34.161684 325.84834 34.22899 323.59748 38.235216 322.07844 40.938978 323.85295 45.211328 326.50389 45.900789 327.2564 46.0965 332.46357 46.00132 334.44673 45.900789Z" fill="#ffffff" fill-rule="evenodd"/>
<path transform="matrix(1,0,0,-1,0,420.16307)" d="M46.138986 24.562375V28.644883C46.13398 29.98079 45.77373 30.979229 45.058237 31.640202 44.342744 32.301176 43.302019 32.631124 41.936067 32.63005H33.328447C31.96246 32.631124 30.921715 32.301176 30.206212 31.640202 29.49071 30.979229 29.130457 29.98079 29.125456 28.644883V24.562375H46.138986ZM43.711084 27.233368H31.553355V28.596209C31.546267 29.025647 31.669882 29.359259 31.924199 29.597048 32.178518 29.834839 32.606077 29.955508 33.206869 29.959057H42.057645C42.658437 29.955508 43.08598 29.834839 43.340276 29.597048 43.594575 29.359259 43.718179 29.025647 43.711084 28.596209V27.233368Z"/>
<path transform="matrix(1,0,0,-1,0,420.16307)" d="M46.138986 33.72701V36.205736L42.808599 36.691759V39.729413H42.760046L46.138986 40.215436V42.888608L29.125456 40.118234V36.49735L46.138986 33.72701ZM40.502248 37.007677 32.08816 38.174135V38.222738L40.502248 39.413496V37.007677Z"/>
<path transform="matrix(1,0,0,-1,0,420.16307)" d="M46.138986 46.270654V48.941644H31.553355V51.737226H29.125456V43.47507H31.553355V46.270654H46.138986Z"/>
<path transform="matrix(1,0,0,-1,0,420.16307)" d="M46.138986 52.32369V54.80241L42.808599 55.288438V58.326089H42.760046L46.138986 58.81211V61.485284L29.125456 58.71491V55.094026L46.138986 52.32369ZM40.502248 55.60435 32.08816 56.77081V56.819414L40.502248 58.010175V55.60435Z"/>
<path transform="matrix(1,0,0,-1,0,420.16307)" d="M46.138986 62.77672V66.9808C46.135 68.31977 45.790925 69.33037 45.10676 70.01259 44.422597 70.69482 43.422258 71.03691 42.105737 71.03887H40.646326C39.74134 71.04545 38.985597 70.89268 38.379095 70.58056 37.77259 70.26844 37.345438 69.757518 37.09763 69.047779H37.04907C36.807317 69.64001 36.41043 70.07597 35.858419 70.35569 35.306406 70.6354 34.593053 70.773998 33.71836 70.77147H33.037244C31.725815 70.779628 30.745726 70.465869 30.096976 69.830188 29.448224 69.19451 29.124386 68.18798 29.125456 66.8106V62.77672H46.138986ZM36.05363 65.447719H31.553355V66.73759C31.550316 67.209629 31.690192 67.55542 31.972983 67.77496 32.255777 67.99451 32.699724 68.10301 33.304826 68.10047H34.25353C34.92451 68.09591 35.39481 67.95293 35.664419 67.67153 35.93403 67.39013 36.063768 66.99769 36.05363 66.49421V65.447719ZM43.711084 65.447719H38.48153V66.64011C38.46886 67.244419 38.615816 67.68447 38.922399 67.960269 39.228975 68.23606 39.771188 68.37193 40.54903 68.36788H42.032766C42.656057 68.366359 43.093877 68.24773 43.346235 68.01198 43.598588 67.77623 43.720205 67.4325 43.711084 66.9808V65.447719Z"/>
<path transform="matrix(1,0,0,-1,0,420.16307)" d="M46.138986 71.89274V74.37146L42.808599 74.85749V77.89514H42.760046L46.138986 78.381168V81.05434L29.125456 78.28396V74.66308L46.138986 71.89274ZM40.502248 75.1734 32.08816 76.33986V76.388469L40.502248 77.57922V75.1734Z"/>
<path transform="matrix(1,0,0,-1,0,420.16307)" d="M46.382078 85.82046C46.375055 87.137218 46.000638 88.13772 45.25882 88.821979 44.517007 89.50623 43.449926 89.85035 42.057584 89.85433 41.028238 89.871547 40.102228 89.66108 39.27956 89.22293 38.45689 88.78478 37.567358 88.01568 36.610956 86.91561 35.865285 86.05263 35.216875 85.448238 34.665727 85.10243 34.11458 84.75663 33.53912 84.590328 32.93934 84.60351 32.36084 84.60604 31.943436 84.72266 31.687125 84.95336 31.430815 85.18407 31.305195 85.51364 31.31026 85.94209 31.30418 86.37051 31.431828 86.70006 31.693205 86.93075 31.95458 87.16143 32.38617 87.27804 32.987974 87.28058H33.862749V89.80571H33.158205C31.789177 89.80628 30.736287 89.48343 29.999539 88.83714 29.26279 88.19086 28.890398 87.217708 28.882363 85.917697 28.891413 84.61366 29.261778 83.62432 29.993456 82.949687 30.725136 82.27505 31.763833 81.93599 33.109548 81.93251 34.05835 81.91631 34.938768 82.13083 35.750799 82.576068 36.562829 83.0213 37.449327 83.79446 38.410287 84.895549 39.15241 85.757549 39.80791 86.357898 40.376787 86.696598 40.945665 87.03529 41.57077 87.19754 42.252107 87.18334 42.876199 87.17878 43.31793 87.054058 43.57729 86.80917 43.836656 86.56429 43.962285 86.22663 43.954179 85.79619 43.96127 85.365749 43.837667 85.02808 43.58337 84.783199 43.32907 84.538318 42.901529 84.41359 42.300737 84.409038H41.13429V81.883899H42.106107C43.4752 81.88383 44.528127 82.21174 45.264886 82.86764 46.001649 83.52353 46.374044 84.507808 46.382078 85.82046Z"/>
<path transform="matrix(1,0,0,-1,0,420.16307)" d="M46.138986 91.38886V98.678638H43.711084V94.05985H38.48153V97.73057H36.05363V94.05985H31.553355V98.678638H29.125456V91.38886H46.138986Z"/>
<path transform="matrix(1,0,0,-1,0,420.16307)" d="M46.382078 166.4912C46.375055 167.80796 46.000638 168.80846 45.25882 169.4927 44.517007 170.17697 43.449926 170.52109 42.057584 170.52507 41.028238 170.54228 40.102228 170.33182 39.27956 169.89368 38.45689 169.45552 37.567358 168.68642 36.610956 167.58635 35.865285 166.72336 35.216875 166.11898 34.665727 165.77318 34.11458 165.42737 33.53912 165.26107 32.93934 165.27425 32.36084 165.27678 31.943436 165.3934 31.687125 165.6241 31.430815 165.8548 31.305195 166.18439 31.31026 166.61283 31.30418 167.04125 31.431828 167.3708 31.693205 167.60149 31.95458 167.83217 32.38617 167.94878 32.987974 167.95131H33.862749V170.47646H33.158205C31.789177 170.47702 30.736287 170.15416 29.999539 169.50788 29.26279 168.86159 28.890398 167.88845 28.882363 166.58843 28.891413 165.2844 29.261778 164.29506 29.993456 163.62042 30.725136 162.94579 31.763833 162.60674 33.109548 162.60326 34.05835 162.58705 34.938768 162.80156 35.750799 163.2468 36.562829 163.69203 37.449327 164.4652 38.410287 165.56629 39.15241 166.42829 39.80791 167.02864 40.376787 167.36733 40.945665 167.70603 41.57077 167.86827 42.252107 167.85408 42.876199 167.84952 43.31793 167.7248 43.57729 167.47992 43.836656 167.23503 43.962285 166.89737 43.954179 166.46692 43.96127 166.03649 43.837667 165.69882 43.58337 165.45394 43.32907 165.20905 42.901529 165.08434 42.300737 165.07978H41.13429V162.55463H42.106107C43.4752 162.55457 44.528127 162.88248 45.264886 163.53838 46.001649 164.19428 46.374044 165.17855 46.382078 166.4912Z"/>
<path transform="matrix(1,0,0,-1,0,420.16307)" d="M46.138986 172.0596V179.34938H43.711084V174.73059H38.48153V178.4013H36.05363V174.73059H31.553355V179.34938H29.125456V172.0596H46.138986Z"/>
<path transform="matrix(1,0,0,-1,0,420.16307)" d="M46.138986 180.88391V183.5549H38.84617V184.47974C38.834524 185.0821 38.985445 185.5141 39.29893 185.77573 39.612424 186.03736 40.15837 186.16513 40.936777 186.15904H44.048379C44.71435 186.16005 45.181295 186.18231 45.449205 186.22582 45.717115 186.26932 45.94704 186.328 46.138986 186.40186V189.12175C45.828027 188.9926 45.507955 188.91056 45.178766 188.87561 44.849576 188.84067 44.48088 188.82547 44.072687 188.83003H41.082635C40.1184 188.83965 39.33059 188.71115 38.719205 188.44457 38.10782 188.17798 37.696935 187.7156 37.486547 187.05747H37.43799C37.195226 187.65087 36.7943 188.09098 36.23522 188.3778 35.676145 188.66463 34.95877 188.80728 34.08311 188.80577H33.03715C31.725768 188.81394 30.745705 188.50017 30.096964 187.86447 29.448222 187.22878 29.124386 186.22223 29.125456 184.8448V180.88391H46.138986ZM36.41827 183.5549H31.553355V184.77179C31.550316 185.24385 31.690182 185.58965 31.972954 185.8092 32.255727 186.02875 32.69965 186.13726 33.30472 186.13472H34.61825C35.289205 186.13016 35.75948 185.98717 36.029077 185.70577 36.298677 185.42436 36.428407 185.0319 36.41827 184.52841V183.5549Z"/>
<path transform="matrix(1,0,0,-1,0,420.16307)" d="M46.138986 192.5515V196.09943L29.125456 198.67534V196.22093L42.32311 194.47127V194.42267L29.125456 192.673V189.97562L46.138986 192.5515Z"/>
<path transform="matrix(1,0,0,-1,0,420.16307)" d="M46.138986 199.96677V207.25655H43.711084V202.63776H38.48153V206.30847H36.05363V202.63776H31.553355V207.25655H29.125456V199.96677H46.138986Z"/>
<path transform="matrix(1,0,0,-1,0,420.16307)" d="M46.138986 208.79108V211.46207H38.84617V212.3869C38.834524 212.98928 38.985445 213.42127 39.29893 213.68289 39.612424 213.94452 40.15837 214.0723 40.936777 214.06621H44.048379C44.71435 214.06722 45.181295 214.08948 45.449205 214.13298 45.717115 214.17649 45.94704 214.23517 46.138986 214.30904V217.02892C45.828027 216.89977 45.507955 216.81774 45.178766 216.78278 44.849576 216.74784 44.48088 216.73265 44.072687 216.7372H41.082635C40.1184 216.74681 39.33059 216.61833 38.719205 216.35173 38.10782 216.08515 37.696935 215.62279 37.486547 214.96465H37.43799C37.195226 215.55803 36.7943 215.99814 36.23522 216.28498 35.676145 216.57181 34.95877 216.71446 34.08311 216.71294H33.03715C31.725768 216.7211 30.745705 216.40734 30.096964 215.77164 29.448222 215.13594 29.124386 214.1294 29.125456 212.75199V208.79108H46.138986ZM36.41827 211.46207H31.553355V212.67897C31.550316 213.15102 31.690182 213.49683 31.972954 213.71637 32.255727 213.93592 32.69965 214.04442 33.30472 214.04189H34.61825C35.289205 214.03733 35.75948 213.89434 36.029077 213.61293 36.298677 213.33153 36.428407 212.93907 36.41827 212.43558V211.46207Z"/>
<path transform="matrix(1,0,0,-1,0,420.16307)" d="M46.138986 304.2172V307.7655L34.667058 308.98066V309.02928L46.138986 310.24446V313.574L29.125456 315.29966V312.99073L42.203905 311.79988V311.75126L29.125456 310.4875V307.57106L42.203905 306.30729V306.25868L29.125456 305.0678V302.49165L46.138986 304.2172Z"/>
<path transform="matrix(1,0,0,-1,0,420.16307)" d="M46.138986 316.664V323.9538H43.711084V319.335H38.48153V323.0057H36.05363V319.335H31.553355V323.9538H29.125456V316.664H46.138986Z"/>
<path transform="matrix(1,0,0,-1,0,420.16307)" d="M46.138986 325.4883V329.69239C46.135 331.03138 45.790925 332.04197 45.10676 332.72419 44.422597 333.4064 43.422258 333.7485 42.105737 333.75047H40.646326C39.74134 333.75706 38.985597 333.60429 38.379095 333.29216 37.77259 332.98005 37.345438 332.46913 37.09763 331.75938H37.04907C36.807317 332.3516 36.41043 332.78758 35.858419 333.0673 35.306406 333.347 34.593053 333.4856 33.71836 333.48307H33.037244C31.725815 333.4912 30.745726 333.17747 30.096976 332.54179 29.448224 331.9061 29.124386 330.89958 29.125456 329.5222V325.4883H46.138986ZM36.05363 328.1593H31.553355V329.4492C31.550316 329.92124 31.690192 330.267 31.972983 330.48655 32.255777 330.7061 32.699724 330.8146 33.304826 330.81208H34.25353C34.92451 330.8075 35.39481 330.66453 35.664419 330.38313 35.93403 330.1017 36.063768 329.7093 36.05363 329.2058V328.1593ZM43.711084 328.1593H38.48153V329.3517C38.46886 329.95603 38.615816 330.39607 38.922399 330.67189 39.228975 330.94767 39.771188 331.08354 40.54903 331.07948H42.032766C42.656057 331.07795 43.093877 330.95933 43.346235 330.72358 43.598588 330.48783 43.720205 330.1441 43.711084 329.69239V328.1593Z"/>
</g>
</svg>
