<?xml version="1.0" encoding="UTF-8" standalone="no"?>
<svg
   xmlns:dc="http://purl.org/dc/elements/1.1/"
   xmlns:cc="http://creativecommons.org/ns#"
   xmlns:rdf="http://www.w3.org/1999/02/22-rdf-syntax-ns#"
   xmlns:svg="http://www.w3.org/2000/svg"
   xmlns="http://www.w3.org/2000/svg"
   viewBox="0 0 1045.1517 500.92725"
   height="500.92725"
   width="1045.1517"
   xml:space="preserve"
   id="svg2"
   version="1.1"><metadata
     id="metadata8"><rdf:RDF><cc:Work
         rdf:about=""><dc:format>image/svg+xml</dc:format><dc:type
           rdf:resource="http://purl.org/dc/dcmitype/StillImage" /></cc:Work></rdf:RDF></metadata><defs
     id="defs6" /><g
     transform="matrix(1.3333333,0,0,-1.3333333,0,500.92726)"
     id="g10"><path
       id="path12"
       style="fill:#ffffff;fill-opacity:1;fill-rule:evenodd;stroke:none"
       d="M 61.112877,292.13776 H 0 v 83.55768 h 62.182492 c 0,0 -1.240661,-41.81806 -1.161814,-70.09952 0.0189,-6.78022 0.0922,-13.45816 0.0922,-13.45816 z" /><path
       id="path14"
       style="fill:#ffffff;fill-opacity:1;fill-rule:evenodd;stroke:none"
       d="M 134.09789,0 H 71.374686 V 375.69544 H 205.47258 v -83.55768 h -71.37469 z" /><path
       id="path16"
       style="fill:#ffffff;fill-opacity:1;fill-rule:evenodd;stroke:none"
       d="M 299.5574,0 H 236.83419 V 375.69544 H 299.5574 Z" /><path
       id="path18"
       style="fill:#ffffff;fill-opacity:1;fill-rule:evenodd;stroke:none"
       d="M 718.34296,172.56232 V 56.121863 L 681.93646,0 H 655.89011 V 146.69713 H 538.04955 l -36.26388,55.80774 -0.54071,114.6625 36.67685,58.52807 h 26.31671 V 229.94069 h 117.9683 z" /><path
       id="path20"
       style="fill:#ffffff;fill-opacity:1;fill-rule:evenodd;stroke:none"
       d="m 718.34296,318.738 v -55.49989 h -45.78254 l -18.56282,28.89965 h -80.02616 v 83.55768 h 108.1144 z" /><path
       id="path22"
       style="fill:#ffffff;fill-opacity:1;fill-rule:evenodd;stroke:none"
       d="m 453.66183,316.45744 v -85.07805 c 0,-1.01777 -0.0148,-1.21714 -0.14775,-1.99374 -0.0986,-0.57612 -0.29609,-1.08976 -0.52815,-1.64385 -1.50179,-3.58588 -23.92674,-39.51713 -23.92674,-39.51713 0,0 22.4134,-36.02751 23.92674,-39.64278 0.23191,-0.55401 0.4295,-1.06772 0.52815,-1.64384 0.13298,-0.7766 0.14775,-0.97597 0.14775,-1.99374 V 58.402422 c 0,-1.01777 -0.0164,-1.210648 -0.16395,-1.928783 -0.10946,-0.53275 -0.32696,-1.011947 -0.55701,-1.501479 C 451.84781,52.64614 429.78665,18.869269 418.11214,0.902532 417.58434,0.090253 417.42836,0 416.5524,0 H 309.29031 v 82.301176 l 81.37795,0.314127 v 64.081827 h -81.37795 v 83.24356 h 81.37795 v 62.19707 h -81.37691 l -0.18373,82.6153 h 107.31877 c 0.87597,0 1.03205,-0.0901 1.56081,-0.90159 11.77617,-18.07166 34.27985,-52.43473 35.13391,-54.38469 0.17521,-0.40002 0.34305,-0.79543 0.42219,-1.22904 0.10668,-0.58449 0.11853,-0.76252 0.11853,-1.7803 z" /><path
       id="path24"
       style="fill:#ffffff;fill-opacity:1;fill-rule:evenodd;stroke:none"
       d="m 538.12277,0.881157 c -13.73164,19.831729 -22.34689,33.299448 -36.29997,55.273077 -0.52006,0.819008 -0.57784,1.023094 -0.57784,2.040865 v 54.576361 h 46.66625 l 18.76054,-30.156157 h 80.02616 V 0 c 0,0 -106.99173,0 -106.99173,0 -0.87596,0 -1.0343,0.088116 -1.58341,0.881157 z" /><path
       id="path26"
       style="fill:#ffffff;fill-opacity:1;fill-rule:evenodd;stroke:none"
       d="m 748.85396,26.781355 v 5.715893 h -25.72151 v -5.715893 h 9.57412 V 1.631428 h 6.57327 v 25.149927 z" /><path
       id="path28"
       style="fill:#ffffff;fill-opacity:1;fill-rule:evenodd;stroke:none"
       d="m 767.85126,12.089748 c 0,0 -0.50822,1.760343 -1.06368,3.545617 -1.95157,6.272402 -6.07314,16.861883 -6.07314,16.861883 h -8.71673 V 1.631428 h 6.57327 v 19.928861 l 7.14487,-19.928861 h 4.4784 l 7.09628,19.711891 V 1.631428 h 6.57328 v 30.86582 h -8.62243 z" /></g></svg>