<?xml version="1.0" encoding="UTF-8" standalone="no"?>
<svg
   xmlns:dc="http://purl.org/dc/elements/1.1/"
   xmlns:cc="http://creativecommons.org/ns#"
   xmlns:rdf="http://www.w3.org/1999/02/22-rdf-syntax-ns#"
   xmlns:svg="http://www.w3.org/2000/svg"
   xmlns="http://www.w3.org/2000/svg"
   viewBox="0 0 1634.4937 406.77979"
   height="406.77979"
   width="1634.4937"
   xml:space="preserve"
   id="svg2"
   version="1.1"><metadata
     id="metadata8"><rdf:RDF><cc:Work
         rdf:about=""><dc:format>image/svg+xml</dc:format><dc:type
           rdf:resource="http://purl.org/dc/dcmitype/StillImage" /></cc:Work></rdf:RDF></metadata><defs
     id="defs6" /><g
     transform="matrix(1.3333333,0,0,-1.3333333,0,406.77979)"
     id="g10"><path
       id="path12"
       style="fill:#ff7f00;fill-opacity:1;fill-rule:nonzero;stroke:#000000;stroke-width:5.75999117;stroke-linecap:butt;stroke-linejoin:miter;stroke-miterlimit:4;stroke-dasharray:none;stroke-opacity:1"
       d="M 65.755866,297.05589 V 261.01313 H 54.082708 v 22.65544 H 42.763283 v -72.67396 h 8.754868 v -17.6536 H 17.294576 v 17.6536 h 8.666435 v 72.67396 H 14.553153 V 261.01313 H 2.879996 v 36.04276 l 3.095155,5.14896 H 62.66071 Z" /><path
       id="path14"
       style="fill:#ff7f00;fill-opacity:1;fill-rule:nonzero;stroke:#000000;stroke-width:5.75999117;stroke-linecap:butt;stroke-linejoin:miter;stroke-miterlimit:4;stroke-dasharray:none;stroke-opacity:1"
       d="m 134.91048,287.49352 v -32.0707 l -6.89778,-11.47484 6.89778,-11.47483 v -21.47854 h 5.39441 v -17.6536 h -17.59817 l -4.59851,7.64989 v 28.83421 l -3.44889,5.88453 H 95.469357 v -24.71503 h 5.040683 v -17.6536 h -27.8564 v 17.6536 h 6.013445 v 73.55664 H 72.65364 v 17.6536 h 53.41354 z m -39.441123,-2.94227 v -31.33513 h 19.278393 l 3.36046,5.59031 v 21.18431 l -2.74143,4.56051 z" /><path
       id="path16"
       style="fill:#ff7f00;fill-opacity:1;fill-rule:nonzero;stroke:#000000;stroke-width:5.75999117;stroke-linecap:butt;stroke-linejoin:miter;stroke-miterlimit:4;stroke-dasharray:none;stroke-opacity:1"
       d="m 215.20765,210.99461 v -17.6536 h -27.94483 v 17.6536 h 6.10188 l -3.00672,18.53627 h -21.48923 l -2.82985,-18.53627 h 6.01344 v -17.6536 h -26.61833 v 17.6536 h 5.04068 l 13.53025,81.50076 5.83658,9.70948 h 21.04705 l 5.83658,-9.56236 13.88398,-81.64788 z m -27.3258,33.98317 -6.10188,37.80811 h -4.68695 l -5.83657,-37.80811 z" /><path
       id="path18"
       style="fill:#ff7f00;fill-opacity:1;fill-rule:nonzero;stroke:#000000;stroke-width:5.75999117;stroke-linecap:butt;stroke-linejoin:miter;stroke-miterlimit:4;stroke-dasharray:none;stroke-opacity:1"
       d="M 276.93389,297.05589 V 267.339 h -12.82278 v 18.09493 h -20.0743 V 254.0988 h 20.95863 v -16.77091 h -20.95863 v -26.33328 h 7.69367 v -17.6536 H 221.2211 v 17.6536 h 6.01344 v 73.55664 h -6.01344 v 17.6536 h 52.61764 z" /><path
       id="path20"
       style="fill:#ff7f00;fill-opacity:1;fill-rule:nonzero;stroke:#000000;stroke-width:5.75999117;stroke-linecap:butt;stroke-linejoin:miter;stroke-miterlimit:4;stroke-dasharray:none;stroke-opacity:1"
       d="M 340.69409,297.05589 V 267.339 h -12.82278 v 18.09493 h -20.0743 V 254.0988 h 20.95863 v -16.77091 h -20.95863 v -26.33328 h 7.69367 v -17.6536 H 284.9813 v 17.6536 h 6.01344 v 73.55664 h -6.01344 v 17.6536 h 52.61764 z" /><path
       id="path22"
       style="fill:#ff7f00;fill-opacity:1;fill-rule:nonzero;stroke:#000000;stroke-width:5.75999117;stroke-linecap:butt;stroke-linejoin:miter;stroke-miterlimit:4;stroke-dasharray:none;stroke-opacity:1"
       d="m 371.46878,284.55125 v -73.55664 h 5.92501 v -17.6536 h -28.74073 v 17.6536 h 6.01345 v 73.55664 h -6.01345 v 17.6536 h 28.74073 v -17.6536 z" /><path
       id="path24"
       style="fill:#ff7f00;fill-opacity:1;fill-rule:nonzero;stroke:#000000;stroke-width:5.75999117;stroke-linecap:butt;stroke-linejoin:miter;stroke-miterlimit:4;stroke-dasharray:none;stroke-opacity:1"
       d="m 445.04504,208.05234 -8.8433,-14.71133 h -40.14858 l -8.8433,14.71133 v 79.29407 l 8.8433,14.85844 h 30.33252 l 3.36045,-5.5903 3.36046,5.5903 h 11.40786 v -37.95523 h -14.76832 v 20.30163 h -22.99258 l -2.74142,-4.56051 v -64.43562 l 2.74142,-4.56051 h 20.78176 l 2.74142,4.56051 v 21.47854 h 14.76831 z" /><path
       id="path26"
       style="fill:#ff7f00;fill-opacity:1;fill-rule:nonzero;stroke:#000000;stroke-width:5.75999117;stroke-linecap:butt;stroke-linejoin:miter;stroke-miterlimit:4;stroke-dasharray:none;stroke-opacity:1"
       d="m 557.974,210.99461 v -17.6536 h -27.94483 v 17.6536 h 6.10187 l -3.00672,18.53627 H 511.6351 l -2.82986,-18.53627 h 6.01345 v -17.6536 h -26.61834 v 17.6536 h 5.04068 l 13.53025,81.50076 5.83658,9.70948 h 21.04706 l 5.83658,-9.56236 13.88398,-81.64788 z m -27.3258,33.98317 -6.10188,37.80811 h -4.68695 l -5.83658,-37.80811 z" /><path
       id="path28"
       style="fill:#ff7f00;fill-opacity:1;fill-rule:nonzero;stroke:#000000;stroke-width:5.75999117;stroke-linecap:butt;stroke-linejoin:miter;stroke-miterlimit:4;stroke-dasharray:none;stroke-opacity:1"
       d="m 638.97863,284.55125 h -6.10187 v -84.1488 l -4.68695,-7.06144 H 611.5644 l -4.68695,6.76721 -23.08101,82.53056 h -0.61903 v -71.64417 h 6.19031 v -17.6536 h -25.38028 v 17.6536 h 6.01345 v 73.55664 h -6.01345 v 17.6536 h 28.29857 l 3.53731,-4.70763 23.16945,-82.82478 h 0.70747 v 69.87881 h -5.48285 v 17.6536 h 24.76124 z" /><path
       id="path30"
       style="fill:#ff7f00;fill-opacity:1;fill-rule:nonzero;stroke:#000000;stroke-width:5.75999117;stroke-linecap:butt;stroke-linejoin:miter;stroke-miterlimit:4;stroke-dasharray:none;stroke-opacity:1"
       d="m 710.9631,287.49352 v -79.44118 l -8.8433,-14.71133 h -56.68556 v 17.6536 h 5.92501 v 73.55664 h -5.92501 v 17.6536 h 56.68556 z m -16.80227,-7.50278 -2.74142,4.56051 h -23.25788 v -73.55664 h 23.25788 l 2.74142,4.56051 z" /><path
       id="path32"
       style="fill:#ff7f00;fill-opacity:1;fill-rule:nonzero;stroke:#000000;stroke-width:5.75999117;stroke-linecap:butt;stroke-linejoin:miter;stroke-miterlimit:4;stroke-dasharray:none;stroke-opacity:1"
       d="m 819.64727,260.27756 -6.89777,-11.47484 6.89777,-11.47483 v -29.27555 l -8.8433,-14.71133 h -54.121 v 17.6536 h 6.01344 v 73.55664 h -6.01344 v 17.6536 h 54.121 l 8.8433,-14.71133 z m -16.80227,20.59586 -2.82986,4.56051 h -20.51645 v -28.09864 h 19.89742 l 3.44889,5.59031 z m 0,-45.16378 -3.44889,5.73742 h -19.89742 v -31.33513 h 20.51645 l 2.82986,4.56051 z" /><path
       id="path34"
       style="fill:#ff7f00;fill-opacity:1;fill-rule:nonzero;stroke:#000000;stroke-width:5.75999117;stroke-linecap:butt;stroke-linejoin:miter;stroke-miterlimit:4;stroke-dasharray:none;stroke-opacity:1"
       d="m 897.11459,210.99461 v -17.6536 h -27.94483 v 17.6536 h 6.10188 l -3.00673,18.53627 h -21.48922 l -2.82985,-18.53627 h 6.01344 v -17.6536 h -26.61834 v 17.6536 h 5.04069 l 13.53025,81.50076 5.83658,9.70948 h 21.04705 l 5.83658,-9.56236 13.88398,-81.64788 z m -27.3258,33.98317 -6.10188,37.80811 h -4.68695 l -5.83658,-37.80811 z" /><path
       id="path36"
       style="fill:#ff7f00;fill-opacity:1;fill-rule:nonzero;stroke:#000000;stroke-width:5.75999117;stroke-linecap:butt;stroke-linejoin:miter;stroke-miterlimit:4;stroke-dasharray:none;stroke-opacity:1"
       d="m 965.38487,287.49352 v -32.0707 l -6.89777,-11.47484 6.89777,-11.47483 v -21.47854 h 5.39442 v -17.6536 h -17.59817 l -4.59852,7.64989 v 28.83421 l -3.44889,5.88453 h -19.18996 v -24.71503 h 5.04068 v -17.6536 h -27.8564 v 17.6536 h 6.01345 v 73.55664 h -6.01345 v 17.6536 h 53.41354 z m -39.44112,-2.94227 v -31.33513 h 19.2784 l 3.36045,5.59031 v 21.18431 l -2.74142,4.56051 z" /><path
       id="path38"
       style="fill:#ff7f00;fill-opacity:1;fill-rule:nonzero;stroke:#000000;stroke-width:5.75999117;stroke-linecap:butt;stroke-linejoin:miter;stroke-miterlimit:4;stroke-dasharray:none;stroke-opacity:1"
       d="m 1040.2876,287.49352 v -32.0707 l -6.8977,-11.47484 6.8977,-11.47483 v -21.47854 h 5.3944 v -17.6536 h -17.5981 l -4.5985,7.64989 v 28.83421 l -3.4489,5.88453 h -19.19 v -24.71503 h 5.0407 v -17.6536 h -27.85641 v 17.6536 h 6.01345 v 73.55664 h -6.01345 v 17.6536 h 53.41351 z m -39.4411,-2.94227 v -31.33513 h 19.2784 l 3.3605,5.59031 v 21.18431 l -2.7415,4.56051 z" /><path
       id="path40"
       style="fill:#ff7f00;fill-opacity:1;fill-rule:nonzero;stroke:#000000;stroke-width:5.75999117;stroke-linecap:butt;stroke-linejoin:miter;stroke-miterlimit:4;stroke-dasharray:none;stroke-opacity:1"
       d="m 1075.6608,284.55125 v -73.55664 h 5.925 v -17.6536 h -28.7407 v 17.6536 h 6.0135 v 73.55664 h -6.0135 v 17.6536 h 28.7407 v -17.6536 z" /><path
       id="path42"
       style="fill:#ff7f00;fill-opacity:1;fill-rule:nonzero;stroke:#000000;stroke-width:5.75999117;stroke-linecap:butt;stroke-linejoin:miter;stroke-miterlimit:4;stroke-dasharray:none;stroke-opacity:1"
       d="m 1146.9378,225.70594 v -27.21596 l -3.0951,-5.14897 h -54.2094 v 17.6536 h 6.0134 v 73.55664 h -6.0134 v 17.6536 h 53.7672 l 3.0952,-5.14896 v -27.21597 h -12.8228 v 15.59401 h -21.2239 v -27.51018 h 22.1082 v -16.77092 h -22.1082 v -31.0409 h 21.6661 v 15.59401 z" /><path
       id="path44"
       style="fill:#ff7f00;fill-opacity:1;fill-rule:nonzero;stroke:#000000;stroke-width:5.75999117;stroke-linecap:butt;stroke-linejoin:miter;stroke-miterlimit:4;stroke-dasharray:none;stroke-opacity:1"
       d="m 1217.5958,287.49352 v -32.0707 l -6.8978,-11.47484 6.8978,-11.47483 v -21.47854 h 5.3944 v -17.6536 h -17.5981 l -4.5986,7.64989 v 28.83421 l -3.4488,5.88453 h -19.19 v -24.71503 h 5.0407 v -17.6536 h -27.8564 v 17.6536 h 6.0134 v 73.55664 h -6.0134 v 17.6536 h 53.4135 z m -39.4411,-2.94227 v -31.33513 h 19.2784 l 3.3604,5.59031 v 21.18431 l -2.7414,4.56051 z" /><path
       id="path46"
       style="fill:#ff7f00;fill-opacity:1;fill-rule:nonzero;stroke:#000000;stroke-width:5.75999117;stroke-linecap:butt;stroke-linejoin:miter;stroke-miterlimit:4;stroke-dasharray:none;stroke-opacity:1"
       d="m 232.35872,33.587697 -9.05437,-14.349393 h -33.86333 l -2.80685,4.591806 -2.98794,-4.591806 h -11.4085 v 28.555293 h 14.39644 V 35.453119 h 26.52929 l 2.35414,3.730842 v 17.50626 l -2.80686,4.591805 H 182.5597 l -9.05436,14.349394 v 35.443 l 9.05436,14.3494 h 31.14702 l 2.8974,-4.59181 2.8974,4.59181 h 11.49904 V 98.303461 H 216.60412 V 109.209 h -23.99407 l -2.26359,-3.73084 V 89.406837 l 2.80685,-4.591806 h 30.15104 l 9.05437,-14.349393 z" /><path
       id="path48"
       style="fill:#ff7f00;fill-opacity:1;fill-rule:nonzero;stroke:#000000;stroke-width:5.75999117;stroke-linecap:butt;stroke-linejoin:miter;stroke-miterlimit:4;stroke-dasharray:none;stroke-opacity:1"
       d="M 305.33691,111.07442 V 33.587697 l -9.05437,-14.349393 h -43.91367 l -9.05437,14.349393 v 77.486723 l 9.05437,14.3494 h 43.91367 z m -42.01226,-2.86988 -2.80685,-4.44831 V 40.905888 l 2.80685,-4.448312 h 22.00211 l 2.80685,4.448312 v 62.850342 l -2.80685,4.44831 z" /><path
       id="path50"
       style="fill:#ff7f00;fill-opacity:1;fill-rule:nonzero;stroke:#000000;stroke-width:5.75999117;stroke-linecap:butt;stroke-linejoin:miter;stroke-miterlimit:4;stroke-dasharray:none;stroke-opacity:1"
       d="M 374.7839,58.84263 V 24.260592 l -3.16903,-5.022288 h -56.22762 v 17.219272 h 6.15697 v 71.746964 h -6.15697 v 17.21928 h 32.143 v -17.21928 h -8.78273 V 36.457576 h 20.64395 V 58.84263 Z" /><path
       id="path52"
       style="fill:#ff7f00;fill-opacity:1;fill-rule:nonzero;stroke:#000000;stroke-width:5.75999117;stroke-linecap:butt;stroke-linejoin:miter;stroke-miterlimit:4;stroke-dasharray:none;stroke-opacity:1"
       d="m 452.74199,108.20454 h -5.97588 V 33.587697 l -9.05437,-14.349393 h -40.6541 l -9.05437,14.349393 v 74.616843 h -6.06642 v 17.21928 h 28.88342 v -17.21928 h -5.6137 V 40.905888 l 2.80685,-4.448312 h 21.00613 l 2.80685,4.448312 v 67.298652 h -5.6137 v 17.21928 h 26.52929 z" /><path
       id="path54"
       style="fill:#ff7f00;fill-opacity:1;fill-rule:nonzero;stroke:#000000;stroke-width:5.75999117;stroke-linecap:butt;stroke-linejoin:miter;stroke-miterlimit:4;stroke-dasharray:none;stroke-opacity:1"
       d="M 523.36604,120.40153 V 85.245513 H 511.41428 V 107.34358 H 499.82469 V 36.457576 h 8.96383 V 19.238304 h -35.0404 v 17.219272 h 8.87328 V 107.34358 H 470.94126 V 85.245513 H 458.9895 v 35.156017 l 3.16903,5.02229 h 58.03849 z" /><path
       id="path56"
       style="fill:#ff7f00;fill-opacity:1;fill-rule:nonzero;stroke:#000000;stroke-width:5.75999117;stroke-linecap:butt;stroke-linejoin:miter;stroke-miterlimit:4;stroke-dasharray:none;stroke-opacity:1"
       d="M 553.69817,108.20454 V 36.457576 h 6.06643 V 19.238304 h -29.42669 v 17.219272 h 6.15697 v 71.746964 h -6.15697 v 17.21928 h 29.42669 v -17.21928 z" /><path
       id="path58"
       style="fill:#ff7f00;fill-opacity:1;fill-rule:nonzero;stroke:#000000;stroke-width:5.75999117;stroke-linecap:butt;stroke-linejoin:miter;stroke-miterlimit:4;stroke-dasharray:none;stroke-opacity:1"
       d="M 631.83735,111.07442 V 33.587697 l -9.05436,-14.349393 h -43.91368 l -9.05437,14.349393 v 77.486723 l 9.05437,14.3494 h 43.91368 z m -42.01226,-2.86988 -2.80685,-4.44831 V 40.905888 l 2.80685,-4.448312 h 22.00211 l 2.80686,4.448312 v 62.850342 l -2.80686,4.44831 z" /><path
       id="path60"
       style="fill:#ff7f00;fill-opacity:1;fill-rule:nonzero;stroke:#000000;stroke-width:5.75999117;stroke-linecap:butt;stroke-linejoin:miter;stroke-miterlimit:4;stroke-dasharray:none;stroke-opacity:1"
       d="m 718.66872,108.20454 h -6.24751 V 26.126013 l -4.79881,-6.887709 h -17.02221 l -4.79882,6.600721 -23.63189,80.500095 h -0.63381 V 36.457576 h 6.33806 V 19.238304 H 641.8877 v 17.219272 h 6.15697 v 71.746964 h -6.15697 v 17.21928 h 28.97397 l 3.62175,-4.59181 23.72244,-80.787086 h 0.72434 v 68.159616 h -5.6137 v 17.21928 h 25.35222 z" /><path
       id="path62"
       style="fill:#ff7f00;fill-opacity:1;fill-rule:nonzero;stroke:#000000;stroke-width:5.75999117;stroke-linecap:butt;stroke-linejoin:miter;stroke-miterlimit:4;stroke-dasharray:none;stroke-opacity:1"
       d="m 786.93864,33.587697 -9.05436,-14.349393 h -33.86333 l -2.80685,4.591806 -2.98795,-4.591806 h -11.4085 V 47.793597 H 741.2141 V 35.453119 h 26.52929 l 2.35413,3.730842 v 17.50626 l -2.80685,4.591805 h -30.15104 l -9.05437,14.349394 v 35.443 l 9.05437,14.3494 h 31.14702 l 2.8974,-4.59181 2.89739,4.59181 h 11.49905 V 98.303461 H 771.18405 V 109.209 h -23.99407 l -2.2636,-3.73084 V 89.406837 l 2.80686,-4.591806 h 30.15104 l 9.05436,-14.349393 z" /><path
       id="path64"
       style="fill:#ff7f00;fill-opacity:1;fill-rule:nonzero;stroke:#000000;stroke-width:5.75999117;stroke-linecap:butt;stroke-linejoin:miter;stroke-miterlimit:4;stroke-dasharray:none;stroke-opacity:1"
       d="M 811.29489,19.238304 809.48401,2.879996 h -9.14491 l 1.81088,16.358308 -4.61773,2.869879 v 21.093608 h 13.76264 z" /><path
       id="path66"
       style="fill:#ff7f00;fill-opacity:1;fill-rule:nonzero;stroke:#000000;stroke-width:5.75999117;stroke-linecap:butt;stroke-linejoin:miter;stroke-miterlimit:4;stroke-dasharray:none;stroke-opacity:1"
       d="M 917.14043,58.84263 V 24.260592 l -3.16903,-5.022288 h -56.22761 v 17.219272 h 6.15697 v 71.746964 h -6.15697 v 17.21928 h 32.143 v -17.21928 h -8.78274 V 36.457576 h 20.64396 V 58.84263 Z" /><path
       id="path68"
       style="fill:#ff7f00;fill-opacity:1;fill-rule:nonzero;stroke:#000000;stroke-width:5.75999117;stroke-linecap:butt;stroke-linejoin:miter;stroke-miterlimit:4;stroke-dasharray:none;stroke-opacity:1"
       d="M 984.59546,58.84263 V 24.260592 l -3.16903,-5.022288 h -56.22762 v 17.219272 h 6.15697 v 71.746964 h -6.15697 v 17.21928 h 32.143 v -17.21928 h -8.78273 V 36.457576 h 20.64395 V 58.84263 Z" /><path
       id="path70"
       style="fill:#ff7f00;fill-opacity:1;fill-rule:nonzero;stroke:#000000;stroke-width:5.75999117;stroke-linecap:butt;stroke-linejoin:miter;stroke-miterlimit:4;stroke-dasharray:none;stroke-opacity:1"
       d="m 1053.5897,33.587697 -9.0543,-14.349393 h -41.1069 l -9.05433,14.349393 v 77.343233 l 9.05433,14.49289 h 31.0565 l 3.4407,-5.45277 3.4406,5.45277 h 11.6802 V 88.40238 h -15.1208 v 19.80216 h -23.5414 l -2.8068,-4.44831 V 40.905888 l 2.8068,-4.448312 h 21.2778 l 2.8068,4.448312 v 20.950114 h 15.1208 z" /></g></svg>