<svg xmlns="http://www.w3.org/2000/svg" xmlns:xlink="http://www.w3.org/1999/xlink" version="1.1" width="783.86386" height="375.69544" viewBox="0 0 783.86386 375.69544">
<g id="layer_1" data-name="Layer 1">
<path transform="matrix(1,0,0,-1,0,375.69544)" d="M61.112878 292.13777H0V375.69544H62.18249C62.18249 375.69544 60.94183 333.87739 61.02068 305.59593 61.03958 298.8157 61.112878 292.13777 61.112878 292.13777Z" fill-rule="evenodd"/>
<path transform="matrix(1,0,0,-1,0,375.69544)" d="M134.0979 0H71.37469V375.69544H205.47258V292.13777H134.0979V0Z" fill-rule="evenodd"/>
<path transform="matrix(1,0,0,-1,0,375.69544)" d="M299.5574 0H236.83419V375.69544H299.5574V0Z" fill-rule="evenodd"/>
<path transform="matrix(1,0,0,-1,0,375.69544)" d="M718.34298 172.56232V56.121866L681.93649 0H655.89016V146.69713H538.04959L501.78569 202.50487 501.24497 317.16737 537.9218 375.69544H564.2385V229.94069H682.20687L718.34298 172.56232Z" fill-rule="evenodd"/>
<path transform="matrix(1,0,0,-1,0,375.69544)" d="M718.34298 318.738V263.2381H672.5604L653.9976 292.13777H573.97146V375.69544H682.0858L718.34298 318.738Z" fill-rule="evenodd"/>
<path transform="matrix(1,0,0,-1,0,375.69544)" d="M453.66184 316.45747V231.3794C453.66184 230.36162 453.64707 230.16225 453.51408 229.38565 453.41545 228.80953 453.218 228.29589 452.98594 227.7418 451.48414 224.15592 429.0592 188.22467 429.0592 188.22467 429.0592 188.22467 451.4726 152.19716 452.98594 148.5819 453.21784 148.02788 453.41545 147.51418 453.51408 146.93805 453.64707 146.16146 453.66184 145.96208 453.66184 144.9443V58.402425C453.66184 57.38465 453.64546 57.191774 453.4979 56.47364 453.38844 55.940889 453.17094 55.461694 452.9409 54.97216 451.8478 52.64614 429.78666 18.869269 418.11216 .902532 417.58436 .090253 417.42839 0 416.5524 0H309.2903V82.30118L390.66828 82.6153V146.69713H309.2903V229.94069H390.66828V292.13777H309.29136L309.10765 374.75306H416.4264C417.30238 374.75306 417.45845 374.6629 417.9872 373.85148 429.76338 355.77983 452.26707 321.41676 453.12113 319.46678 453.29634 319.06678 453.46418 318.67137 453.5433 318.23774 453.65 317.65327 453.66184 317.47523 453.66184 316.45747Z" fill-rule="evenodd"/>
<path transform="matrix(1,0,0,-1,0,375.69544)" d="M538.12277 .881157C524.3911 20.712887 515.7759 34.180608 501.8228 56.154237 501.30274 56.973245 501.24497 57.177328 501.24497 58.1951V112.77146H547.9112L566.67178 82.6153H646.69796V0H539.7062C538.8302 0 538.6719 .088116 538.12277 .881157Z" fill-rule="evenodd"/>
<path transform="matrix(1,0,0,-1,0,375.69544)" d="M748.85397 26.781355V32.49725H723.13247V26.781355H732.70657V1.631428H739.27987V26.781355H748.85397Z" fill-rule="evenodd"/>
<path transform="matrix(1,0,0,-1,0,375.69544)" d="M767.85128 12.089748C767.85128 12.089748 767.343 13.850091 766.7876 15.635365 764.836 21.907767 760.7144 32.49725 760.7144 32.49725H751.9977V1.631428H758.571V21.56029L765.7158 1.631428H770.1943L777.2905 21.343319V1.631428H783.86386V32.49725H775.2414L767.85128 12.089748Z" fill-rule="evenodd"/>
</g>
</svg>
