<svg xmlns="http://www.w3.org/2000/svg" xmlns:xlink="http://www.w3.org/1999/xlink" version="1.1" width="540" height="540" viewBox="0 0 540 540">
<g id="layer_1" data-name="Layer 1">
<path transform="matrix(1,0,0,-1,0,540)" d="M477.2251 366.25846 443.9937 396.5746C443.9937 396.5746 445.34587 391.30653 446.54417 387.30845 451.15379 371.9286 463.76826 353.35816 477.6961 344.6281 480.45075 342.9015 482.65159 342.19258 484.2097 340.66493 485.06657 339.82484 487.85969 325.39234 487.8913 321.6417 487.9182 318.4456 487.8913 314.81764 487.8913 314.81764 487.8913 314.81764 482.2426 325.30137 475.4305 334.8726 468.37785 344.78184 460.07814 353.71293 460.07814 353.71293 460.07814 353.71293 461.7911 343.28794 463.25294 336.39689 464.84977 328.8694 473.24699 306.5187 480.2449 298.5943 483.8628 294.49745 488.8509 290.99488 489.59049 288.43638 490.73747 284.46879 489.59049 267.49864 489.59049 267.49864H489.02409V266.88893H488.11787L472.05683 305.37995C472.05683 305.37995 470.8706 286.25395 471.46574 274.32749 471.9629 264.3644 474.55528 255.72896 477.9793 246.15847 479.13279 242.93442 480.45945 239.46489 481.9441 237.62239 483.26329 235.98526 484.774 234.96646 484.91047 233.606 485.2236 230.48407 480.6037 218.43314 480.6037 218.43314 480.6037 218.43314 478.49186 233.60251 474.8641 247.68276 472.62605 256.36943 469.811 264.6415 469.811 264.6415 469.811 264.6415 467.11039 252.14392 465.80174 243.71958 464.47337 235.16828 464.3656 209.40526 469.48335 198.60036 471.19453 194.98758 472.31736 193.97946 471.856 191.75911 470.98487 187.56662 465.39067 175.9626 465.39067 175.9626L461.51789 223.5152C461.51789 223.5152 458.97624 218.88996 457.30577 215.36765 453.30766 206.93737 448.60157 183.57607 449.94258 173.37018 450.89195 166.1447 454.06639 157.4912 453.34095 155.103 452.19798 151.34021 441.28224 137.41847 441.28224 137.41847 441.28224 137.41847 443.5696 154.95 444.27857 163.48053 444.59098 167.23964 444.59687 169.25089 444.27857 173.35799 443.7893 179.67084 442.5341 190.9352 442.5341 190.9352 442.5341 190.9352 435.07838 174.54535 431.2514 163.5415 428.53144 155.72075 426.64558 146.23683 427.2866 139.09177 428.59007 124.562839 431.72697 121.974788 422.57136 114.3859 419.61393 111.93457 414.8258 108.36192 414.8258 108.36192L424.68247 155.97609C424.68247 155.97609 419.25233 150.17266 415.95863 146.16452 408.7978 137.45043 400.81257 121.0378 399.24986 109.58136 398.31178 102.7041 398.41819 94.58401 396.98426 92.509227 394.8003 89.34925 377.27369 77.60689 377.27369 77.60689 377.27369 77.60689 386.51316 92.703388 392.45307 106.53277 396.53733 116.04183 399.4861 125.64044 399.4861 125.64044 399.4861 125.64044 395.41685 123.55086 392.16987 121.47089 382.16587 115.06248 365.61155 91.600849 362.4339 79.095409 361.44764 75.21398 361.27793 71.668148 360.0376 69.421977 359.3949 68.25801 354.17216 65.44692 350.25636 64.15729 343.0003 61.767595 330.99879 57.755235 330.99879 57.755235 330.99879 57.755235 339.89064 65.73363 347.14115 75.43709 352.96333 83.22899 364.0485 104.88408 364.0485 104.88408 364.0485 104.88408 356.17658 100.83061 350.25636 97.08212 339.92433 90.54025 328.62379 79.01635 323.6356 68.73018 320.7367 62.75239 317.40519 53.79206 317.40519 53.79206 317.40519 53.79206 322.33924 48.835809 326.4676 45.255994 338.2462 35.04243 363.86619 25.791035 381.7481 27.269276 387.09068 27.710927 395.6315 29.185328 395.6315 29.185328 395.6315 29.185328 392.70619 31.250479 390.47068 32.75675 386.28694 35.57569 384.51908 36.43721 381.1251 37.634504 371.45146 41.04704 348.5676 47.187299 348.5676 47.187299 348.5676 47.187299 349.50975 47.96999 350.39418 48.667215 352.25593 50.134897 360.66743 53.267988 361.6976 52.87748 364.13276 51.954389 366.25904 49.39077 369.5139 47.694868 376.7965 43.90037 393.62178 42.45517 401.00569 43.12197 410.5602 43.984796 427.2866 47.085149 427.2866 47.085149 427.2866 47.085149 423.99748 49.04368 421.33943 50.438604 412.34779 55.157308 396.21937 58.027238 386.05278 58.364953 380.47428 58.55026 373.85169 58.364953 373.85169 58.364953 373.85169 58.364953 375.743 60.58871 377.44349 62.32813 379.016 63.93663 386.45793 67.71966 387.63868 67.51074 389.75025 67.13713 391.7392 65.76558 394.43547 64.767009 407.93495 59.767366 432.64436 64.80252 447.11058 73.60793 449.87123 75.28831 453.1331 77.497829 453.1331 77.497829 453.1331 77.497829 446.8244 78.40459 442.12626 79.095409 435.88648 80.0129 425.39009 80.325038 421.62263 79.705127 413.32667 78.34009 399.50108 75.01355 399.50108 75.01355 399.50108 75.01355 403.03657 78.88481 405.76344 81.83914 408.6225 84.93666 414.47154 89.43409 415.6754 89.46063 417.8723 89.509059 420.38713 88.16094 423.86555 87.63147 434.748 85.97501 447.92158 90.59827 457.30577 95.86268 465.59196 100.51115 479.23393 108.91117 479.23393 108.91117 479.23393 108.91117 472.22483 109.25904 467.3593 109.37812 461.61329 109.51875 456.87117 109.0282 451.64176 107.752208 443.15983 105.68258 427.79954 101.33576 427.79954 101.33576 427.79954 101.33576 438.59358 114.58503 441.8204 116.28828 443.20655 117.019939 448.06794 116.35357 452.32145 116.28828 464.7335 116.097728 482.33494 125.068248 490.7233 132.75069 495.3439 136.98249 502.86875 144.66289 502.86875 144.66289 502.86875 144.66289 483.43916 140.58542 472.5985 137.9333 468.08226 136.82842 465.05665 135.97092 462.40336 134.275 460.0415 132.76538 457.02748 130.27486 453.7532 129.1805 452.47578 128.75354 451.00105 128.39644 451.00105 128.39644 451.00105 128.39644 457.70494 141.42324 460.98735 144.94507 462.712 146.79555 463.98506 146.06592 467.84077 146.16452 478.66758 146.44136 493.081 154.59552 499.78569 161.10263 506.81806 167.92781 518.63467 182.51198 518.63467 182.51198 518.63467 182.51198 505.6491 178.44602 497.52009 175.12618 490.9352 172.43695 477.89799 165.7145 472.5985 160.49292 470.35346 158.28087 467.89305 155.42755 467.89305 155.42755L477.38017 176.70404C478.1743 178.48499 478.46308 178.72293 480.26814 179.08345 501.01435 183.22707 506.92018 186.49892 521.02566 204.69756 526.03909 211.16584 533.0335 220.51569 533.0335 220.51569 533.0335 220.51569 523.5918 217.43682 517.34408 214.75792 509.74287 211.49872 499.79643 204.5706 492.9889 198.2955 488.18763 193.86977 481.97279 187.42507 481.97279 187.42507L488.34318 207.69979C488.93116 209.57112 489.19285 209.83879 490.96015 210.37645 505.44279 214.7825 513.94546 220.44643 523.2912 232.74463 530.12216 241.73343 540 257.74314 540 257.74314 540 257.74314 538.487 257.40339 537.0605 257.0056 526.83187 254.15335 507.9649 239.19661 503.18406 233.35436 498.17094 227.22821 491.85609 217.30912 491.85609 217.30912 491.85609 217.30912 491.80317 221.39153 491.85609 224.5744 491.9037 227.43767 494.03553 235.53232 494.97129 236.40296 497.60395 238.8524 502.38963 240.7543 506.58247 244.02445 517.2353 252.33296 524.98489 269.30863 530.088 283.96107 531.7933 288.85725 533.7696 294.936 533.7696 294.936 533.7696 294.936 527.8427 290.89833 523.5744 287.3145 518.76589 283.27705 510.00379 272.4316 506.01606 266.27919 502.20478 260.399 496.8942 250.79453 496.8942 250.79453L497.45707 270.38975C497.51377 272.3643 497.6961 272.69575 499.2805 273.70429 506.1742 278.09248 513.8791 288.9282 515.92807 292.4971 518.38906 296.7837 520.6384 301.80433 522.15847 307.13038 525.2611 318.00199 528.3376 336.57588 528.3376 336.57588 528.3376 336.57588 517.52816 322.95405 511.68006 315.05674 508.53608 310.81105 504.33744 303.2338 502.05128 297.67973 500.3946 293.65498 498.29573 288.3214 498.29573 288.3214 498.29573 288.3214 497.42945 291.8881 496.95368 294.7165 496.22383 299.05555 496.413 301.6571 496.39723 305.14067 496.38829 307.11799 496.54759 307.47419 497.99037 308.70283 508.5352 317.68266 516.6638 338.22779 518.76 348.59129 520.8394 358.87159 522.82626 376.20106 522.82626 376.20106 522.82626 376.20106 511.35795 360.13356 506.01606 351.03016 502.94303 345.7932 499.45155 337.91545 498.0865 330.90943 496.9333 324.9909 496.89405 320.805 494.4955 322.98307 493.5854 323.80955 491.51249 332.1128 491.85609 333.5556 492.51518 336.32313 494.75083 337.79069 496.67048 340.66493 502.838 349.89939 506.4151 372.35008 506.58247 381.63807 506.75425 391.1713 505.9818 404.786 505.9818 404.786 505.9818 404.786 500.8403 396.96699 498.0865 391.57649 495.65455 386.81605 492.91819 377.99656 491.85609 372.67518 490.1521 364.13786 488.82588 350.1675 488.82588 350.1675 488.82588 350.1675 486.8824 353.8783 485.6257 356.82249 484.1328 360.32005 482.8727 365.03059 483.3601 367.09016 483.7991 368.9452 485.56013 371.03004 486.75849 373.2849 492.7316 384.52403 490.73893 407.14707 489.30729 418.09928 488.77168 422.19676 488.3122 425.6265 486.47529 431.5131 485.45814 434.7727 484.01863 438.78565 484.01863 438.78565 484.01863 438.78565 481.80189 432.44245 480.5281 427.85478 478.66996 421.16246 477.38768 409.05354 477.1297 402.09416 476.79335 393.01927 477.1297 379.7211 477.1297 379.7211L468.64 397.85289C467.81407 399.61698 467.82969 400.0004 468.79624 401.6871 471.44526 406.30995 473.3747 416.21763 473.73133 419.50163 474.98957 431.0878 473.00914 447.16383 468.91694 460.1699 466.96336 466.37889 464.16847 474.0443 464.16847 474.0443 464.16847 474.0443 462.56983 468.14573 461.55375 463.21849 460.01496 455.75669 459.07798 440.49964 459.57136 433.70808 460.26219 424.1982 463.37004 407.47029 463.37004 407.47029 463.37004 407.47029 460.48933 412.44569 457.30577 417.1847 454.12794 421.91514 450.64836 426.41004 450.64836 426.41004 450.64836 426.41004 452.1255 431.0062 453.05775 434.56169 456.66059 448.3022 452.55204 468.3844 446.82737 481.51008 443.7154 488.64524 438.93135 497.98283 438.93135 497.98283 438.93135 497.98283 437.7238 486.35423 437.48179 478.21757 437.28837 471.71479 438.04716 458.9097 439.46418 452.85325 440.83525 446.99333 443.75245 438.2943 443.75245 438.2943 443.75245 438.2943 440.87678 440.43113 438.6146 442.18318 436.22734 444.03208 430.85917 450.70243 430.685 452.03623 430.1692 455.98643 431.39167 461.8782 431.2514 467.85237 431.02928 477.3126 427.26896 488.20289 422.7554 496.44819 418.08448 504.981 409.16184 518.9334 409.16184 518.9334 409.16184 518.9334 408.82908 509.70417 409.16184 503.22825 409.49443 496.75575 411.60716 486.66725 413.69303 480.90034 416.38096 473.46903 422.20158 461.36454 422.20158 461.36454 422.20158 461.36454 417.06367 464.82243 413.69303 467.18168 410.9451 469.105 407.57319 472.73484 407.17945 474.19343 406.06379 478.32627 406.44847 485.93916 405.48023 492.48503 403.45753 506.1599 395.00495 520.64498 385.93949 531.20217 382.52995 535.1727 378.06944 540 378.06944 540 378.06944 540 380.40049 526.80728 382.54109 517.7883 385.3291 506.04164 390.5399 491.79927 397.55067 482.7295 400.6985 478.65718 405.06459 473.83204 405.06459 473.83204 405.06459 473.83204 397.31657 475.83473 391.60346 476.93717 384.57746 478.29295 373.87568 478.97993 367.02177 478.46147 360.58735 477.97474 351.03123 476.52009 351.03123 476.52009 351.03123 476.52009 358.53187 472.28648 363.8499 469.62055 373.74696 464.65916 391.78349 459.84877 402.58027 461.3893 407.44483 462.08345 412.5316 464.0631 415.5848 463.8282 416.89955 463.72706 419.30207 461.90745 421.62263 459.2553 425.14106 455.2341 431.27967 448.04286 431.27967 448.04286 431.27967 448.04286 412.9941 453.37467 404.06425 455.597 399.6386 456.69837 397.5109 457.03599 391.9433 457.12129 388.1792 457.17897 382.8428 457.12129 382.8428 457.12129 382.8428 457.12129 394.92607 448.1041 402.93144 443.09776 409.8595 438.76515 418.72163 435.10008 426.72019 433.6471 432.95893 432.51383 439.49714 432.67366 443.14579 431.20823 444.60826 430.62086 447.29838 427.59333 449.37617 424.19645 452.57023 418.97465 457.94035 409.90669 457.94035 409.90669 457.94035 409.90669 437.2417 422.79789 427.2866 426.9402 421.6039 429.30476 416.1111 430.95027 416.1111 430.95027 416.1111 430.95027 429.13566 413.73323 436.91539 405.6 440.60176 401.7462 454.33226 391.77476 462.40336 389.7473 468.01399 388.33796 468.9015 388.04969 471.74894 381.5161 474.00749 376.33375 477.2251 366.25846 477.2251 366.25846Z" fill="#2508ff" fill-rule="evenodd"/>
<path transform="matrix(1,0,0,-1,0,540)" d="M101.60717 494.9239C101.60717 494.9239 101.21833 494.87605 101.04077 494.9239 100.91022 494.95906 100.900478 495.12858 100.874057 495.19825 100.82269 495.3337 100.50002 495.1481 100.19118 494.9239 97.27696 492.80809 89.711429 469.9554 88.8632 466.8768 85.83034 455.86915 84.286067 438.98866 88.714229 427.09889 89.398708 425.26103 89.353878 424.88008 88.2659 423.28919L75.82344 405.09535C75.82344 405.09535 78.34607 414.70277 79.51761 421.14787 81.00248 429.31666 81.13036 443.23756 80.08401 451.26799 78.9396 460.051 76.21523 472.23094 76.21523 472.23094 76.21523 472.23094 74.18711 467.40516 72.720829 463.52336 67.955287 450.90718 64.028408 425.97593 67.05683 414.13609 68.723117 407.62168 72.473178 400.11399 72.15443 397.1615 71.96585 395.41487 70.705249 394.58366 68.75603 390.96678 66.43744 386.66447 63.14452 378.4207 63.14452 378.4207 63.14452 378.4207 62.814916 397.413 62.525644 407.73405 62.359628 413.65733 61.350946 420.6549 59.976846 425.4159 58.456216 430.6846 55.957319 438.18397 55.957319 438.18397 55.957319 438.18397 53.766267 430.05467 52.33046 423.8916 49.066438 409.88108 47.234117 386.28193 53.180059 372.37034 54.62961 368.97886 56.4854 366.80067 57.205823 364.3697 57.560499 363.1729 55.032178 354.7604 53.746458 352.8593 52.56872 351.1179 51.08762 349.16618 51.08762 349.16618 51.08762 349.16618 50.469774 357.53016 49.781663 363.22456 48.680955 372.33335 45.250329 384.4657 41.00248 392.1862 38.50977 396.7167 34.273298 403.41419 34.273298 403.41419 34.273298 403.41419 33.52359 390.03617 33.639295 381.02836 33.773344 370.59199 36.956758 351.66413 41.852079 342.49409 44.28285 337.9407 48.463876 333.34339 48.365667 330.2997 48.249364 326.69526 45.16542 317.50395 45.16542 317.50395 45.16542 317.50395 42.276609 329.795 39.869684 337.00663 37.971677 342.6934 34.646726 349.30433 31.373696 354.3836 26.530739 361.8992 17.661917 373.31556 17.661917 373.31556 17.661917 373.31556 20.225852 353.43376 22.594511 343.1038 25.466517 330.57875 32.3808 316.379 41.972017 307.9144 43.39335 306.66004 43.54074 306.30146 43.44595 304.32859L42.575 286.20246C42.575 286.20246 36.648904 299.44676 32.789693 307.13038 30.395264 311.89765 26.378626 317.81449 22.028113 322.98307 17.994095 327.77568 11.961364 334.8049 11.961364 334.8049 11.961364 334.8049 13.920384 322.70964 15.514524 315.36158 18.08268 303.52394 24.89319 286.93037 31.940096 279.99787 34.48077 277.49845 37.695955 275.17878 40.72413 272.99089 42.249044 271.88908 42.427736 271.5474 42.511064 269.57395L43.332754 250.11421C43.332754 250.11421 32.01065 267.82487 26.276106 275.72984 23.64437 279.35765 22.18945 280.92024 18.34652 284.2659 13.794525 288.22889 5.891994 294.69364 5.891994 294.69364 5.891994 294.69364 12.04554 276.67015 16.930521 265.66947 21.006918 256.4897 29.036208 244.86956 38.73688 238.84183 41.420206 237.17449 43.697046 236.54529 45.25047 235.18352 46.15245 234.3928 48.305086 225.79784 48.365667 222.74524 48.430047 219.50118 48.365667 215.50313 48.365667 215.50313 48.365667 215.50313 43.05058 224.36878 39.303285 229.39118 34.06861 236.40708 22.573027 245.30371 14.948125 249.51192 9.087031 252.74666 0 257.1745 0 257.1745 0 257.1745 11.729925 238.5242 18.34652 229.69605 26.792279 218.42734 34.858694 213.58925 49.25155 208.71067 51.003049 208.11698 51.26465 207.84369 51.867528 205.97785L58.555654 185.27884C58.555654 185.27884 51.15159 193.15938 45.533674 198.2955 37.860208 205.3109 25.9056 212.71068 15.231324 216.28221 11.868619 217.40737 7.813748 218.56362 7.813748 218.56362 7.813748 218.56362 15.218578 208.28858 20.895314 201.03925 24.252898 196.75153 34.377019 186.80908 37.037687 185.18654 40.624216 182.99939 46.291395 180.18675 51.48086 179.08936 55.641637 178.20948 61.935113 177.48166 61.935113 177.48166 61.935113 177.48166 63.993635 171.34406 66.773639 165.67552 69.23894 160.64867 72.27163 155.9907 72.27163 155.9907 72.27163 155.9907 58.533918 166.1109 47.799268 171.46787 36.87403 176.91994 21.698573 181.36565 21.698573 181.36565 21.698573 181.36565 30.487496 170.04824 36.471288 163.5415 43.257799 156.16191 53.36295 149.17589 62.525644 146.77423 68.53101 145.20015 73.90853 145.69312 78.38481 144.0305 79.48081 143.62342 87.526119 131.28858 87.73039 129.7021 87.96387 127.888957 88.08636 125.87021 88.08636 125.87021 88.08636 125.87021 85.23898 128.36386 82.91601 130.00696 79.694118 132.28586 72.36238 134.98819 68.75603 136.10414 58.531969 139.26792 38.107839 142.76605 38.107839 142.76605 38.107839 142.76605 43.601533 136.75279 47.799268 132.75069 56.791486 124.17756 68.49949 118.05037 79.58722 116.41597 86.62191 115.37901 94.28062 115.43288 98.89625 114.08863 100.29323 113.68178 105.65388 108.272197 106.98796 105.92305 108.28533 103.63856 109.82493 100.68771 109.82493 100.68771 109.82493 100.68771 94.286968 104.73787 86.597599 106.53277 82.7521 107.430408 80.869579 107.76399 76.685619 107.752208 70.96442 107.73609 60.93994 107.0742 60.93994 107.0742 60.93994 107.0742 80.998058 94.71203 91.978389 90.07035 96.475399 88.16934 105.047649 85.94185 109.989879 85.802318 115.710948 85.64079 121.724079 87.531749 124.90333 87.21151 126.283428 87.072498 127.819667 85.88613 131.51813 82.279277 134.78296 79.0953 140.24979 73.97306 140.24979 73.97306 140.24979 73.97306 127.64725 76.70771 120.13975 77.87597 115.437908 78.60763 109.86737 78.60763 103.453639 77.87597 97.1053 77.151767 87.24183 75.955379 87.24183 75.955379 87.24183 75.955379 92.32068 72.62463 96.50958 70.25448 107.81444 63.85798 128.1277 59.236268 141.8215 62.32813 146.29244 63.3376 150.0848 65.28078 153.14948 65.68158 154.42125 65.84791 160.56447 62.748029 162.21187 61.10869 163.89669 59.43212 165.8988 57.21914 165.8988 57.21914 165.8988 57.21914 145.95113 55.77197 136.7239 54.70664 132.465 54.214925 130.48995 53.804559 125.962329 51.962903 120.604648 49.783605 111.672649 45.600099 111.672649 45.600099 111.672649 45.600099 126.11614 42.848127 135.55713 41.902536 143.69612 41.08735 164.24524 41.60437 172.23482 47.441789 174.74668 49.27702 177.57369 51.63741 178.9639 51.662618 182.35405 51.72409 194.10675 46.11118 194.10675 46.11118 194.10675 46.11118 178.46128 42.541868 170.14145 40.37824 165.33199 39.1275 162.97052 38.3465 158.24707 35.805345 152.81713 32.8841 144.26578 27.636786 144.26578 27.636786 144.26578 27.636786 151.49398 26.511429 156.51389 26.049838 176.34925 24.225937 201.45105 32.336133 216.58617 46.47543 219.32677 49.035707 222.56322 52.330545 222.56322 52.330545 222.56322 52.330545 219.9764 59.374959 218.00217 63.852426 212.79007 75.67328 201.8353 87.31442 192.23102 93.72867 185.69484 98.093868 176.3205 103.475978 176.3205 103.475978 176.3205 103.475978 181.51757 93.27205 184.86783 86.716899 187.95063 80.685077 192.24958 74.05613 195.3462 70.55933 200.2863 64.98086 208.65659 56.535795 208.65659 56.535795 208.65659 56.535795 207.73978 56.509756 206.8441 56.535795 201.15572 56.701185 181.30406 66.55616 180.05344 68.12046 178.13986 70.51397 177.50492 76.9611 175.80544 82.44886 172.84813 91.99833 162.44994 105.682178 154.84868 113.23968 153.63335 114.448009 146.89032 121.507328 144.6535 122.080608 143.43236 122.39357 141.6154 122.48941 141.6154 122.48941 141.6154 122.48941 143.88536 114.22102 147.20229 105.92305 152.12538 93.606929 161.55821 77.538318 161.55821 77.538318L144.65148 89.09968C143.10247 90.15895 142.91159 90.49532 142.74275 92.46347 141.05217 112.17139 135.58043 132.81546 121.997539 147.68881 119.40942 150.52283 115.635997 154.1945 115.635997 154.1945 115.635997 154.1945 117.65999 138.64423 121.14794 124.21462 123.42585 114.79093 126.32816 105.84522 126.32816 105.84522 126.32816 105.84522 120.29598 109.97625 116.89995 112.934818 107.20154 121.38392 113.26219 126.4041 112.93515 143.3598 112.828739 148.87728 109.422069 161.27858 106.98796 167.50469 103.760379 175.76039 97.68833 188.03433 97.68833 188.03433 97.68833 188.03433 96.55941 178.8807 95.943187 172.50438 95.48705 167.78466 96.027 156.4301 96.91525 152.06272 98.09102 146.28168 99.464099 138.22217 98.77518 138.23816 98.59443 138.24236 98.34777 138.4132 98.20878 138.23816 97.89779 137.84654 98.13478 137.35306 97.30254 137.62845 96.13761 138.01393 94.59594 140.76753 93.11119 143.11592 89.800548 148.35225 86.68938 152.91057 86.59181 154.47232 86.45541 156.65583 87.93453 158.65589 88.8632 162.01721 92.27372 174.36174 89.211338 197.82276 84.332 210.18503 82.35974 215.18195 78.8814 222.70232 78.8814 222.70232 78.8814 222.70232 76.15772 206.24881 75.55282 190.79596 75.20743 181.97252 75.55282 173.47533 75.55282 173.47533 75.55282 173.47533 68.85685 186.16571 68.18963 190.67401 67.80263 193.28894 71.67523 201.4257 73.57042 207.74616 76.03266 215.9577 75.19702 239.93257 73.57042 248.59734 72.40382 254.81174 70.23555 263.67506 70.23555 263.67506 70.23555 263.67506 67.2637 253.9757 64.79124 244.02445 61.60476 231.1994 59.247747 217.95598 59.247747 217.95598 59.247747 217.95598 56.56121 226.18299 55.72885 229.93993 54.99947 233.23209 55.974157 233.28128 58.27765 236.40296 64.50582 244.84333 68.63318 268.5631 68.75603 275.9981 68.93401 286.77006 67.56511 304.24067 67.56511 304.24067L51.24612 263.2507C51.24612 263.2507 49.599645 281.88114 50.631265 286.2048 51.2815 288.93006 58.49189 296.0188 63.09204 301.94776 68.04722 308.33433 74.04334 323.34175 75.83601 330.90943 77.71266 338.83155 79.93903 352.6538 79.93903 352.6538 79.93903 352.6538 72.50704 344.3943 66.49043 335.78718 58.941137 324.98747 53.143938 314.16343 52.33046 315.05674 52.123628 315.28385 52.02047 315.83924 51.952859 316.58103 51.72207 319.11323 55.061807 337.42353 56.01205 338.8358 57.07282 340.41227 61.280447 342.47004 65.07443 344.93296 75.474529 351.6844 86.90878 367.98155 91.41199 379.99183 93.6411 385.93696 96.29612 395.43626 96.29612 395.43626 96.29612 395.43626 85.75228 386.7906 76.11922 377.55296 69.26292 370.9781 62.867998 364.10334 62.867998 364.10334L70.111118 383.98594C70.7811 385.82508 71.05157 386.09049 72.815799 386.64 91.62725 392.4998 102.79921 401.29304 115.48395 418.09928 119.14797 422.9538 123.71197 429.43666 123.71197 429.43666 123.71197 429.43666 115.77199 426.91548 107.83756 423.28187 95.52286 417.6423 82.22944 408.6477 82.22944 408.6477 82.22944 408.6477 88.31453 418.85533 91.69519 424.19645 93.750537 427.44374 95.551448 429.3824 97.07598 429.9888 100.84993 431.48994 108.01027 431.08085 114.634349 432.42768 120.73194 433.66743 130.87104 437.8168 136.15752 440.96376 144.44785 445.8988 157.6788 456.0225 157.6788 456.0225 157.6788 456.0225 149.44855 455.69627 143.97382 455.29216 137.45255 454.81077 134.84098 454.21885 128.79433 452.5484 121.44584 450.51829 109.023929 446.89524 109.023929 446.89524 109.023929 446.89524 114.090297 452.93403 117.46635 456.81645 119.74597 459.43797 123.92612 462.60456 125.11273 462.60877 127.275699 462.61647 130.0267 461.26628 133.32552 460.47474 146.05258 457.421 166.81891 463.0157 179.20384 469.62055 183.29415 471.80189 188.75269 475.03425 188.75269 475.03425 188.75269 475.03425 178.1445 476.5388 171.50081 477.24205 166.38939 477.78309 160.38266 477.55857 155.18852 476.6323 147.76105 475.3078 135.32468 472.69679 135.32468 472.69679 135.32468 472.69679 141.10779 479.41706 144.3703 483.94895 150.56252 492.55039 156.3569 509.86195 158.53028 520.5321 160.04984 527.9924 161.9263 539.14328 161.9263 539.14328 161.9263 539.14328 150.59543 525.3591 145.2199 517.48348 139.98986 509.82109 135.05673 497.7593 134.17511 488.21699 133.64235 482.45057 134.45369 476.72093 133.04232 472.974 132.38674 471.23356 129.7413 468.51799 126.528728 465.96223 123.90725 463.8767 120.504077 461.28007 119.73194 461.63877 117.88503 462.49674 125.234279 475.90763 126.81193 480.29063 128.74999 485.67488 130.79816 497.0997 131.05992 503.94773 131.2574 509.11415 131.05992 517.0655 131.05992 517.0655 131.05992 517.0655 121.079319 501.93708 116.33355 493.09474 112.75321 486.4238 109.28946 476.5187 108.97036 469.13276 108.664638 462.05628 110.58099 454.15904 109.53676 450.8168 109.004558 449.11338 102.80474 441.8589 99.97957 439.6338 98.510288 438.47657 97.35489 437.71614 96.85648 438.45079 96.36481 439.17555 98.68548 444.9557 100.19118 449.19496 101.293468 452.2984 102.175998 458.88893 102.17357 463.99894 102.16826 475.18574 101.60717 494.9239 101.60717 494.9239Z" fill="#2508ff" fill-rule="evenodd"/>
<path transform="matrix(1,0,0,-1,0,540)" d="M210.92218 275.05915C209.5604 266.586 215.565 253.09221 218.56858 249.20705 231.76923 232.13184 259.7053 234.02123 271.24369 251.03621 281.9968 266.8932 280.02864 292.78834 264.1637 304.38664 249.96497 314.7668 229.29254 311.03654 219.13497 297.9846 213.9479 291.3195 212.48519 284.7843 210.92218 275.05915ZM259.6325 278.29066C261.0066 266.5705 259.6142 249.99285 251.70291 244.02445 245.78806 239.56218 238.90302 243.5676 234.99414 249.81678 227.79033 261.3336 226.23435 287.78279 234.42774 299.81376 241.99517 310.92558 252.53565 304.0445 256.2341 293.41169 257.93467 288.52268 259.18009 282.14936 259.6325 278.29066Z" fill="#b92320" fill-rule="evenodd"/>
<path transform="matrix(1,0,0,-1,0,540)" d="M282.22975 258.98704 285.97007 241.89043C285.97007 241.89043 290.50144 239.8946 293.61643 238.84183 304.67546 235.1042 318.95133 238.87964 324.48518 247.98761 330.2124 257.41389 328.661 270.69953 320.23719 276.94929 312.62345 282.59803 295.37913 286.34529 298.1476 297.7895 299.92597 305.14054 307.1351 307.09504 312.874 303.77693 314.61836 302.76838 316.03129 301.38206 317.12199 299.204 318.79975 295.8538 319.76649 288.27656 323.7062 291.213 324.1524 291.5456 324.17848 291.80058 323.96678 293.76289L322.50279 307.33363C322.50279 307.33363 318.10227 308.78236 314.58454 309.56925 305.33033 311.63938 293.2948 309.0165 288.23567 301.03318 282.80439 292.46269 283.50907 280.95967 290.78443 274.5104 301.417 265.08518 312.0465 266.5327 314.0068 254.81647 315.27693 247.22524 309.2511 241.16117 302.66749 242.50014 298.9419 243.25786 294.6977 245.35536 292.76686 248.59734 290.31999 252.70574 287.2912 260.15159 285.91343 260.182 284.3434 260.21669 282.22975 258.98704 282.22975 258.98704Z" fill="#b92320" fill-rule="evenodd"/>
<path transform="matrix(1,0,0,-1,0,540)" d="M179.01126 238.2321H186.7596C186.7596 238.2321 206.51824 294.38145 210.35578 301.33805 211.08876 302.66676 212.36118 303.80137 215.78171 304.62657 217.52524 305.04719 217.71897 305.20234 217.71897 306.17814V308.34983H193.9302C193.9302 308.34983 193.6306 307.1444 193.9302 306.31336 194.5001 304.73255 198.95578 304.4863 200.4438 303.47206 200.70792 303.29203 201.51648 301.91499 201.35807 300.42286 201.29987 299.87467 201.22632 299.60649 200.62258 297.74095L188.57479 260.5144 175.40503 297.35063C174.74588 299.19429 174.65967 299.52137 174.54288 300.6214 174.27498 303.14485 175.07004 304.56889 176.17926 304.6915 177.69988 304.8596 180.90303 304.6915 180.90303 304.6915V308.34983H149.1847C149.1847 308.34983 148.79181 306.169 149.1847 305.0939 149.70758 303.66304 152.12447 304.35395 153.71588 303.77693 156.64307 302.71556 160.18747 292.3782 161.92867 287.61936 168.54615 269.53315 179.01126 238.2321 179.01126 238.2321Z" fill="#b92320" fill-rule="evenodd"/>
<path transform="matrix(1,0,0,-1,0,540)" d="M331.56517 241.01352V238.84183C331.56517 238.84183 350.42594 238.398 361.42573 238.84183 375.0571 239.39185 387.09288 242.64432 388.77146 256.3042 389.68479 263.7365 387.28208 270.68214 381.69148 273.59584 378.08699 275.47444 371.3065 277.63703 371.3065 277.63703 371.3065 277.63703 374.70094 278.71366 376.87709 279.69303 384.80433 283.2606 387.03288 291.4848 383.95707 299.81376 382.22346 304.50825 377.5917 307.19865 371.37129 308.06687 369.54673 308.3215 369.14009 308.34983 367.30494 308.34983H332.13157C332.13157 308.34983 332.01823 307.08244 332.13157 306.31336 332.261 305.4353 332.68589 305.20683 333.26438 304.99638 336.9085 303.6705 338.9947 303.38536 339.37889 297.69023 339.48316 296.1443 339.49476 295.75303 339.49476 293.77754V253.41411C339.49476 251.43863 339.48316 251.04737 339.37889 249.50142 339.10636 245.46164 337.16825 243.04343 333.11833 242.35987 331.7205 242.12395 331.56517 241.9893 331.56517 241.01352ZM354.78755 278.47358V303.47206C354.78755 303.47206 358.6291 304.15614 360.67808 304.0818 365.27619 303.91493 368.4967 298.11027 368.9475 293.2288 369.53306 286.888 367.3216 282.7987 363.2835 279.38816 362.0989 278.38764 360.89686 277.7728 358.97889 277.86387 357.26759 277.9451 354.78755 278.47358 354.78755 278.47358ZM354.78755 254.23114V274.20555C354.78755 274.20555 357.43077 274.30757 359.31874 274.20555 370.66954 273.5921 374.83155 259.52445 369.7971 249.81678 366.89884 244.2282 359.4752 240.7255 356.48674 246.15847 355.8853 247.25177 355.46086 248.68152 355.19129 250.02458 354.8279 251.83499 354.78755 252.25565 354.78755 254.23114Z" fill="#b92320" fill-rule="evenodd"/>
<path transform="matrix(1,0,0,-1,0,540)" d="M430.7648 224.87943C430.7648 224.87943 431.60343 231.34392 432.6674 233.35436 433.20124 234.3631 434.53517 234.95487 436.33766 235.18352 438.3098 235.43367 441.33677 235.30069 441.33677 235.30069 441.33677 235.30069 436.60157 238.51854 434.93815 239.76197 434.19227 240.31954 434.14219 240.77371 434.64979 242.3782 435.36216 244.6299 436.64323 249.67424 436.64323 249.67424L429.24583 243.03826 421.3267 248.33318 425.23298 239.58664 418.6519 233.28937 427.42503 234.09795 430.7648 224.87943Z" fill="#b92320" fill-rule="evenodd"/>
<path transform="matrix(1,0,0,-1,0,540)" d="M112.96473 235.54535 107.6377 231.52519H116.39018L119.22218 222.31844C119.22218 222.31844 120.87744 227.42823 121.71434 229.69605 122.2157 231.05463 122.42336 231.39327 123.13033 231.52519 124.90684 231.85672 129.83615 230.88309 130.49352 231.52519 130.77744 231.80252 130.26448 232.38124 129.36072 233.0495 125.46683 235.92867 123.76578 235.53353 124.82953 238.71988 125.639919 241.14731 127.60948 246.35094 127.60948 246.35094L119.71593 240.40283 111.954669 246.82967C111.954669 246.82967 114.13434 241.65622 114.634349 239.3296 114.78143 238.64522 114.78317 238.20716 114.72359 237.64594 114.64327 236.88942 114.467388 236.67937 112.96473 235.54535Z" fill="#b92320" fill-rule="evenodd"/>
<path transform="matrix(1,0,0,-1,0,540)" d="M404.06425 196.46634 412.16377 194.45427 413.6147 185.08277 418.04518 193.82657 426.77684 191.5886 420.07197 198.80628 424.60237 207.45455C424.60237 207.45455 419.6632 204.52249 417.6578 203.47812 416.60115 202.92781 416.35899 202.90161 415.76606 203.47812 413.91859 205.27437 410.73808 210.01047 410.29463 208.96559 409.91465 208.07025 411.3733 203.07268 411.42744 201.44165 411.4494 200.7798 411.24009 200.6723 410.29463 200.12467 408.50227 199.08644 404.06425 196.46634 404.06425 196.46634Z" fill="#b92320" fill-rule="evenodd"/>
<path transform="matrix(1,0,0,-1,0,540)" d="M126.323657 204.46628 130.87512 196.3332 124.34147 189.2171 133.5181 191.28374 138.42311 183.01194V188.28392C138.42311 190.2594 138.44425 190.54979 138.63446 191.18779 138.77558 191.66109 138.85199 192.08968 139.2727 192.50318 140.86614 194.06926 147.39835 195.41889 147.39835 195.41889L139.48946 198.7298 140.27564 209.17324C140.27564 209.17324 139.30394 207.47087 138.14376 205.83977 136.37778 203.35695 134.17511 201.03925 134.17511 201.03925 134.17511 201.03925 132.07875 202.26305 129.92713 203.17325 128.14437 203.92742 126.323657 204.46628 126.323657 204.46628Z" fill="#b92320" fill-rule="evenodd"/>
<path transform="matrix(1,0,0,-1,0,540)" d="M379.65293 164.49555C379.65293 164.49555 382.47676 163.53966 384.24028 162.9318 385.34684 162.55037 386.03599 162.30599 386.81983 161.74767 387.87648 160.99507 387.97215 160.6932 387.77665 158.72896L386.90446 149.96585C386.90446 149.96585 387.94398 151.96308 389.33787 153.786 391.1661 156.17696 393.60398 158.26807 393.60398 158.26807L401.64305 153.85282 397.26747 162.01721 402.88816 169.41239 396.26237 168.4176C394.44483 168.14473 394.1631 168.20743 393.4448 169.04467 392.91194 169.66576 392.60487 170.25966 392.16987 171.163 391.3202 172.92748 389.9824 175.87256 389.9824 175.87256L388.39387 166.89496 379.65293 164.49555Z" fill="#b92320" fill-rule="evenodd"/>
<path transform="matrix(1,0,0,-1,0,540)" d="M158.88559 157.36669C158.88559 157.36669 161.35236 155.30173 163.06147 152.87143 164.32207 151.07886 165.17049 149.08754 165.17049 149.08754L164.43318 160.46909 171.27425 164.15123C171.27425 164.15123 165.14287 164.58693 163.62787 166.28525 162.11891 167.97679 161.826 175.35482 161.826 175.35482L157.92946 166.79448 148.69332 168.28513 155.36127 161.05933 150.78066 152.18361 158.88559 157.36669Z" fill="#b92320" fill-rule="evenodd"/>
<path transform="matrix(1,0,0,-1,0,540)" d="M261.13914 .441632H277.25798L297.13999 56.535795H280.39668L268.9801 16.973725 257.6501 55.926076 240.92899 57.31069 261.13914 .441632Z" fill="#b92320" fill-rule="evenodd"/>
<path transform="matrix(1,0,0,-1,0,540)" d="M237.17903 12.16811 235.07485 9.445605C233.90113 7.926996 233.67603 7.746613 232.82389 7.641777 229.07839 7.18098 226.78545 10.068362 226.21495 12.831125 225.22335 17.633275 225.84374 25.255394 230.85942 26.659556 232.63858 27.157637 235.70201 25.415665 237.52787 22.89661 238.25508 21.893284 238.53235 21.84055 240.30054 22.369278L246.54541 24.236638C246.54541 24.236638 245.50896 26.334597 244.62293 27.878994 240.3384 35.34707 229.63123 36.659646 222.25016 31.23245 215.77475 26.471167 215.41062 14.344832 218.56858 7.758262 222.2012 .181624 232.40744-2.047277 240.37493 1.96593 241.51432 2.539833 242.41913 3.17927 243.49013 4.709666 245.10056 7.010903 247.0867 11.326667 247.0867 11.326667 247.0867 11.326667 242.50679 13.389457 240.37493 13.855453 239.89134 13.961159 239.53372 13.984701 239.11312 13.932955 238.54616 13.863204 238.35274 13.686719 237.17903 12.16811Z" fill="#b92320" fill-rule="evenodd"/>
<path transform="matrix(1,0,0,-1,0,540)" d="M317.9716 14.465173V21.781804H303.2452V26.659556H319.67079V33.976186H294.18284V.441632H320.23719V7.758262H303.2452V14.465173H317.9716Z" fill="#b92320" fill-rule="evenodd"/>
<path transform="matrix(1,0,0,-1,0,540)" d="M90.68532 268.8158 91.200267 276.03907 92.1101 275.9639C92.084918 275.4323 92.24924 275.15193 92.603069 275.1227 92.79261 275.10704 93.10123 275.1568 93.5289 275.27198L111.31596 280.3083 101.84833 285.2576C99.225559 286.6237 97.10542 287.37355 95.48794 287.50715 94.64129 287.5771 93.99321 287.40144 93.54372 286.98017 93.09422 286.55894 92.81903 285.7299 92.71815 284.49305L91.80831 284.5682 92.46145 293.7299 93.371288 293.65473C93.27821 292.17097 94.738468 290.6341 97.75204 289.0442L116.644199 279.10935 116.55837 277.90547 96.22681 272.19618C93.26905 271.35954 91.72517 270.2077 91.59516 268.74064L90.68532 268.8158Z" fill="#b92320"/>
<path transform="matrix(1,0,0,-1,0,540)" d="M115.12478 307.82948C118.05739 304.10346 119.26294 300.82179 118.74144 297.98448 118.374919 295.9903 117.24642 294.4018 115.35595 293.219 113.46548 292.03617 111.41373 291.68046 109.2007 292.1518 106.651988 292.69465 104.52169 294.0906 102.80982 296.3397 101.09795 298.5888 100.46833 300.94465 100.92095 303.40724 101.28502 305.388 102.226779 306.82157 103.74622 307.7079 105.26568 308.59425 106.97022 308.87095 108.85987 308.538L106.47991 295.5893C106.95987 295.45927 107.31174 295.37043 107.53553 295.32276 109.73613 294.85404 111.68868 295.09184 113.393199 296.0361 115.0977 296.98039 116.1197 298.37599 116.45916 300.2229 116.88226 302.5249 116.02719 305.1478 113.893939 308.0916L115.12478 307.82948ZM107.32227 305.4442C105.82569 305.59608 104.59585 305.3365 103.632747 304.66545 102.66964 303.9944 102.08231 303.08338 101.870769 301.93238 101.64937 300.72785 101.8896 299.55714 102.59146 298.4202 103.29331 297.28327 104.28972 296.46607 105.58066 295.9686L107.32227 305.4442Z" fill="#b92320"/>
<path transform="matrix(1,0,0,-1,0,540)" d="M99.75665 322.4997 100.70499 322.19923C100.66192 321.3169 101.41243 320.63114 102.956508 320.1419 104.002109 319.81065 104.75753 319.6744 105.22279 319.73323 105.68806 319.79203 106.119739 320.0179 106.51782 320.41087 106.91592 320.80384 107.2241 321.3995 107.44238 322.19789L107.887889 323.82734 108.708568 323.56733 107.3935 318.75749 119.10176 315.0479C119.47867 314.9285 119.78674 314.9198 120.02601 315.02177 120.26527 315.12373 120.42963 315.33833 120.51908 315.6655 120.69443 316.30683 120.46932 317.41633 119.84378 318.99403 119.77372 319.17268 119.725109 319.30897 119.697948 319.4029L120.7557 319.06776C122.00588 316.24729 122.44977 314.1743 122.08734 312.8487 121.91872 312.23194 121.57035 311.83967 121.04227 311.67189 120.51418 311.5041 119.81245 311.55888 118.937068 311.8362L106.572269 315.75379 105.75102 312.7501 104.93035 313.0101C105.245258 314.16184 105.256137 315.04725 104.963 315.66633 104.66987 316.2854 103.98834 316.76445 102.91843 317.10343L100.16462 317.97593 99.75665 322.4997Z" fill="#b92320"/>
<path transform="matrix(1,0,0,-1,0,540)" d="M124.723079 337.56636C126.98152 333.33094 127.61601 329.8687 126.62654 327.17967 125.931118 325.28968 124.554409 323.94703 122.49643 323.15168 120.438449 322.3563 118.36076 322.4058 116.263378 323.3001 113.84785 324.33009 111.98714 326.11769 110.681247 328.6629 109.37535 331.2081 109.151798 333.64768 110.01058 335.98158 110.70135 337.85887 111.86837 339.08549 113.51164 339.66148 115.15492 340.23744 116.87785 340.1778 118.68043 339.48258L114.1648 327.21055C114.61501 326.9892 114.94616 326.83335 115.15826 326.7429 117.24386 325.8536 119.20417 325.70744 121.03919 326.30436 122.874217 326.9013 124.11377 328.075 124.75786 329.82545 125.56063 332.0071 125.1602 334.75325 123.55656 338.06376L124.723079 337.56636ZM116.648548 336.73905C115.20213 337.17973 113.94896 337.16377 112.889019 336.69123 111.82908 336.21873 111.09841 335.437 110.69702 334.34617 110.27696 333.2046 110.3166 332.0064 110.815929 330.7516 111.315258 329.4968 112.157978 328.49916 113.344089 327.75859L116.648548 336.73905Z" fill="#b92320"/>
<path transform="matrix(1,0,0,-1,0,540)" d="M115.826457 345.28263 116.33677 351.06718 116.72383 351.86543 122.20102 348.78779C120.82767 351.14463 119.965618 353.0449 119.61485 354.48857 119.26409 355.93226 119.33796 357.1681 119.83645 358.19615 120.029979 358.59526 120.345897 359.02565 120.784198 359.4873L125.974887 356.57063 125.3503 355.28257C123.31086 356.41316 121.986179 356.34953 121.37626 355.09169 120.77221 353.84596 121.1807 352.20439 122.601749 350.167 124.02279 348.12965 125.92986 346.4386 128.32297 345.0939 129.73862 344.29844 130.79627 344.06196 131.4959 344.38447 132.19554 344.70698 132.9295 345.6604 133.69776 347.24479L134.5067 346.79026 129.93233 337.35649 129.12339 337.81105C129.5818 338.8154 129.7284 339.64106 129.56314 340.28794 129.39788 340.93486 128.82653 341.5329 127.84905 342.08216L119.1024 346.99693C118.11369 347.55247 117.42875 347.43717 117.04755 346.65104 116.889209 346.32447 116.751819 345.71684 116.63539 344.82807L115.826457 345.28263Z" fill="#b92320"/>
<path transform="matrix(1,0,0,-1,0,540)" d="M125.677188 362.84178C125.697048 366.6072 126.42266 369.6433 127.85403 371.95005 128.5239 373.02958 129.22826 373.6489 129.9671 373.80799 130.70584 373.9669 131.59864 373.66178 132.64548 372.8926L142.52565 365.78816C142.9999 365.44715 143.38057 365.50798 143.66765 365.9706 143.9477 366.42195 143.95645 367.5659 143.69394 369.40254L144.67404 368.69779C145.1743 365.8442 145.08652 363.8729 144.41072 362.78379 143.8053 361.8081 142.99674 361.68403 141.985 362.41154L139.64537 364.09388C140.1144 361.70576 140.35005 359.80128 140.35237 358.3804 140.35469 356.95954 140.08483 355.81236 139.54277 354.93879 139.0148 354.08793 138.256 353.5835 137.26638 353.42555 136.27674 353.26759 135.3393 353.50688 134.45404 354.14344 132.1671 355.78788 131.65805 360.71507 132.92687 368.9249L131.02988 370.28898C130.45024 370.70576 129.85457 370.86338 129.24286 370.7618 128.63115 370.66026 128.12114 370.28047 127.71284 369.62245 127.01591 368.4993 126.90228 367.1372 127.371959 365.53614 127.84163 363.9351 128.77719 362.50764 130.17865 361.2538L129.47116 360.11366 125.677188 362.84178ZM134.32349 368.19136C133.41843 365.79945 133.04758 363.59913 133.21094 361.5904 133.37429 359.58164 133.9671 358.20973 134.98937 357.47465 135.64278 357.00483 136.3003 356.8486 136.96192 357.00608 137.62355 357.1635 138.17308 357.59474 138.61054 358.2997 139.42208 359.60758 139.46813 361.17393 138.74869 362.9988 138.02925 364.82368 136.55419 366.55455 134.32349 368.19136Z" fill="#b92320"/>
<path transform="matrix(1,0,0,-1,0,540)" d="M135.2625 379.7193 136.97692 385.14369 137.49938 385.78984 142.22739 381.35978C141.58609 384.56523 141.32424 386.95393 141.44182 388.52589 141.55939 390.0978 141.9635 391.31089 142.65413 392.165 144.06035 393.90419 145.80069 393.80189 147.87516 391.85816L155.38909 384.81779C156.2399 384.02058 156.9725 383.6642 157.5869 383.74876 158.20131 383.83326 158.85089 384.27818 159.53569 385.08354L160.22399 384.4386 155.88051 379.06678 155.1922 379.7117C155.52257 380.16184 155.46338 380.5971 155.01468 381.01756L146.16425 389.3102C145.66774 389.77543 145.15679 390.01 144.63137 390.01396 144.10594 390.01789 143.66434 389.7986 143.30654 389.3561 142.2581 388.05946 142.13462 386.05445 142.93605 383.34104 143.73748 380.62763 145.24092 378.2377 147.44638 376.17124 148.56337 375.12464 149.45066 374.61885 150.10825 374.65385 150.76584 374.68885 151.48696 375.17076 152.27159 376.0996L152.95989 375.45469 147.2934 368.4466 146.6051 369.09153C147.25556 369.93754 147.56977 370.6898 147.54773 371.34828 147.5257 372.00679 147.09406 372.73017 146.25279 373.5184L138.92528 380.38414C137.97887 381.27088 137.2329 381.37693 136.68737 380.70225 136.48896 380.45686 136.253 379.90528 135.97948 379.0475L135.2625 379.7193Z" fill="#b92320"/>
<path transform="matrix(1,0,0,-1,0,540)" d="M165.25267 423.78535C166.97003 425.14024 168.73528 425.9747 170.54843 426.2888 172.36157 426.60289 174.28836 426.38078 176.32878 425.62248 178.36922 424.86418 180.12363 423.40663 181.59203 421.2498 183.18779 418.90589 184.03093 416.27693 184.12143 413.36286 184.21195 410.4488 183.74216 407.89616 182.71205 405.7049 181.68193 403.51365 180.26732 401.7083 178.46819 400.2889 175.89214 398.25657 173.05464 397.48533 169.95568 397.97514 166.85669 398.46495 164.34452 400.1239 162.41912 402.952 160.19403 406.22026 159.38935 409.94096 160.00505 414.11415 160.62076 418.28733 162.36997 421.51106 165.25267 423.78535ZM164.38109 420.7381C162.48995 419.2461 161.40847 417.29765 161.13665 414.8927 160.8648 412.4878 161.52678 410.11338 163.12255 407.76948 165.46749 404.32518 168.26575 402.321 171.51732 401.75709 174.76889 401.19316 177.5038 401.7862 179.72205 403.53627 181.49053 404.9315 182.52413 406.8464 182.82288 409.281 183.12163 411.71565 182.50684 414.0554 180.9785 416.30024 179.54756 418.40205 177.78041 420.03987 175.67708 421.21369 173.57375 422.3875 171.48213 422.8517 169.40225 422.6063 167.32239 422.36088 165.64865 421.73814 164.38109 420.7381Z" fill="#b92320"/>
<path transform="matrix(1,0,0,-1,0,540)" d="M183.56104 427.8085 189.02635 430.6362 189.42165 429.75086C188.98165 429.50807 188.84447 429.20118 189.01012 428.83015 189.0874 428.65705 189.22122 428.46754 189.41159 428.26164L198.20858 418.69053 197.91191 424.74348C197.77907 427.3086 197.38597 429.3228 196.73265 430.7861 196.08481 432.2371 194.94162 432.5614 193.3031 431.75907L192.9078 432.64445 198.47728 435.526 198.87256 434.64067C198.38138 434.3865 198.2154 434.08116 198.37462 433.72456 198.45139 433.55259 198.62375 433.324 198.89171 433.03883L207.61457 423.57765 207.25151 430.25688C207.12699 432.61439 206.77315 434.4521 206.18999 435.77006 205.87705 436.47096 205.44867 436.90779 204.90488 437.08055 204.36107 437.2533 203.63225 437.10328 202.71842 436.63047L202.32314 437.5158 209.67375 441.31895 210.06905 440.4336C209.36434 439.9176 208.89522 439.13377 208.66173 438.082 208.42823 437.03028 208.36858 435.3608 208.48278 433.07365L209.14885 419.20454 208.12079 418.6726 199.3897 428.1419C199.33596 426.78205 199.3088 425.69328 199.30829 424.8756L199.29993 423.23646C199.27956 422.65074 199.28806 422.09504 199.32543 421.56944L199.72496 414.3287 198.6969 413.79679 189.26309 424.06053C187.90729 425.55393 186.85077 426.47938 186.09354 426.83689 185.3363 427.19438 184.6239 427.22315 183.95633 426.92317L183.56104 427.8085Z" fill="#b92320"/>
<path transform="matrix(1,0,0,-1,0,540)" d="M213.61374 440.78688 217.77274 444.36256 218.53627 444.60395 220.30249 438.12977C221.3664 441.2022 222.34122 443.3665 223.22696 444.62266 224.1127 445.87879 225.06023 446.6664 226.06954 446.98548 228.1246 447.63517 229.53963 446.5397 230.31456 443.69914L233.1215 433.41017C233.43935 432.24513 233.87822 431.52006 234.43813 431.23493 234.99803 430.94984 235.76798 430.94795 236.74794 431.2293L237.00505 430.2868 230.65743 428.28007 230.4003 429.22257C230.90389 429.41023 231.07187 429.81126 230.90424 430.4257L227.59804 442.5447C227.41255 443.2246 227.09947 443.71858 226.6588 444.02659 226.21813 444.33464 225.73633 444.406 225.21344 444.2407 223.68126 443.75633 222.57379 442.13874 221.89105 439.38798 221.20832 436.6372 221.27889 433.75187 222.10277 430.73188 222.52004 429.20237 223.01444 428.26167 223.58596 427.9098 224.15747 427.55793 225.00617 427.54573 226.13205 427.87324L226.38918 426.93074 218.10807 424.31275 217.85094 425.25526C218.82231 425.5908 219.4635 426.04234 219.77449 426.60987 220.08548 427.17744 220.08383 428.03718 219.76958 429.18913L217.03227 439.2228C216.67873 440.51875 216.10332 441.0407 215.30608 440.78868 215.01613 440.697 214.54129 440.36915 213.88158 439.8051L213.61374 440.78688Z" fill="#b92320"/>
<path transform="matrix(1,0,0,-1,0,540)" d="M253.11434 438.28886C250.89836 434.02754 248.46459 431.6633 245.81302 431.19615 243.94944 430.8678 242.17217 431.44984 240.48123 432.9422 238.79032 434.43458 237.76265 436.37907 237.39829 438.77565 236.97866 441.53575 237.44783 444.17253 238.80585 446.6859 240.16385 449.19935 241.99355 450.65876 244.29489 451.06425 246.14598 451.39036 247.72307 450.9424 249.02616 449.72044 250.32923 448.4984 251.16658 446.8764 251.53823 444.85435L239.43735 442.72239C239.49217 442.19288 239.538 441.80696 239.57485 441.5646 239.93717 439.18147 240.82747 437.29576 242.24573 435.9074 243.66399 434.51905 245.23613 433.97694 246.96215 434.28105 249.11342 434.66004 251.09659 436.4403 252.91167 439.62178L253.11434 438.28886ZM248.30788 445.32206C247.91625 446.88438 247.25992 448.0337 246.3389 448.77003 245.41788 449.50636 244.41954 449.77976 243.34392 449.59025 242.21825 449.39195 241.28357 448.73994 240.53986 447.63429 239.79616 446.5286 239.43376 445.23783 239.45267 443.76194L248.30788 445.32206Z" fill="#b92320"/>
<path transform="matrix(1,0,0,-1,0,540)" d="M264.91059 460.12858 271.39414 463.1306 271.42744 462.29234C270.89216 462.03514 270.63835 461.5584 270.666 460.86219L271.57493 437.9649C271.6193 436.8472 272.09394 436.30915 272.9989 436.35078 273.40687 436.36955 273.90443 436.54264 274.4916 436.8701L274.533 435.82734 269.7388 433.55848 268.84019 433.51713 268.5772 440.14164C266.51838 437.0427 264.99336 435.1154 264.00218 434.3597 263.011 433.60404 262.02159 433.20347 261.03395 433.15803 259.37519 433.08174 258.00727 433.82789 256.93019 435.3965 255.85308 436.96519 255.27313 438.79225 255.19034 440.87773 255.07672 443.74018 255.95078 446.48759 257.8125 449.12 259.67424 451.75239 261.79536 453.12336 264.17585 453.23286 264.70765 453.2573 265.29997 453.1958 265.95277 453.0483 266.6056 452.90083 267.31916 452.66053 268.0935 452.32746L267.87516 457.82743C267.82917 458.98603 267.39466 459.5464 266.57164 459.50856 266.14109 459.48875 265.6023 459.32057 264.95524 459.00404L264.91059 460.12858ZM268.18244 449.60725C267.2647 450.35707 266.37394 450.90669 265.51017 451.25614 264.64637 451.6056 263.8093 451.76167 262.9989 451.7244 261.3908 451.65043 260.13166 450.69465 259.2215 448.85707 258.31135 447.0195 257.90199 444.9489 257.9934 442.64533 258.0697 440.72343 258.55235 439.11036 259.44136 437.80619 260.33036 436.502 261.38264 435.87788 262.5982 435.93379 264.32029 436.013 265.75993 437.2946 266.91719 439.7785 268.07444 442.26243 268.6049 444.7175 268.50859 447.14378 268.47178 448.07066 268.36308 448.8918 268.18244 449.60725Z" fill="#b92320"/>
<path transform="matrix(1,0,0,-1,0,540)" d="M290.7894 448.2853C290.28828 448.96784 289.93409 449.66935 289.7269 450.3898 289.51976 451.11027 289.46495 451.84199 289.5625 452.58497 289.81797 454.53025 290.8722 456.10594 292.72517 457.31205 294.57814 458.51817 296.61845 458.9517 298.84608 458.61268 299.96629 458.4422 301.4125 457.87077 303.18476 456.89833L302.35185 450.55598 300.97773 450.76509C301.10856 452.54417 300.79359 454.06147 300.03279 455.31703 299.272 456.57255 298.2362 457.30009 296.9254 457.49955 295.85386 457.66264 294.9219 457.44389 294.12956 456.84336 293.3372 456.2428 292.87028 455.40388 292.7288 454.32658 292.5926 453.28956 292.81437 452.26686 293.39414 451.25846 293.96113 450.25178 295.42243 448.6088 297.77806 446.32945 299.56556 444.60658 300.74659 443.25315 301.32115 442.26924 301.88163 441.2739 302.07664 440.12727 301.9062 438.82939 301.6274 436.7066 300.4714 434.95527 298.43824 433.57539 296.40504 432.1955 294.23875 431.68055 291.93934 432.0305 290.29328 432.28099 288.5011 432.98088 286.56288 434.13014L287.52354 441.44514 288.86003 441.24174C288.59034 439.1884 288.9182 437.38859 289.84364 435.84233 290.76905 434.29606 291.99235 433.40718 293.51353 433.17567 294.9092 432.96327 296.07014 433.2344 296.99635 433.98908 297.92253 434.74375 298.47434 435.7965 298.65174 437.1474 298.8061 438.32267 298.60807 439.40687 298.0577 440.40003 297.50559 441.37968 296.15669 442.89393 294.011 444.9428 292.83457 446.0588 291.7607 447.17298 290.7894 448.2853Z" fill="#b92320"/>
<path transform="matrix(1,0,0,-1,0,540)" d="M322.0911 438.95085C324.69779 440.88737 326.57243 442.03315 327.71498 442.38816 328.85755 442.74317 329.8902 442.769 330.81294 442.46577 331.67509 442.18244 332.30058 441.62648 332.68943 440.7979 333.0661 439.97315 333.10234 439.02433 332.79804 437.9515L329.68107 426.96107C329.35169 425.79975 329.34809 424.93437 329.67027 424.36488 329.99244 423.79539 330.63465 423.33824 331.59696 422.99345L331.3305 422.05397 324.98497 424.13945 325.2514 425.07893C325.7763 424.9207 326.124 425.14207 326.29447 425.74314L329.47929 436.97273C329.7794 438.03086 329.84333 438.87394 329.67109 439.5019 329.49888 440.12989 329.0923 440.5492 328.45137 440.75984 327.04869 441.22084 325.4579 440.52903 323.679 438.68443 321.9001 436.8398 320.6028 434.4796 319.78724 431.60386 319.32383 429.9699 319.23567 428.7713 319.5227 428.00798 319.80979 427.2446 320.48295 426.67463 321.54225 426.29795L321.2758 425.35847 314.98475 427.426 315.2512 428.3655C315.7677 428.22428 316.0908 428.38233 316.2205 428.83964L319.6388 440.89253C319.84999 441.6371 319.8481 442.29466 319.6332 442.86524 319.41828 443.4358 319.05088 443.80653 318.53099 443.9774 317.08003 444.45426 315.47203 443.77168 313.70698 441.92964 311.94194 440.0876 310.64607 437.7091 309.81938 434.7942 309.36708 433.19944 309.27748 432.0191 309.55058 431.2532 309.82365 430.48735 310.49354 429.9291 311.5602 429.57856L311.29377 428.63905 303.0209 431.35795 303.28736 432.29747C304.2832 431.9987 305.0545 432.00196 305.6013 432.30726 306.14805 432.61259 306.58055 433.3263 306.8988 434.4485L309.8131 444.7242C310.12025 445.80723 309.87724 446.4791 309.08406 446.73979 308.6937 446.86808 308.1344 446.89497 307.4062 446.82048L307.68376 447.7991 312.91709 448.26167 313.77735 447.97895 312.08845 442.02394C314.66355 444.06156 316.53138 445.2608 317.692 445.6217 318.85258 445.9826 319.88658 446.01393 320.79399 445.7157 321.78605 445.38969 322.41969 444.7674 322.69496 443.8489 322.97019 442.93043 322.89118 441.70726 322.45783 440.17933 322.36158 439.83988 322.23933 439.43037 322.0911 438.95085Z" fill="#b92320"/>
<path transform="matrix(1,0,0,-1,0,540)" d="M341.0877 434.4767C344.5569 434.95899 347.44895 434.59083 349.76396 433.37223 350.84736 432.80195 351.51167 432.13334 351.7569 431.36637 352.00199 430.59953 351.84046 429.6063 351.27235 428.38667L346.05293 416.8964C345.80238 416.34489 345.90928 415.9469 346.37358 415.70249 346.8265 415.46409 347.88084 415.6077 349.53657 416.13334L349.0188 414.9935C346.45866 414.07829 344.63209 413.90834 343.5391 414.48368 342.55995 414.9991 342.33763 415.84513 342.87208 417.0217L344.10804 419.74259C341.97224 418.92295 340.25047 418.4169 338.9427 418.22447 337.63496 418.03199 336.54273 418.1665 335.66606 418.628 334.81214 419.07749 334.2463 419.81953 333.96858 420.85417 333.69084 421.8888 333.7858 422.92088 334.25346 423.9504 335.46159 426.61003 339.9295 427.81187 347.65724 427.55598L348.65937 429.7621C348.96559 430.4362 349.03105 431.09275 348.85575 431.73173 348.68046 432.37074 348.2626 432.86405 347.60227 433.21165 346.4751 433.80497 345.20594 433.74409 343.7948 433.02894 342.38365 432.3138 341.1946 431.12489 340.2277 429.46214L339.08348 430.06446 341.0877 434.4767ZM347.16868 425.96794C344.84565 426.61366 342.77043 426.7151 340.943 426.27226 339.11558 425.8294 337.93183 425.01356 337.39179 423.8247 337.0466 423.0648 336.99073 422.34248 337.22416 421.65769 337.45756 420.9729 337.928 420.4443 338.63554 420.07188 339.94807 419.38099 341.3962 419.5413 342.98 420.5528 344.5638 421.5643 345.96006 423.36936 347.16868 425.96794Z" fill="#b92320"/>
<path transform="matrix(1,0,0,-1,0,540)" d="M368.38294 432.18525C367.77906 432.24574 367.30574 431.973 366.9629 431.3671L356.1051 412.1761C355.52497 411.1507 355.32368 410.31623 355.50123 409.67268 355.67875 409.02915 356.19389 408.41184 357.04664 407.8208L356.572 406.98185 349.10328 411.87858 349.5779 412.7175C350.4787 412.15888 351.236 411.94993 351.8498 412.0906 352.46363 412.2313 353.05403 412.80268 353.62095 413.80479L363.02513 430.42649C363.63163 431.49848 363.52357 432.30415 362.7009 432.8435 362.35453 433.0706 361.87965 433.25416 361.27626 433.39418L361.75093 434.23313 368.7884 432.90187 368.38294 432.18525Z" fill="#b92320"/>
<path transform="matrix(1,0,0,-1,0,540)" d="M378.58583 424.75874C377.9871 424.86296 377.4977 424.62528 377.11769 424.04566L365.08073 405.6878C364.4376 404.70695 364.1844 403.889 364.32115 403.23405 364.45793 402.57905 364.93315 401.92573 365.7469 401.27403L365.22068 400.4715 358.0762 405.9 358.60243 406.7025C359.46607 406.07969 360.20854 405.81614 360.82978 405.9119 361.45103 406.00764 362.0759 406.5348 362.7044 407.49339L373.12986 423.3935C373.80226 424.41896 373.74497 425.23063 372.95805 425.82856 372.6267 426.0803 372.1644 426.29795 371.57118 426.4815L372.09739 427.28407 379.03529 425.4442 378.58583 424.75874Z" fill="#b92320"/>
<path transform="matrix(1,0,0,-1,0,540)" d="M391.39704 411.4693 399.58735 402.77696C401.35627 400.8996 402.22456 399.3554 402.19224 398.1444 402.15989 396.93345 401.7166 395.8616 400.86244 394.9289 399.95487 393.93794 398.76698 393.3259 397.29875 393.09278 395.8305 392.85966 394.0819 393.0151 392.05293 393.55915 393.6055 391.87309 394.54063 390.3873 394.8583 389.1018 395.17597 387.8163 394.7609 386.5469 393.61308 385.29365 392.02037 383.55458 389.92173 382.76914 387.31718 382.93736 384.71263 383.10557 382.4988 384.15708 380.67576 386.0919L374.32655 392.83027 374.9672 393.5298C375.7703 392.6966 376.46214 392.28605 377.0427 392.2981 377.62327 392.31016 378.32026 392.76029 379.1337 393.64848L390.70533 406.2834C391.56843 407.22578 391.97779 408.0031 391.9334 408.6154 391.88905 409.22764 391.4967 409.94578 390.75639 410.7698L391.39704 411.4693ZM394.6792 405.2298 388.48506 398.4665 391.1249 395.66484C391.96427 394.77406 392.86775 394.28367 393.8354 394.19367 394.80305 394.1037 395.73976 394.5532 396.6455 395.5422 397.87104 396.88035 398.54969 398.31608 398.6814 399.84938 398.81315 401.38264 398.40519 402.65214 397.45756 403.65788 396.56407 404.6061 395.63795 405.1301 394.6792 405.2298ZM387.8711 397.79615 380.84886 390.1286C381.05897 388.35649 381.66944 386.934 382.68025 385.8612 383.64595 384.83634 384.7397 384.35935 385.96147 384.43028 387.18327 384.5012 388.32713 385.1186 389.39305 386.28248 390.68116 387.68894 391.36097 389.31056 391.4325 391.14735 391.50407 392.98414 390.7772 394.7119 389.25196 396.33064L387.8711 397.79615Z" fill="#b92320"/>
<path transform="matrix(1,0,0,-1,0,540)" d="M402.22923 388.19337 407.12599 383.39299 406.5385 382.90608C406.10084 383.2493 405.5955 383.18345 405.02247 382.70854L395.68666 374.97117C395.0733 374.46284 394.6948 373.91725 394.5512 373.3344 394.4076 372.75157 394.5094 372.21745 394.8566 371.73197 395.74366 370.49168 397.49555 369.97663 400.11228 370.1869 402.729 370.39717 405.2123 371.47608 407.5622 373.4236 408.466 374.17268 409.04856 374.85658 409.30979 375.4753 409.57106 376.09403 409.4712 376.72569 409.0102 377.37025 408.86415 377.57447 408.60496 377.8474 408.23265 378.1891L408.95567 378.78834 413.8988 373.9231 413.31135 373.4362C412.9007 373.85346 412.3832 373.80339 411.75886 373.28593L402.04576 365.23588C401.11183 364.46186 400.9116 363.70188 401.44508 362.95597 401.76206 362.51274 402.3186 362.07005 403.1147 361.62788L402.39164 361.02864 397.5338 364.13084 396.96556 364.92539 401.9666 369.0702C398.6037 368.9863 396.27983 369.19969 394.99494 369.71028 393.71009 370.22084 392.7661 370.89775 392.16307 371.74095 390.88737 373.52467 391.42445 375.3903 393.77436 377.33784L402.01405 384.16676C402.88774 384.89085 402.96504 385.75559 402.246 386.76094 402.09138 386.97715 401.84477 387.25489 401.50617 387.59413L402.22923 388.19337Z" fill="#b92320"/>
<path transform="matrix(1,0,0,-1,0,540)" d="M408.02973 359.85C406.67036 358.84196 405.81706 357.69596 405.4698 356.4121 405.12257 355.12825 405.2528 353.94276 405.8606 352.85563 406.3638 351.95555 407.03074 351.38444 407.8613 351.1423 408.6919 350.90019 409.4981 351.03239 410.27998 351.5389 410.9749 351.98915 411.4404 352.5853 411.6764 353.32737 411.895 354.07408 412.02165 355.3424 412.05635 357.1324 412.08299 358.4076 412.1201 359.57814 412.16767 360.64396 412.21525 361.70979 412.40165 362.54713 412.72694 363.1559 413.04566 363.77644 413.4602 364.252 413.97059 364.58268 415.02388 365.26509 416.2556 365.3505 417.6658 364.83897 419.076 364.32743 420.26469 363.20668 421.2319 361.47663 421.8266 360.4129 422.24989 359.12666 422.50175 357.61787L418.2342 354.85307 417.52839 356.1155C418.7272 356.90809 419.49104 357.89659 419.81993 359.081 420.14884 360.26539 420.0551 361.31935 419.53886 362.2428 419.17286 362.8974 418.6942 363.28395 418.10285 363.4024 417.5115 363.52088 416.95524 363.41127 416.434 363.07359 415.84764 362.69367 415.4603 362.15614 415.2721 361.46095 415.06648 360.77043 414.9517 359.57347 414.92774 357.87007 414.86839 354.93357 414.73384 353.03114 414.52409 352.16279 414.3035 351.28739 413.76426 350.57179 412.9064 350.01603 411.54905 349.13664 410.0098 349.01918 408.28865 349.6636 406.56748 350.30805 405.23637 351.4719 404.2953 353.15519 403.596 354.40596 403.11466 356.06065 402.85127 358.11927L407.3631 361.04234 408.02973 359.85Z" fill="#b92320"/>
<path transform="matrix(1,0,0,-1,0,540)" d="M434.36918 353.26847C434.6123 352.74348 434.65003 352.22633 434.48228 351.71708 434.3145 351.2078 434.0095 350.83448 433.56715 350.59709 433.1248 350.35966 432.66566 350.32667 432.18974 350.4981 431.7138 350.66954 431.36277 350.99946 431.13658 351.48783 430.91603 351.96403 430.88255 352.45677 431.03614 352.96604 431.1897 353.47529 431.49336 353.85169 431.94703 354.09519 432.4234 354.35084 432.8967 354.38383 433.36695 354.1941 433.83717 354.00437 434.17124 353.69584 434.36918 353.26847ZM410.12208 345.4461C410.58018 344.51814 411.0953 343.91804 411.66749 343.64579 412.23963 343.37358 413.04179 343.51445 414.07395 344.0684L423.38029 349.06303C424.09486 349.4465 424.24858 350.07783 423.84144 350.9569 423.6944 351.27439 423.4595 351.5828 423.13676 351.88215 422.9669 352.0349 422.848 352.15403 422.78007 352.23954L423.64778 352.7052 427.5447 348.92344 427.96168 348.02314 415.3717 341.26625C414.36225 340.72447 413.77784 340.12879 413.61845 339.4792 413.459 338.8296 413.59135 338.01643 414.0154 337.03965L413.19877 336.60139 409.30543 345.0078 410.12208 345.4461Z" fill="#b92320"/>
<path transform="matrix(1,0,0,-1,0,540)" d="M429.0589 341.06144 432.6797 336.86174 432.9599 336.05995 427.09318 333.68397C430.0183 332.7696 432.09559 331.8835 433.32493 331.02577 434.55427 330.168 435.35417 329.2092 435.72456 328.14936 436.47877 325.99134 435.56883 324.39109 432.99476 323.3486L423.67118 319.57264C422.61546 319.14506 421.97627 318.62019 421.75364 317.99797 421.531 317.37577 421.58638 316.54908 421.91966 315.5179L421.06559 315.17204 418.73603 321.83763 419.5901 322.1835C419.80128 321.6568 420.1852 321.5062 420.742 321.7317L431.72395 326.1793C432.34004 326.4288 432.77445 326.8015 433.02714 327.29743 433.27983 327.79335 433.3102 328.31584 433.11833 328.86494 432.55604 330.47386 430.97544 331.54286 428.37654 332.07188 425.77763 332.60093 423.10987 332.31129 420.37327 331.20298 418.98725 330.64164 418.15245 330.04118 417.86885 329.40156 417.5852 328.76194 417.63685 327.8499 418.02369 326.66554L417.16963 326.31965 414.1305 335.01554 414.98457 335.36143C415.3674 334.3435 415.83323 333.68867 416.38206 333.39689 416.93089 333.1051 417.72724 333.17057 418.7711 333.59333L427.86338 337.27565C429.03773 337.75126 429.47859 338.40763 429.186 339.2448 429.0796 339.5493 428.74067 340.03474 428.16926 340.70115L429.0589 341.06144Z" fill="#b92320"/>
<path transform="matrix(1,0,0,-1,0,540)" d="M429.67274 298.47154C425.56083 300.53456 423.1902 302.97203 422.56089 305.78388 422.11857 307.76017 422.526 309.71125 423.7832 311.63713 425.04039 313.563 426.76557 314.81034 428.95875 315.37913 431.4846 316.0342 433.96205 315.72599 436.3911 314.45445 438.8202 313.1829 440.30784 311.32688 440.85404 308.88636 441.29338 306.92335 440.9953 305.1971 439.95985 303.70765 438.92439 302.21818 437.48384 301.19905 435.63816 300.65019L432.7661 313.4827C432.27967 313.3846 431.92555 313.3068 431.70378 313.24928 429.5229 312.68367 427.84196 311.58815 426.66093 309.96269 425.47993 308.33723 425.0942 306.6093 425.50389 304.77894 426.01448 302.49763 427.81068 300.50059 430.89253 298.78788L429.67274 298.47154ZM435.832 304.15269C437.25028 304.68894 438.26637 305.4787 438.88023 306.52204 439.49409 307.56535 439.67338 308.65733 439.41807 309.798 439.1509 310.99174 438.4776 311.9468 437.3982 312.66325 436.3188 313.37968 435.09617 313.673 433.7303 313.5433L435.832 304.15269Z" fill="#b92320"/>
<path transform="matrix(1,0,0,-1,0,540)" d="M431.33335 294.26048C429.71485 293.9112 428.51087 293.22038 427.7214 292.18797 426.93199 291.15559 426.61738 290.01087 426.77763 288.75386 426.9103 287.71308 427.31394 286.90513 427.9885 286.33 428.66307 285.75489 429.45237 285.5341 430.3564 285.66764 431.16 285.78639 431.80616 286.1366 432.29487 286.7183 432.7693 287.3117 433.35035 288.42347 434.038 290.05366 434.52967 291.21418 434.9926 292.27409 435.4268 293.23335 435.86097 294.1926 436.33906 294.8829 436.861 295.3043 437.3812 295.7392 437.93638 296.00025 438.52653 296.0874 439.74446 296.26734 440.90769 295.82295 442.01615 294.75419 443.12464 293.68547 443.8064 292.15086 444.06144 290.15043 444.21824 288.92045 444.13597 287.55873 443.81468 286.0653L438.88014 285.33634 438.694 286.79609C440.08604 287.0155 441.1501 287.5996 441.88624 288.5484 442.62239 289.49717 442.9224 290.50547 442.78627 291.57325 442.68977 292.33018 442.3915 292.88859 441.89149 293.2485 441.39149 293.60844 440.84013 293.74388 440.23744 293.65483 439.5594 293.55467 439.00657 293.22514 438.5789 292.66618 438.13697 292.1189 437.593 291.0677 436.94694 289.5125 435.8166 286.83924 434.99598 285.1481 434.4851 284.43916 433.96168 283.72837 433.204 283.2997 432.21208 283.15318 430.64259 282.9213 429.18504 283.46684 427.83946 284.78974 426.4939 286.11265 425.69706 287.74729 425.4489 289.69364 425.26454 291.1399 425.4284 292.86485 425.94053 294.8684L431.1576 295.63914 431.33335 294.26048Z" fill="#b92320"/>
<path transform="matrix(1,0,0,-1,0,540)" d="M433.0551 278.5087C431.41383 278.31913 430.15653 277.74888 429.28324 276.79795 428.4099 275.84703 428.00004 274.73783 428.05354 273.4703 428.09785 272.42088 428.4316 271.5768 429.05488 270.93809 429.67814 270.29939 430.44554 270.00233 431.3571 270.04695 432.1674 270.08659 432.84043 270.37217 433.3762 270.9037 433.89875 271.4482 434.5712 272.4986 435.3936 274.05479 435.98115 275.16246 436.53163 276.1727 437.04496 277.0855 437.5583 277.99836 438.09263 278.63908 438.64799 279.00767 439.20277 279.3899 439.77766 279.59559 440.3727 279.6247 441.6008 279.68476 442.7217 279.12846 443.7354 277.95573 444.7491 276.783 445.29856 275.18809 445.38374 273.171 445.4361 271.93077 445.23927 270.58274 444.79325 269.1269L439.8176 268.88346 439.75547 270.3554C441.16023 270.43778 442.2692 270.9154 443.08235 271.78828 443.8955 272.66117 444.27937 273.63594 444.23393 274.71263 444.2017 275.47587 443.95179 276.06114 443.4842 276.46846 443.01664 276.8758 442.47898 277.06459 441.87129 277.03486 441.1876 277.0014 440.60923 276.72727 440.13618 276.21247 439.64988 275.71067 439.01945 274.717 438.2448 273.23146 436.89356 270.67973 435.93367 269.07585 435.36506 268.4198 434.7838 267.76313 433.9931 267.4103 432.9929 267.3614 431.4103 267.28398 430.00486 267.96977 428.77647 269.41877 427.5481 270.8678 426.8925 272.57359 426.80964 274.53617 426.74806 275.99449 427.05683 277.69627 427.7359 279.64149L432.99644 279.89888 433.0551 278.5087Z" fill="#b92320"/>
</g>
</svg>
