<svg xmlns="http://www.w3.org/2000/svg" xmlns:xlink="http://www.w3.org/1999/xlink" version="1.1" width="183.12027" height="190.75029" viewBox="0 0 183.12027 190.75029">
<g id="layer_1" data-name="Layer 1">
<path transform="matrix(1,0,0,-1,0,190.75029)" d="M58.73687 .077369 175.55374 18.666682C176.04964 18.745596 176.15842 18.750288 176.64144 18.713612 180.14165 18.447836 182.91495 22.167374 183.1085 24.508864 183.17406 25.301976 182.97168 26.794104 182.35524 27.836508 182.1231 28.22906 182.06203 28.310706 181.74465 28.652962L134.18177 79.94352 102.24986 186.89084C102.12258 187.31713 102.06581 187.39632 101.68212 187.68282 99.40054 189.38645 97.35867 190.24213 95.00616 190.62792 94.01114 190.79108 86.93491 190.79108 85.979999 190.62792 83.11353 190.1381 80.71433 189.31334 78.42894 187.42888 78.06183 187.12618 78.00692 187.04517 77.87984 186.61884L43.342264 70.75172 5.687503 64.74768C5.19164 64.66862 5.134264 64.65426 5.113743 64.60414 4.992032 64.30691 4.474393 64.284137 4.016441 64.17032 2.466289 63.785036 .569587 61.105085 .236093 60.091039 .080271 59.617238-.10212 58.057184 .068904 57.130067 .149367 56.693876 .192767 56.60682 .502897 56.259519 22.069575 32.107816 26.045022 27.953135 50.830015 1.546602 51.14971 1.205991 51.233148 1.142613 51.66436 .912818 53.639787-.139884 53.867387 .118055 57.625936 .006332 58.129884-.008648 58.240976-.001544 58.73687 .077369ZM99.39098 140.97597C99.22753 144.79935 98.2798 171.99573 97.15472 173.42572L96.99955 173.56624C96.79838 174.34723 96.70479 175.64273 97.5163 176.14043 98.3709 176.66457 100.757778 177.82422 101.51209 176.35044L102.48049 173.32437 105.6347 161.66504V160.44126L113.10205 132.7484C113.56806 130.64138 111.20986 129.06635 109.64078 128.44281 107.08675 127.42786 99.3004 125.72681 97.29926 126.90848 95.728488 127.83602 95.55422 129.33565 96.68942 130.66254L97.54506 131.45119C97.69233 131.77729 99.24272 137.71224 99.39098 140.97597ZM123.800029 94.42893C122.090259 92.09917 119.73692 90.408649 117.069087 89.32586 110.16091 86.95575 102.93859 85.62677 95.63933 85.38256 92.55996 84.96241 89.43232 85.0543 86.38292 85.65451L79.757198 85.92646C75.14234 86.30883 70.58917 87.237628 66.19322 88.69336 66.16275 88.708019 66.12662 88.74594 66.12942 88.77282 66.135868 88.83475 66.11879 88.95369 66.068637 88.96812L65.83906 88.99785 65.265727 88.98716 63.931936 89.32052 60.052717 91.093547C58.99687 91.705829 57.315519 93.59842 56.84865 94.60585L56.91411 95.05917 65.18652 125.7674 74.93453 122.368007H75.920848V122.232028L88.25494 121.05675 97.753528 121.2802 103.59972 122.23191C104.04297 122.31786 105.48004 122.64394 105.72207 122.85065L106.532909 123.1379 108.34758 123.517078C110.1563 124.01977 111.93204 124.6344 113.66452 125.357418L113.71039 125.39786 113.72433 125.450038V125.631427H114.3466C114.62355 124.74711 123.814228 95.456539 123.936328 94.836849L123.800029 94.42893ZM39.51749 38.878797C39.546354 38.878797 39.616586 38.87805 39.64054 38.881868 39.661287 38.899538 39.660356 38.89467 39.668867 38.93037 39.80459 39.499567 39.80421 39.941587 40.306909 40.30702 41.2419 40.986707 42.547979 41.566118 43.77077 41.326364 44.28543 41.194478 44.76946 40.963548 45.19579 40.646486L47.88715 38.334894C50.97808 36.49936 72.2289 33.40996 77.013217 32.919946 87.64821 31.8307 103.91655 32.97187 112.79091 35.955316L122.94588 40.12037C125.12965 41.222867 129.25975 44.95333 129.80818 46.331705 129.95204 46.69323 129.76956 46.760457 130.21474 46.7654L124.11382 70.681697 124.182849 71.61146C124.31127 71.90193 124.482219 72.17167 124.69006 72.4118 125.84669 73.748058 127.86744 73.89356 129.20354 72.73679 129.73465 72.15597 139.92035 46.932897 140.68306 44.619657 141.2209 42.60603 140.81439 40.45707 139.57823 38.7791 131.53787 27.503972 110.94555 23.751603 99.57058 23.377545H81.79361C74.173259 23.736735 66.60902 24.86841 59.217145 26.755179 52.54032 28.334864 46.3096 31.411004 40.995405 35.75135 40.55042 36.14248 40.073137 36.57191 39.51749 38.878797ZM98.52137 185.81093C98.78214 185.31166 98.68105 184.70005 98.273509 184.31127 96.55225 182.59453 91.76288 182.30852 89.27998 182.35097 87.15909 182.34506 85.05988 182.77777 83.11416 183.6219 82.29407 184.0762 80.70389 185.12546 82.16495 186.23235 85.16404 188.50446 94.51795 188.80718 97.65097 186.65572L98.52137 185.81093Z" fill="#ff7f00" fill-rule="evenodd"/>
</g>
</svg>
